/* XPM */
static char *result[] = {
/* columns rows colors chars-per-pixel */
"32 32 185 2 ",
"   c #024C02",
".  c #054F0B",
"X  c #11460F",
"o  c #035502",
"O  c #005B03",
"+  c #075906",
"@  c #0E5D0E",
"#  c #0D5615",
"$  c #175B17",
"%  c #016501",
"&  c #026E01",
"*  c #0A630B",
"=  c #086608",
"-  c #046B09",
";  c #037502",
":  c #0B7506",
">  c #057A02",
",  c #097B04",
"<  c #0C740A",
"1  c #0A770C",
"2  c #12710C",
"3  c #117D09",
"4  c #1E681F",
"5  c #0F7B10",
"6  c #22721E",
"7  c #416D3E",
"8  c #4D6E47",
"9  c #9E3A06",
"0  c #A52E01",
"q  c #A43401",
"w  c #AB3601",
"e  c #A53A02",
"r  c #AA3902",
"t  c #A5370A",
"y  c #B23308",
"u  c #984417",
"i  c #AF4404",
"p  c #AE4F02",
"a  c #B14C00",
"s  c #B54E0A",
"d  c #A75301",
"f  c #AC5202",
"g  c #A35800",
"h  c #B25400",
"j  c #9C4A21",
"k  c #A75021",
"l  c #AF5328",
"z  c #BA5A25",
"x  c #AE5133",
"c  c #BC5D3B",
"v  c #BB7E3D",
"b  c #C7590F",
"n  c #C55913",
"m  c #C56404",
"M  c #CB6503",
"N  c #C36C03",
"B  c #CE6804",
"V  c #CB660D",
"C  c #C26C08",
"Z  c #CD690B",
"A  c #D26B05",
"S  c #DD6E04",
"D  c #D3690A",
"F  c #D4720C",
"G  c #CA6710",
"H  c #D26611",
"J  c #D1691D",
"K  c #E17608",
"L  c #C35D26",
"P  c #D57F38",
"I  c #A06A52",
"U  c #AF7552",
"Y  c #9A6A64",
"T  c #897865",
"R  c #058203",
"E  c #098305",
"W  c #0C850C",
"Q  c #11880F",
"!  c #099407",
"~  c #11950E",
"^  c #188914",
"/  c #1B931B",
"(  c #15981A",
")  c #208E1C",
"_  c #08A019",
"`  c #2A8626",
"'  c #258C21",
"]  c #298728",
"[  c #26A92A",
"{  c #32A52E",
"}  c #31BB2B",
"|  c #39A736",
" . c #33AE35",
".. c #2EB631",
"X. c #31BC31",
"o. c #26C223",
"O. c #71B26A",
"+. c #73BF76",
"@. c #F48D02",
"#. c #FA8A03",
"$. c #F7890D",
"%. c #FB8A09",
"&. c #FD9108",
"*. c #FC8C14",
"=. c #F68F1C",
"-. c #FE8D1C",
";. c #FB9115",
":. c #F89515",
">. c #F2931E",
",. c #FA921B",
"<. c #D68E3E",
"1. c #FD8E25",
"2. c #F79423",
"3. c #F89626",
"4. c #F89828",
"5. c #E78839",
"6. c #FEA22C",
"7. c #ECA539",
"8. c #FDA335",
"9. c #F6A73D",
"0. c #FDA43B",
"q. c #F5A93C",
"w. c #FCA83B",
"e. c #EFAD47",
"r. c #F6A746",
"t. c #FAA542",
"y. c #F9AC58",
"u. c #F7B558",
"i. c #D2976B",
"p. c #CFA76E",
"a. c #CBA67E",
"s. c #FAB865",
"d. c #FDBF6D",
"f. c #FBBD74",
"g. c #FBBE7C",
"h. c #DCC64D",
"j. c #F9C17A",
"k. c #DAB79D",
"l. c #A2C1A1",
"z. c #D5C7B3",
"x. c #DDD0B6",
"c. c #ECC3AB",
"v. c #E4CDBA",
"b. c #D2C4C7",
"n. c #D6D1C0",
"m. c #DBD4C3",
"M. c #E4D6CE",
"N. c #EFDED7",
"B. c #F4D8D2",
"V. c #EBE3C4",
"C. c #F1E9C4",
"Z. c #E9EADD",
"A. c #F4E8DB",
"S. c #E7F1DD",
"D. c #F3FCDE",
"F. c #E6E6E6",
"G. c #EBE3E5",
"H. c #E7EEE7",
"J. c #ECE9E5",
"K. c #E3E6EA",
"L. c #E8E7EB",
"P. c #ECECEC",
"I. c #F1E5ED",
"U. c #F3ECED",
"Y. c #F9E8E8",
"T. c #E6F2E3",
"R. c #EBF2EB",
"E. c #F5F8E7",
"W. c #F5F4EE",
"Q. c #F1FAEB",
"!. c #FCFBEB",
"~. c #E8E6F2",
"^. c #ECECF5",
"/. c #ECEEFB",
"(. c #F4EDF6",
"). c #EAF3F5",
"_. c #EBF9F1",
"`. c #F3F3F3",
"'. c #FAF3F4",
"]. c #F4FAF5",
"[. c #FDFCF4",
"{. c #F5F5FA",
"}. c #FCF5FD",
"|. c #F5FBFC",
" X c #FCFCFC",
/* pixels */
" X`.L. X`.P. XP.^. XL.`. X`.`. XP. X XP.[. XK. X`.L. X XL. X`.P.",
"`.`. XP.[. XP. X[.^.[. XR. X`.`. X`.U. X`.P. X`.^.[.J.W. XP.`. X",
"`. XP.`.).`. X`.`.[.].`.`.`.{.].`.`.{.`.`. X`.`. X X7 @ 4 [.`.`.",
" X`.L. XP.`. XF.P. XP.^. XU. X XP. X X`.`. XP.`. XP.8 o * [.`.L.",
"`.]. XP.'. XW. X{.W. X X^. X XP. XR.P. X`.L. X`.U. X8 + * J.`. X",
" X`.L. XP.`. XL.`. XP.`. X`.`. XW.{. XU.}.}.L. X+.} , % 2 [.`.J.",
"`.{.[.L. X XL. X XL. X[.P. X`.P. X`.P. X~.I.{.L.O...E % = G.R. X",
"`.[.`. X`.`. X`.`.`.`.`.`.`.[.W._.`.[.).E : {  .^ > 1 > 3 O $ `.",
" X{.P. XP.). XU.`. XP.`. XP.{.!.S.].[.U.: < { | ^ , ; 3 > + # L.",
"L.`. XP.[. XL. X XR. X{.L. X{.Z.; > / ) o.X.W ; ! ! E & 6 J.R. X",
" X`.P. X`.L. XW.`. X`.H.}.^.}.}., ; ] ] } } W : ! ~ R ; 5  X XP.",
"P.`. XW. X XL. X XP. X|.z.v.x.k.3 3 ' ) [  .W : R Q ; % 5 J.{. X",
" X`.`.[.`.`.{.`.`.].}.(.*.,.,.=.` ] ( ( ' ` < ; ; : % . @ '.'.`.",
" X`.P. X^.P. XW.^.|.).I.,.*.*.%.^ / ( _ ] ` 2 - ; > = o $  XW.U.",
"P.`. X`. X XR.!.].V.1.*.r.9.j.d.p g % % % % o       * & ; o @  X",
" X{.L. XW.L. XR.T.C.;.*.r.q.f.j.f g - % % % o       - ; % O # K.",
"P.`. XH. X XP.B.-.2.7.w.j.j.#.#.%.@.N N q e v.~.L. XK.P.Q.  .  X",
" X`.{.`.|.'.`.M.;.>.w.0.g.j.#.%.%.#.B A r w n.'.`.`.`.{.{.  X `.",
"`.`.`. XE.x.i.v &.2.s.u.y.u.@.@.K K Z D e w x.`.`.`. X].P.l.l.U.",
"L.`. X/.{.N.C A -.>.g.f.8.q.%.%.A D D D t t m.).P. XP.P. XP.'. X",
" X'.P.Y.A.c.m M 2.3.f.s.6.6.*.$.V Z V H l L b. X XP. X X). X].P.",
"P.].}.<.A F -.3.q.8.0.0.#.%.A B f s e t Q.U. X`.`. XL.`. XU.`. X",
" X`.'.P D S ;.2.r.w.t.8.@.%.B B f h y t  XW.).`.`.`.R.`.U.[.`.`.",
" X`.I.t.*.4.w.6.@.#.#.$.M M f f q y E.K.{.|.W.`. X`. X X^. X XP.",
"L.D.!.e.;.3.0.6.#.%.%.#.H V f s 9 e H. X`.R. X`.`. XU.`. XP.`. X",
" Xh.7.7.6.4.m m a i 0 q 0 e e u G.A.].U. X XL. X`.F. X XP. X`.L.",
"Y.:.;.8.9.0.D G f d e r r r w 0 !.W.U. X`.P. X`.`.{.P.). XP.`. X",
"}.p.a.<.5.J b n i k T I I Y Y U Y. X X`.`. XU.`. XU. X[.`. X`.P.",
"|.}.H.j q q w r w c R.R. XU.'. XP. X X`.]. XL. X XP. X XR. X`.P.",
"`.`. Xx w w w w w z [. XU. X`.P. XR.P. X`.F. X`.`. XL.`. XP.`. X",
" X`.L.Q./.^. X^.{.^.U.`. X`.`. XP.[. XU. X XL. X XJ. X XP. X`.P.",
"`. X XP. X XL. X XL. X{.L. X).P. XP.L. X XP. X`.`. X`.`. XP.`. X"
};
