/* XPM */
static char *result[] = {
/* columns rows colors chars-per-pixel */
"32 32 232 2 ",
"   c #767700",
".  c #777801",
"X  c #787901",
"o  c #787A00",
"O  c #7A7A00",
"+  c #7A7B03",
"@  c #7E7E00",
"#  c #777215",
"$  c #828301",
"%  c #848801",
"&  c #878900",
"*  c #848B00",
"=  c #878902",
"-  c #838905",
";  c #888B01",
":  c #898D00",
">  c #8A8D00",
",  c #898E00",
"<  c #8B9000",
"1  c #8C9100",
"2  c #8A9701",
"3  c #8E9501",
"4  c #8F9502",
"5  c #909402",
"6  c #909903",
"7  c #939902",
"8  c #949A00",
"9  c #969B01",
"0  c #919D00",
"q  c #939C02",
"w  c #949D01",
"e  c #979C03",
"r  c #929A04",
"t  c #959B04",
"y  c #939E04",
"u  c #979F06",
"i  c #898C1D",
"p  c #8F941D",
"a  c #989C11",
"s  c #94A301",
"d  c #96A103",
"f  c #99A100",
"g  c #98A301",
"h  c #9BA203",
"j  c #9AA501",
"k  c #9AA402",
"l  c #9AA403",
"z  c #9BA503",
"x  c #9CA401",
"c  c #9DA501",
"v  c #9EA601",
"b  c #9DA503",
"n  c #9EA403",
"m  c #9CA703",
"M  c #9AA107",
"N  c #9BA206",
"B  c #9CA305",
"V  c #9AA504",
"C  c #9BA504",
"Z  c #9CA605",
"A  c #9FA704",
"S  c #9DA707",
"D  c #9EAA00",
"F  c #9FAB01",
"G  c #9DA802",
"H  c #9CA903",
"J  c #9EA903",
"K  c #9EAA02",
"L  c #9FAB03",
"P  c #9FAA04",
"I  c #9FAB04",
"U  c #9EAA06",
"Y  c #9FAA06",
"T  c #9EAA07",
"R  c #9FAC07",
"E  c #9BA40A",
"W  c #9DA709",
"Q  c #9CA50B",
"!  c #99A10D",
"~  c #9AA30E",
"^  c #9DA60C",
"/  c #9FA909",
"(  c #9FAA08",
")  c #9FAB08",
"_  c #9FA80F",
"`  c #A0A900",
"'  c #A2AE02",
"]  c #A1A904",
"[  c #A0A805",
"{  c #A0A905",
"}  c #A1A905",
"|  c #A0AB04",
" . c #A0AB05",
".. c #A1A906",
"X. c #A0AB07",
"o. c #A0AC04",
"O. c #A0AC05",
"+. c #A1AC05",
"@. c #A1AD05",
"#. c #A3AC05",
"$. c #A3AF05",
"%. c #A1AC06",
"&. c #A2AD06",
"*. c #A2AE06",
"=. c #A4AD07",
"-. c #A6AF06",
";. c #A0AA0B",
":. c #A3AB0A",
">. c #A2AC09",
",. c #A2AD09",
"<. c #A3AE08",
"1. c #A3AE09",
"2. c #A2AC0A",
"3. c #A2AD0A",
"4. c #A2AC0B",
"5. c #A3AD0B",
"6. c #A3AE0A",
"7. c #A5AD08",
"8. c #A4AC09",
"9. c #A4AF09",
"0. c #A4AF0B",
"q. c #A1AB0D",
"w. c #A3AD0C",
"e. c #A4AE0D",
"r. c #A5B105",
"t. c #A7B104",
"y. c #A4B006",
"u. c #A8B106",
"i. c #A9B207",
"p. c #A8B505",
"a. c #AAB707",
"s. c #A2B208",
"d. c #A5B00A",
"f. c #A6B10A",
"g. c #A7B30A",
"h. c #A7B20D",
"j. c #A9B20B",
"k. c #AAB30A",
"l. c #A8B408",
"z. c #AAB60B",
"x. c #AAB50C",
"c. c #A9B70C",
"v. c #AAB60C",
"b. c #ACB50C",
"n. c #ADB60F",
"m. c #ABB808",
"M. c #ADB90D",
"N. c #ADBA0C",
"B. c #ACB80E",
"V. c #ADB90F",
"C. c #B1BB0C",
"Z. c #B0B90E",
"A. c #A6B013",
"S. c #A6B015",
"D. c #AAB711",
"F. c #AAB512",
"G. c #ACB510",
"H. c #ACB711",
"J. c #A8B116",
"K. c #AABA11",
"L. c #AEB913",
"P. c #AEBA12",
"I. c #AFBB12",
"U. c #AEBB15",
"Y. c #ABB41A",
"T. c #ADB718",
"R. c #B2BE10",
"E. c #B1BC17",
"W. c #B0BC1B",
"Q. c #B1BB1D",
"!. c #8C853B",
"~. c #AFBA2E",
"^. c #B3BE2D",
"/. c #AFAD3B",
"(. c #A8AB3D",
"). c #B4C111",
"_. c #B6C316",
"`. c #B7C31A",
"'. c #B7C71D",
"]. c #B7C41F",
"[. c #B7C324",
"{. c #BCC723",
"}. c #B8C224",
"|. c #BAC625",
" X c #B8C426",
".X c #B9C825",
"XX c #BBCC26",
"oX c #B5C328",
"OX c #B7C528",
"+X c #B4C42B",
"@X c #B5C12F",
"#X c #B9C32C",
"$X c #B8C52D",
"%X c #B8C52F",
"&X c #B5C233",
"*X c #B9C630",
"=X c #B9C632",
"-X c #BFC933",
";X c #B7C23F",
":X c #BEC93A",
">X c #BFCC3B",
",X c #C0CE23",
"<X c #C7D527",
"1X c #C7D42A",
"2X c #C5D42F",
"3X c #CDDA30",
"4X c #C7D538",
"5X c #C7D43A",
"6X c #C5D13F",
"7X c #CBD93E",
"8X c #D0DA3B",
"9X c #BCC843",
"0X c #BDCA43",
"qX c #BCC54E",
"wX c #BFC953",
"eX c #B9C268",
"rX c #C5C746",
"tX c #CCD541",
"yX c #C8D347",
"uX c #C7D24A",
"iX c #CBD64B",
"pX c #C8D24D",
"aX c #CBD24D",
"sX c #C9D452",
"dX c #CBD453",
"fX c #CAD553",
"gX c #CCD556",
"hX c #D3DB62",
"jX c #D8DD6B",
"kX c #D8E065",
"lX c #DAE36D",
"zX c None",
/* pixels */
"zXzXzXzXzXzXzXzXzXzXzXzXzXzXzXzXzXzXzXzXzXzXzXzXzXzXzXzXzXzXzXzX",
"zXzXzXzXzXzXzXzXzXzXzXzXzXzX!.rX/.zXzXzXzXzXzXzXzXzXzXzXzXzXzXzX",
"zXzXzXzXzXzXzXzXzXzXzXzXzXW.+X-XXX4XzXzXzXzXzXzXzXzXzXzXzXzXzXzX",
"zXzXzXzXzXzXzXzXzXzXzXzXp $.~.F.U.:XiXzXzXzXzXzXzXzXzXzXzXzXzXzX",
"zXzXzXzXzXzXzXzXzXzXzXzX* 3 u w S J.}.zXzXzXzXzXzXzXzXzXzXzXzXzX",
"zXzXzXzXzXzXzXzXzXzXzXzX@ Y.H.E.5.B.Q.zXzXzXzXzXzXzXzXzXzXzXzXzX",
"zXzXzXzXzXzXzXzXzXzXzXzX. 9 H t u.G A.zXzXzXzXzXzXzXzXzXzXzXzXzX",
"zXzXzXzXzXzXzXzXzXzXzXzXzX; q.y ( =.j zXzXzXzXzXzXzXzXzXzXzXzXzX",
"zXzXzXzXzXzXzXzXzXzXzXzXzX+ f S.t.V zXzXzXzXzXzXzXzXzXzXzXzXzXzX",
"zXzXzXzXzXzXzXzXzXzXzXzXzXzX& < 8 d zXzXzXzXzXzXzXzXzXzXzXzXzXzX",
"zXzXzXzXzXzXzXzXzXzXzXzXzXzX- % 6 K.zXzXzXzXzXzXzXzXzXzXzXzXzXzX",
"zXzXzXzXzXzXzXzXzXzXzXzXzXK r.;X@X>XzXzXzXzXzXzXzXzXzXzXzXzXzXzX",
"zXzXzXzXzXzXzXzXzXzXzXzXoXR.[.gXuX.X1XzXzXzXzXzXzXzXzXzXzXzXzXzX",
"zXzXzXzXzXzXzXzXzX^. X=X_.aXjXhXhXkX,X<X3XtXzXzXzXzXzXzXzXzXzXzX",
"zXzXzXzXzXzXzX(.'.p.x.C.OXlXfXpXdX*XyXsX2X8X5XeXzXzXzXzXzXzXzXzX",
"zXzXzXzXzXzXzXE T.,.%.a.&X%X$X#X9XqXwX0X7X].|.6XzXzXzXzXzXzXzXzX",
"zXzXzXzXzXzXzXr k q M g.n.V.N.M.P.P.I.).{.D.m.`.zXzXzXzXzXzXzXzX",
"zXzXzXzXzXzXzX1 7 4 : O.1.k.b.z.v.l.i.Z.L.) #.G.zXzXzXzXzXzXzXzX",
"zXzXzXzXzXzXzXzXzXzX# b K F ' -.k.y.$.j.:.zXzXzXzXzXzXzXzXzXzXzX",
"zXzXzXzXzXzXzXzXzXzXzXe J L @.*.@.+.P 9.a zXzXzXzXzXzXzXzXzXzXzX",
"zXzXzXzXzXzXzXzXzXzXzX5 Z ` R g l I Y <.i zXzXzXzXzXzXzXzXzXzXzX",
"zXzXzXzXzXzXzXzXzXzXzX, v W K P P | &.0.zXzXzXzXzXzXzXzXzXzXzXzX",
"zXzXzXzXzXzXzXzXzXzXzX> v 2 } U P s 8.9.zXzXzXzXzXzXzXzXzXzXzXzX",
"zXzXzXzXzXzXzXzXzXzXzX= c 0 P P { D d.h.zXzXzXzXzXzXzXzXzXzXzXzX",
"zXzXzXzXzXzXzXzXzXzXzX$ x q P P } G f.4.zXzXzXzXzXzXzXzXzXzXzXzX",
"zXzXzXzXzXzXzXzXzXzXzXO h s.o. .@.c.7._ zXzXzXzXzXzXzXzXzXzXzXzX",
"zXzXzXzXzXzXzXzXzXzXzXo N A ] %.6.,.;.^ zXzXzXzXzXzXzXzXzXzXzXzX",
"zXzXzXzXzXzXzXzXzXzXzXX z m Y ..,.3.>.Q zXzXzXzXzXzXzXzXzXzXzXzX",
"zXzXzXzXzXzXzXzXzXzXzX  Z n T X.%.2.w.~ zXzXzXzXzXzXzXzXzXzXzXzX",
"zXzXzXzXzXzXzXzXzXzXzX. C B [ / X.4.e.! zXzXzXzXzXzXzXzXzXzXzXzX",
"zXzXzXzXzXzXzXzXzXzXzXzXzXzXzXzXzXzXzXzXzXzXzXzXzXzXzXzXzXzXzXzX",
"zXzXzXzXzXzXzXzXzXzXzXzXzXzXzXzXzXzXzXzXzXzXzXzXzXzXzXzXzXzXzXzX"
};
