/* XPM */
static char *result[] = {
/* columns rows colors chars-per-pixel */
"32 32 212 2 ",
"   c #050A0A",
".  c #040815",
"X  c #3A0209",
"o  c #2F130D",
"O  c #0B290E",
"+  c #392307",
"@  c #3D2611",
"#  c #4C0304",
"$  c #490A0B",
"%  c #530306",
"&  c #5D0307",
"*  c #54040B",
"=  c #5B030D",
"-  c #5B0A0D",
";  c #431C0B",
":  c #4B1C0D",
">  c #541C15",
",  c #610307",
"<  c #640409",
"1  c #6A030A",
"2  c #6B090E",
"3  c #720A0D",
"4  c #6C0D13",
"5  c #730C14",
"6  c #750714",
"7  c #6E1414",
"8  c #44280D",
"9  c #472712",
"0  c #4E361A",
"q  c #4E381B",
"w  c #4C3617",
"e  c #51371B",
"r  c #523A1D",
"t  c #562B12",
"y  c #68271A",
"u  c #663219",
"i  c #7A3917",
"p  c #7E1E21",
"a  c #533B31",
"s  c #6B3828",
"d  c #733F2A",
"f  c #773E21",
"g  c #6D3D32",
"h  c #5E4124",
"j  c #734128",
"k  c #764B3B",
"l  c #785839",
"z  c #695135",
"x  c #7D603F",
"c  c #193445",
"v  c #375864",
"b  c #2E7679",
"n  c #5D4F45",
"m  c #784E40",
"M  c #785142",
"N  c #67554C",
"B  c #626A5F",
"V  c #55716F",
"C  c #8A0816",
"Z  c #930716",
"A  c #940916",
"S  c #930719",
"D  c #950819",
"F  c #9A0816",
"G  c #8B1218",
"H  c #83201F",
"J  c #9A1323",
"K  c #903931",
"L  c #864729",
"P  c #8B4737",
"I  c #905233",
"U  c #986337",
"Y  c #B3753A",
"T  c #B57A3E",
"R  c #BA7C3E",
"E  c #AA6633",
"W  c #DE5B3E",
"Q  c #E55F3A",
"!  c #983A42",
"~  c #825748",
"^  c #8D4B4A",
"/  c #A25043",
"(  c #8B694B",
")  c #97684A",
"_  c #8A6E59",
"`  c #967457",
"'  c #AF714A",
"]  c #BB7642",
"[  c #B57C44",
"{  c #BA7C42",
"}  c #B1734B",
"|  c #BD7C4F",
" . c #B87951",
".. c #92706B",
"X. c #A07A72",
"o. c #D75846",
"O. c #E35A44",
"+. c #EE5E4D",
"@. c #C17C45",
"#. c #CB6D4D",
"$. c #E56344",
"%. c #688A33",
"&. c #78BA2A",
"*. c #77AC3B",
"=. c #7BB935",
"-. c #71C335",
";. c #7BBC46",
":. c #7BA140",
">. c #70C441",
",. c #83BA2D",
"<. c #87A539",
"1. c #85BC39",
"2. c #86C036",
"3. c #BC8145",
"4. c #BE814D",
"5. c #8AAB44",
"6. c #87B749",
"7. c #91B652",
"8. c #90BA4B",
"9. c #978875",
"0. c #A78876",
"q. c #C38553",
"w. c #CB9759",
"e. c #D69266",
"r. c #83C545",
"t. c #90C456",
"y. c #367389",
"u. c #266D85",
"i. c #358D9B",
"p. c #478B8D",
"a. c #5A9494",
"s. c #4D8E96",
"d. c #6A9293",
"f. c #769994",
"g. c #69918A",
"h. c #76A498",
"j. c #5ABEBD",
"k. c #6CA2A4",
"l. c #70BECE",
"z. c #57C4C7",
"x. c #64C7D3",
"c. c #69CED4",
"v. c #5FCEE2",
"b. c #70CFEA",
"n. c #AD9386",
"m. c #8ABAAF",
"M. c #C6A98C",
"N. c #CAB48F",
"B. c #C2BB8E",
"V. c #CBB98F",
"C. c #C7B788",
"Z. c #CBB593",
"A. c #CCBA94",
"S. c #CCB598",
"D. c #CCBB9A",
"F. c #C5B996",
"G. c #D1B99B",
"H. c #D5B793",
"J. c #D4AF8E",
"K. c #E0B495",
"L. c #CCC097",
"P. c #CFC0A7",
"I. c #E0CFB3",
"U. c #EBDABB",
"Y. c #DDE0BB",
"T. c #EBE1BD",
"R. c #F2E4BE",
"E. c #9BDCCF",
"W. c #91DAD4",
"Q. c #AACBC8",
"!. c #B3D3CF",
"~. c #B0C7C7",
"^. c #9AE7DB",
"/. c #B2E4D8",
"(. c #8AE6F3",
"). c #93EDE9",
"_. c #B5EEEB",
"`. c #AFF2EC",
"'. c #B3F2ED",
"]. c #B8F6E8",
"[. c #B6F5F2",
"{. c #A3E6E2",
"}. c #EBDDC3",
"|. c #E8D6C9",
" X c #F7D3C1",
".X c #EDE0C1",
"XX c #FCE4C7",
"oX c #F6EAC4",
"OX c #FCEDCC",
"+X c #F8E5C9",
"@X c #FCF2CC",
"#X c #FEECD3",
"$X c #FFECDC",
"%X c #F6F3D4",
"&X c #FDF3D3",
"*X c #FFFAD3",
"=X c #F7F2DB",
"-X c #FEF3DB",
";X c #FFF8D9",
":X c #ECF9DF",
">X c #C2F5ED",
",X c #FDF5EE",
"<X c #FCFDEF",
"1X c #F5F5EA",
"2X c #EBFBFD",
"3X c #FEF6F4",
"4X c #FDFCF3",
"5X c #FDF5FD",
"6X c #F4FDFE",
"7X c #FDFCFC",
"8X c #F7F3F4",
"9X c None",
/* pixels */
"9X9X9X9X9X9X5X6X2X6X6X6X5X7X6X6X6X6X6X6X2X1X6X6X6X6X9X9X9X9X9X9X",
"9X9X9X9X9X9X.   {.>X[.k.`.[.[.'.[.W.'.[.^._._._.'.^.2X9X9X9X9X9X",
"9X9X9X9X9X9X'.    O Q.!.m.g.`.Q.!.E.Q./.^.].>X[.f.E.6X9X9X9X9X9X",
"9X9X9X9X9X9X-.O   -.-.6.;.5.,.6.%.2.<.*.=.1.&.&.=.,.<X9X9X9X9X9X",
"9X9X9X9X9X9Xr.7.5.:.7.6.5.5.6.6.1.8.r.;.7.r.;.r.t.%.9X9X9X9X9X9X",
"9X9X9X9X9X9X9X9Xo o 9X9Xo a 5X5X5Xn 3X,X..7X9X9XN o 9X9X9X9X9X9X",
"9X9X9Xp Z Z F F F F D Z C Z Z S F Z C 1 6 6 4 6 3 3 4 - 9X9X9X9X",
"9X9X9XZ C Z S S F Z S D D S D C 1 < , & = = & , 1 , & % 9X9X9X9X",
"9X9X9X6 S S S S D D J G C 5 3 2 2 2 3 1 1 1 1 1 2 % % & 9X9X9X9X",
"9X9X9X1 & , , , , < < < , < , & & , , , & , & % % * * - 9X9X9X9X",
"9X9X9X1 < 1 1 1 & = & & & & & , < 1 < # # % # # % % # % $ 9X9X9X",
"9X9XX % * * % * = < - - = = - = = = = % * = = = % * * % * 9X9X9X",
"9X9X7X3.] R R R { [ R { 3.R R R R T 3.3.3.R R R { [ T e.9X9X9X9X",
"9X9X1X@.Y [ | R { R [ Y | { Y 3.{ T { [ { { R R [ 3.T w.U.9X9X9X",
"9X9X|.] { j ~ f T { q.I M t #.w.Y I k s E 4.[ 4.) J.L ] y 9X9X9X",
"9X9XC [ L G.H.V.I [ E A.A.N.s E q.M.N.V.k 4.[ g D.S.F.T y 9X9X9X",
"9X9X< q.( C.J.H.n.Y j K.C.V.H.R ) C.N.N.A.[ [ B.J.Z.B.i y 9X9X9X",
"9X9X& { S.U.OX}.H.R J.P.OX&XH.4.u V.@ + Z.j } S.%X=XY.S.y > 7X9X",
"9X9X5Xq.C.! K / V.T S.o.K ^ L.U H.+ t r h ; L  XI K o.V.9X9X9X9X",
"9X9X7X@.G.a.z.m.I.T Z.o.c.c.OXu C.h q w z M.$ XXz.p.o.D.9X9X9X9X",
"9X9X9X} %Xg.(.k.#X{ A.o.).x.OXu V.e q e 0 G.m XXj.b $.P.|.9X9X9X",
"9X9X9X} oXV u.V #X] R.+.y.i.OXd A.w q q r A.M XXp.c o.I..X9X9X9X",
"9X9X9X .OXd.(.f.#XT oXo.c.l.&Xj S.w 0 0 0 L.M XXz.p.$..X|.9X9X9X",
"9X9X9X} #Xa.b.h.#XR oXW ).v.#Xj G.0 q e r B.M oXc.y.+.+X|.9X9X9X",
"9X9X9X' -XV s.B #XY XXo.s.k.-Xs S.0 q q q B.k oXa.v W T.|.9X9X9X",
"9X9X9X' -X4 7 H #XY oXO.7 4 &Xs G.0 q q q B.m oX7 G Q }.|.9X9X9X",
"9X9X9X .-X@X=X%X#XY oX:X$X@X%Xj G.0 q q q V.m %X;X=X@XT.|.9X9X9X",
"9X9X9X} -X#X-X$X#XT oXOX#X%X#Xj G.0 q q r F.m #X@X@X#X.X|.7X9X9X",
"9X9X9X .1X&XOX@X#XR oX#X&X-X&Xj S.q q q r V.M -X*X*X;XR.|.7X9X9X",
"9.9.n.I 8 ; X.; ; L ; ; @ 9 : > 0.9 8 9 9 n.g _ ( 0.` ..` 9.9.0.",
"5X5X7X3.@X;X-X;X;Xi &X;X-X$X;XL #X;X*X*X*XOXj M ( l ( l |.4X6X7X",
"9X9X5X7X3X3X3X3X4X4X,X,X7X3X4X4X7X9X5X5X9X9X<X4X<X-X,X3X4X9X9X9X"
};
