/* XPM */
static char *result[] = {
/* columns rows colors chars-per-pixel */
"32 32 53 1 ",
"  c black",
". c #020202",
"X c #0C0C0C",
"o c #0E0E0E",
"O c gray6",
"+ c #101010",
"@ c #313131",
"# c gray20",
"$ c #373739",
"% c gray22",
"& c #3B3B3D",
"* c gray24",
"= c #3E3E3E",
"- c #4E4E4E",
"; c #5D5D5D",
": c #767676",
"> c #DE001A",
", c #DF001A",
"< c #DE001B",
"1 c #DF011B",
"2 c #DC011C",
"3 c #DD031C",
"4 c #E20110",
"5 c #E10210",
"6 c #E20211",
"7 c #E0001B",
"8 c #E2001B",
"9 c #E3001B",
"0 c #E70C1F",
"q c #E50F27",
"w c #848486",
"e c #868686",
"r c #8C8C8E",
"t c gray60",
"y c #9A9A9A",
"u c #B2B2B2",
"i c #F4BABF",
"p c #BEBEC0",
"a c #F6BAC0",
"s c #F6BAC1",
"d c #C8C8CA",
"f c #DDDDDD",
"g c #F6F5F3",
"h c #FAFAF8",
"j c gray98",
"k c #FBFBFB",
"l c gray99",
"z c #FDFDFD",
"x c #FEFEFC",
"c c #FFFDFE",
"v c #FEFEFE",
"b c white",
"n c None",
/* pixels */
"nnnnnnnnnnnnnnnnnnnnnnnnnnnnnnnn",
"nnnnnnnnnnnnnnnnnnnnnnnnnnnnnnnn",
"nnnnnnnnnnnnnnnnnnnnnnnnnnnnnnnn",
"nnnnnnnnnnnnnnnnnnnnnnnnnnnnnnnn",
"nnnnnnnnnnnnnnnnnnnnnnnnnnnnnnnn",
"nnnnnnnnnlccccgccccxccccvhnnnnnn",
"nnnnn69,29999q9999><9999q99nnnnn",
"nnnnn49nnnnnnnnnnnnnnnnnnn9nnnnn",
"nnnnn43nnnnnnnnnnlvbbbnnnn9nnnnn",
"nnnnn51nn  vb b=  b z .bnn9nnnnn",
"nnnnn49nb e b v*j b  l bnn9nnnnn",
"nnnnn49nb z ;zl%bvy  :vnnn9nnnnn",
"nnnnn49nb+z  b.%f b b  bnn9nnnnn",
"nnnnn49nv  v  X%  bObbznnn9nnnnn",
"nnnnn49nk nb o @b k  . znn9nnnnn",
"nnnnn49nn nbob #nut b -knn9nnnnn",
"nnnnn49nnnnnnnbnnnnnnnnnnnnnnnnn",
"nnnnn58snnnnsssssssssainnn9nnnnn",
"nnnnn0999999999899999999nn7nnnnn",
"nnnnnnnnnnnnnnnnnnnnnnnnnnnnnnnn",
"nnnnnnnnnnnnnnn&$nnnnnnnnnnnnnnn",
"nnnnnnnnnnnnnnnrwnnnnnnnnnnnnnnn",
"nnnnnnnnnnnnnnnnnnnnnnnnnnnnnnnn",
"nnnnnnnnnnnnnnnnnnnnnnnnnnnnnnnn",
"nnnnnnnnnnnnnnnnnnnnnnnnnnnnnnnn",
"nnnnnnnnnnnnnnndnnnnnnnnnnnnnnnn",
"nnnnnnnnnnnnnnndpnnnnnnnnnnnnnnn",
"nnnnnnnnnnnnnnndpnnnnnnnnnnnnnnn",
"nnnnnnnnnnnnnnndpnnnnnnnnnnnnnnn",
"nnnnnnnnnnnnnnndpnnnnnnnnnnnnnnn",
"nnnnnnnnnnnnnnndpnnnnnnnnnnnnnnn",
"nnnnnnnnnnnnnnnnnnnnnnnnnnnnnnnn"
};
