/* XPM */
static char *result[] = {
/* columns rows colors chars-per-pixel */
"32 32 184 2 ",
"   c #03254E",
".  c #032452",
"X  c #042B57",
"o  c #032758",
"O  c #042C5B",
"+  c #05335D",
"@  c #062E62",
"#  c #052D6E",
"$  c #063263",
"%  c #093465",
"&  c #06346B",
"*  c #09376C",
"=  c #07396A",
"-  c #083D6B",
";  c #063474",
":  c #0A3B74",
">  c #073979",
",  c #093D7B",
"<  c #113974",
"1  c #0A4274",
"2  c #0B427C",
"3  c #073485",
"4  c #083780",
"5  c #073982",
"6  c #083D83",
"7  c #0A3E8B",
"8  c #0B3F94",
"9  c #0B4384",
"0  c #0C4A85",
"q  c #0C458B",
"w  c #0E4A8C",
"e  c #124485",
"r  c #154B8B",
"t  c #1A588D",
"y  c #0C4593",
"u  c #0E4B94",
"i  c #0C4798",
"p  c #0E4B9B",
"a  c #124C95",
"s  c #114E9C",
"d  c #0F519E",
"f  c #135293",
"g  c #1A5496",
"h  c #13529C",
"j  c #1A549C",
"k  c #195B9E",
"l  c #0E4DA3",
"z  c #0F4EAA",
"x  c #124EA1",
"c  c #114FA9",
"v  c #0F51A4",
"b  c #0F50AB",
"n  c #1253A4",
"m  c #1A55A3",
"M  c #1358A4",
"N  c #1A5AA6",
"B  c #1254AB",
"V  c #1B54AA",
"C  c #145AAC",
"Z  c #1A5DAA",
"A  c #1256B2",
"S  c #145BB3",
"D  c #195DB4",
"F  c #1356BA",
"G  c #145CBB",
"H  c #1A5CBD",
"J  c #1563AC",
"K  c #1661B5",
"L  c #1A63B4",
"P  c #1B69B1",
"I  c #1663BC",
"U  c #1A64BB",
"Y  c #1C6ABC",
"T  c #2060AB",
"R  c #216BB3",
"E  c #256DBC",
"W  c #2D6CBC",
"Q  c #2270BE",
"!  c #2D75BE",
"~  c #155EC2",
"^  c #1664C3",
"/  c #1B66C3",
"(  c #1669C5",
")  c #1A6BC5",
"_  c #1666CA",
"`  c #1966CB",
"'  c #176CCA",
"]  c #1A6CCB",
"[  c #1770CA",
"{  c #1B72CC",
"}  c #1B7DCA",
"|  c #1767D1",
" . c #176BD2",
".. c #196ED3",
"X. c #196DDB",
"o. c #1B73D3",
"O. c #1D7BD3",
"+. c #1B74DB",
"@. c #1D7BDC",
"#. c #206CC5",
"$. c #236CCC",
"%. c #2573C7",
"&. c #2479C2",
"*. c #2274CC",
"=. c #2D7ECC",
"-. c #3678C8",
";. c #226DD2",
":. c #2176D2",
">. c #227BD4",
",. c #287CD1",
"<. c #2076DC",
"1. c #227DDD",
"2. c #297FDC",
"3. c #1A76E1",
"4. c #1C7CE2",
"5. c #207EE3",
"6. c #297BE1",
"7. c #227CEB",
"8. c #1F86CE",
"9. c #1F8AD3",
"0. c #1D80DB",
"q. c #2880CA",
"w. c #2483D5",
"e. c #2E8ED7",
"r. c #2483DC",
"t. c #2885DD",
"y. c #248BDE",
"u. c #3384D0",
"i. c #3289D6",
"p. c #3486D9",
"a. c #2B97D6",
"s. c #2791DC",
"d. c #2B96DD",
"f. c #3293D2",
"g. c #319DDF",
"h. c #1E83E4",
"j. c #1E87E9",
"k. c #2383E3",
"l. c #2984E3",
"z. c #248CE5",
"x. c #2B8BE3",
"c. c #2284EC",
"v. c #2986EA",
"b. c #258BEA",
"n. c #2B8DEC",
"m. c #338DE4",
"M. c #2694E3",
"N. c #2D94E5",
"B. c #2B93EB",
"V. c #2D9BEF",
"C. c #3091E3",
"Z. c #3895E0",
"A. c #3394ED",
"S. c #3F95E8",
"D. c #359FED",
"F. c #3A99EB",
"G. c #2693F4",
"H. c #2B93F2",
"J. c #2699F0",
"K. c #2999F2",
"L. c #2B95FA",
"P. c #3395F7",
"I. c #3C91F2",
"U. c #339AF5",
"Y. c #3C9CF7",
"T. c #3F9EFB",
"R. c #36A0EB",
"E. c #35A1F2",
"W. c #39A4F2",
"Q. c #3DA3FA",
"!. c #4099F4",
"~. c #40A3E2",
"^. c #52B7ED",
"/. c #45A3F6",
"(. c #50AFF8",
"). c #4AB1F6",
"_. c #4EBDF7",
"`. c #43B3F9",
"'. c #44B8FA",
"]. c #54B4F6",
"[. c #6ABFE8",
"{. c #67C2FC",
"}. c #76E0FD",
"|. c #84D4FD",
/* pixels */
"y > , + 1 q , q 0 s w.^ { C ( S S s Z h C i r A { h C ' o.w = S ",
", O $ . C # & j > 3 Y 6 y 6 >.^ ( *.B q W.G G A.y x O.a C 2 6 f ",
"k 9 $ 2 / 6 f B L.D g M l f o._ I N q S `.l.A n ` U U.+.:.a 9 m ",
"I o.h e ^ #.$.o.U.s K [ >.` o.@.' f I z.B.A 9 M l B ^ B q @ & a ",
"G.1.: @.v.S z.C U o.^ 3.A *.S G ] l +.j.o.a U ` [ ) B h * O % , ",
"C n L m l h ^ v ` @.+.1.K L G 4.3._ ..k.7 V J Z.C y B q $   @ / ",
"u j C ' / A o.( [ G o.r.U A ) y.} l.M l q #.S C q x $.5 m q x u ",
"-.: w M B y R B B d S ` o.( G n.N.C n ].z./.v l ) >.v h _ $.q < ",
"e @ ( Z Z * $ i.p.h l G (.o.( s.e.I q.P o.L F B ~ G A b h.T.a 9 ",
"2 - n > u.$ 9 I K 4.M 1.] G v O._ O.O.G 3.` B.) D M G r.{ M.v y ",
"Z h s 2 g f ( ~ u *.r.@.+.x.O...1.L.4.o.I ~ ).| ` h l @.I K h U ",
"w.G s w 2 U.+.o.I H.M.@.^ f.| R.j.s. .I [ U.n.+.~ p ` >.S 9 f f ",
"o.h q q _ a.O._ o.O.{.) @.t.|.d.` K.N.' ( J.&.n.' ) t.].p u I.W ",
"n.] ' j >.>.} G :.<.`.G C ' q.[ B h.s.( ( @.[.| 1.B S ) C.B { $ ",
"U y M o.^ k.o.O.o.` k.' v A j.S C S A.+.o.c <.l I n h L H D E ; ",
"N h k.M P.^ I ^ { x.S.+./.C 0.2.l n 8.r.) h 4.B ) n A I D ^ x v.",
"*.y b v I z B H ~ b.s _ @.o.M M n.M.~ Q.[ p.v.1.) / C n.D Y.p M ",
"& ! P C Z n n G p k.v [ 1.z.B B B @.G v ) r.K k.>.{ r.^ ) B y B ",
"% *.B U.K L v b.I {.@.^ ' M.+.S ' 9.) K ` _.+.o.) I M.r.M *.{ G.",
"g !.r p (.o.) K n.{ z.' ' g.Q.+.j.}.s.o.o.^.+.:.+.r.~.) q q S x.",
"p g a I o.~ p | o.y.E.l.G ..J.j.E.[ @.` X.m.h.C ..O.F.q s M ^ @.",
"K h U I 4.n i ] o.E.^ ^ o.3.B.@.' r.l.o.1.y.@.i ( %.y e 6 F K M ",
"y h F.o.4.S B I ] G.) z.Z h.{ _ O.A G  .o.S <.x A a $ J * ^ : 9 ",
", 9 x.r.N ^ ^ ) n A ~ _ A >.] c.d._ o.U.F M p o.=.$ = L G U O : ",
", w Q ) a B o.K s l t.<.).d A j.H./ G o. .C d B c D y B G 7 * E ",
"y w 2 M q ` n 9 D U Y q S B @...6.+.C ( h.( I ^ X.*.M ' _ B t v ",
"J *   @ r i y l r.D M v U. .^ ..o.A ,.U 5.o.+./ K G G z l s p A ",
"7 % X - p y D o.` S i ' z.o.l | ~ K ] A 0. .:.^ G r.G /.%.; 7.L.",
"n $ @ q M ^ F b B 9 A V.@.[ i ( @.] ' k.1.D s W.o.>.{ ( 9 Z +.I ",
"n y q <.;.D.K ] B S l.'.U s B ` ..h.i b U N B B.( h 9 S : & q M ",
"s 6 9 x 0 / T i n.F A A.p ^ ) I ` <.i p 7 U 9 4 b 9 2 L o @ O y ",
"s 8 f { ) C q D F p c B h L B G A ..I m.~ h.S u b 9 y q X , 6 c "
};
