/* XPM */
static char *result[] = {
/* columns rows colors chars-per-pixel */
"32 32 18 1 ",
"  c black",
". c #010101",
"X c #020202",
"o c gray1",
"O c #040404",
"+ c gray2",
"@ c #060606",
"# c #070707",
"$ c gray3",
"% c #0B0B0B",
"& c #1B1B1B",
"* c #222222",
"= c gray15",
"- c gray66",
"; c #A9A9A9",
": c #CBCBCB",
"> c white",
", c None",
/* pixels */
",,,,,,,,,,,-X.X..XXO;:>,,,,,,,,,",
",,,,,,,,, o.         X$,,,,,,,,,",
",,,,,,,,               .X,,,,,,,",
",,,,,,                    ,,,,,,",
",,,,,@                    X,,,,,",
",,,,                       O,,,,",
",,,.                        +,,,",
",,*                          &,,",
",,                            ,,",
",                              ,",
",o                             ,",
",O                             ,",
".                              #",
"                               .",
"                                ",
"o                               ",
"                               .",
"O                              X",
"                               +",
"O                              o",
",.                             ,",
",o                             ,",
",                              ,",
",,                            ,,",
",,=                          &,,",
",,,                         O,,,",
",,,,.                      X,,,,",
",,,,,+                   .+,,,,,",
",,,,,,+.                 X,,,,,,",
",,,,,,,#.               +,,,,,,,",
",,,,,,,,,% .        . ,,,,,,,,,,",
",,,,,,,,,,,, X    .,,,,,,,,,,,,,"
};
