/* XPM */
static char *result[] = {
/* columns rows colors chars-per-pixel */
"32 32 46 1 ",
"  c #CECECE",
". c #D0D0D0",
"X c gray82",
"o c #D2D2D2",
"O c LightGray",
"+ c gray83",
"@ c #D5D5D5",
"# c gray84",
"$ c #D7D7D7",
"% c #D8D8D8",
"& c gray85",
"* c #DBDBD9",
"= c #DADADA",
"- c gray86",
"; c gainsboro",
": c #DDDDDD",
"> c gray87",
", c #DFDFDF",
"< c gray88",
"1 c #E1E1E1",
"2 c #E3E3E1",
"3 c #E2E2E2",
"4 c gray89",
"5 c #E4E4E4",
"6 c gray90",
"7 c #E7E7E5",
"8 c #E6E6E6",
"9 c #E7E7E7",
"0 c #E8E8E6",
"q c #E9E9E7",
"w c gray91",
"e c #E9E9E9",
"r c #EAEAE8",
"t c #EAEAEA",
"y c gray92",
"u c #ECECEC",
"i c gray93",
"p c #EEEEEE",
"a c #EFEFEF",
"s c gray94",
"d c #F1F1F1",
"f c gray95",
"g c #F3F3F3",
"h c #F4F4F4",
"j c gray96",
"k c #F6F6F6",
/* pixels */
"-;twpyu--$o$;;56e518wdyu;:@o+;;8",
"3ep:-;<,,3w3564-$&iu@--,<,3p3984",
"uhge9wytiyfussy896dfuw8iuiyjusdy",
"11asd6886pt9=-56tupsaue8858tp=-8",
"854e86:%;-w349481<51688&%;-p4496",
"#=wwy#=-$8tw99,;:=-88<+=#$titu9:",
"6<fyd6,33gayiuuwyw6dtu<411uaspuy",
"89y#@#u9eud66445>:ue%#%tyetp8613",
"44-=e<<<;i31aut8f%$%-i1>,:336apw",
"55<5-;65piita$#5>6516>8e6atiea%&",
"e9epw6sidghhk,,yetttyeeiusdhhd,,",
"ui-%4tw:=t6y55atuwy%#sw9-&99p>4i",
"831u9e&O35i=-yp6;;43y9s;#49w$<yt",
"w955p:-idy88@-w9t:-949%=ds448%-w",
"ee95y1,sgi53->9yi1,31e1,af4ww&>y",
"41<555t6&$45<typpp88,1tye&=p84t5",
"1,16p<,y9p3986y6yeu44u<>w9:3586y",
"te6puitw8eu6585y98e5upa6896p46w3",
"ttwsyp99949ywwwtwe9edpdy8w89t4w9",
"5643y,>:-3$.pi53ywu<6w-::;+-=ai5",
"w13:%-43,:w&-99t1,33$$-8w:;e;:ww",
"89iusaa1>,15aufyp3,yegas>,,<8yud",
"=;=;69y+$>#%699<<%%:,te8;#@@:398",
"=O-y39<194iis--swwO$34wt<wugpu-=",
"=;:=wew:<w3:wwe9wpa-&atw;<34,www",
"sytaaahyiudusyy3:;99idisauujidyy",
"83:95w9633t<64<$. 1-9ww4641t6943",
"-=##6318686498<34%%=#p318646ew8<",
"eOoieyw644e%O55e65.O9te6444t&%54",
"pfieyte66988aidpduiuedtu88889sis",
"65:-w%&oO$##4,6<6:1;&9%%XO+#&4,6",
"e-:3:,0q*;w4844uew;;5>2r7*;u5944"
};
