/* XPM */
static char *result[] = {
/* columns rows colors chars-per-pixel */
"48 48 148 2 ",
"   c black",
".  c #050000",
"X  c #0F0101",
"o  c #090909",
"O  c #100000",
"+  c #130101",
"@  c #160101",
"#  c #1A0202",
"$  c #07130D",
"%  c #091811",
"&  c #220202",
"*  c #2C0202",
"=  c #10241B",
"-  c #12271D",
";  c #162E23",
":  c #1B3529",
">  c gray13",
",  c #252525",
"<  c gray19",
"1  c #303131",
"2  c #303231",
"3  c #313533",
"4  c #333A36",
"5  c #333B37",
"6  c #343D38",
"7  c #224233",
"8  c #36453E",
"9  c #C11F1F",
"0  c #C82020",
"q  c #E85050",
"w  c #F07070",
"e  c #3CAB85",
"r  c #3DAB85",
"t  c #3EAC86",
"y  c #3FAC86",
"u  c #40AD86",
"i  c #41AD87",
"p  c #42AD87",
"a  c #4DAC86",
"s  c #42AE88",
"d  c #43AE88",
"f  c #44AE88",
"g  c #45AE88",
"h  c #45AF89",
"j  c #46AF89",
"k  c #4EB28C",
"l  c #4EB28D",
"z  c #4EB38D",
"x  c #4FB38D",
"c  c #50B38D",
"v  c #50B48E",
"b  c #51B48E",
"n  c #52B48E",
"m  c #52B48F",
"M  c #53B58F",
"N  c #54B58F",
"B  c #54B590",
"V  c #56B791",
"C  c #57B791",
"Z  c #58B791",
"A  c #59B892",
"S  c #5DBA94",
"D  c #5EBB95",
"F  c #5FBB95",
"G  c #61B993",
"H  c #60BB96",
"J  c #61BC97",
"K  c #62BD97",
"L  c #63BD97",
"P  c #63BE98",
"I  c #64BE98",
"U  c #6BBF99",
"Y  c #67C09A",
"T  c #68C09A",
"R  c #6AC19B",
"E  c #6CC39D",
"W  c #6DC39D",
"Q  c #6DC49D",
"!  c #6EC49E",
"~  c #6FC49E",
"^  c #6EC59E",
"/  c #6FC59F",
"(  c #70C59F",
")  c #70C69F",
"_  c #77C69F",
"`  c #71C6A0",
"'  c #72C6A0",
"]  c #72C7A0",
"[  c #72C7A1",
"{  c #73C7A1",
"}  c #74C6A0",
"|  c #75C6A0",
" . c #74C7A0",
".. c #74C7A1",
"X. c #76C6A0",
"o. c #74C8A2",
"O. c #75C8A2",
"+. c #76C9A3",
"@. c #77C9A4",
"#. c #78C9A4",
"$. c #7BCAA6",
"%. c #7BCBA6",
"&. c #7CCBA6",
"*. c #7CCBA7",
"=. c #7DCBA7",
"-. c #7DCCA7",
";. c #7ECCA8",
":. c #7FCDA9",
">. c #A0A0A0",
",. c #80CDA9",
"<. c #81CDAA",
"1. c #81CEAA",
"2. c #82CEAA",
"3. c #85CFAC",
"4. c #85D0AD",
"5. c #86D0AD",
"6. c #87D1AE",
"7. c #88D1AE",
"8. c #88D1AF",
"9. c #89D1AF",
"0. c #89D2AF",
"q. c #8AD2B0",
"w. c #8BD2B0",
"e. c #8BD2B1",
"r. c #8BD3B1",
"t. c #8DD3B2",
"y. c #8DD4B2",
"u. c #8ED4B3",
"i. c #8FD4B3",
"p. c #91D6B5",
"a. c #92D6B5",
"s. c #92D6B6",
"d. c #93D7B6",
"f. c #95D8B8",
"g. c #96D8B8",
"h. c #97D9B9",
"j. c #98D9BA",
"k. c #99DABA",
"l. c #99DABB",
"z. c #A2DFC1",
"x. c #A3DFC2",
"c. c #A3E0C2",
"v. c #A4E0C2",
"b. c #A4E0C3",
"n. c #A5E1C3",
"m. c #A5E1C4",
"M. c #A6E1C4",
"N. c #FCF7F7",
/* pixels */
"{ { { { { { { { { { { { { { { { { { { { { { { { { { { { { { { { { { { { { { { { { { { { { { { { ",
"{ { { { { { { { { { { { { { { { { { { { { { { { { { { { { { { { { { { { { { { { { { { { { { { { ",
"{ { { { { { { { { { { { { { { { { { { { { { { { { { { { { { { { { { { { { { { { { { { { { { { { ",
"{ { { { { { { { { { { { { { { { { { { { { { { { { { { { { { { { { { { { { { { { { { { { { { { { ",
"{ { { { { { { { { { { { { { { { { { { { { { { { { { { { { { { { { { { { { { { { { { { { { { { { ",
"{ { { { { { { { { { { { [ ( ` { { { { { { { { { { { { { { { { { { { { { { { { { { { { { { { { { ",
"{ { { { { { { { { { { o.Y e V O.{ { { { { { { { { { { { { { { { { { { { { { { { { { { { { { { { ",
"{ { { { { { { { { { { o.T i A O.{ { { { { { { { { { { { { { { { { { { { { { { { { { { { { { { { ",
"{ { { { { { { { { { { o.T i A O.{ { { { { { { { { { { { { { { { { { { { { { { { { { { { { { { { ",
"{ { [ ! / { { { { { { o.T i A O.{ { { { ` ! ! ! ` { { { { { { { { { { { { { { { { { { { { { { { ",
"{ { W e l O.{ { { { { o.T i A O.{ { { o.J y p y D o.{ { { { { { { { { { { { { { { { { { { { { { ",
"{ { ! i v O.{ { { { { o.T i A O.{ { { o.K d j f H o.{ { { { { { { { { { { { { { { { { { { { { { ",
"{ { ! u c +.....{ { { o.Y u Z O.{ { { O.L p h s F o.{ { { { { { { { { { { { { { { { { { { { { { ",
"{ { ~ z C W E E ! { { ..R k D o.{ { ( E J c b x I o.{ { { { { { { { { { { { { { { { { { { { { { ",
"{ { { +.! t p i n O.{ { ..O.o.{ { o.L r S +.O.O.o.{ { { { { { { { { { { { { { { { { { { { { { { ",
"{ { { ..W p j g N O.{ { { { { { { o.I i S o.{ { { { { { { { { { { { { { { { { { { { { { { { { { ",
"{ { { ..E i g d M O.{ { { { { { { o.P a G 8 < < < < _ _ { { { { { { { { { { { { { { { { { { { { ",
"{ { { { ! m B N S o.{ { { { { { { ..U 1 < q w w w q < < | { { { { { { { { { { { { { { { { { { { ",
"{ { { { { O.O.O.o.{ { { { { { { { ..< 0 q w w w w w q 0 2 { { { { { { { { { { { { { { { { { { { ",
"{ { { { { { { { { { { { { { { { ..< 0 q q w w w w w q q 0 4 { { { { { { { { { { { { { { { { { { ",
"{ { { { { { { { { { { { { { { { } 3 0 q q q w w w q q q 0 4 { { { { { { { { { { { { { { { { { { ",
"{ { { { { { { { { { { { { { { { 4 0 0 q q q q q q q q q 0 0 < { { { { { { { { { { { { { { { { { ",
"{ { { { { { { { { { { { { { { { 5 0 0 0 q q q q q q q 0 0 0 < { { { { { { { { { { { { { { { { { ",
"{ { { { { { { { { { { { { { { { 6 0 0 0 0 0 q q q 0 0 0 0 0 < { { { { { { { { { { { { { { { { { ",
"{ { { { { { { { { { { { { { { { - @ 0 0 0 0 0 0 0 0 0 0 0 @   ..{ { { { { { { { { { { { { { { { ",
"{ { { { { { { { { { { { { { { { 7 >.@ 0 0 0 0 9 0 0 0 9 @ >.   .{ { { { { { { { { { { { { { { { ",
"{ { { { { ' ' ' ' { { { { { { { | < >.+ . 0 * # * 0 @ . >.< | { { { { { { { { { { { { { { { { { ",
"{ { { { { ' ' ' ' { { { { { { { | % >.>.>.@ X N.& O >.>.>.; { { { { { { { { { { { { { { { { { { ",
"{ { { { { ' ' ' ' { { { { { { { { | : >.>.>., o > >.>.>.  | ' ` ` ` [ { { { { { { { { { { { { { ",
"{ { { { { ' ' ' { { { { { { { { { { { $   >.>.>.>.>.    { ' 2.e.q.r.&.[ { { { { { { { { { { { { ",
"{ { { { { { { { { { { { { { { { { { { { { =       $ _ _ { ) s.n.v.m.5.` { { { { { { { { { { { { ",
"{ { { { { { { { { { { { { { { { { { { { { { { { { X.{ { { ) p.c.z.v.5.` { { { { { { { { { { { { ",
"{ { { { { { { { { { { { { { { { { { { { ] ` ` ` ] { { { { ) p.c.z.v.5.` { { { { ` ` ` ` [ { { { ",
"{ { { { { { { { { { { { { { { { { { { ] :.u.y.u.<.] { { { ) p.c.z.v.5.` { { { ` 6.u.y.i.#.[ { { ",
"{ { { { { { { { { { { { { { { { { { { ` w.n.c.n.u.` { { { ) p.c.z.v.5.` { { { ) l.b.c.M.;.] { { ",
"{ { { { { { { { { { { { { { { { { { { ` q.v.z.c.t.` { { { ) p.c.z.v.5.` { { { ) j.x.z.b.-.] { { ",
"{ { { { { { { { { { { { { { { { { { { ` q.v.z.c.t.` { { { ) p.c.z.v.5.` { { { ) j.x.z.b.-.] { { ",
"{ { { { { { { { { { { { { { { { { { { ` q.v.z.c.t.` { { { ) p.c.z.v.5.` { { { ) j.x.z.b.-.] { { ",
"{ { { { { { { { { { { { { { { { { { { ` e.n.v.n.t.^ ) ) ' ) s.n.v.M.5.` ` ) ) Q k.b.v.M.;.] { { ",
"{ { { { { { { { { { { { { { { { { { { [ =.9.8.7.t.a.a.d.2.` ,.9.8.9.$.` 9.s.a.s.w.7.8.0.@.{ { { ",
"{ { { { { { { { { { { { { { { { { { { { [ ` ` / t.n.c.n.w.` ] ` ` ` [ ) g.b.c.n.,.) ` ` { { { { ",
"{ { { { { { { { { { { { { { { { { { { { { { { ` t.c.z.v.q.` { { { { { ) f.c.z.b.<.' { { { { { { ",
"{ { { { { { { { { { { { { { { { { { { { { { { ` u.n.v.m.e.` { { { { { ) h.n.v.M.1.' { { { { { { ",
"{ { { { { { { { { { { { { { { { { { { { { { { [ *.5.3.5.%.[ { { { { { ] ,.4.3.5.#.{ { { { { { { ",
"{ { { { { { { { { { { { { { { { { { { { { { { { [ ` ` ` [ { { { { { { { ] ` ` ` { { { { { { { { ",
"{ { { { { { { { { { { { { { { { { { { { { { { { { { { { { { { { { { { { { { { { { { { { { { { { ",
"{ { { { { { { { { { { { { { { { { { { { { { { { { { { { { { { { { { { { { { { { { { { { { { { { ",
"{ { { { { { { { { { { { { { { { { { { { { { { { { { { { { { { { { { { { { { { { { { { { { { { { "
};
