/* XPM */
static char * enemy_back_static_xpm[] = {
"48 48 139 2",
"  	c #73C7A1",
". 	c #72C7A1",
"+ 	c #70C59F",
"@ 	c #71C6A0",
"# 	c #74C8A2",
"$ 	c #67C09A",
"% 	c #3CAB85",
"& 	c #56B791",
"* 	c #75C8A2",
"= 	c #68C09A",
"- 	c #41AD87",
"; 	c #59B892",
"> 	c #6EC49E",
", 	c #6FC59F",
"' 	c #6DC39D",
") 	c #4EB28D",
"! 	c #61BC97",
"~ 	c #3FAC86",
"{ 	c #42AD87",
"] 	c #5EBB95",
"^ 	c #50B48E",
"/ 	c #62BD97",
"( 	c #43AE88",
"_ 	c #601020",
": 	c #60BB96",
"< 	c #40AD86",
"[ 	c #50B38D",
"} 	c #76C9A3",
"| 	c #74C7A1",
"1 	c #58B791",
"2 	c #63BD97",
"3 	c #601421",
"4 	c #C84848",
"5 	c #6FC49E",
"6 	c #4EB38D",
"7 	c #57B791",
"8 	c #6CC39D",
"9 	c #6AC19B",
"0 	c #4EB28C",
"a 	c #A01838",
"b 	c #602027",
"c 	c #3EAC86",
"d 	c #52B48E",
"e 	c #63BC96",
"f 	c #612A2C",
"g 	c #72C6A0",
"h 	c #46AF89",
"i 	c #45AE88",
"j 	c #54B58F",
"k 	c #601422",
"l 	c #E07878",
"m 	c #601522",
"n 	c #53B58F",
"o 	c #0F2219",
"p 	c #040E09",
"q 	c #52B48F",
"r 	c #54B590",
"s 	c #5DBA94",
"t 	c #612E2E",
"u 	c #601F26",
"v 	c #0D1F17",
"w 	c #091811",
"x 	c #73C6A0",
"y 	c #601C25",
"z 	c #10241B",
"A 	c #0B1B14",
"B 	c #000000",
"C 	c #07130D",
"D 	c #73C6A1",
"E 	c #601923",
"F 	c #1A3328",
"G 	c #202840",
"H 	c #13291F",
"I 	c #404068",
"J 	c #81CDA9",
"K 	c #8BD2B1",
"L 	c #8AD2B0",
"M 	c #8BD3B1",
"N 	c #7CCBA6",
"O 	c #72C59F",
"P 	c #703840",
"Q 	c #703C42",
"R 	c #A5E1C3",
"S 	c #A4E0C2",
"T 	c #A5E1C4",
"U 	c #86D0AD",
"V 	c #D8A078",
"W 	c #724347",
"X 	c #A2DFC1",
"Y 	c #713C42",
"Z 	c #703A41",
"` 	c #503060",
" .	c #281850",
"..	c #A3E0C2",
"+.	c #87D1AE",
"@.	c #8ED4B3",
"#.	c #8DD4B2",
"$.	c #8FD4B3",
"%.	c #78C9A4",
"&.	c #70C69F",
"*.	c #91D6B5",
"=.	c #99DABB",
"-.	c #A4E0C3",
";.	c #A6E1C4",
">.	c #7ECCA8",
",.	c #72C7A0",
"'.	c #111C17",
").	c #8DD3B2",
"!.	c #020705",
"~.	c #98D9BA",
"{.	c #A3DFC2",
"].	c #7DCCA7",
"^.	c #A3DFC1",
"/.	c #71C59F",
"(.	c #6EC59E",
"_.	c #92D6B6",
":.	c #6DC49D",
"<.	c #99DABA",
"[.	c #7DCBA7",
"}.	c #89D1AF",
"|.	c #88D1AF",
"1.	c #88D1AE",
"2.	c #92D6B5",
"3.	c #93D7B6",
"4.	c #82CEAA",
"5.	c #80CDA9",
"6.	c #7BCAA6",
"7.	c #8BD2B0",
"8.	c #89D2AF",
"9.	c #77C9A4",
"0.	c #96D8B8",
"a.	c #95D8B8",
"b.	c #81CDAA",
"c.	c #97D9B9",
"d.	c #81CEAA",
"e.	c #7CCBA7",
"f.	c #85CFAC",
"g.	c #7BCBA6",
"h.	c #85D0AD",
"                                                                                                ",
"                                                                                                ",
"                                                                                                ",
"                                                                                                ",
"                                                                                                ",
"                        . + @                                                                   ",
"                      # $ % & *                                                                 ",
"                      # = - ; *                                                                 ",
"                      # = - ; *                                                                 ",
"    . > ,             # = - ; *         @ > > > @                                               ",
"    ' % ) *           # = - ; *       # ! ~ { ~ ] #                                             ",
"    > - ^ *           # = - ; *       # / ( _ _ : #                                             ",
"    > < [ } | |       # $ < 1 *       * 2 { 3 4 _ #                                             ",
"    5 6 7 ' 8 8 >     | 9 0 ] #     + 8 ! 3 _ a 4 b                                             ",
"      } > c { - d *     | * #     # e _ _ 4 4 _ 4 4 _ f g                                       ",
"      | ' { h i j *               # k a 4 l l 4 a 4 4 a m g                                     ",
"      | 8 - i ( n *               o 4 4 4 l l 4 4 4 4 4 4 p                                     ",
"        > q r j s #             t a 4 4 4 4 l l 4 4 4 l 4 a u                                   ",
"          * * * #               v 4 4 4 4 4 4 4 l l l 4 4 4 w x                                 ",
"                              t a 4 4 4 4 4 4 4 4 4 4 4 4 4 a y                                 ",
"                              z a 4 4 4 4 4 4 4 4 4 4 4 4 4 a p                                 ",
"                              A a a 4 4 4 4 4 4 4 4 4 4 4 a a B                                 ",
"                              C a a a 4 4 4 4 4 4 4 4 4 a a a B                                 ",
"                              m a a a a a a 4 4 4 a a a a a a _                                 ",
"                              D _ a a a a a a a a a a a a a _ x                                 ",
"                                E a a a a a a a a a a a a a _ x                                 ",
"          g g g g             p _ a a a a a a a a a a a a a _ p                                 ",
"          g g g g             A a a _ a a a a _ a a a a _ a a B                                 ",
"          g g g g               F _ a a _ a G G G a _ a a _ H @ @ @ .                           ",
"          g g g                   m B G _ _ I I I _ _ G B _ J K L M N .                         ",
"                              O P I I I I I I I I I I I I I Q R S T U @                         ",
"                              P V a G B I I I I I I I B G a V W X S U @                         ",
"                            D P V V B B a I I I I I a B B V V Y X S U @         @ @ @ @ .       ",
"                                Z P B `  .a a a a a  .` B P Z ..X S U @       @ +.@.#.$.%..     ",
"                                  x B  .` `  . . .` `  .C &.*...X S U @       &.=.-...;.>.,.    ",
"                                  g B _ _ '.X ..).B _ _ !.&.*...X S U @       &.~.{.X -.].,.    ",
"                                      B B ^.X ..)./.B B   &.*...X S U @       &.~.{.X -.].,.    ",
"                                      @ L S X ..).@       &.*...X S U @       &.~.{.X -.].,.    ",
"                                      @ K R S R ).(.&.&.g &._.R S ;.U @ @ &.&.:.<.-.S ;.>.,.    ",
"                                      . [.}.|.1.).2.2.3.4.@ 5.}.|.}.6.@ }._.2._.7.1.|.8.9.      ",
"                                        . @ @ , ).R ..R 7.@ ,.@ @ @ . &.0.-...R 5.&.@ @         ",
"                                              @ )...X S L @           &.a...X -.b.g             ",
"                                              @ @.R S T K @           &.c.R S ;.d.g             ",
"                                              . e.U f.U g..           ,.5.h.f.U %.              ",
"                                                . @ @ @ .               ,.@ @ @                 ",
"                                                                                                ",
"                                                                                                ",
"                                                                                                "};
