/* XPM */
static char * enemy_right_move1_xpm[] = {
"48 48 148 2",
"  	c None",
". 	c #73C7A1",
"+ 	c #72C7A1",
"@ 	c #70C59F",
"# 	c #71C6A0",
"$ 	c #74C8A2",
"% 	c #67C09A",
"& 	c #3CAB85",
"* 	c #56B791",
"= 	c #75C8A2",
"- 	c #68C09A",
"; 	c #41AD87",
"> 	c #59B892",
", 	c #6EC49E",
"' 	c #6FC59F",
") 	c #6DC39D",
"! 	c #4EB28D",
"~ 	c #61BC97",
"{ 	c #3FAC86",
"] 	c #42AD87",
"^ 	c #5EBB95",
"/ 	c #50B48E",
"( 	c #62BD97",
"_ 	c #43AE88",
": 	c #46AF89",
"< 	c #44AE88",
"[ 	c #60BB96",
"} 	c #74C7A1",
"| 	c #601020",
"1 	c #40AD86",
"2 	c #50B38D",
"3 	c #76C9A3",
"4 	c #58B791",
"5 	c #63BD97",
"6 	c #45AF89",
"7 	c #601722",
"8 	c #C84848",
"9 	c #6FC49E",
"0 	c #4EB38D",
"a 	c #57B791",
"b 	c #6CC39D",
"c 	c #6AC19B",
"d 	c #4EB28C",
"e 	c #602629",
"f 	c #A01838",
"g 	c #3EAC86",
"h 	c #52B48E",
"i 	c #3EAB85",
"j 	c #601522",
"k 	c #72C59F",
"l 	c #45AE88",
"m 	c #54B58F",
"n 	c #64BE98",
"o 	c #000000",
"p 	c #E07878",
"q 	c #020705",
"r 	c #53B58F",
"s 	c #73C6A0",
"t 	c #091811",
"u 	c #72C49E",
"v 	c #52B48F",
"w 	c #54B590",
"x 	c #5DBA94",
"y 	c #73C49F",
"z 	c #73C6A1",
"A 	c #61A989",
"B 	c #36624E",
"C 	c #0F2219",
"D 	c #D8A078",
"E 	c #0B1B14",
"F 	c #10241B",
"G 	c #E8E8F8",
"H 	c #503060",
"I 	c #704346",
"J 	c #F8D0B8",
"K 	c #72C6A0",
"L 	c #D6A17A",
"M 	c #612529",
"N 	c #703840",
"O 	c #704C4B",
"P 	c #601923",
"Q 	c #613734",
"R 	c #202840",
"S 	c #404068",
"T 	c #253645",
"U 	c #82CEAA",
"V 	c #8BD2B1",
"W 	c #8AD2B0",
"X 	c #8BD3B1",
"Y 	c #7CCBA6",
"Z 	c #293F49",
"` 	c #70C69F",
" .	c #92D6B6",
"..	c #A5E1C3",
"+.	c #A4E0C2",
"@.	c #A5E1C4",
"#.	c #86D0AD",
"$.	c #91D6B5",
"%.	c #A3E0C2",
"&.	c #A2DFC1",
"*.	c #70C39C",
"=.	c #081811",
"-.	c #71C59E",
";.	c #281850",
">.	c #111E18",
",.	c #87D1AE",
"'.	c #8ED4B3",
").	c #8DD4B2",
"!.	c #8FD4B3",
"~.	c #78C9A4",
"{.	c #99DABB",
"].	c #A4E0C3",
"^.	c #A6E1C4",
"/.	c #7ECCA8",
"(.	c #72C7A0",
"_.	c #06130D",
":.	c #050A07",
"<.	c #8DD3B2",
"[.	c #040E09",
"}.	c #98D9BA",
"|.	c #A3DFC2",
"1.	c #7DCCA7",
"2.	c #71C59F",
"3.	c #202F28",
"4.	c #A1DEC0",
"5.	c #6EC59E",
"6.	c #6DC49D",
"7.	c #99DABA",
"8.	c #7DCBA7",
"9.	c #89D1AF",
"0.	c #88D1AF",
"a.	c #88D1AE",
"b.	c #92D6B5",
"c.	c #93D7B6",
"d.	c #80CDA9",
"e.	c #7BCAA6",
"f.	c #8BD2B0",
"g.	c #89D2AF",
"h.	c #77C9A4",
"i.	c #96D8B8",
"j.	c #95D8B8",
"k.	c #81CDAA",
"l.	c #97D9B9",
"m.	c #81CEAA",
"n.	c #7CCBA7",
"o.	c #85CFAC",
"p.	c #7BCBA6",
"q.	c #85D0AD",
". . . . . . . . . . . . . . . . . . . . . . . . . . . . . . . . . . . . . . . . . . . . . . . . ",
". . . . . . . . . . . . . . . . . . . . . . . . . . . . . . . . . . . . . . . . . . . . . . . . ",
". . . . . . . . . . . . . . . . . . . . . . . . . . . . . . . . . . . . . . . . . . . . . . . . ",
". . . . . . . . . . . . . . . . . . . . . . . . . . . . . . . . . . . . . . . . . . . . . . . . ",
". . . . . . . . . . . . . . . . . . . . . . . . . . . . . . . . . . . . . . . . . . . . . . . . ",
". . . . . . . . . . . . + @ # . . . . . . . . . . . . . . . . . . . . . . . . . . . . . . . . . ",
". . . . . . . . . . . $ % & * = . . . . . . . . . . . . . . . . . . . . . . . . . . . . . . . . ",
". . . . . . . . . . . $ - ; > = . . . . . . . . . . . . . . . . . . . . . . . . . . . . . . . . ",
". . . . . . . . . . . $ - ; > = . . . . . . . . . . . . . . . . . . . . . . . . . . . . . . . . ",
". . + , ' . . . . . . $ - ; > = . . . . # , , , # . . . . . . . . . . . . . . . . . . . . . . . ",
". . ) & ! = . . . . . $ - ; > = . . . $ ~ { ] { ^ $ . . . . . . . . . . . . . . . . . . . . . . ",
". . , ; / = . . . . . $ - ; > = . . . $ ( _ : < [ } | | | . . . . . . . . . . . . . . . . . . . ",
". . , 1 2 3 } } . . . $ % 1 4 = . . . = 5 ] 6 7 | | 8 8 | . . . . . . . . . . . . . . . . . . . ",
". . 9 0 a ) b b , . . } c d ^ $ . . @ b ~ e | f 8 8 8 | . . . . . . . . . . . . . . . . . . . . ",
". . . 3 , g ] ; h = . . } = $ . . $ 5 i | f 8 8 8 f f | j k . . . . . . . . . . . . . . . . . . ",
". . . } ) ] : l m = . . . . . . . $ n o 8 p 8 8 8 8 8 8 f q k . . . . . . . . . . . . . . . . . ",
". . . } b ; l _ r = . . . . . . . s o 8 p p p 8 8 8 8 8 8 f t u . . . . . . . . . . . . . . . . ",
". . . . , v w m x $ . . . . . . . y o 8 p p p p 8 p 8 8 8 | f t . . . . . . . . . . . . . . . . ",
". . . . . = = = $ . . . . . . . s o 8 8 8 p 8 p p 8 f 8 8 8 | o s . . . . . . . . . . . . . . . ",
". . . . . . . . . . . . . . . . z o 8 8 8 8 8 8 8 f 8 8 8 8 | f A . . . . . . . . . . . . . . . ",
". . . . . . . . . . . . . . . . . o f 8 8 8 8 8 f 8 8 8 8 8 | f B . . . . . . . . . . . . . . . ",
". . . . . . . . . . . . . . . . . | f f 8 8 8 f f 8 8 8 8 | f C . . . . . . . . . . . . . . . . ",
". . . . . . . . . . . . . . . . . | f f f f f f 8 8 f 8 | D f E . . . . . . . . . . . . . . . . ",
". . . . . . . . . . . . . . . . . z | f f f f f 8 f 8 o D D F . . . . . . . . . . . . . . . . . ",
". . . . . . . . . . . . . . . . . . | f f f f f f 8 | G H D I . . . . . . . . . . . . . . . . . ",
". . . . . . . . . . . . . . . . | | | f f f f f f | D G o J I . . . . . . . . . . . . . . . . . ",
". . . . . K K K K . . . . . . z | f f | f f f f f | J J J J L . . . . . . . . . . . . . . . . . ",
". . . . . K K K K . . . . . . . . j f f f f f f | D D J J I . . . . . . . . . . . . . . . . . . ",
". . . . . K K K K . . . . . . . . . M | | f f | o N N N O z K # # # + . . . . . . . . . . . . . ",
". . . . . K K K . . . . . . . . . . . . P Q | o R N S T u K U V W X Y + . . . . . . . . . . . . ",
". . . . . . . . . . . . . . . . . . . . . s R R o S S | Z `  ...+.@.#.# . . . . . . . . . . . . ",
". . . . . . . . . . . . . . . . . . . . K o R R o S 8 o C ` $.%.&.+.#.# . . . . . . . . . . . . ",
". . . . . . . . . . . . . . . . . . . . *.o | | o f J J o =.$.%.&.+.#.# . . . . # # # # + . . . ",
". . . . . . . . . . . . . . . . . . . -.o H H ;.;.o D D o | >.%.&.+.#.# . . . # ,.'.).!.~.+ . . ",
". . . . . . . . . . . . . . . . . . . q f ;.H H o o o o | | >.%.&.+.#.# . . . ` {.].%.^./.(.. . ",
". . . . . . . . . . . . . . . . . . . _.f f f :.<.# . . q [.$.%.&.+.#.# . . . ` }.|.&.].1.(.. . ",
". . . . . . . . . . . . . . . . . . . 2.o o 3.4.<.# . . . ` $.%.&.+.#.# . . . ` }.|.&.].1.(.. . ",
". . . . . . . . . . . . . . . . . . . # W +.&.%.<.# . . . ` $.%.&.+.#.# . . . ` }.|.&.].1.(.. . ",
". . . . . . . . . . . . . . . . . . . # V ..+...<.5.` ` K `  ...+.^.#.# # ` ` 6.7.].+.^./.(.. . ",
". . . . . . . . . . . . . . . . . . . + 8.9.0.a.<.b.b.c.U # d.9.0.9.e.# 9. .b. .f.a.0.g.h.. . . ",
". . . . . . . . . . . . . . . . . . . . + # # ' <...%...f.# (.# # # + ` i.].%...d.` # # . . . . ",
". . . . . . . . . . . . . . . . . . . . . . . # <.%.&.+.W # . . . . . ` j.%.&.].k.K . . . . . . ",
". . . . . . . . . . . . . . . . . . . . . . . # '...+.@.V # . . . . . ` l...+.^.m.K . . . . . . ",
". . . . . . . . . . . . . . . . . . . . . . . + n.#.o.#.p.+ . . . . . (.d.q.o.#.~.. . . . . . . ",
". . . . . . . . . . . . . . . . . . . . . . . . + # # # + . . . . . . . (.# # # . . . . . . . . ",
". . . . . . . . . . . . . . . . . . . . . . . . . . . . . . . . . . . . . . . . . . . . . . . . ",
". . . . . . . . . . . . . . . . . . . . . . . . . . . . . . . . . . . . . . . . . . . . . . . . ",
". . . . . . . . . . . . . . . . . . . . . . . . . . . . . . . . . . . . . . . . . . . . . . . . "};
