/* XPM */
static char * enemy_right_move2_xpm[] = {
"48 48 147 2",
"  	c None",
". 	c #73C7A1",
"+ 	c #72C7A1",
"@ 	c #70C59F",
"# 	c #71C6A0",
"$ 	c #74C8A2",
"% 	c #67C09A",
"& 	c #3CAB85",
"* 	c #56B791",
"= 	c #75C8A2",
"- 	c #68C09A",
"; 	c #41AD87",
"> 	c #59B892",
", 	c #6EC49E",
"' 	c #6FC59F",
") 	c #6DC39D",
"! 	c #4EB28D",
"~ 	c #61BC97",
"{ 	c #3FAC86",
"] 	c #42AD87",
"^ 	c #5EBB95",
"/ 	c #50B48E",
"( 	c #62BD97",
"_ 	c #43AE88",
": 	c #46AF89",
"< 	c #44AE88",
"[ 	c #60BB96",
"} 	c #601522",
"| 	c #601020",
"1 	c #40AD86",
"2 	c #50B38D",
"3 	c #76C9A3",
"4 	c #74C7A1",
"5 	c #58B791",
"6 	c #62BB95",
"7 	c #45AA85",
"8 	c #C84848",
"9 	c #613935",
"0 	c #6FC49E",
"a 	c #4EB38D",
"b 	c #57B791",
"c 	c #6CC39D",
"d 	c #6AC19B",
"e 	c #4EB28C",
"f 	c #6CC29C",
"g 	c #A01838",
"h 	c #72C49F",
"i 	c #3EAC86",
"j 	c #52B48E",
"k 	c #63BD97",
"l 	c #612A2C",
"m 	c #45AE88",
"n 	c #54B58F",
"o 	c #72C59F",
"p 	c #07160F",
"q 	c #E07878",
"r 	c #10241B",
"s 	c #53B58F",
"t 	c #72C6A0",
"u 	c #000000",
"v 	c #091811",
"w 	c #52B48F",
"x 	c #54B590",
"y 	c #5DBA94",
"z 	c #73C6A0",
"A 	c #07130D",
"B 	c #020705",
"C 	c #040E09",
"D 	c #0B1B14",
"E 	c #62433C",
"F 	c #D8A078",
"G 	c #601923",
"H 	c #602228",
"I 	c #E8E8F8",
"J 	c #503060",
"K 	c #703A41",
"L 	c #F8D0B8",
"M 	c #703C42",
"N 	c #D6A179",
"O 	c #704346",
"P 	c #601C25",
"Q 	c #703840",
"R 	c #704044",
"S 	c #202840",
"T 	c #404068",
"U 	c #82CEAA",
"V 	c #8BD2B1",
"W 	c #8AD2B0",
"X 	c #8BD3B1",
"Y 	c #7CCBA6",
"Z 	c #283C48",
"` 	c #70C69F",
" .	c #92D6B6",
"..	c #A5E1C3",
"+.	c #A4E0C2",
"@.	c #A5E1C4",
"#.	c #86D0AD",
"$.	c #0F2219",
"%.	c #273A47",
"&.	c #91D6B5",
"*.	c #A3E0C2",
"=.	c #A2DFC1",
"-.	c #273946",
";.	c #281850",
">.	c #87D1AE",
",.	c #8ED4B3",
"'.	c #8DD4B2",
").	c #8FD4B3",
"!.	c #78C9A4",
"~.	c #6FC49D",
"{.	c #99DABB",
"].	c #A4E0C3",
"^.	c #A6E1C4",
"/.	c #7ECCA8",
"(.	c #72C7A0",
"_.	c #3B435D",
":.	c #373D5A",
"<.	c #98D9BA",
"[.	c #A3DFC2",
"}.	c #7DCCA7",
"|.	c #030806",
"1.	c #A3DFC1",
"2.	c #8DD3B2",
"3.	c #73C6A1",
"4.	c #6EC59E",
"5.	c #6DC49D",
"6.	c #99DABA",
"7.	c #7DCBA7",
"8.	c #89D1AF",
"9.	c #88D1AF",
"0.	c #88D1AE",
"a.	c #92D6B5",
"b.	c #93D7B6",
"c.	c #80CDA9",
"d.	c #7BCAA6",
"e.	c #8BD2B0",
"f.	c #89D2AF",
"g.	c #77C9A4",
"h.	c #96D8B8",
"i.	c #95D8B8",
"j.	c #81CDAA",
"k.	c #97D9B9",
"l.	c #81CEAA",
"m.	c #7CCBA7",
"n.	c #85CFAC",
"o.	c #7BCBA6",
"p.	c #85D0AD",
". . . . . . . . . . . . . . . . . . . . . . . . . . . . . . . . . . . . . . . . . . . . . . . . ",
". . . . . . . . . . . . . . . . . . . . . . . . . . . . . . . . . . . . . . . . . . . . . . . . ",
". . . . . . . . . . . . . . . . . . . . . . . . . . . . . . . . . . . . . . . . . . . . . . . . ",
". . . . . . . . . . . . . . . . . . . . . . . . . . . . . . . . . . . . . . . . . . . . . . . . ",
". . . . . . . . . . . . . . . . . . . . . . . . . . . . . . . . . . . . . . . . . . . . . . . . ",
". . . . . . . . . . . . + @ # . . . . . . . . . . . . . . . . . . . . . . . . . . . . . . . . . ",
". . . . . . . . . . . $ % & * = . . . . . . . . . . . . . . . . . . . . . . . . . . . . . . . . ",
". . . . . . . . . . . $ - ; > = . . . . . . . . . . . . . . . . . . . . . . . . . . . . . . . . ",
". . . . . . . . . . . $ - ; > = . . . . . . . . . . . . . . . . . . . . . . . . . . . . . . . . ",
". . + , ' . . . . . . $ - ; > = . . . . # , , , # . . . . . . . . . . . . . . . . . . . . . . . ",
". . ) & ! = . . . . . $ - ; > = . . . $ ~ { ] { ^ $ . . . . . . . . . . . . . . . . . . . . . . ",
". . , ; / = . . . . . $ - ; > = . . . $ ( _ : < [ } | | . . . . . . . . . . . . . . . . . . . . ",
". . , 1 2 3 4 4 . . . $ % 1 5 = . . . = 6 7 | | | 8 8 9 . . . . . . . . . . . . . . . . . . . . ",
". . 0 a b ) c c , . . 4 d e ^ $ . . @ f | | g 8 8 8 | h . . . . . . . . . . . . . . . . . . . . ",
". . . 3 , i ] ; j = . . 4 = $ . . $ k | g 8 8 8 g g | l . . . . . . . . . . . . . . . . . . . . ",
". . . 4 ) ] : m n = . . . . . . . o p 8 q 8 8 8 8 8 8 g r . . . . . . . . . . . . . . . . . . . ",
". . . 4 c ; m _ s = . . . . . . t u 8 q q q 8 8 8 8 8 8 g v t . . . . . . . . . . . . . . . . . ",
". . . . , w x n y $ . . . . . . z A 8 q q q q 8 q 8 8 8 | g u z . . . . . . . . . . . . . . . . ",
". . . . . = = = $ . . . . . . . B 8 8 8 q 8 q q 8 g 8 8 8 | C . . . . . . . . . . . . . . . . . ",
". . . . . . . . . . . . . . . . A 8 8 8 8 8 8 8 g 8 8 8 8 | g u . . . . . . . . . . . . . . . . ",
". . . . . . . . . . . . . . . . D g 8 8 8 8 8 g 8 8 8 8 8 | g C . . . . . . . . . . . . . . . . ",
". . . . . . . . . . . . . . . . l g g 8 8 8 g g 8 8 8 8 | g u . . . . . . . . . . . . . . . . . ",
". . . . . . . . . . . . . . . . E g g g g g g 8 8 g 8 | F g u . . . . . . . . . . . . . . . . . ",
". . . . . . . . . . . . . . . . . G g g g g g 8 g 8 u F F u . . . . . . . . . . . . . . . . . . ",
". . . . . . . . . . . . . . . . . H g g g g g g 8 | I J F K . . . . . . . . . . . . . . . . . . ",
". . . . . . . . . . . . . . . | | | g g g g g g | F I u L M . . . . . . . . . . . . . . . . . . ",
". . . . . t t t t . . . . . . | g g | g g g g g | L L L L N . . . . . . . . . . . . . . . . . . ",
". . . . . t t t t . . . . . . . G g g g g g g | F F L L O . . . . . . . . . . . . . . . . . . . ",
". . . . . t t t t . . . . . . . t P 9 | g g | u Q Q Q R . . t # # # + . . . . . . . . . . . . . ",
". . . . . t t t . . . . . . . . . . t | | | u S Q T S z . t U V W X Y + . . . . . . . . . . . . ",
". . . . . . . . . . . . . . . . . . . . h u T T u S | Z . `  ...+.@.#.# . . . . . . . . . . . . ",
". . . . . . . . . . . . . . . . . . . z $.g 8 T u S | %.. ` &.*.=.+.#.# . . . . . . . . . . . . ",
". . . . . . . . . . . . . . . . . . t u u L L u S | | -.. ` &.*.=.+.#.# . . . . # # # # + . . . ",
". . . . . . . . . . . . . . . . . . u | u F F u J J ;.r . ` &.*.=.+.#.# . . . # >.,.'.).!.+ . . ",
". . . . . . . . . . . . . . . . . . u | ;.u u J J J J g S ~.&.*.=.+.#.# . . . ` {.].*.^./.(.. . ",
". . . . . . . . . . . . . . . . . . D | | _.:.u u g g g B ` &.*.=.+.#.# . . . ` <.[.=.].}.(.. . ",
". . . . . . . . . . . . . . . . . . . B |.1.=.*.2.u u C 3.` &.*.=.+.#.# . . . ` <.[.=.].}.(.. . ",
". . . . . . . . . . . . . . . . . . . # W +.=.*.2.# . . . ` &.*.=.+.#.# . . . ` <.[.=.].}.(.. . ",
". . . . . . . . . . . . . . . . . . . # V ..+...2.4.` ` t `  ...+.^.#.# # ` ` 5.6.].+.^./.(.. . ",
". . . . . . . . . . . . . . . . . . . + 7.8.9.0.2.a.a.b.U # c.8.9.8.d.# 8. .a. .e.0.9.f.g.. . . ",
". . . . . . . . . . . . . . . . . . . . + # # ' 2...*...e.# (.# # # + ` h.].*...c.` # # . . . . ",
". . . . . . . . . . . . . . . . . . . . . . . # 2.*.=.+.W # . . . . . ` i.*.=.].j.t . . . . . . ",
". . . . . . . . . . . . . . . . . . . . . . . # ,...+.@.V # . . . . . ` k...+.^.l.t . . . . . . ",
". . . . . . . . . . . . . . . . . . . . . . . + m.#.n.#.o.+ . . . . . (.c.p.n.#.!.. . . . . . . ",
". . . . . . . . . . . . . . . . . . . . . . . . + # # # + . . . . . . . (.# # # . . . . . . . . ",
". . . . . . . . . . . . . . . . . . . . . . . . . . . . . . . . . . . . . . . . . . . . . . . . ",
". . . . . . . . . . . . . . . . . . . . . . . . . . . . . . . . . . . . . . . . . . . . . . . . ",
". . . . . . . . . . . . . . . . . . . . . . . . . . . . . . . . . . . . . . . . . . . . . . . . "};
