/* XPM */
static char * enemy_front_static_xpm[] = {
"48 48 143 2",
"  	c #73C7A1",
". 	c #72C7A1",
"+ 	c #70C59F",
"@ 	c #71C6A0",
"# 	c #74C8A2",
"$ 	c #67C09A",
"% 	c #3CAB85",
"& 	c #56B791",
"* 	c #75C8A2",
"= 	c #68C09A",
"- 	c #41AD87",
"; 	c #59B892",
"> 	c #6EC49E",
", 	c #6FC59F",
"' 	c #6DC39D",
") 	c #4EB28D",
"! 	c #61BC97",
"~ 	c #3FAC86",
"{ 	c #42AD87",
"] 	c #601B24",
"^ 	c #602328",
"/ 	c #50B48E",
"( 	c #62BD97",
"_ 	c #43AE88",
": 	c #46AF89",
"< 	c #601020",
"[ 	c #C84848",
"} 	c #61282B",
"| 	c #73C6A0",
"1 	c #40AD86",
"2 	c #50B38D",
"3 	c #76C9A3",
"4 	c #74C7A1",
"5 	c #58B791",
"6 	c #63BD97",
"7 	c #43AC87",
"8 	c #A01838",
"9 	c #602228",
"0 	c #72C59F",
"a 	c #6FC49E",
"b 	c #4EB38D",
"c 	c #57B791",
"d 	c #6CC39D",
"e 	c #6AC19B",
"f 	c #4EB28C",
"g 	c #5EBB95",
"h 	c #6CC29C",
"i 	c #61272B",
"j 	c #3EAC86",
"k 	c #52B48E",
"l 	c #63BC96",
"m 	c #E07878",
"n 	c #45AE88",
"o 	c #54B58F",
"p 	c #081A12",
"q 	c #0D1F17",
"r 	c #53B58F",
"s 	c #72C6A0",
"t 	c #601F26",
"u 	c #52B48F",
"v 	c #54B590",
"w 	c #5DBA94",
"x 	c #000000",
"y 	c #091811",
"z 	c #612A2C",
"A 	c #D8A078",
"B 	c #07130D",
"C 	c #601522",
"D 	c #72C49F",
"E 	c #71C39D",
"F 	c #B0B0C8",
"G 	c #503060",
"H 	c #E8E8F8",
"I 	c #F8D0B8",
"J 	c #12271D",
"K 	c #040E09",
"L 	c #10241B",
"M 	c #703840",
"N 	c #0F2219",
"O 	c #73C6A1",
"P 	c #404068",
"Q 	c #202840",
"R 	c #253444",
"S 	c #8AD2B0",
"T 	c #8BD3B1",
"U 	c #7CCBA6",
"V 	c #714045",
"W 	c #A5E1C4",
"X 	c #86D0AD",
"Y 	c #281850",
"Z 	c #703A41",
"` 	c #A4E0C2",
" .	c #A1DEC0",
"..	c #91D6B5",
"+.	c #A3E0C2",
"@.	c #A2DFC1",
"#.	c #87D1AE",
"$.	c #8ED4B3",
"%.	c #8DD4B2",
"&.	c #8FD4B3",
"*.	c #78C9A4",
"=.	c #A5E1C3",
"-.	c #70C69F",
";.	c #99DABB",
">.	c #A4E0C3",
",.	c #A6E1C4",
"'.	c #7ECCA8",
").	c #72C7A0",
"!.	c #71C59F",
"~.	c #050A07",
"{.	c #9EDBBD",
"].	c #8DD3B2",
"^.	c #020705",
"/.	c #98D9BA",
"(.	c #A3DFC2",
"_.	c #7DCCA7",
":.	c #88D0AE",
"<.	c #8BD2B1",
"[.	c #6EC59E",
"}.	c #92D6B6",
"|.	c #6DC49D",
"1.	c #99DABA",
"2.	c #7DCBA7",
"3.	c #89D1AF",
"4.	c #88D1AF",
"5.	c #88D1AE",
"6.	c #92D6B5",
"7.	c #93D7B6",
"8.	c #82CEAA",
"9.	c #80CDA9",
"0.	c #7BCAA6",
"a.	c #8BD2B0",
"b.	c #89D2AF",
"c.	c #77C9A4",
"d.	c #96D8B8",
"e.	c #95D8B8",
"f.	c #81CDAA",
"g.	c #97D9B9",
"h.	c #81CEAA",
"i.	c #7CCBA7",
"j.	c #85CFAC",
"k.	c #7BCBA6",
"l.	c #85D0AD",
"                                                                                                ",
"                                                                                                ",
"                                                                                                ",
"                                                                                                ",
"                                                                                                ",
"                        . + @                                                                   ",
"                      # $ % & *                                                                 ",
"                      # = - ; *                                                                 ",
"                      # = - ; *                                                                 ",
"    . > ,             # = - ; *         @ > > > @                                               ",
"    ' % ) *           # = - ; *       # ! ~ { ~ ] ^                                             ",
"    > - / *           # = - ; *       # ( _ : < [ } |                                           ",
"    > 1 2 3 4 4       # $ 1 5 *       * 6 7 < [ 8 < 9 0                                         ",
"    a b c ' d d >     4 e f g #     + h < < [ [ < [ [ < i                                       ",
"      3 > j { - k *     4 * #     # l < 8 [ [ 8 [ m m [ 8 < 0                                   ",
"      4 ' { : n o *               4 p [ [ [ [ [ [ m m [ [ [ q                                   ",
"      4 d - n _ r *             s < 8 [ m [ [ [ m m [ [ [ [ 8 t                                 ",
"        > u v o w #             0 x [ [ [ m m m [ [ [ 8 [ [ [ y                                 ",
"          * * * #               < 8 [ [ 8 [ [ [ [ [ [ [ 8 [ [ 8 z                               ",
"                                x 8 [ 8 [ [ [ [ [ [ [ [ [ 8 [ 8 q                               ",
"                                x 8 8 [ [ [ < [ [ [ [ 8 [ 8 [ 8 y                               ",
"                                x 8 8 [ [ [ A < 8 [ [ [ 8 [ 8 8 B                               ",
"                                < 8 8 8 [ 8 A A A < < [ [ 8 8 8 C                               ",
"                                D < 8 8 8 x A A A A A x [ 8 8 <                                 ",
"                                E < 8 8 < F G A A A G F < 8 8 <                                 ",
"                            0 x < 8 8 < A H x I I I x H A < 8 8 < q                             ",
"          s s s s             J 8 < 8 < A I I I I I I I A < 8 < 8 K                             ",
"          s s s s             s L < 8 x M A I I A I I A M x 8 < N                               ",
"          s s s s               O < x P P Q M A A A M x P P x < @ @ .                           ",
"          s s s                   R P P Q P Q Q 8 Q Q P Q P P Q S T U .                         ",
"                                M A 8 P x P P Q 8 Q P P x P 8 A V W X @                         ",
"                              s M A A x x 8 P Q [ Q P 8 Y x A A Z ` X @                         ",
"                                s Z M x G Y 8 8 Q 8 8 Y G x M M  .` X @         @ @ @ @ .       ",
"                                    s x Y G G Y Y Y G G Y x ..+.@.` X @       @ #.$.%.&.*..     ",
"                                      J < < x =.$.@ x < < x ..+.@.` X @       -.;.>.+.,.'.).    ",
"                                      !.x ~.{.+.].@ | x ^.-...+.@.` X @       -./.(.@.>._.).    ",
"                                      @ :.` @.+.].@       -...+.@.` X @       -./.(.@.>._.).    ",
"                                      @ S ` @.+.].@       -...+.@.` X @       -./.(.@.>._.).    ",
"                                      @ <.=.` =.].[.-.-.s -.}.=.` ,.X @ @ -.-.|.1.>.` ,.'.).    ",
"                                      . 2.3.4.5.].6.6.7.8.@ 9.3.4.3.0.@ 3.}.6.}.a.5.4.b.c.      ",
"                                        . @ @ , ].=.+.=.a.@ ).@ @ @ . -.d.>.+.=.9.-.@ @         ",
"                                              @ ].+.@.` S @           -.e.+.@.>.f.s             ",
"                                              @ $.=.` W <.@           -.g.=.` ,.h.s             ",
"                                              . i.X j.X k..           ).9.l.j.X *.              ",
"                                                . @ @ @ .               ).@ @ @                 ",
"                                                                                                ",
"                                                                                                ",
"                                                                                                "};
