/* XPM */
static char * enemy_left_static_xpm[] = {
"48 48 136 2",
"  	c None",
". 	c #73C7A1",
"+ 	c #71C6A0",
"@ 	c #70C59F",
"# 	c #72C7A1",
"$ 	c #75C8A2",
"% 	c #56B791",
"& 	c #3CAB85",
"* 	c #67C09A",
"= 	c #74C8A2",
"- 	c #59B892",
"; 	c #41AD87",
"> 	c #68C09A",
", 	c #6EC49E",
"' 	c #6FC59F",
") 	c #5EBB95",
"! 	c #3FAC86",
"~ 	c #42AD87",
"{ 	c #61BC97",
"] 	c #4EB28D",
"^ 	c #6DC39D",
"/ 	c #612529",
"( 	c #601020",
"_ 	c #601C25",
": 	c #60BB96",
"< 	c #44AE88",
"[ 	c #46AF89",
"} 	c #43AE88",
"| 	c #62BD97",
"1 	c #50B48E",
"2 	c #C84848",
"3 	c #63BD97",
"4 	c #58B791",
"5 	c #40AD86",
"6 	c #74C7A1",
"7 	c #76C9A3",
"8 	c #50B38D",
"9 	c #A01838",
"0 	c #6CC29D",
"a 	c #4EB28C",
"b 	c #6AC19B",
"c 	c #6CC39D",
"d 	c #57B791",
"e 	c #4EB38D",
"f 	c #6FC49E",
"g 	c #601421",
"h 	c #52B48E",
"i 	c #3EAC86",
"j 	c #020705",
"k 	c #E07878",
"l 	c #000000",
"m 	c #54B58F",
"n 	c #45AE88",
"o 	c #040E09",
"p 	c #72C6A0",
"q 	c #53B58F",
"r 	c #73C6A0",
"s 	c #5DBA94",
"t 	c #54B590",
"u 	c #52B48F",
"v 	c #72C5A0",
"w 	c #07130D",
"x 	c #D8A078",
"y 	c #73C6A1",
"z 	c #601F26",
"A 	c #703A41",
"B 	c #503060",
"C 	c #E8E8F8",
"D 	c #601522",
"E 	c #703840",
"F 	c #F8D0B8",
"G 	c #613030",
"H 	c #602228",
"I 	c #72C59F",
"J 	c #704446",
"K 	c #7CCBA6",
"L 	c #8BD3B1",
"M 	c #8AD2B0",
"N 	c #8BD2B1",
"O 	c #82CEAA",
"P 	c #202840",
"Q 	c #404068",
"R 	c #86D0AD",
"S 	c #A5E1C4",
"T 	c #A4E0C2",
"U 	c #A5E1C3",
"V 	c #92D6B6",
"W 	c #70C69F",
"X 	c #263746",
"Y 	c #A2DFC1",
"Z 	c #A3E0C2",
"` 	c #91D6B5",
" .	c #253444",
"..	c #233043",
"+.	c #281850",
"@.	c #78C9A4",
"#.	c #8FD4B3",
"$.	c #8DD4B2",
"%.	c #8ED4B3",
"&.	c #87D1AE",
"*.	c #72C7A0",
"=.	c #7ECCA8",
"-.	c #A6E1C4",
";.	c #A4E0C3",
">.	c #99DABB",
",.	c #0A120E",
"'.	c #8AD1AF",
").	c #7DCCA7",
"!.	c #A3DFC2",
"~.	c #98D9BA",
"{.	c #06130D",
"].	c #14201A",
"^.	c #8DD3B2",
"/.	c #99DABA",
"(.	c #6DC49D",
"_.	c #6EC59E",
":.	c #77C9A4",
"<.	c #89D2AF",
"[.	c #88D1AF",
"}.	c #88D1AE",
"|.	c #8BD2B0",
"1.	c #92D6B5",
"2.	c #89D1AF",
"3.	c #7BCAA6",
"4.	c #80CDA9",
"5.	c #93D7B6",
"6.	c #7DCBA7",
"7.	c #96D8B8",
"8.	c #81CDAA",
"9.	c #95D8B8",
"0.	c #81CEAA",
"a.	c #97D9B9",
"b.	c #85CFAC",
"c.	c #85D0AD",
"d.	c #7BCBA6",
"e.	c #7CCBA7",
". . . . . . . . . . . . . . . . . . . . . . . . . . . . . . . . . . . . . . . . . . . . . . . . ",
". . . . . . . . . . . . . . . . . . . . . . . . . . . . . . . . . . . . . . . . . . . . . . . . ",
". . . . . . . . . . . . . . . . . . . . . . . . . . . . . . . . . . . . . . . . . . . . . . . . ",
". . . . . . . . . . . . . . . . . . . . . . . . . . . . . . . . . . . . . . . . . . . . . . . . ",
". . . . . . . . . . . . . . . . . . . . . . . . . . . . . . . . . . . . . . . . . . . . . . . . ",
". . . . . . . . . . . . . . . . . . . . . . . . . . . . . . . . . + @ # . . . . . . . . . . . . ",
". . . . . . . . . . . . . . . . . . . . . . . . . . . . . . . . $ % & * = . . . . . . . . . . . ",
". . . . . . . . . . . . . . . . . . . . . . . . . . . . . . . . $ - ; > = . . . . . . . . . . . ",
". . . . . . . . . . . . . . . . . . . . . . . . . . . . . . . . $ - ; > = . . . . . . . . . . . ",
". . . . . . . . . . . . . . . . . . . . . . . + , , , + . . . . $ - ; > = . . . . . . ' , # . . ",
". . . . . . . . . . . . . . . . . . . . . . = ) ! ~ ! { = . . . $ - ; > = . . . . . $ ] & ^ . . ",
". . . . . . . . . . . . . . . . . . . . / ( _ : < [ } | = . . . $ - ; > = . . . . . $ 1 ; , . . ",
". . . . . . . . . . . . . . . . . . . . / 2 2 ( ( ( ~ 3 $ . . . $ 4 5 * = . . . 6 6 7 8 5 , . . ",
". . . . . . . . . . . . . . . . . . . . . _ 2 2 2 9 ( ( 0 @ . . = ) a b 6 . . , c c ^ d e f . . ",
". . . . . . . . . . . . . . . . . . . . / ( 9 9 2 2 2 9 g 3 = . . = $ 6 . . $ h ; ~ i , 7 . . . ",
". . . . . . . . . . . . . . . . . . . j 9 2 2 2 2 2 2 k 2 l = . . . . . . . $ m n [ ~ ^ 6 . . . ",
". . . . . . . . . . . . . . . . . . o 9 2 2 2 2 2 2 k k k 2 l p . . . . . . $ q } n ; c 6 . . . ",
". . . . . . . . . . . . . . . . r l 9 ( 2 2 2 k 2 k k k k 2 l p . . . . . . = s m t u , . . . . ",
". . . . . . . . . . . . . . . . v l ( 2 2 2 9 2 k k 2 k 2 2 2 l . . . . . . . = $ $ $ . . . . . ",
". . . . . . . . . . . . . . . . j 9 ( 2 2 2 2 9 2 2 2 2 2 2 2 l . . . . . . . . . . . . . . . . ",
". . . . . . . . . . . . . . . p w 9 ( 2 2 2 2 2 9 2 2 2 2 2 9 l . . . . . . . . . . . . . . . . ",
". . . . . . . . . . . . . . . . . l 9 ( 2 2 2 2 9 9 2 2 2 9 9 ( . . . . . . . . . . . . . . . . ",
". . . . . . . . . . . . . . . . . j 9 x ( 2 9 2 2 9 9 9 9 9 9 ( y . . . . . . . . . . . . . . . ",
". . . . . . . . . . . . . . . . . . o x x l 2 9 2 9 9 9 9 9 z . . . . . . . . . . . . . . . . . ",
". . . . . . . . . . . . . . . . . . A x B C ( 2 9 9 9 9 9 9 D . . . . . . . . . . . . . . . . . ",
". . . . . . . . . . . . . . . . . . E F l C x ( 9 9 9 9 9 9 ( ( G . . . . . . . . . . . . . . . ",
". . . . . . . . . . . . . . . . . . x F F F F ( 9 9 9 9 9 ( 9 9 H . . . . . . p p p p . . . . . ",
". . . . . . . . . . . . . . . . . . p E F F x x ( 9 9 9 9 9 9 ( I . . . . . . p p p p . . . . . ",
". . . . . . . . . . . . . # + + + p . . J E E E l ( 9 9 ( _ D . . . . . . . . p p p p . . . . . ",
". . . . . . . . . . . . # K L M N O p . . P Q E P l ( ( ( p . . . . . . . . . . p p p . . . . . ",
". . . . . . . . . . . . + R S T U V W . X ( l Q Q P l p . . . . . . . . . . . . . . . . . . . . ",
". . . . . . . . . . . . + R T Y Z ` W .  .( l 2 Q ( l . . . . . . . . . . . . . . . . . . . . . ",
". . . # + + + + . . . . + R T Y Z ` W . ..l F F 9 +.+.l . . . . . . . . . . . . . . . . . . . . ",
". . # @.#.$.%.&.+ . . . + R T Y Z ` W . j B x x ( B +.l *.. . . . . . . . . . . . . . . . . . . ",
". . *.=.-.Z ;.>.W . . . + R T Y Z ` W . I l l ( ( ( ,.'.+ . . . . . . . . . . . . . . . . . . . ",
". . *.).;.Y !.~.W . . . + R T Y Z ` W . . v {.l l ].T M + . . . . . . . . . . . . . . . . . . . ",
". . *.).;.Y !.~.W . . . + R T Y Z ` W . . . + ^.Z Y T M + . . . . . . . . . . . . . . . . . . . ",
". . *.).;.Y !.~.W . . . + R T Y Z ` W . . . + ^.Z Y T M + . . . . . . . . . . . . . . . . . . . ",
". . *.=.-.T ;./.(.W W + + R -.T U V W p W W _.^.U T U N + . . . . . . . . . . . . . . . . . . . ",
". . . :.<.[.}.|.V 1.V 2.+ 3.2.[.2.4.+ O 5.1.1.^.}.[.2.6.# . . . . . . . . . . . . . . . . . . . ",
". . . . + + W 4.U Z ;.7.W # + + + *.+ |.U Z U ^.' + + # . . . . . . . . . . . . . . . . . . . . ",
". . . . . . p 8.;.Y Z 9.W . . . . . + M T Y Z ^.+ . . . . . . . . . . . . . . . . . . . . . . . ",
". . . . . . p 0.-.T U a.W . . . . . + N S T U %.+ . . . . . . . . . . . . . . . . . . . . . . . ",
". . . . . . . @.R b.c.4.*.. . . . . # d.R b.R e.# . . . . . . . . . . . . . . . . . . . . . . . ",
". . . . . . . . + + + *.. . . . . . . # + + + # . . . . . . . . . . . . . . . . . . . . . . . . ",
". . . . . . . . . . . . . . . . . . . . . . . . . . . . . . . . . . . . . . . . . . . . . . . . ",
". . . . . . . . . . . . . . . . . . . . . . . . . . . . . . . . . . . . . . . . . . . . . . . . ",
". . . . . . . . . . . . . . . . . . . . . . . . . . . . . . . . . . . . . . . . . . . . . . . . "};
