/* XPM */
static char * enemy_front_move2_xpm[] = {
"48 48 138 2",
"  	c #73C7A1",
". 	c #72C7A1",
"+ 	c #70C59F",
"@ 	c #71C6A0",
"# 	c #74C8A2",
"$ 	c #67C09A",
"% 	c #3CAB85",
"& 	c #56B791",
"* 	c #75C8A2",
"= 	c #68C09A",
"- 	c #41AD87",
"; 	c #59B892",
"> 	c #6EC49E",
", 	c #6FC59F",
"' 	c #6DC39D",
") 	c #4EB28D",
"! 	c #61BC97",
"~ 	c #3FAC86",
"{ 	c #42AD87",
"] 	c #601020",
"^ 	c #50B48E",
"/ 	c #62BD97",
"( 	c #43AE88",
"_ 	c #46AF89",
": 	c #C84848",
"< 	c #40AD86",
"[ 	c #50B38D",
"} 	c #76C9A3",
"| 	c #74C7A1",
"1 	c #58B791",
"2 	c #63BD97",
"3 	c #A01838",
"4 	c #6FC49E",
"5 	c #4EB38D",
"6 	c #57B791",
"7 	c #6CC39D",
"8 	c #6AC19B",
"9 	c #4EB28C",
"0 	c #5EBB95",
"a 	c #601522",
"b 	c #3EAC86",
"c 	c #52B48E",
"d 	c #E07878",
"e 	c #601C25",
"f 	c #45AE88",
"g 	c #54B58F",
"h 	c #020704",
"i 	c #0D1F17",
"j 	c #53B58F",
"k 	c #52B48F",
"l 	c #54B590",
"m 	c #5DBA94",
"n 	c #020705",
"o 	c #000000",
"p 	c #73C6A0",
"q 	c #602228",
"r 	c #091811",
"s 	c #07130D",
"t 	c #D8A078",
"u 	c #040E09",
"v 	c #B0B0C8",
"w 	c #503060",
"x 	c #72C59F",
"y 	c #E8E8F8",
"z 	c #F8D0B8",
"A 	c #0F2219",
"B 	c #72C6A0",
"C 	c #73C6A1",
"D 	c #0B1B14",
"E 	c #703840",
"F 	c #12271D",
"G 	c #404068",
"H 	c #613734",
"I 	c #202840",
"J 	c #1A3025",
"K 	c #8BD2B1",
"L 	c #8AD2B0",
"M 	c #8BD3B1",
"N 	c #7CCBA6",
"O 	c #714548",
"P 	c #A5E1C3",
"Q 	c #A4E0C2",
"R 	c #A5E1C4",
"S 	c #86D0AD",
"T 	c #703A41",
"U 	c #703B41",
"V 	c #724649",
"W 	c #A2DFC1",
"X 	c #281850",
"Y 	c #714146",
"Z 	c #87D1AE",
"` 	c #8ED4B3",
" .	c #8DD4B2",
"..	c #8FD4B3",
"+.	c #78C9A4",
"@.	c #70C69F",
"#.	c #91D6B5",
"$.	c #A3E0C2",
"%.	c #99DABB",
"&.	c #A4E0C3",
"*.	c #A6E1C4",
"=.	c #7ECCA8",
"-.	c #72C7A0",
";.	c #0A1510",
">.	c #363B5A",
",.	c #8DD3B2",
"'.	c #98D9BA",
").	c #A3DFC2",
"!.	c #7DCCA7",
"~.	c #0D1A14",
"{.	c #1C2A23",
"].	c #1E2D26",
"^.	c #14201A",
"/.	c #6EC59E",
"(.	c #92D6B6",
"_.	c #6DC49D",
":.	c #99DABA",
"<.	c #7DCBA7",
"[.	c #89D1AF",
"}.	c #88D1AF",
"|.	c #88D1AE",
"1.	c #92D6B5",
"2.	c #93D7B6",
"3.	c #82CEAA",
"4.	c #80CDA9",
"5.	c #7BCAA6",
"6.	c #8BD2B0",
"7.	c #89D2AF",
"8.	c #77C9A4",
"9.	c #96D8B8",
"0.	c #95D8B8",
"a.	c #81CDAA",
"b.	c #97D9B9",
"c.	c #81CEAA",
"d.	c #7CCBA7",
"e.	c #85CFAC",
"f.	c #7BCBA6",
"g.	c #85D0AD",
"                                                                                                ",
"                                                                                                ",
"                                                                                                ",
"                                                                                                ",
"                                                                                                ",
"                        . + @                                                                   ",
"                      # $ % & *                                                                 ",
"                      # = - ; *                                                                 ",
"                      # = - ; *                                                                 ",
"    . > ,             # = - ; *         @ > > > @                                               ",
"    ' % ) *           # = - ; *       # ! ~ { ~ ] ]                                             ",
"    > - ^ *           # = - ; *       # / ( _ ] : ]                                             ",
"    > < [ } | |       # $ < 1 *       * 2 { ] : 3 ] ]                                           ",
"    4 5 6 ' 7 7 >     | 8 9 0 #     + 7 ] ] : : ] : : ] a                                       ",
"      } > b { - c *     | * #     # 2 ] 3 : : 3 : d d : 3 e                                     ",
"      | ' { _ f g *               # h : : : : : : d d : : : i                                   ",
"      | 7 - f ( j *               a 3 : d : : : d d : : : : 3 ]                                 ",
"        > k l g m #               n : : : d d d : : : 3 : : : o p                               ",
"          * * * #               ] 3 : : 3 : : : : : : : 3 : : 3 q                               ",
"                                o 3 : 3 : : : : : : : : : 3 : 3 r                               ",
"                                o 3 3 : : : ] : : : : 3 : 3 : 3 s                               ",
"                                o 3 3 : : : t ] 3 : : : 3 : 3 3 u                               ",
"                                ] 3 3 3 : 3 t t t ] ] : : 3 3 3 a                               ",
"                                  ] 3 3 3 o t t t t t o : 3 3 e                                 ",
"                                  ] 3 3 ] v w t t t w v ] 3 3 e x                               ",
"                              o ] 3 3 ] t y o z z z o y t ] 3 3 ] A                             ",
"          B B B B           C o 3 ] 3 ] t z z z z z z z t ] 3 ] 3 D                             ",
"          B B B B             B o ] o o E t z z t z z t E o 3 ] F                               ",
"          B B B B                 s G G G o E t t t E o G o H @ @ @ .                           ",
"          B B B                 E t 3 G I G I I 3 I I G G G J K L M N .                         ",
"                                E t t o I G G I 3 I G o G : O P Q R S @                         ",
"                                  T U   o 3 G I : I G o 3 t z V W Q S @                         ",
"                                      o X w 3 3 w 3 3 X u t t Y W Q S @         @ @ @ @ .       ",
"                                      o w w w w X X X r B E E W W Q S @       @ Z `  ...+..     ",
"                                      o X w w w o o A     @.#.$.W Q S @       @.%.&.$.*.=.-.    ",
"                                      @ ;.w w >.,.@       @.#.$.W Q S @       @.'.).W &.!.-.    ",
"                                      @ ~.3 3 {.,.@       @.#.$.W Q S @       @.'.).W &.!.-.    ",
"                                      @ L ].^.$.,.@       @.#.$.W Q S @       @.'.).W &.!.-.    ",
"                                      @ K P Q P ,./.@.@.B @.(.P Q *.S @ @ @.@._.:.&.Q *.=.-.    ",
"                                      . <.[.}.|.,.1.1.2.3.@ 4.[.}.[.5.@ [.(.1.(.6.|.}.7.8.      ",
"                                        . @ @ , ,.P $.P 6.@ -.@ @ @ . @.9.&.$.P 4.@.@ @         ",
"                                              @ ,.$.W Q L @           @.0.$.W &.a.B             ",
"                                              @ ` P Q R K @           @.b.P Q *.c.B             ",
"                                              . d.S e.S f..           -.4.g.e.S +.              ",
"                                                . @ @ @ .               -.@ @ @                 ",
"                                                                                                ",
"                                                                                                ",
"                                                                                                "};
