/* XPM */
static char * enemy_back_move2_xpm[] = {
"48 48 147 2",
"  	c #73C7A1",
". 	c #72C7A1",
"+ 	c #70C59F",
"@ 	c #71C6A0",
"# 	c #74C8A2",
"$ 	c #67C09A",
"% 	c #3CAB85",
"& 	c #56B791",
"* 	c #75C8A2",
"= 	c #68C09A",
"- 	c #41AD87",
"; 	c #59B892",
"> 	c #6EC49E",
", 	c #6FC59F",
"' 	c #6DC29C",
") 	c #601020",
"! 	c #60292C",
"~ 	c #6DC39D",
"{ 	c #4EB28D",
"] 	c #61BC97",
"^ 	c #40AB85",
"/ 	c #C84848",
"( 	c #603532",
"_ 	c #50B48E",
": 	c #73C6A0",
"< 	c #62BD97",
"[ 	c #601A23",
"} 	c #A01838",
"| 	c #601C25",
"1 	c #40AD86",
"2 	c #50B38D",
"3 	c #76C9A3",
"4 	c #74C7A1",
"5 	c #58B791",
"6 	c #73C6A1",
"7 	c #612A2C",
"8 	c #601522",
"9 	c #72C6A0",
"0 	c #6FC49E",
"a 	c #4EB38D",
"b 	c #57B791",
"c 	c #6CC39D",
"d 	c #6AC19B",
"e 	c #4EB28C",
"f 	c #5EBB95",
"g 	c #61302F",
"h 	c #E07878",
"i 	c #72C5A0",
"j 	c #3EAC86",
"k 	c #42AD87",
"l 	c #52B48E",
"m 	c #71C49E",
"n 	c #000000",
"o 	c #71C39E",
"p 	c #46AF89",
"q 	c #45AE88",
"r 	c #54B58F",
"s 	c #61272B",
"t 	c #72C59F",
"u 	c #43AE88",
"v 	c #53B58F",
"w 	c #020705",
"x 	c #71C39D",
"y 	c #52B48F",
"z 	c #54B590",
"A 	c #5DBA94",
"B 	c #612529",
"C 	c #613633",
"D 	c #0D1F17",
"E 	c #10241B",
"F 	c #07130D",
"G 	c #612E2E",
"H 	c #152B21",
"I 	c #A01C39",
"J 	c #284B3B",
"K 	c #202840",
"L 	c #13291F",
"M 	c #703840",
"N 	c #D8A078",
"O 	c #404068",
"P 	c #602228",
"Q 	c #72C49F",
"R 	c #704748",
"S 	c #704C4B",
"T 	c #281850",
"U 	c #7FCAA6",
"V 	c #8BD2B1",
"W 	c #8AD2B0",
"X 	c #8BD3B1",
"Y 	c #7CCBA6",
"Z 	c #F8D0B8",
"` 	c #A1DDBF",
" .	c #A4E0C2",
"..	c #A5E1C4",
"+.	c #86D0AD",
"@.	c #503060",
"#.	c #A2DFC1",
"$.	c #704446",
"%.	c #91D6B5",
"&.	c #A3E0C2",
"*.	c #243B30",
"=.	c #20392E",
"-.	c #1B372A",
";.	c #203F31",
">.	c #6FC39C",
",.	c #87D1AE",
"'.	c #8ED4B3",
").	c #8DD4B2",
"!.	c #8FD4B3",
"~.	c #78C9A4",
"{.	c #70C69F",
"].	c #99DABB",
"^.	c #A4E0C3",
"/.	c #A6E1C4",
"(.	c #7ECCA8",
"_.	c #72C7A0",
":.	c #8DD3B2",
"<.	c #98D9BA",
"[.	c #A3DFC2",
"}.	c #7DCCA7",
"|.	c #273930",
"1.	c #89D1AF",
"2.	c #A5E1C3",
"3.	c #6EC59E",
"4.	c #92D6B6",
"5.	c #6DC49D",
"6.	c #99DABA",
"7.	c #7DCBA7",
"8.	c #88D1AF",
"9.	c #88D1AE",
"0.	c #92D6B5",
"a.	c #93D7B6",
"b.	c #82CEAA",
"c.	c #80CDA9",
"d.	c #7BCAA6",
"e.	c #8BD2B0",
"f.	c #89D2AF",
"g.	c #77C9A4",
"h.	c #96D8B8",
"i.	c #95D8B8",
"j.	c #81CDAA",
"k.	c #97D9B9",
"l.	c #81CEAA",
"m.	c #7CCBA7",
"n.	c #85CFAC",
"o.	c #7BCBA6",
"p.	c #85D0AD",
"                                                                                                ",
"                                                                                                ",
"                                                                                                ",
"                                                                                                ",
"                                                                                                ",
"                        . + @                                                                   ",
"                      # $ % & *                                                                 ",
"                      # = - ; *                                                                 ",
"                      # = - ; *                                                                 ",
"    . > ,             # = - ; *         @ ' ) ! +                                               ",
"    ~ % { *           # = - ; *       # ] ^ ) / (                                               ",
"    > - _ *           # = - ; *       : < [ ) } / |                                             ",
"    > 1 2 3 4 4       # $ 1 5 *     6 7 ) / / ) / / ) 8 9                                       ",
"    0 a b ~ c c >     4 d e f #     g } / h h / } / / } ) i                                     ",
"      3 > j k - l *     4 * #   m n / / / h h / / / / / / n o                                   ",
"      4 ~ k p q r *             s } / / / / h h / / / h / } ) t                                 ",
"      4 c - q u v *           9 w / / / / / / / h h h / / / n x                                 ",
"        > y z r A #           B } / / / / / / / / / / / / / } C                                 ",
"          * * * #             D } / / / / / / / / / / / / / } E                                 ",
"                              D } } / / / / / / / / / / / } } F                                 ",
"                              D } } } / / / / / / / / / } } } n                                 ",
"                              G } } } } } } / / / } } } } } } ) 9                               ",
"                              9 ) } } } } } } } } } } } } } )                                   ",
"                              6 ) } } } } } } } } } } } } } )                                   ",
"                              F ) } } } } } } } } } } } } } ) H                                 ",
"                            6 E I } ) } } } } ) } } } } ) } } J                                 ",
"          9 9 9 9               E ) } } ) } K K K } ) } } ) L                                   ",
"          9 9 9 9           t M N ) n K ) ) O O O ) ) K n P t                                   ",
"          9 9 9 9           Q R N N } O O O O O O O O O O n i @ @ @ .                           ",
"          9 9 9                 S M n T O O O O O O K O / M U V W X Y .                         ",
"                                  : n T } O O O O O K } Z Z M `  ...+.@                         ",
"                                    n @.T } } } } } K K N N M #.#. .+.@                         ",
"                                  : n @.@.T T T T T @.n M $.%.&.#. .+.@         @ @ @ @ .       ",
"                                  : E T @.@.@.*.=.-.;.  i >.%.&.#. .+.@       @ ,.'.).!.~..     ",
"                                    9 n T @.T  .'.@       {.%.&.#. .+.@       {.].^.&./.(._.    ",
"                                    9 n } } n &.:.@       {.%.&.#. .+.@       {.<.[.#.^.}._.    ",
"                                      + n |.#.&.:.@       {.%.&.#. .+.@       {.<.[.#.^.}._.    ",
"                                      @ 1. .#.&.:.@       {.%.&.#. .+.@       {.<.[.#.^.}._.    ",
"                                      @ V 2. .2.:.3.{.{.9 {.4.2. ./.+.@ @ {.{.5.6.^. ./.(._.    ",
"                                      . 7.1.8.9.:.0.0.a.b.@ c.1.8.1.d.@ 1.4.0.4.e.9.8.f.g.      ",
"                                        . @ @ , :.2.&.2.e.@ _.@ @ @ . {.h.^.&.2.c.{.@ @         ",
"                                              @ :.&.#. .W @           {.i.&.#.^.j.9             ",
"                                              @ '.2. ...V @           {.k.2. ./.l.9             ",
"                                              . m.+.n.+.o..           _.c.p.n.+.~.              ",
"                                                . @ @ @ .               _.@ @ @                 ",
"                                                                                                ",
"                                                                                                ",
"                                                                                                "};
