/* XPM */
static char *result[] = {
/* columns rows colors chars-per-pixel */
"48 48 146 2 ",
"   c black",
".  c #040E09",
"X  c #091811",
"o  c #0D1F17",
"O  c #10241B",
"+  c #13291F",
"@  c #173025",
"#  c #1B3529",
"$  c #1C372B",
"%  c #1E3A2D",
"&  c gray19",
"*  c #303231",
"=  c #313432",
"-  c #313533",
";  c #323734",
":  c #333A36",
">  c #701010",
",  c #244436",
"<  c #264839",
"1  c #284C3C",
"2  c #35413B",
"3  c #394C42",
"4  c #C82020",
"5  c #E85050",
"6  c #F07070",
"7  c #3CAB85",
"8  c #3DAB85",
"9  c #3EAC86",
"0  c #3FAC86",
"q  c #40AD86",
"w  c #41AD87",
"e  c #42AD87",
"r  c #42AE88",
"t  c #43AE88",
"y  c #44AE88",
"u  c #45AE88",
"i  c #45AF89",
"p  c #46AF89",
"a  c #4EB28C",
"s  c #4EB28D",
"d  c #4EB38D",
"f  c #4FB38D",
"g  c #50B38D",
"h  c #50B48E",
"j  c #51B48E",
"k  c #52B48E",
"l  c #52B48F",
"z  c #53B58F",
"x  c #55B48E",
"c  c #54B58F",
"v  c #54B590",
"b  c #56B791",
"n  c #57B791",
"m  c #58B791",
"M  c #59B892",
"N  c #5DBA94",
"B  c #5EBB95",
"V  c #5FBB95",
"C  c #62B993",
"Z  c #60BB96",
"A  c #61BC97",
"S  c #62BD97",
"D  c #63BD97",
"F  c #63BE98",
"G  c #64BE98",
"H  c #67C09A",
"J  c #68C09A",
"K  c #6AC19B",
"L  c #6CC39D",
"P  c #6DC39D",
"I  c #6DC49D",
"U  c #6EC49E",
"Y  c #6FC49E",
"T  c #6EC59E",
"R  c #6FC59F",
"E  c #70C59F",
"W  c #70C69F",
"Q  c #74C59F",
"!  c #76C49E",
"~  c #76C69F",
"^  c #77C69F",
"/  c #79C69F",
"(  c #71C6A0",
")  c #72C6A0",
"_  c #72C7A0",
"`  c #72C7A1",
"'  c #73C7A1",
"]  c #74C6A0",
"[  c #75C6A0",
"{  c #74C7A0",
"}  c #74C7A1",
"|  c #76C6A0",
" . c #74C8A2",
".. c #75C8A2",
"X. c #76C9A3",
"o. c #77C9A4",
"O. c #78C9A4",
"+. c #7BCAA6",
"@. c #7BCBA6",
"#. c #7CCBA6",
"$. c #7CCBA7",
"%. c #7DCBA7",
"&. c #7DCCA7",
"*. c #7ECCA8",
"=. c #7FCDA9",
"-. c #A0A0A0",
";. c #80CDA9",
":. c #81CDAA",
">. c #81CEAA",
",. c #82CEAA",
"<. c #85CFAC",
"1. c #85D0AD",
"2. c #86D0AD",
"3. c #87D1AE",
"4. c #88D1AE",
"5. c #88D1AF",
"6. c #89D1AF",
"7. c #89D2AF",
"8. c #8AD2B0",
"9. c #8BD2B0",
"0. c #8BD2B1",
"q. c #8BD3B1",
"w. c #8DD3B2",
"e. c #8DD4B2",
"r. c #8ED4B3",
"t. c #8FD4B3",
"y. c #91D6B5",
"u. c #92D6B5",
"i. c #92D6B6",
"p. c #93D7B6",
"a. c #95D8B8",
"s. c #96D8B8",
"d. c #97D9B9",
"f. c #98D9BA",
"g. c #99DABA",
"h. c #99DABB",
"j. c #A2DFC1",
"k. c #A3DFC2",
"l. c #A3E0C2",
"z. c #A4E0C2",
"x. c #A4E0C3",
"c. c #A5E1C3",
"v. c #A5E1C4",
"b. c #A6E1C4",
"n. c #C8C8D0",
"m. c #E8E8F8",
/* pixels */
"' ' ' ' ' ' ' ' ' ' ' ' ' ' ' ' ' ' ' ' ' ' ' ' ' ' ' ' ' ' ' ' ' ' ' ' ' ' ' ' ' ' ' ' ' ' ' ' ",
"' ' ' ' ' ' ' ' ' ' ' ' ' ' ' ' ' ' ' ' ' ' ' ' ' ' ' ' ' ' ' ' ' ' ' ' ' ' ' ' ' ' ' ' ' ' ' ' ",
"' ' ' ' ' ' ' ' ' ' ' ' ' ' ' ' ' ' ' ' ' ' ' ' ' ' ' ' ' ' ' ' ' ' ' ' ' ' ' ' ' ' ' ' ' ' ' ' ",
"' ' ' ' ' ' ' ' ' ' ' ' ' ' ' ' ' ' ' ' ' ' ' ' ' ' ' ' ' ' ' ' ' ' ' ' ' ' ' ' ' ' ' ' ' ' ' ' ",
"' ' ' ' ' ' ' ' ' ' ' ' ' ' ' ' ' ' ' ' ' ' ' ' ' ' ' ' ' ' ' ' ' ' ' ' ' ' ' ' ' ' ' ' ' ' ' ' ",
"' ' ' ' ' ' ' ' ' ' ' ' ` E ( ' ' ' ' ' ' ' ' ' ' ' ' ' ' ' ' ' ' ' ' ' ' ' ' ' ' ' ' ' ' ' ' ' ",
"' ' ' ' ' ' ' ' ' ' '  .H 7 b ..' ' ' ' ' ' ' ' ' ' ' ' ' ' ' ' ' ' ' ' ' ' ' ' ' ' ' ' ' ' ' ' ",
"' ' ' ' ' ' ' ' ' ' '  .J w M ..' ' ' ' ' ' ' ' ' ' ' ' ' ' ' ' ' ' ' ' ' ' ' ' ' ' ' ' ' ' ' ' ",
"' ' ' ' ' ' ' ' ' ' '  .J w M ..' ' ' ' ' ' ' ' ' ' ' ' ' ' ' ' ' ' ' ' ' ' ' ' ' ' ' ' ' ' ' ' ",
"' ' ` U R ' ' ' ' ' '  .J w M ..' ' ' ' ( U U U ( ' ' ' ' ' ' ' ' ' ' ' ' ' ' ' ' ' ' ' ' ' ' ' ",
"' ' P 7 s ..' ' ' ' '  .J w M ..' ' '  .A 0 e 0 B  .' ' ' ' ' ' ' ' ' ' ' ' ' ' ' ' ' ' ' ' ' ' ",
"' ' U w h ..' ' ' ' '  .J w M ..' ' '  .S t p y Z  .' ' ' ' ' ' ' ' ' ' ' ' ' ' ' ' ' ' ' ' ' ' ",
"' ' U q g X.} } ' ' '  .H q m ..' ' ' ..D e i r V  .' ' ' ' ' ' ' ' ' ' ' ' ' ' ' ' ' ' ' ' ' ' ",
"' ' Y d n P L L U ' ' } K a B  .' ' E L A g j f G  .' ' ' ' ' ' ' ' ' ' ' ' ' ' ' ' ' ' ' ' ' ' ",
"' ' ' X.U 9 e w k ..' ' } .. .' '  .D 8 N X..... .' ' ' ' ' ' ' ' ' ' ' ' ' ' ' ' ' ' ' ' ' ' ' ",
"' ' ' } P e p u c ..' ' ' ' ' ' '  .G w N  .^ ^ ^ ^ ~ ' ' ' ' ' ' ' ' ' ' ' ' ' ' ' ' ' ' ' ' ' ",
"' ' ' } L w u t z ..' ' ' ' ' ' '  .F 0 C / & & & & 3 ^ ~ ' ' ' ' ' ' ' ' ' ' ' ' ' ' ' ' ' ' ' ",
"' ' ' ' U l v c N  .' ' ' ' ' ' ' } J x & & 5 6 6 6 5 & ; ~ ' ' ' ' ' ' ' ' ' ' ' ' ' ' ' ' ' ' ",
"' ' ' ' ' ...... .' ' ' ' ' ' ' ' ' | & 4 5 6 6 6 6 6 5 4 2 ' ' ' ' ' ' ' ' ' ' ' ' ' ' ' ' ' ' ",
"' ' ' ' ' ' ' ' ' ' ' ' ' ' ' ' ' ' & 4 5 5 6 6 6 6 6 5 5 4 = ' ' ' ' ' ' ' ' ' ' ' ' ' ' ' ' ' ",
"' ' ' ' ' ' ' ' ' ' ' ' ' ' ' ' ' ' & 4 5 5 5 6 6 6 5 5 5 4 : { ' ' ' ' ' ' ' ' ' ' ' ' ' ' ' ' ",
"' ' ' ' ' ' ' ' ' ' ' ' ' ' ' ' [ & 4 4 5 5 5 5 5 5 5 5 5 4 4 * ' ' ' ' ' ' ' ' ' ' ' ' ' ' ' ' ",
"' ' ' ' ' ' ' ' ' ' ' ' ' ' ' ' [ & 4 4 4 5 5 5 5 5 5 5 4 4 4 - ' ' ' ' ' ' ' ' ' ' ' ' ' ' ' ' ",
"' ' ' ' ' ' ' ' ' ' ' ' ' ' ' ' | & 4 4 4 4 4 5 5 5 4 4 4 4 4 ; ' ' ' ' ' ' ' ' ' ' ' ' ' ' ' ' ",
"' ' ' ' ' ' ' ' ' ' ' ' ' ' ' ' ~   4 4 n.4 4 > 4 > 4 4 n.4 4 o ' ' ' ' ' ' ' ' ' ' ' ' ' ' ' ' ",
"' ' ' ' ' ' ' ' ' ' ' ' ' ' ' ' ~ O -.4 m.  n.> 4 > n.  m.4 -., ' ' ' ' ' ' ' ' ' ' ' ' ' ' ' ' ",
"' ' ' ' ' ) ) ) ) ' ' ' ' ' ' ' ' ' & -.4 4 4 4 4 4 4 4 4 -.& [ ' ' ' ' ' ' ' ' ' ' ' ' ' ' ' ' ",
"' ' ' ' ' ) ) ) ) ' ' ' ' ' ' ' ' ' $ -.-.-.4 4 4 4 4 -.-.-.% ' ' ' ' ' ' ' ' ' ' ' ' ' ' ' ' ' ",
"' ' ' ' ' ) ) ) ) ' ' ' ' ' ' ' ' ' ' + -.-.-.-.-.-.-.-.-.# ! ( ( ( ` ' ' ' ' ' ' ' ' ' ' ' ' ' ",
"' ' ' ' ' ) ) ) ' ' ' ' ' ' ' ' ' ' ' { < 1 -.-.-.-.-.@   Q ,.0.8.q.#.` ' ' ' ' ' ' ' ' ' ' ' ' ",
"' ' ' ' ' ' ' ' ' ' ' ' ' ' ' ' ' ' ' ' ' [ $ .     X ' ] W i.c.z.v.2.( ' ' ' ' ' ' ' ' ' ' ' ' ",
"' ' ' ' ' ' ' ' ' ' ' ' ' ' ' ' ' ' ' ' ' ' ' ' ' } ~ ' ' W y.l.j.z.2.( ' ' ' ' ' ' ' ' ' ' ' ' ",
"' ' ' ' ' ' ' ' ' ' ' ' ' ' ' ' ' ' ' ' _ ( ( ( _ ' ' ' ' W y.l.j.z.2.( ' ' ' ' ( ( ( ( ` ' ' ' ",
"' ' ' ' ' ' ' ' ' ' ' ' ' ' ' ' ' ' ' _ =.r.e.r.:._ ' ' ' W y.l.j.z.2.( ' ' ' ( 3.r.e.t.O.` ' ' ",
"' ' ' ' ' ' ' ' ' ' ' ' ' ' ' ' ' ' ' ( 9.c.l.c.r.( ' ' ' W y.l.j.z.2.( ' ' ' W h.x.l.b.*._ ' ' ",
"' ' ' ' ' ' ' ' ' ' ' ' ' ' ' ' ' ' ' ( 8.z.j.l.w.( ' ' ' W y.l.j.z.2.( ' ' ' W f.k.j.x.&._ ' ' ",
"' ' ' ' ' ' ' ' ' ' ' ' ' ' ' ' ' ' ' ( 8.z.j.l.w.( ' ' ' W y.l.j.z.2.( ' ' ' W f.k.j.x.&._ ' ' ",
"' ' ' ' ' ' ' ' ' ' ' ' ' ' ' ' ' ' ' ( 8.z.j.l.w.( ' ' ' W y.l.j.z.2.( ' ' ' W f.k.j.x.&._ ' ' ",
"' ' ' ' ' ' ' ' ' ' ' ' ' ' ' ' ' ' ' ( 0.c.z.c.w.T W W ) W i.c.z.b.2.( ( W W I g.x.z.b.*._ ' ' ",
"' ' ' ' ' ' ' ' ' ' ' ' ' ' ' ' ' ' ' ` %.6.5.4.w.u.u.p.,.( ;.6.5.6.+.( 6.i.u.i.9.4.5.7.o.' ' ' ",
"' ' ' ' ' ' ' ' ' ' ' ' ' ' ' ' ' ' ' ' ` ( ( R w.c.l.c.9.( _ ( ( ( ` W s.x.l.c.;.W ( ( ' ' ' ' ",
"' ' ' ' ' ' ' ' ' ' ' ' ' ' ' ' ' ' ' ' ' ' ' ( w.l.j.z.8.( ' ' ' ' ' W a.l.j.x.:.) ' ' ' ' ' ' ",
"' ' ' ' ' ' ' ' ' ' ' ' ' ' ' ' ' ' ' ' ' ' ' ( r.c.z.v.0.( ' ' ' ' ' W d.c.z.b.>.) ' ' ' ' ' ' ",
"' ' ' ' ' ' ' ' ' ' ' ' ' ' ' ' ' ' ' ' ' ' ' ` $.2.<.2.@.` ' ' ' ' ' _ ;.1.<.2.O.' ' ' ' ' ' ' ",
"' ' ' ' ' ' ' ' ' ' ' ' ' ' ' ' ' ' ' ' ' ' ' ' ` ( ( ( ` ' ' ' ' ' ' ' _ ( ( ( ' ' ' ' ' ' ' ' ",
"' ' ' ' ' ' ' ' ' ' ' ' ' ' ' ' ' ' ' ' ' ' ' ' ' ' ' ' ' ' ' ' ' ' ' ' ' ' ' ' ' ' ' ' ' ' ' ' ",
"' ' ' ' ' ' ' ' ' ' ' ' ' ' ' ' ' ' ' ' ' ' ' ' ' ' ' ' ' ' ' ' ' ' ' ' ' ' ' ' ' ' ' ' ' ' ' ' ",
"' ' ' ' ' ' ' ' ' ' ' ' ' ' ' ' ' ' ' ' ' ' ' ' ' ' ' ' ' ' ' ' ' ' ' ' ' ' ' ' ' ' ' ' ' ' ' ' "
};
