/* XPM */
static char * enemy_front_move1_xpm[] = {
"48 48 137 2",
"  	c #73C7A1",
". 	c #72C7A1",
"+ 	c #70C59F",
"@ 	c #71C6A0",
"# 	c #74C8A2",
"$ 	c #67C09A",
"% 	c #3CAB85",
"& 	c #56B791",
"* 	c #75C8A2",
"= 	c #68C09A",
"- 	c #41AD87",
"; 	c #59B892",
"> 	c #6EC49E",
", 	c #6FC59F",
"' 	c #6DC39D",
") 	c #4EB28D",
"! 	c #61BC97",
"~ 	c #3FAC86",
"{ 	c #42AD87",
"] 	c #601020",
"^ 	c #602027",
"/ 	c #50B48E",
"( 	c #62BD97",
"_ 	c #43AE88",
": 	c #47AE88",
"< 	c #C84848",
"[ 	c #40AD86",
"} 	c #50B38D",
"| 	c #76C9A3",
"1 	c #74C7A1",
"2 	c #58B791",
"3 	c #63BD97",
"4 	c #43AC86",
"5 	c #A01838",
"6 	c #601923",
"7 	c #71C39E",
"8 	c #72C6A0",
"9 	c #6FC49E",
"0 	c #4EB38D",
"a 	c #57B791",
"b 	c #6CC39D",
"c 	c #6AC19B",
"d 	c #4EB28C",
"e 	c #5EBB95",
"f 	c #612C2D",
"g 	c #3EAC86",
"h 	c #52B48E",
"i 	c #E07878",
"j 	c #601522",
"k 	c #46AF89",
"l 	c #45AE88",
"m 	c #54B58F",
"n 	c #000000",
"o 	c #53B58F",
"p 	c #602228",
"q 	c #73C6A1",
"r 	c #52B48F",
"s 	c #54B590",
"t 	c #5DBA94",
"u 	c #73C6A0",
"v 	c #0F2219",
"w 	c #72C59F",
"x 	c #72C5A0",
"y 	c #D8A078",
"z 	c #B0B0C8",
"A 	c #503060",
"B 	c #61272B",
"C 	c #E8E8F8",
"D 	c #F8D0B8",
"E 	c #703840",
"F 	c #152B21",
"G 	c #404068",
"H 	c #0D1E16",
"I 	c #040E09",
"J 	c #202840",
"K 	c #8BD3B1",
"L 	c #7CCBA6",
"M 	c #703B41",
"N 	c #A5E1C4",
"O 	c #86D0AD",
"P 	c #020705",
"Q 	c #70C59E",
"R 	c #703A41",
"S 	c #A2DFC1",
"T 	c #A4E0C2",
"U 	c #281850",
"V 	c #0E2119",
"W 	c #91D6B5",
"X 	c #A3E0C2",
"Y 	c #7FCDA9",
"Z 	c #07100C",
"` 	c #0A1B14",
" .	c #87D1AE",
"..	c #8ED4B3",
"+.	c #8DD4B2",
"@.	c #8FD4B3",
"#.	c #78C9A4",
"$.	c #8BD2B0",
"%.	c #081811",
"&.	c #70C69F",
"*.	c #99DABB",
"=.	c #A4E0C3",
"-.	c #A6E1C4",
";.	c #7ECCA8",
">.	c #72C7A0",
",.	c #8AD2B0",
"'.	c #8DD3B2",
").	c #291F51",
"!.	c #98D9BA",
"~.	c #A3DFC2",
"{.	c #7DCCA7",
"].	c #8BD2B1",
"^.	c #A5E1C3",
"/.	c #6EC59E",
"(.	c #92D6B6",
"_.	c #6DC49D",
":.	c #99DABA",
"<.	c #7DCBA7",
"[.	c #89D1AF",
"}.	c #88D1AF",
"|.	c #88D1AE",
"1.	c #92D6B5",
"2.	c #93D7B6",
"3.	c #82CEAA",
"4.	c #80CDA9",
"5.	c #7BCAA6",
"6.	c #89D2AF",
"7.	c #77C9A4",
"8.	c #96D8B8",
"9.	c #95D8B8",
"0.	c #81CDAA",
"a.	c #97D9B9",
"b.	c #81CEAA",
"c.	c #7CCBA7",
"d.	c #85CFAC",
"e.	c #7BCBA6",
"f.	c #85D0AD",
"                                                                                                ",
"                                                                                                ",
"                                                                                                ",
"                                                                                                ",
"                                                                                                ",
"                        . + @                                                                   ",
"                      # $ % & *                                                                 ",
"                      # = - ; *                                                                 ",
"                      # = - ; *                                                                 ",
"    . > ,             # = - ; *         @ > > > @                                               ",
"    ' % ) *           # = - ; *       # ! ~ { ~ ] ^                                             ",
"    > - / *           # = - ; *       # ( _ : ] < ^                                             ",
"    > [ } | 1 1       # $ [ 2 *       * 3 4 ] < 5 ] 6 7 8                                       ",
"    9 0 a ' b b >     1 c d e #     + b ] ] < < ] < < ] f 8                                     ",
"      | > g { - h *     1 * #     # 3 ] 5 < < 5 < i i < 5 j                                     ",
"      1 ' { k l m *               # n < < < < < < i i < < < n                                   ",
"      1 b - l _ o *               ] 5 < i < < < i i < < < < 5 p q                               ",
"        > r s m t #             u n < < < i i i < < < 5 < < < v                                 ",
"          * * * #               ] 5 < < 5 < < < < < < < 5 < < 5 ] w                             ",
"                                n 5 < 5 < < < < < < < < < 5 < 5 n x                             ",
"                                n 5 5 < < < ] < < < < 5 < 5 < 5 n 8                             ",
"                                n 5 5 < < < y ] 5 < < < 5 < 5 5 n 8                             ",
"                                ] 5 5 5 < 5 y y y ] ] < < 5 5 5 ] u                             ",
"                                u ] 5 5 5 n y y y y y n < 5 5 p                                 ",
"                                u ] 5 5 ] z A y y y A z ] 5 5 B                                 ",
"                              n ] 5 5 ] y C n D D D n C y ] 5 5 ] n                             ",
"          8 8 8 8             n 5 ] 5 ] y D D D D D D D y ] 5 ] 5 n                             ",
"          8 8 8 8               n ] 5 n E y D D y D D y E n n ] F                               ",
"          8 8 8 8                   6 n G n E y y y E n G G G H @ @ .                           ",
"          8 8 8                     I G G G J J 5 J J G J G 5 y E K L .                         ",
"                                    M < G n G J 5 J G G J n y y E N O @                         ",
"                                u E D y 5 n G J < J G 5 P Q E R S T O @                         ",
"                                u E y y n U 5 5 A 5 5 A U V W X S T O @         @ @ @ @ .       ",
"                                  q E R Y Z U U U A A A A ` W X S T O @       @  ...+.@.#..     ",
"                                      @ $.T n n n A A A U %.W X S T O @       &.*.=.X -.;.>.    ",
"                                      @ ,.T S X '.).A A P &.W X S T O @       &.!.~.S =.{.>.    ",
"                                      @ ,.T S X '.I 5 5 I &.W X S T O @       &.!.~.S =.{.>.    ",
"                                      @ ,.T S X '.@ n I   &.W X S T O @       &.!.~.S =.{.>.    ",
"                                      @ ].^.T ^.'./.&.&.8 &.(.^.T -.O @ @ &.&._.:.=.T -.;.>.    ",
"                                      . <.[.}.|.'.1.1.2.3.@ 4.[.}.[.5.@ [.(.1.(.$.|.}.6.7.      ",
"                                        . @ @ , '.^.X ^.$.@ >.@ @ @ . &.8.=.X ^.4.&.@ @         ",
"                                              @ '.X S T ,.@           &.9.X S =.0.8             ",
"                                              @ ..^.T N ].@           &.a.^.T -.b.8             ",
"                                              . c.O d.O e..           >.4.f.d.O #.              ",
"                                                . @ @ @ .               >.@ @ @                 ",
"                                                                                                ",
"                                                                                                ",
"                                                                                                "};
