/* XPM */
static char * enemy_left_move2_xpm[] = {
"48 48 147 2",
"  	c None",
". 	c #73C7A1",
"+ 	c #71C6A0",
"@ 	c #70C59F",
"# 	c #72C7A1",
"$ 	c #75C8A2",
"% 	c #56B791",
"& 	c #3CAB85",
"* 	c #67C09A",
"= 	c #74C8A2",
"- 	c #59B892",
"; 	c #41AD87",
"> 	c #68C09A",
", 	c #6EC49E",
"' 	c #6FC59F",
") 	c #5EBB95",
"! 	c #3FAC86",
"~ 	c #42AD87",
"{ 	c #61BC97",
"] 	c #4EB28D",
"^ 	c #6DC39D",
"/ 	c #601020",
"( 	c #601522",
"_ 	c #60BB96",
": 	c #44AE88",
"< 	c #46AF89",
"[ 	c #43AE88",
"} 	c #62BD97",
"| 	c #50B48E",
"1 	c #613935",
"2 	c #C84848",
"3 	c #45AA85",
"4 	c #62BB95",
"5 	c #58B791",
"6 	c #40AD86",
"7 	c #74C7A1",
"8 	c #76C9A3",
"9 	c #50B38D",
"0 	c #72C49F",
"a 	c #A01838",
"b 	c #6CC29C",
"c 	c #4EB28C",
"d 	c #6AC19B",
"e 	c #6CC39D",
"f 	c #57B791",
"g 	c #4EB38D",
"h 	c #6FC49E",
"i 	c #612A2C",
"j 	c #63BD97",
"k 	c #52B48E",
"l 	c #3EAC86",
"m 	c #10241B",
"n 	c #E07878",
"o 	c #07160F",
"p 	c #72C59F",
"q 	c #54B58F",
"r 	c #45AE88",
"s 	c #72C6A0",
"t 	c #091811",
"u 	c #000000",
"v 	c #53B58F",
"w 	c #73C6A0",
"x 	c #07130D",
"y 	c #5DBA94",
"z 	c #54B590",
"A 	c #52B48F",
"B 	c #040E09",
"C 	c #020705",
"D 	c #0B1B14",
"E 	c #D8A078",
"F 	c #62433C",
"G 	c #601923",
"H 	c #703A41",
"I 	c #503060",
"J 	c #E8E8F8",
"K 	c #602228",
"L 	c #703C42",
"M 	c #F8D0B8",
"N 	c #D6A179",
"O 	c #704346",
"P 	c #704044",
"Q 	c #703840",
"R 	c #601C25",
"S 	c #7CCBA6",
"T 	c #8BD3B1",
"U 	c #8AD2B0",
"V 	c #8BD2B1",
"W 	c #82CEAA",
"X 	c #202840",
"Y 	c #404068",
"Z 	c #86D0AD",
"` 	c #A5E1C4",
" .	c #A4E0C2",
"..	c #A5E1C3",
"+.	c #92D6B6",
"@.	c #70C69F",
"#.	c #283C48",
"$.	c #A2DFC1",
"%.	c #A3E0C2",
"&.	c #91D6B5",
"*.	c #273A47",
"=.	c #0F2219",
"-.	c #273946",
";.	c #78C9A4",
">.	c #8FD4B3",
",.	c #8DD4B2",
"'.	c #8ED4B3",
").	c #87D1AE",
"!.	c #281850",
"~.	c #72C7A0",
"{.	c #7ECCA8",
"].	c #A6E1C4",
"^.	c #A4E0C3",
"/.	c #99DABB",
"(.	c #6FC49D",
"_.	c #7DCCA7",
":.	c #A3DFC2",
"<.	c #98D9BA",
"[.	c #373D5A",
"}.	c #3B435D",
"|.	c #73C6A1",
"1.	c #8DD3B2",
"2.	c #A3DFC1",
"3.	c #030806",
"4.	c #99DABA",
"5.	c #6DC49D",
"6.	c #6EC59E",
"7.	c #77C9A4",
"8.	c #89D2AF",
"9.	c #88D1AF",
"0.	c #88D1AE",
"a.	c #8BD2B0",
"b.	c #92D6B5",
"c.	c #89D1AF",
"d.	c #7BCAA6",
"e.	c #80CDA9",
"f.	c #93D7B6",
"g.	c #7DCBA7",
"h.	c #96D8B8",
"i.	c #81CDAA",
"j.	c #95D8B8",
"k.	c #81CEAA",
"l.	c #97D9B9",
"m.	c #85CFAC",
"n.	c #85D0AD",
"o.	c #7BCBA6",
"p.	c #7CCBA7",
". . . . . . . . . . . . . . . . . . . . . . . . . . . . . . . . . . . . . . . . . . . . . . . . ",
". . . . . . . . . . . . . . . . . . . . . . . . . . . . . . . . . . . . . . . . . . . . . . . . ",
". . . . . . . . . . . . . . . . . . . . . . . . . . . . . . . . . . . . . . . . . . . . . . . . ",
". . . . . . . . . . . . . . . . . . . . . . . . . . . . . . . . . . . . . . . . . . . . . . . . ",
". . . . . . . . . . . . . . . . . . . . . . . . . . . . . . . . . . . . . . . . . . . . . . . . ",
". . . . . . . . . . . . . . . . . . . . . . . . . . . . . . . . . + @ # . . . . . . . . . . . . ",
". . . . . . . . . . . . . . . . . . . . . . . . . . . . . . . . $ % & * = . . . . . . . . . . . ",
". . . . . . . . . . . . . . . . . . . . . . . . . . . . . . . . $ - ; > = . . . . . . . . . . . ",
". . . . . . . . . . . . . . . . . . . . . . . . . . . . . . . . $ - ; > = . . . . . . . . . . . ",
". . . . . . . . . . . . . . . . . . . . . . . + , , , + . . . . $ - ; > = . . . . . . ' , # . . ",
". . . . . . . . . . . . . . . . . . . . . . = ) ! ~ ! { = . . . $ - ; > = . . . . . $ ] & ^ . . ",
". . . . . . . . . . . . . . . . . . . . / / ( _ : < [ } = . . . $ - ; > = . . . . . $ | ; , . . ",
". . . . . . . . . . . . . . . . . . . . 1 2 2 / / / 3 4 $ . . . $ 5 6 * = . . . 7 7 8 9 6 , . . ",
". . . . . . . . . . . . . . . . . . . . 0 / 2 2 2 a / / b @ . . = ) c d 7 . . , e e ^ f g h . . ",
". . . . . . . . . . . . . . . . . . . . i / a a 2 2 2 a / j = . . = $ 7 . . $ k ; ~ l , 8 . . . ",
". . . . . . . . . . . . . . . . . . . m a 2 2 2 2 2 2 n 2 o p . . . . . . . $ q r < ~ ^ 7 . . . ",
". . . . . . . . . . . . . . . . . s t a 2 2 2 2 2 2 n n n 2 u s . . . . . . $ v [ r ; e 7 . . . ",
". . . . . . . . . . . . . . . . w u a / 2 2 2 n 2 n n n n 2 x w . . . . . . = y q z A , . . . . ",
". . . . . . . . . . . . . . . . . B / 2 2 2 a 2 n n 2 n 2 2 2 C . . . . . . . = $ $ $ . . . . . ",
". . . . . . . . . . . . . . . . u a / 2 2 2 2 a 2 2 2 2 2 2 2 x . . . . . . . . . . . . . . . . ",
". . . . . . . . . . . . . . . . B a / 2 2 2 2 2 a 2 2 2 2 2 a D . . . . . . . . . . . . . . . . ",
". . . . . . . . . . . . . . . . . u a / 2 2 2 2 a a 2 2 2 a a i . . . . . . . . . . . . . . . . ",
". . . . . . . . . . . . . . . . . u a E / 2 a 2 2 a a a a a a F . . . . . . . . . . . . . . . . ",
". . . . . . . . . . . . . . . . . . u E E u 2 a 2 a a a a a G . . . . . . . . . . . . . . . . . ",
". . . . . . . . . . . . . . . . . . H E I J / 2 a a a a a a K . . . . . . . . . . . . . . . . . ",
". . . . . . . . . . . . . . . . . . L M u J E / a a a a a a / / / . . . . . . . . . . . . . . . ",
". . . . . . . . . . . . . . . . . . N M M M M / a a a a a / a a / . . . . . . s s s s . . . . . ",
". . . . . . . . . . . . . . . . . . . O M M E E / a a a a a a G . . . . . . . s s s s . . . . . ",
". . . . . . . . . . . . . # + + + s . . P Q Q Q u / a a / 1 R s . . . . . . . s s s s . . . . . ",
". . . . . . . . . . . . # S T U V W s . w X Y Q X u / / / s . . . . . . . . . . s s s . . . . . ",
". . . . . . . . . . . . + Z `  ...+.@.. #./ X u Y Y u 0 . . . . . . . . . . . . . . . . . . . . ",
". . . . . . . . . . . . + Z  .$.%.&.@.. *./ X u Y 2 a =.w . . . . . . . . . . . . . . . . . . . ",
". . . # + + + + . . . . + Z  .$.%.&.@.. -./ / X u M M u u s . . . . . . . . . . . . . . . . . . ",
". . # ;.>.,.'.).+ . . . + Z  .$.%.&.@.. m !.I I u E E u / u . . . . . . . . . . . . . . . . . . ",
". . ~.{.].%.^./.@.. . . + Z  .$.%.&.(.X a I I I I u u !./ u . . . . . . . . . . . . . . . . . . ",
". . ~._.^.$.:.<.@.. . . + Z  .$.%.&.@.C a a a u u [.}./ / D . . . . . . . . . . . . . . . . . . ",
". . ~._.^.$.:.<.@.. . . + Z  .$.%.&.@.|.B u u 1.%.$.2.3.C . . . . . . . . . . . . . . . . . . . ",
". . ~._.^.$.:.<.@.. . . + Z  .$.%.&.@.. . . + 1.%.$. .U + . . . . . . . . . . . . . . . . . . . ",
". . ~.{.]. .^.4.5.@.@.+ + Z ]. ...+.@.s @.@.6.1... ...V + . . . . . . . . . . . . . . . . . . . ",
". . . 7.8.9.0.a.+.b.+.c.+ d.c.9.c.e.+ W f.b.b.1.0.9.c.g.# . . . . . . . . . . . . . . . . . . . ",
". . . . + + @.e...%.^.h.@.# + + + ~.+ a...%...1.' + + # . . . . . . . . . . . . . . . . . . . . ",
". . . . . . s i.^.$.%.j.@.. . . . . + U  .$.%.1.+ . . . . . . . . . . . . . . . . . . . . . . . ",
". . . . . . s k.]. ...l.@.. . . . . + V `  ...'.+ . . . . . . . . . . . . . . . . . . . . . . . ",
". . . . . . . ;.Z m.n.e.~.. . . . . # o.Z m.Z p.# . . . . . . . . . . . . . . . . . . . . . . . ",
". . . . . . . . + + + ~.. . . . . . . # + + + # . . . . . . . . . . . . . . . . . . . . . . . . ",
". . . . . . . . . . . . . . . . . . . . . . . . . . . . . . . . . . . . . . . . . . . . . . . . ",
". . . . . . . . . . . . . . . . . . . . . . . . . . . . . . . . . . . . . . . . . . . . . . . . ",
". . . . . . . . . . . . . . . . . . . . . . . . . . . . . . . . . . . . . . . . . . . . . . . . "};
