/* XPM */
static char * enemy_left_move1_xpm[] = {
"48 48 148 2",
"  	c None",
". 	c #73C7A1",
"+ 	c #71C6A0",
"@ 	c #70C59F",
"# 	c #72C7A1",
"$ 	c #75C8A2",
"% 	c #56B791",
"& 	c #3CAB85",
"* 	c #67C09A",
"= 	c #74C8A2",
"- 	c #59B892",
"; 	c #41AD87",
"> 	c #68C09A",
", 	c #6EC49E",
"' 	c #6FC59F",
") 	c #5EBB95",
"! 	c #3FAC86",
"~ 	c #42AD87",
"{ 	c #61BC97",
"] 	c #4EB28D",
"^ 	c #6DC39D",
"/ 	c #601020",
"( 	c #74C7A1",
"_ 	c #60BB96",
": 	c #44AE88",
"< 	c #46AF89",
"[ 	c #43AE88",
"} 	c #62BD97",
"| 	c #50B48E",
"1 	c #C84848",
"2 	c #601722",
"3 	c #45AF89",
"4 	c #63BD97",
"5 	c #58B791",
"6 	c #40AD86",
"7 	c #76C9A3",
"8 	c #50B38D",
"9 	c #A01838",
"0 	c #602629",
"a 	c #6CC39D",
"b 	c #4EB28C",
"c 	c #6AC19B",
"d 	c #57B791",
"e 	c #4EB38D",
"f 	c #6FC49E",
"g 	c #72C59F",
"h 	c #601522",
"i 	c #3EAB85",
"j 	c #52B48E",
"k 	c #3EAC86",
"l 	c #020705",
"m 	c #E07878",
"n 	c #000000",
"o 	c #64BE98",
"p 	c #54B58F",
"q 	c #45AE88",
"r 	c #72C49E",
"s 	c #091811",
"t 	c #73C6A0",
"u 	c #53B58F",
"v 	c #73C49F",
"w 	c #5DBA94",
"x 	c #54B590",
"y 	c #52B48F",
"z 	c #61A989",
"A 	c #73C6A1",
"B 	c #36624E",
"C 	c #0F2219",
"D 	c #0B1B14",
"E 	c #D8A078",
"F 	c #10241B",
"G 	c #704346",
"H 	c #503060",
"I 	c #E8E8F8",
"J 	c #F8D0B8",
"K 	c #D6A17A",
"L 	c #72C6A0",
"M 	c #704C4B",
"N 	c #703840",
"O 	c #612529",
"P 	c #7CCBA6",
"Q 	c #8BD3B1",
"R 	c #8AD2B0",
"S 	c #8BD2B1",
"T 	c #82CEAA",
"U 	c #253645",
"V 	c #404068",
"W 	c #202840",
"X 	c #613734",
"Y 	c #601923",
"Z 	c #86D0AD",
"` 	c #A5E1C4",
" .	c #A4E0C2",
"..	c #A5E1C3",
"+.	c #92D6B6",
"@.	c #70C69F",
"#.	c #293F49",
"$.	c #A2DFC1",
"%.	c #A3E0C2",
"&.	c #91D6B5",
"*.	c #081811",
"=.	c #70C39C",
"-.	c #78C9A4",
";.	c #8FD4B3",
">.	c #8DD4B2",
",.	c #8ED4B3",
"'.	c #87D1AE",
").	c #111E18",
"!.	c #281850",
"~.	c #71C59E",
"{.	c #72C7A0",
"].	c #7ECCA8",
"^.	c #A6E1C4",
"/.	c #A4E0C3",
"(.	c #99DABB",
"_.	c #7DCCA7",
":.	c #A3DFC2",
"<.	c #98D9BA",
"[.	c #040E09",
"}.	c #8DD3B2",
"|.	c #050A07",
"1.	c #06130D",
"2.	c #A1DEC0",
"3.	c #202F28",
"4.	c #71C59F",
"5.	c #99DABA",
"6.	c #6DC49D",
"7.	c #6EC59E",
"8.	c #77C9A4",
"9.	c #89D2AF",
"0.	c #88D1AF",
"a.	c #88D1AE",
"b.	c #8BD2B0",
"c.	c #92D6B5",
"d.	c #89D1AF",
"e.	c #7BCAA6",
"f.	c #80CDA9",
"g.	c #93D7B6",
"h.	c #7DCBA7",
"i.	c #96D8B8",
"j.	c #81CDAA",
"k.	c #95D8B8",
"l.	c #81CEAA",
"m.	c #97D9B9",
"n.	c #85CFAC",
"o.	c #85D0AD",
"p.	c #7BCBA6",
"q.	c #7CCBA7",
". . . . . . . . . . . . . . . . . . . . . . . . . . . . . . . . . . . . . . . . . . . . . . . . ",
". . . . . . . . . . . . . . . . . . . . . . . . . . . . . . . . . . . . . . . . . . . . . . . . ",
". . . . . . . . . . . . . . . . . . . . . . . . . . . . . . . . . . . . . . . . . . . . . . . . ",
". . . . . . . . . . . . . . . . . . . . . . . . . . . . . . . . . . . . . . . . . . . . . . . . ",
". . . . . . . . . . . . . . . . . . . . . . . . . . . . . . . . . . . . . . . . . . . . . . . . ",
". . . . . . . . . . . . . . . . . . . . . . . . . . . . . . . . . + @ # . . . . . . . . . . . . ",
". . . . . . . . . . . . . . . . . . . . . . . . . . . . . . . . $ % & * = . . . . . . . . . . . ",
". . . . . . . . . . . . . . . . . . . . . . . . . . . . . . . . $ - ; > = . . . . . . . . . . . ",
". . . . . . . . . . . . . . . . . . . . . . . . . . . . . . . . $ - ; > = . . . . . . . . . . . ",
". . . . . . . . . . . . . . . . . . . . . . . + , , , + . . . . $ - ; > = . . . . . . ' , # . . ",
". . . . . . . . . . . . . . . . . . . . . . = ) ! ~ ! { = . . . $ - ; > = . . . . . $ ] & ^ . . ",
". . . . . . . . . . . . . . . . . . . / / / ( _ : < [ } = . . . $ - ; > = . . . . . $ | ; , . . ",
". . . . . . . . . . . . . . . . . . . / 1 1 / / 2 3 ~ 4 $ . . . $ 5 6 * = . . . ( ( 7 8 6 , . . ",
". . . . . . . . . . . . . . . . . . . . / 1 1 1 9 / 0 { a @ . . = ) b c ( . . , a a ^ d e f . . ",
". . . . . . . . . . . . . . . . . . g h / 9 9 1 1 1 9 / i 4 = . . = $ ( . . $ j ; ~ k , 7 . . . ",
". . . . . . . . . . . . . . . . . g l 9 1 1 1 1 1 1 m 1 n o = . . . . . . . $ p q < ~ ^ ( . . . ",
". . . . . . . . . . . . . . . . r s 9 1 1 1 1 1 1 m m m 1 n t . . . . . . . $ u [ q ; a ( . . . ",
". . . . . . . . . . . . . . . . s 9 / 1 1 1 m 1 m m m m 1 n v . . . . . . . = w p x y , . . . . ",
". . . . . . . . . . . . . . . t n / 1 1 1 9 1 m m 1 m 1 1 1 n t . . . . . . . = $ $ $ . . . . . ",
". . . . . . . . . . . . . . . z 9 / 1 1 1 1 9 1 1 1 1 1 1 1 n A . . . . . . . . . . . . . . . . ",
". . . . . . . . . . . . . . . B 9 / 1 1 1 1 1 9 1 1 1 1 1 9 n . . . . . . . . . . . . . . . . . ",
". . . . . . . . . . . . . . . . C 9 / 1 1 1 1 9 9 1 1 1 9 9 / . . . . . . . . . . . . . . . . . ",
". . . . . . . . . . . . . . . . D 9 E / 1 9 1 1 9 9 9 9 9 9 / . . . . . . . . . . . . . . . . . ",
". . . . . . . . . . . . . . . . . F E E n 1 9 1 9 9 9 9 9 / A . . . . . . . . . . . . . . . . . ",
". . . . . . . . . . . . . . . . . G E H I / 1 9 9 9 9 9 9 / . . . . . . . . . . . . . . . . . . ",
". . . . . . . . . . . . . . . . . G J n I E / 9 9 9 9 9 9 / / / . . . . . . . . . . . . . . . . ",
". . . . . . . . . . . . . . . . . K J J J J / 9 9 9 9 9 / 9 9 / A . . . . . . L L L L . . . . . ",
". . . . . . . . . . . . . . . . . . G J J E E / 9 9 9 9 9 9 h . . . . . . . . L L L L . . . . . ",
". . . . . . . . . . . . . # + + + L A M N N N n / 9 9 / / O . . . . . . . . . L L L L . . . . . ",
". . . . . . . . . . . . # P Q R S T L r U V N W n / X Y . . . . . . . . . . . . L L L . . . . . ",
". . . . . . . . . . . . + Z `  ...+.@.#./ V V n W W t . . . . . . . . . . . . . . . . . . . . . ",
". . . . . . . . . . . . + Z  .$.%.&.@.C n 1 V n W W n L . . . . . . . . . . . . . . . . . . . . ",
". . . # + + + + . . . . + Z  .$.%.&.*.n J J 9 n / / n =.. . . . . . . . . . . . . . . . . . . . ",
". . # -.;.>.,.'.+ . . . + Z  .$.%.)./ n E E n !.!.H H n ~.. . . . . . . . . . . . . . . . . . . ",
". . {.].^.%./.(.@.. . . + Z  .$.%.)./ / n n n n H H !.9 l . . . . . . . . . . . . . . . . . . . ",
". . {._./.$.:.<.@.. . . + Z  .$.%.&.[.l . . + }.|.9 9 9 1.. . . . . . . . . . . . . . . . . . . ",
". . {._./.$.:.<.@.. . . + Z  .$.%.&.@.. . . + }.2.3.n n 4.. . . . . . . . . . . . . . . . . . . ",
". . {._./.$.:.<.@.. . . + Z  .$.%.&.@.. . . + }.%.$. .R + . . . . . . . . . . . . . . . . . . . ",
". . {.].^. ./.5.6.@.@.+ + Z ^. ...+.@.L @.@.7.}... ...S + . . . . . . . . . . . . . . . . . . . ",
". . . 8.9.0.a.b.+.c.+.d.+ e.d.0.d.f.+ T g.c.c.}.a.0.d.h.# . . . . . . . . . . . . . . . . . . . ",
". . . . + + @.f...%./.i.@.# + + + {.+ b...%...}.' + + # . . . . . . . . . . . . . . . . . . . . ",
". . . . . . L j./.$.%.k.@.. . . . . + R  .$.%.}.+ . . . . . . . . . . . . . . . . . . . . . . . ",
". . . . . . L l.^. ...m.@.. . . . . + S `  ...,.+ . . . . . . . . . . . . . . . . . . . . . . . ",
". . . . . . . -.Z n.o.f.{.. . . . . # p.Z n.Z q.# . . . . . . . . . . . . . . . . . . . . . . . ",
". . . . . . . . + + + {.. . . . . . . # + + + # . . . . . . . . . . . . . . . . . . . . . . . . ",
". . . . . . . . . . . . . . . . . . . . . . . . . . . . . . . . . . . . . . . . . . . . . . . . ",
". . . . . . . . . . . . . . . . . . . . . . . . . . . . . . . . . . . . . . . . . . . . . . . . ",
". . . . . . . . . . . . . . . . . . . . . . . . . . . . . . . . . . . . . . . . . . . . . . . . "};
