/* XPM */
static char * enemy_back_move1_xpm[] = {
"48 48 131 2",
"  	c #73C7A1",
". 	c #72C7A1",
"+ 	c #70C59F",
"@ 	c #71C6A0",
"# 	c #74C8A2",
"$ 	c #67C09A",
"% 	c #3CAB85",
"& 	c #56B791",
"* 	c #75C8A2",
"= 	c #68C09A",
"- 	c #41AD87",
"; 	c #59B892",
"> 	c #6EC49E",
", 	c #6FC59F",
"' 	c #6DC39D",
") 	c #4EB28D",
"! 	c #61BC97",
"~ 	c #3FAC86",
"{ 	c #601020",
"] 	c #5EBB95",
"^ 	c #50B48E",
"/ 	c #62BD97",
"( 	c #43AE88",
"_ 	c #C84848",
": 	c #601823",
"< 	c #40AD86",
"[ 	c #50B38D",
"} 	c #76C9A3",
"| 	c #74C7A1",
"1 	c #58B791",
"2 	c #63BD97",
"3 	c #A01838",
"4 	c #61282B",
"5 	c #6FC49E",
"6 	c #4EB38D",
"7 	c #57B791",
"8 	c #6CC39D",
"9 	c #6AC19B",
"0 	c #4EB28C",
"a 	c #601F26",
"b 	c #601522",
"c 	c #3EAC86",
"d 	c #42AD87",
"e 	c #52B48E",
"f 	c #E07878",
"g 	c #602228",
"h 	c #46AF89",
"i 	c #45AE88",
"j 	c #54B58F",
"k 	c #000000",
"l 	c #53B58F",
"m 	c #612529",
"n 	c #601C25",
"o 	c #52B48F",
"p 	c #54B590",
"q 	c #5DBA94",
"r 	c #091811",
"s 	c #73C6A1",
"t 	c #72C6A0",
"u 	c #040E09",
"v 	c #72C59F",
"w 	c #71C49E",
"x 	c #0D1F17",
"y 	c #71C39E",
"z 	c #613A36",
"A 	c #A01C39",
"B 	c #61272B",
"C 	c #612E2E",
"D 	c #601923",
"E 	c #73C6A0",
"F 	c #202840",
"G 	c #0B1B14",
"H 	c #404068",
"I 	c #D8A078",
"J 	c #703840",
"K 	c #8AD2B0",
"L 	c #8BD3B1",
"M 	c #7CCBA6",
"N 	c #281850",
"O 	c #A5E1C3",
"P 	c #A4E0C2",
"Q 	c #A5E1C4",
"R 	c #86D0AD",
"S 	c #F8D0B8",
"T 	c #70C59E",
"U 	c #91D6B5",
"V 	c #A3E0C2",
"W 	c #A2DFC1",
"X 	c #503060",
"Y 	c #87D1AE",
"Z 	c #8ED4B3",
"` 	c #8DD4B2",
" .	c #8FD4B3",
"..	c #78C9A4",
"+.	c #70C69F",
"@.	c #99DABB",
"#.	c #A4E0C3",
"$.	c #A6E1C4",
"%.	c #7ECCA8",
"&.	c #72C7A0",
"*.	c #020705",
"=.	c #98D9BA",
"-.	c #A3DFC2",
";.	c #7DCCA7",
">.	c #8DD3B2",
",.	c #8BD2B1",
"'.	c #6EC59E",
").	c #92D6B6",
"!.	c #6DC49D",
"~.	c #99DABA",
"{.	c #7DCBA7",
"].	c #89D1AF",
"^.	c #88D1AF",
"/.	c #88D1AE",
"(.	c #92D6B5",
"_.	c #93D7B6",
":.	c #82CEAA",
"<.	c #80CDA9",
"[.	c #7BCAA6",
"}.	c #8BD2B0",
"|.	c #89D2AF",
"1.	c #77C9A4",
"2.	c #96D8B8",
"3.	c #95D8B8",
"4.	c #81CDAA",
"5.	c #97D9B9",
"6.	c #81CEAA",
"7.	c #7CCBA7",
"8.	c #85CFAC",
"9.	c #7BCBA6",
"0.	c #85D0AD",
"                                                                                                ",
"                                                                                                ",
"                                                                                                ",
"                                                                                                ",
"                                                                                                ",
"                        . + @                                                                   ",
"                      # $ % & *                                                                 ",
"                      # = - ; *                                                                 ",
"                      # = - ; *                                                                 ",
"    . > ,             # = - ; *         @ > > > @                                               ",
"    ' % ) *           # = - ; *       # ! ~ { { ] #                                             ",
"    > - ^ *           # = - ; *       # / ( { _ : #                                             ",
"    > < [ } | |       # $ < 1 *       * 2 { { 3 _ 4                                             ",
"    5 6 7 ' 8 8 >     | 9 0 ] #     + a { _ _ { _ _ { b                                         ",
"      } > c d - e *     | * #     | { 3 _ f f _ 3 _ _ 3 g                                       ",
"      | ' d h i j *               k _ _ _ f f _ _ _ _ _ _ k                                     ",
"      | 8 - i ( l *             m 3 _ _ _ _ f f _ _ _ f _ 3 n                                   ",
"        > o p j q #             r _ _ _ _ _ _ _ f f f _ _ _ k s                                 ",
"          * * * #             { 3 _ _ _ _ _ _ _ _ _ _ _ _ _ 3 {                                 ",
"                            t k 3 _ _ _ _ _ _ _ _ _ _ _ _ _ 3 u                                 ",
"                            v k 3 3 _ _ _ _ _ _ _ _ _ _ _ 3 3 r                                 ",
"                            w k 3 3 3 _ _ _ _ _ _ _ _ _ 3 3 3 x                                 ",
"                            y z A 3 3 3 3 3 _ _ _ 3 3 3 3 3 3 B                                 ",
"                                C 3 3 3 3 3 3 3 3 3 3 3 3 3 D                                   ",
"                                n 3 3 3 3 3 3 3 3 3 3 3 3 3 b                                   ",
"                              x { 3 3 3 3 3 3 3 3 3 3 3 3 3 { k s                               ",
"          t t t t           t k 3 3 { 3 3 3 3 { 3 3 3 3 { 3 3 k E                               ",
"          t t t t             v k { 3 3 { 3 F F F 3 { 3 3 { G                                   ",
"          t t t t               v { k F { { H H H { { F k { I J @ @ .                           ",
"          t t t                 t k H H H H H H H H H H 3 I I J K L M .                         ",
"                                E J _ H F H H H H H H N k J J O P Q R @                         ",
"                              E J S S 3 F H H H H H 3 N k T U V W P R @                         ",
"                                J I I F F 3 3 3 3 3 N X k T U V W P R @         @ @ @ @ .       ",
"                                  J J k X N N N N N X X k T U V W P R @       @ Y Z `  ....     ",
"                                      @ k k k k X X X N k T U V W P R @       +.@.#.V $.%.&.    ",
"                                      @ K P W V N X N *.  +.U V W P R @       +.=.-.W #.;.&.    ",
"                                      @ K P W V k 3 3 k   +.U V W P R @       +.=.-.W #.;.&.    ",
"                                      @ K P W V >.*.u     +.U V W P R @       +.=.-.W #.;.&.    ",
"                                      @ ,.O P O >.'.+.+.t +.).O P $.R @ @ +.+.!.~.#.P $.%.&.    ",
"                                      . {.].^./.>.(.(._.:.@ <.].^.].[.@ ].).(.).}./.^.|.1.      ",
"                                        . @ @ , >.O V O }.@ &.@ @ @ . +.2.#.V O <.+.@ @         ",
"                                              @ >.V W P K @           +.3.V W #.4.t             ",
"                                              @ Z O P Q ,.@           +.5.O P $.6.t             ",
"                                              . 7.R 8.R 9..           &.<.0.8.R ..              ",
"                                                . @ @ @ .               &.@ @ @                 ",
"                                                                                                ",
"                                                                                                ",
"                                                                                                "};
