/* XPM */
static char * enemy_right_static_xpm[] = {
"48 48 136 2",
"  	c None",
". 	c #73C7A1",
"+ 	c #72C7A1",
"@ 	c #70C59F",
"# 	c #71C6A0",
"$ 	c #74C8A2",
"% 	c #67C09A",
"& 	c #3CAB85",
"* 	c #56B791",
"= 	c #75C8A2",
"- 	c #68C09A",
"; 	c #41AD87",
"> 	c #59B892",
", 	c #6EC49E",
"' 	c #6FC59F",
") 	c #6DC39D",
"! 	c #4EB28D",
"~ 	c #61BC97",
"{ 	c #3FAC86",
"] 	c #42AD87",
"^ 	c #5EBB95",
"/ 	c #50B48E",
"( 	c #62BD97",
"_ 	c #43AE88",
": 	c #46AF89",
"< 	c #44AE88",
"[ 	c #60BB96",
"} 	c #601C25",
"| 	c #601020",
"1 	c #612529",
"2 	c #40AD86",
"3 	c #50B38D",
"4 	c #76C9A3",
"5 	c #74C7A1",
"6 	c #58B791",
"7 	c #63BD97",
"8 	c #C84848",
"9 	c #6FC49E",
"0 	c #4EB38D",
"a 	c #57B791",
"b 	c #6CC39D",
"c 	c #6AC19B",
"d 	c #4EB28C",
"e 	c #6CC29D",
"f 	c #A01838",
"g 	c #3EAC86",
"h 	c #52B48E",
"i 	c #601421",
"j 	c #45AE88",
"k 	c #54B58F",
"l 	c #000000",
"m 	c #E07878",
"n 	c #020705",
"o 	c #53B58F",
"p 	c #72C6A0",
"q 	c #040E09",
"r 	c #52B48F",
"s 	c #54B590",
"t 	c #5DBA94",
"u 	c #73C6A0",
"v 	c #72C5A0",
"w 	c #07130D",
"x 	c #73C6A1",
"y 	c #D8A078",
"z 	c #601F26",
"A 	c #601522",
"B 	c #E8E8F8",
"C 	c #503060",
"D 	c #703A41",
"E 	c #613030",
"F 	c #F8D0B8",
"G 	c #703840",
"H 	c #602228",
"I 	c #72C59F",
"J 	c #704446",
"K 	c #202840",
"L 	c #404068",
"M 	c #82CEAA",
"N 	c #8BD2B1",
"O 	c #8AD2B0",
"P 	c #8BD3B1",
"Q 	c #7CCBA6",
"R 	c #263746",
"S 	c #70C69F",
"T 	c #92D6B6",
"U 	c #A5E1C3",
"V 	c #A4E0C2",
"W 	c #A5E1C4",
"X 	c #86D0AD",
"Y 	c #253444",
"Z 	c #91D6B5",
"` 	c #A3E0C2",
" .	c #A2DFC1",
"..	c #281850",
"+.	c #233043",
"@.	c #72C7A0",
"#.	c #87D1AE",
"$.	c #8ED4B3",
"%.	c #8DD4B2",
"&.	c #8FD4B3",
"*.	c #78C9A4",
"=.	c #8AD1AF",
"-.	c #0A120E",
";.	c #99DABB",
">.	c #A4E0C3",
",.	c #A6E1C4",
"'.	c #7ECCA8",
").	c #14201A",
"!.	c #06130D",
"~.	c #98D9BA",
"{.	c #A3DFC2",
"].	c #7DCCA7",
"^.	c #8DD3B2",
"/.	c #6EC59E",
"(.	c #6DC49D",
"_.	c #99DABA",
":.	c #7DCBA7",
"<.	c #89D1AF",
"[.	c #88D1AF",
"}.	c #88D1AE",
"|.	c #92D6B5",
"1.	c #93D7B6",
"2.	c #80CDA9",
"3.	c #7BCAA6",
"4.	c #8BD2B0",
"5.	c #89D2AF",
"6.	c #77C9A4",
"7.	c #96D8B8",
"8.	c #95D8B8",
"9.	c #81CDAA",
"0.	c #97D9B9",
"a.	c #81CEAA",
"b.	c #7CCBA7",
"c.	c #85CFAC",
"d.	c #7BCBA6",
"e.	c #85D0AD",
". . . . . . . . . . . . . . . . . . . . . . . . . . . . . . . . . . . . . . . . . . . . . . . . ",
". . . . . . . . . . . . . . . . . . . . . . . . . . . . . . . . . . . . . . . . . . . . . . . . ",
". . . . . . . . . . . . . . . . . . . . . . . . . . . . . . . . . . . . . . . . . . . . . . . . ",
". . . . . . . . . . . . . . . . . . . . . . . . . . . . . . . . . . . . . . . . . . . . . . . . ",
". . . . . . . . . . . . . . . . . . . . . . . . . . . . . . . . . . . . . . . . . . . . . . . . ",
". . . . . . . . . . . . + @ # . . . . . . . . . . . . . . . . . . . . . . . . . . . . . . . . . ",
". . . . . . . . . . . $ % & * = . . . . . . . . . . . . . . . . . . . . . . . . . . . . . . . . ",
". . . . . . . . . . . $ - ; > = . . . . . . . . . . . . . . . . . . . . . . . . . . . . . . . . ",
". . . . . . . . . . . $ - ; > = . . . . . . . . . . . . . . . . . . . . . . . . . . . . . . . . ",
". . + , ' . . . . . . $ - ; > = . . . . # , , , # . . . . . . . . . . . . . . . . . . . . . . . ",
". . ) & ! = . . . . . $ - ; > = . . . $ ~ { ] { ^ $ . . . . . . . . . . . . . . . . . . . . . . ",
". . , ; / = . . . . . $ - ; > = . . . $ ( _ : < [ } | 1 . . . . . . . . . . . . . . . . . . . . ",
". . , 2 3 4 5 5 . . . $ % 2 6 = . . . = 7 ] | | | 8 8 1 . . . . . . . . . . . . . . . . . . . . ",
". . 9 0 a ) b b , . . 5 c d ^ $ . . @ e | | f 8 8 8 } . . . . . . . . . . . . . . . . . . . . . ",
". . . 4 , g ] ; h = . . 5 = $ . . $ 7 i f 8 8 8 f f | 1 . . . . . . . . . . . . . . . . . . . . ",
". . . 5 ) ] : j k = . . . . . . . $ l 8 m 8 8 8 8 8 8 f n . . . . . . . . . . . . . . . . . . . ",
". . . 5 b ; j _ o = . . . . . . p l 8 m m m 8 8 8 8 8 8 f q . . . . . . . . . . . . . . . . . . ",
". . . . , r s k t $ . . . . . . p l 8 m m m m 8 m 8 8 8 | f l u . . . . . . . . . . . . . . . . ",
". . . . . = = = $ . . . . . . . l 8 8 8 m 8 m m 8 f 8 8 8 | l v . . . . . . . . . . . . . . . . ",
". . . . . . . . . . . . . . . . l 8 8 8 8 8 8 8 f 8 8 8 8 | f n . . . . . . . . . . . . . . . . ",
". . . . . . . . . . . . . . . . l f 8 8 8 8 8 f 8 8 8 8 8 | f w p . . . . . . . . . . . . . . . ",
". . . . . . . . . . . . . . . . | f f 8 8 8 f f 8 8 8 8 | f l . . . . . . . . . . . . . . . . . ",
". . . . . . . . . . . . . . . x | f f f f f f 8 8 f 8 | y f n . . . . . . . . . . . . . . . . . ",
". . . . . . . . . . . . . . . . . z f f f f f 8 f 8 l y y q . . . . . . . . . . . . . . . . . . ",
". . . . . . . . . . . . . . . . . A f f f f f f 8 | B C y D . . . . . . . . . . . . . . . . . . ",
". . . . . . . . . . . . . . . E | | f f f f f f | y B l F G . . . . . . . . . . . . . . . . . . ",
". . . . . p p p p . . . . . . H f f | f f f f f | F F F F y . . . . . . . . . . . . . . . . . . ",
". . . . . p p p p . . . . . . I | f f f f f f | y y F F G p . . . . . . . . . . . . . . . . . . ",
". . . . . p p p p . . . . . . . . A } | f f | l G G G J . . p # # # + . . . . . . . . . . . . . ",
". . . . . p p p . . . . . . . . . . p | | | l K G L K . . p M N O P Q + . . . . . . . . . . . . ",
". . . . . . . . . . . . . . . . . . . . p l K L L l | R . S T U V W X # . . . . . . . . . . . . ",
". . . . . . . . . . . . . . . . . . . . . l | L 8 l | Y . S Z `  .V X # . . . . . . . . . . . . ",
". . . . . . . . . . . . . . . . . . . . l ....f F F l +.. S Z `  .V X # . . . . # # # # + . . . ",
". . . . . . . . . . . . . . . . . . . @.l ..C | y y C n . S Z `  .V X # . . . # #.$.%.&.*.+ . . ",
". . . . . . . . . . . . . . . . . . . # =.-.| | | l l I . S Z `  .V X # . . . S ;.>.` ,.'.@.. . ",
". . . . . . . . . . . . . . . . . . . # O V ).l l !.v . . S Z `  .V X # . . . S ~.{. .>.].@.. . ",
". . . . . . . . . . . . . . . . . . . # O V  .` ^.# . . . S Z `  .V X # . . . S ~.{. .>.].@.. . ",
". . . . . . . . . . . . . . . . . . . # O V  .` ^.# . . . S Z `  .V X # . . . S ~.{. .>.].@.. . ",
". . . . . . . . . . . . . . . . . . . # N U V U ^./.S S p S T U V ,.X # # S S (._.>.V ,.'.@.. . ",
". . . . . . . . . . . . . . . . . . . + :.<.[.}.^.|.|.1.M # 2.<.[.<.3.# <.T |.T 4.}.[.5.6.. . . ",
". . . . . . . . . . . . . . . . . . . . + # # ' ^.U ` U 4.# @.# # # + S 7.>.` U 2.S # # . . . . ",
". . . . . . . . . . . . . . . . . . . . . . . # ^.`  .V O # . . . . . S 8.`  .>.9.p . . . . . . ",
". . . . . . . . . . . . . . . . . . . . . . . # $.U V W N # . . . . . S 0.U V ,.a.p . . . . . . ",
". . . . . . . . . . . . . . . . . . . . . . . + b.X c.X d.+ . . . . . @.2.e.c.X *.. . . . . . . ",
". . . . . . . . . . . . . . . . . . . . . . . . + # # # + . . . . . . . @.# # # . . . . . . . . ",
". . . . . . . . . . . . . . . . . . . . . . . . . . . . . . . . . . . . . . . . . . . . . . . . ",
". . . . . . . . . . . . . . . . . . . . . . . . . . . . . . . . . . . . . . . . . . . . . . . . ",
". . . . . . . . . . . . . . . . . . . . . . . . . . . . . . . . . . . . . . . . . . . . . . . . "};
