/* XPM */
static char *result[] = {
/* columns rows colors chars-per-pixel */
"48 48 224 2 ",
"   c #652411",
".  c #6D2812",
"X  c #742911",
"o  c #7B2914",
"O  c #6E321D",
"+  c #7A3C23",
"@  c #3A561B",
"#  c #466C1E",
"$  c #4B433E",
"%  c #554332",
"&  c #5A4332",
"*  c #5C4837",
"=  c #5E4C3C",
"-  c #7D432D",
";  c #684937",
":  c #604E3E",
">  c #774A38",
",  c #6A5A3D",
"<  c #4E7429",
"1  c #75643C",
"2  c #786938",
"3  c #7A6B3B",
"4  c #7F7039",
"5  c #4A4343",
"6  c #42424A",
"7  c #554B46",
"8  c #455F56",
"9  c #54585D",
"0  c #645342",
"q  c #665B42",
"w  c #4E7945",
"e  c #4B645A",
"r  c #4F6A5E",
"t  c #6A6041",
"y  c #736657",
"u  c #4E5F66",
"i  c #556961",
"p  c #5A7368",
"a  c #6C6D6A",
"s  c #70736F",
"d  c #6C7472",
"f  c #667C75",
"g  c #6B7D74",
"h  c #767679",
"j  c #767A78",
"k  c #7B7D7B",
"l  c #86240F",
"z  c #89270F",
"x  c #95290F",
"c  c #98290F",
"v  c #842916",
"b  c #8A2814",
"n  c #8C2919",
"m  c #952A11",
"M  c #9C2C13",
"N  c #932E1B",
"B  c #8D3316",
"V  c #923517",
"C  c #9A3719",
"Z  c #9B381A",
"A  c #A32E16",
"S  c #A92F18",
"D  c #A73017",
"F  c #A93017",
"G  c #AD3119",
"H  c #B23F17",
"J  c #B93A1D",
"K  c #8F3C25",
"L  c #BB541B",
"P  c #92472F",
"I  c #8A573C",
"U  c #955A3D",
"Y  c #A34F2E",
"T  c #B9442A",
"R  c #A54B33",
"E  c #806F3A",
"W  c #827238",
"Q  c #C74221",
"!  c #DF5A21",
"~  c #8B5743",
"^  c #945A42",
"/  c #9A5D45",
"(  c #905C49",
")  c #B25D43",
"_  c #9A6648",
"`  c #876857",
"'  c #957559",
"]  c #A3654A",
"[  c #A26C4B",
"{  c #AB6948",
"}  c #B9674D",
"|  c #A6744E",
" . c #AE6B52",
".. c #A77751",
"X. c #AA7650",
"o. c #AC7A52",
"O. c #B77658",
"+. c #8E7667",
"@. c #C67A5D",
"#. c #D47356",
"$. c #FF6854",
"%. c #CD7D61",
"&. c #65912D",
"*. c #75A436",
"=. c #7EB139",
"-. c #4F934A",
";. c #669651",
":. c #4DAB4A",
">. c #74A544",
",. c #568B6C",
"<. c #549276",
"1. c #698B72",
"2. c #799776",
"3. c #73987A",
"4. c #58B761",
"5. c #6DAD74",
"6. c #AB815B",
"7. c #99AA4C",
"8. c #8AB549",
"9. c #98B05A",
"0. c #8D866A",
"q. c #8D886D",
"w. c #8B9476",
"e. c #969A79",
"r. c #BB8967",
"t. c #AF906D",
"y. c #A9BB66",
"u. c #A8AF77",
"i. c #C5825F",
"p. c #CA8361",
"a. c #D48365",
"s. c #D88465",
"d. c #DD8B6B",
"f. c #DC8F70",
"g. c #E08B6C",
"h. c #9DCF54",
"j. c #A5C65D",
"k. c #B2CF67",
"l. c #336A9B",
"z. c #7C7C84",
"x. c #7F8582",
"c. c #7E8B85",
"v. c #7D9589",
"b. c #7C9A8C",
"n. c #7F9892",
"m. c #5EA982",
"M. c #69AA88",
"N. c #77A38C",
"B. c #6DB48B",
"V. c #78BC8E",
"C. c #76A696",
"Z. c #6BBA95",
"A. c #7BB797",
"S. c #73BE9B",
"D. c #5A98B2",
"F. c #5AA3AA",
"G. c #68B7A4",
"H. c #72B2AA",
"J. c #6DC399",
"K. c #72C49E",
"L. c #78C39A",
"P. c #73C7A1",
"I. c #7CC5A2",
"U. c #76C8A3",
"Y. c #7AC9A4",
"T. c #79A8C0",
"R. c #808080",
"E. c #848D87",
"W. c #83918F",
"Q. c #8C8D94",
"!. c #899694",
"~. c #959E9A",
"^. c #85A684",
"/. c #92B28A",
"(. c #84A897",
"). c #85B798",
"_. c #A6B490",
"`. c #8EABAF",
"'. c #9CA6A6",
"]. c #96A9A5",
"[. c #A2A9A5",
"{. c #AAB2AE",
"}. c #B2B5A6",
"|. c #ACB8B3",
" X c #B6BDB5",
".X c #B6B8BB",
"XX c #E49A9A",
"oX c #C9A291",
"OX c #8BC19D",
"+X c #AAC39A",
"@X c #87C9A5",
"#X c #82CDAA",
"$X c #97CFAB",
"%X c #86D0AD",
"&X c #88D1AF",
"*X c #8BD2B1",
"=X c #92D6B5",
"-X c #98D7B7",
";X c #B5CCA9",
":X c #BAC0B7",
">X c #BBC7B5",
",X c #CBD693",
"<X c #C5E092",
"1X c #CDD4AB",
"2X c #DDE8A9",
"3X c #DDE2B6",
"4X c #E2EABC",
"5X c #93ABC7",
"6X c #A2DFC1",
"7X c #A9C9D9",
"8X c #A4E0C2",
"9X c #C3C5C5",
"0X c #FFC5C0",
"qX c #DBE3C7",
"wX c #E9ECC7",
"eX c #EDF1CD",
"rX c #F4F7CD",
"tX c #F3F4D3",
"yX c #FFFFDE",
"uX c #EEEEEF",
"iX c #EEF1E3",
"pX c #FBFCE9",
"aX c #F4F4F3",
"sX c #FFFEFD",
/* pixels */
"P.P.P.P.P.P.P.P.P.P.P.P.@Xr.OXY.e.6.&XL.P.P.P.P.P.P.P.P.P.P.P.P.P.P.P.P.P.P.P.P.P.P.P.P.P.P.P.P.",
"P.P.P.P.P.P.P.P.P.P.P.).o.i.g._.o.o.oX@XP.P.P.P.P.P.P.P.P.P.P.P.P.P.P.P.P.P.P.P.P.P.P.P.P.P.P.P.",
"P.P.P.P.P.P.P.P.P.P.U.e.o.] s.O._ _ d.OXP.P.P.P.P.P.P.P.P.P.P.P.P.P.P.P.P.P.P.P.P.P.P.P.P.P.P.P.",
"P.P.P.P.P.P.P.P.P.P.U.q.U ^ U | ^ ^ _ V.P.P.P.P.P.P.P.P.P.P.P.P.P.P.P.P.P.P.P.P.P.Y.U.P.P.P.P.P.",
"P.P.P.P.P.P.P.P.P.P.L.' U - - P P I ( w.P.P.P.P.P.P.P.P.P.P.P.P.P.P.P.P.P.P.P.P.U.r.t.).U.U.P.P.",
"P.P.P.P.P.P.P.P.P.P.' o.O     V H o } d.0.P.P.P.P.P.P.P.P.P.P.P.P.P.P.P.P.P.P.P._.oXoXt.P.U.P.P.",
"P.P.P.P.P.P.P.Y.S.' _ + X v C L ! G M ) @.e.I.P.P.P.P.P.P.P.P.P.P.P.P.P.P.P.P.P.).6.#.V.J.P.P.P.",
"P.P.P.P.P.P.#X0.6.I O B C n C L ! G J J R @.0.^.P.P.P.P.P.P.P.P.P.P.P.P.P.P.P.P.L.B.4.;.m.K.P.P.",
"P.P.P.P.U.P.q...I . X V Z n Z L ! S J Q m N s.@.).P.U.P.P.P.P.P.P.P.P.P.P.P.P.P.m.:.-.-.:.J.P.P.",
"P.P.P.K.w.w.[ - X B X V Z n C L ! G J Q M D A } @.w.A.P.P.P.P.P.P.P.P.P.P.P.P.P.P.5.:.4.J.P.P.P.",
"P.P.K.2...[ O X v n X B Z n C L ! G J Q m D G m R d.O.#XP.P.P.P.P.P.P.P.P.P.P.P.P.P.I.U.P.P.P.P.",
"P.P.Z._ _ . o X o n X V Z n V L ! G J Q m A F c M P %._ P.P.P.P.P.P.P.P.P.P.P.P.P.P.P.P.P.P.P.P.",
"P.P.S.>   X v X b n X V Z b m L ! S J Q M A G A S m K ` P.P.P.P.P.P.P.P.P.P.P.P.P.P.P.P.P.P.P.P.",
"P.P.K.,.  X v X v n X B D K Y L ! T T Q x A G c S m l P.P.P.P.P.P.P.P.P.P.P.P.P.P.P.P.P.P.P.P.P.",
"P.P.P.3.  . z X v n X C { i.a.L } g.#.Q A A G m S m l P.P.P.P.P.P.P.P.P.P.P.P.P.P.P.P.P.P.P.P.P.",
"P.P.P.3.  . v X v n X P 6.i.d.p.o.f.#.Q m A G x D x l P.P.P.P.P.P.P.P.P.P.P.Y.Y.Y.P.P.P.P.P.P.P.",
"P.P.K.3.  . v X v n X U | / @.a.{ { @.T x A G m S x l P.P.P.P.P.P.P.P.C.:X9X9X1X9X!.P.P.P.P.P.P.",
"P.U.K.3.  . v X o n X ^ ^ ^ U ] U ^  .Y m S G c S x l P.P.P.P.P.P.P.U.|.sXsX$.sXaX9XP.P.P.P.P.P.",
"P.P.K.3.  X v X n o U o.o./ ^ ^ ^  .d.d.R n G A S x l P.P.P.P.P.P.P.P.|.sXsX$.sXsX9XP.P.P.P.P.P.",
"P.P.J.2.  X v . - _ o.o._ ^ ^ > ^ ] %.s.d.} l M S x l P.P.P.P.P.P.P.P.|.sXsX0XsXsX9XP.P.P.P.P.P.",
"P.P.P.3.  X v K X.o.X._ ^ I ; % & ~ / O.g.d.%.N S x l P.P.P.P.P.P.P.P.].uXaXXXuXaX'.U.P.P.P.P.P.",
"P.P.P.3.. X I o.o.| ^ U I & % % % % > U  .%.g.%.P x l P.P.P.P.P.P.P.P.K.C.(.aX(.M.S.P.P.P.P.P.P.",
"P.P.P.3.  U X.X.] ^ ^ ; % % & : = & % ; ^ ] @.g.s.) o K.P.P.P.P.P.P.P.P.P.G.C.S.U.P.P.P.P.P.P.P.",
"P.P.U.2.X.o.X./ ^ I % % & & : % % 0 & & & I ^ O.d.g.} S.P.P.P.P.P.P.P.P.P.U.P.P.U.U.P.P.P.P.P.P.",
"P.P.L.^ o.[ / ^ y & & & * 0 * 5 5 * 0 * % 7 > ^  .%.d.> P.P.P.P.P.P.P.P.P.P.P.P.P.5.;.Z.P.P.P.P.",
"P.P.@XY _ ^ ` h h % * 0 0 0 0 5 6 0 0 : 0 O & s ( / @.I P.P.P.P.P.P.P.P.P.P.P.G.P.Z.*.5.P.P.P.P.",
"P.P.Y.2.y +.+.z.+.% & % & & & % & & & & % & & z.z.` +.1.P.P.P.P.P.P.U.Y.G.P.G.D.P.5.8.&.P.P.P.P.",
"P.P.K.U.N.z.Q.Q.E.: % % % % % % % % % % % % 0 Q.Q.1.S.P.P.P.P.P.P.P.P.F.F.G.D.C.+Xh.h.>.m.P.P.P.",
"P.P.P.P.P.p '.[.~.& * 2 W W W = * W W W 2 % & '.'.8 `.Y.P.P.P.K.P.P.F.D.P.H./.wXrX2Xj.=.<.P.P.P.",
"P.P.P.P.I.g .X:X}.= * , 1 1 1 0 = 1 1 3 , % :  X X9 2.).I.P.#X&X*X*X5XG.;XqX>XsXpXrX2X8.<.P.P.P.",
"P.P.P.P.U.1.:X:X}.% * 1 W 4 3 : = 3 E W 1 % :  X Xe R.R.(.I.=X8X8X8X;X_.sXiX3XuXrXwXrXj.<.P.P.P.",
"P.P.P.P.Y.f :X:X}.* * 0 0 0 0 0 = 0 0 0 = % :  X Xe R.R.R.A.=X6X8X8X%X1XpXsXiX1X>Xs 3X7.m.P.P.P.",
"P.P.P.P.Y.g  X:X}.= % 1 3 3 3 0 : 3 3 3 , % 7 :X Xe +.x.R.R.-X6X6X6X&X^.yXyXtX'.5X.Xy.7.L.P.P.P.",
"P.P.P.P.U.f  X:X}.% * 0 0 0 0 = : 0 , q : % *  X Xe x.x.R.z.=X6X6X6X%XZ.tXyXwXu l.w.9.).P.K.P.P.",
"P.P.P.P.Y.f {.{.[.7 $ q t t q 7 7 q t t , $ 7 {.{.e z.z.z.R.=X8X-X$X+X5.2.1X2X1X7.7.f T.T.H.P.P.",
"P.P.P.P.Y.d 9 9 9 6 6 6 6 6 6 6 6 6 6 6 6 6 6 9 r k R.R.2.x.=X8X>X1XyXrX1Xk.y.k.7.i `.7X`.S.P.P.",
"P.P.P.P.U.h W.'.'.'.!.!.!.!.!.!.!.!.!.!.Q.'.'.'.i x.R.R.R.R.=X8X@X/.M.5.y.u.4X<X# ,Xa n.#XP.P.P.",
"P.P.P.P.P.k d d d g d d s d d d d d d d d d d d d z.R.R.R.R.=X8X8X8XL.Z.Z.;.&.8.@ +XrXwX/.J.P.P.",
"P.P.P.P.U.R.i h h 8 R.R.R.R.R.R.R.R.R.R.z.s h i h R.R.R.R.R.=X8X8X8X>.8.w -.< >.< -X/.1XeX+XZ.P.",
"P.P.P.P.P.z.i [.'.r R.R.R.R.R.R.R.R.R.k x.s [.c.j R.R.R.R.v.#X*X&X$X-.&.@ =XN.# ,.$X@XM.1X+XP.P.",
"P.P.P.P.U.c.i  X.Xi z.x.R.R.R.R.R.R.R.R.R.d  X~.h R.R.R.x.c.P.P.P.J.J.<.3.8X8X).@XJ.K.Z.J.m.P.P.",
"P.P.P.P.U.+.i [.].r x.z.R.R.R.R.R.R.R.R.R.a '.E.j R.R.R.k c.P.P.P.P.P.P.=X8X8X8X#XJ.P.P.J.K.P.P.",
"P.P.P.P.P.z.h d d d z.x.R.R.R.R.R.R.R.R.R.k d d k R.R.R.R.c.P.P.P.P.P.P.=X8X8X8X#XK.U.U.P.P.P.P.",
"P.P.P.P.U.x.R.R.w.z.+.x.R.R.R.R.R.R.R.R.R.R.R.R.R.R.R.R.R.v.P.P.P.P.P.U.Y.&X%X%XY.K.K.U.P.P.P.P.",
"P.P.P.P.P.U.A.R.R.z.x.+.R.R.R.R.x.z.x.R.R.R.R.R.R.R.R.R.x.C.U.P.P.P.P.P.P.K.P.P.P.P.P.P.P.P.P.P.",
"P.P.P.P.P.P.U.S.(.x.z.z.R.R.R.R.x.+.z.R.R.R.R.R.R.R.R.R.n.P.P.P.P.P.P.P.P.P.P.P.P.P.P.P.P.P.P.P.",
"P.P.P.P.P.P.P.P.Y.C.b.b.b.b.b.b.b.b.v.v.v.v.v.v.v.v.v.b.P.P.P.P.P.P.P.P.P.P.P.P.P.P.P.P.P.P.P.P.",
"P.P.P.P.P.P.P.P.P.P.P.P.P.P.P.P.P.P.P.P.P.P.P.P.P.P.P.P.P.P.P.P.P.P.P.P.P.P.P.P.P.P.P.P.P.P.P.P."
};
