/* XPM */
static char *e266fcd1b1ab471afa65ef45986a27efMEMBdzUbzn2FZSIS[] = {
/* columns rows colors chars-per-pixel */
"48 48 220 2 ",
"   c #652411",
".  c #6D2812",
"X  c #742911",
"o  c #7B2914",
"O  c #6E321D",
"+  c #7A3C23",
"@  c #3A561B",
"#  c #466C1E",
"$  c #4B433E",
"%  c #554332",
"&  c #5A4332",
"*  c #5C4837",
"=  c #5E4C3C",
"-  c #7D432D",
";  c #684937",
":  c #604E3E",
">  c #774A38",
",  c #6A5A3D",
"<  c #4E7429",
"1  c #75643C",
"2  c #786938",
"3  c #7A6B3B",
"4  c #7F7039",
"5  c #4A4343",
"6  c #42424A",
"7  c #554B46",
"8  c #455F56",
"9  c #54585D",
"0  c #645342",
"q  c #665B42",
"w  c #4E7945",
"e  c #4B645A",
"r  c #4F6A5E",
"t  c #6A6041",
"y  c #736657",
"u  c #4E5F66",
"i  c #566661",
"p  c #556A61",
"a  c #5A7368",
"s  c #6C6D6A",
"d  c #70736F",
"f  c #6C7472",
"g  c #667C75",
"h  c #6B7D74",
"j  c #767679",
"k  c #767A78",
"l  c #7B7D7B",
"z  c #86240F",
"x  c #89270F",
"c  c #95290F",
"v  c #98290F",
"b  c #842916",
"n  c #8A2814",
"m  c #8C2919",
"M  c #952A11",
"N  c #9C2C13",
"B  c #932E1B",
"V  c #8D3316",
"C  c #923517",
"Z  c #9A3719",
"A  c #9B381A",
"S  c #A32E16",
"D  c #A92F18",
"F  c #A73017",
"G  c #A93017",
"H  c #AD3119",
"J  c #B23F17",
"K  c #B93A1D",
"L  c #8F3C25",
"P  c #BB541B",
"I  c #92472F",
"U  c #8A573C",
"Y  c #955A3D",
"T  c #A34F2E",
"R  c #B9442A",
"E  c #A54B33",
"W  c #827237",
"Q  c #827238",
"!  c #C74221",
"~  c #C64927",
"^  c #DF5A21",
"/  c #8B5743",
"(  c #945A42",
")  c #9A5D45",
"_  c #905C49",
"`  c #B25D43",
"'  c #9A6648",
"]  c #876857",
"[  c #957559",
"{  c #A3654A",
"}  c #A26C4B",
"|  c #AB6948",
" . c #B9674D",
".. c #A6744E",
"X. c #AD6B52",
"o. c #B06C52",
"O. c #A77751",
"+. c #AA7650",
"@. c #AC7A52",
"#. c #B77658",
"$. c #8E7667",
"%. c #D46A4F",
"&. c #C67A5D",
"*. c #D47D5E",
"=. c #CD7D61",
"-. c #65912D",
";. c #75A436",
":. c #7EB139",
">. c #4F934A",
",. c #669651",
"<. c #4DAB4A",
"1. c #74A544",
"2. c #568B6C",
"3. c #549276",
"4. c #698B72",
"5. c #799776",
"6. c #73987A",
"7. c #58B761",
"8. c #6DAD74",
"9. c #AB815B",
"0. c #99AA4C",
"q. c #8AB549",
"w. c #8D866A",
"e. c #8D886D",
"r. c #8B9476",
"t. c #969A79",
"y. c #BB8967",
"u. c #AF906D",
"i. c #A9BB66",
"p. c #A8AF77",
"a. c #C5825F",
"s. c #CA8361",
"d. c #D48365",
"f. c #D88465",
"g. c #DD8B6B",
"h. c #E08B6C",
"j. c #9DCF54",
"k. c #A5C65D",
"l. c #B2CF67",
"z. c #336A9B",
"x. c #7C7C84",
"c. c #7F8582",
"v. c #7E8B85",
"b. c #7D9589",
"n. c #7C9A8B",
"m. c #5EA982",
"M. c #68AA86",
"N. c #77A38C",
"B. c #6DB985",
"V. c #78BC8E",
"C. c #75A797",
"Z. c #6BBA95",
"A. c #7BB797",
"S. c #72BE9B",
"D. c #5A98B2",
"F. c #5AA3AA",
"G. c #68B7A4",
"H. c #72B2AA",
"J. c #6DC399",
"K. c #72C59E",
"L. c #78C39A",
"P. c #73C7A1",
"I. c #7CC5A2",
"U. c #76C8A3",
"Y. c #79C9A4",
"T. c #79A8C0",
"R. c #808080",
"E. c #848D87",
"W. c #83918F",
"Q. c #8C8D94",
"!. c #899694",
"~. c #959E9A",
"^. c #85A684",
"/. c #8EAF8E",
"(. c #85B798",
"). c #A6B490",
"_. c #8EABAF",
"`. c #9CA6A6",
"'. c #98A9A7",
"]. c #A1A8A4",
"[. c #AAB2AE",
"{. c #B2B5A6",
"}. c #ADB5B0",
"|. c #B1B3B7",
" X c #B6BDB5",
".X c #CF8C87",
"XX c #C9A291",
"oX c #8BC19D",
"OX c #AAC39A",
"+X c #87C9A5",
"@X c #82CDAA",
"#X c #97CFAB",
"$X c #86D0AD",
"%X c #88D1AF",
"&X c #8BD2B1",
"*X c #92D6B5",
"=X c #98D7B7",
"-X c #B1CBA7",
";X c #BAC0B7",
":X c #BBC7B5",
">X c #B9D4B2",
",X c #CBD693",
"<X c #C5E092",
"1X c #CDD4AB",
"2X c #DDE8A9",
"3X c #DDE2B6",
"4X c #E2EABC",
"5X c #93ABC7",
"6X c #A2DFC1",
"7X c #A9C9D9",
"8X c #A4E0C2",
"9X c #DBE3C7",
"0X c #E9ECC7",
"qX c #EDF1CD",
"wX c #F4F7CD",
"eX c #F3F4D3",
"rX c #FFFFDE",
"tX c #EEF1E3",
"yX c #FBFCE9",
"uX c #FEFEFD",
/* pixels */
"P.P.P.P.P.P.P.P.P.P.P.U.@Xs.oXY.t.9.%XL.P.P.P.P.P.P.P.P.P.P.P.P.P.P.P.P.P.P.P.P.P.P.P.P.P.P.P.P.",
"P.P.P.P.P.P.P.P.P.P.P.(.@.s.h.).@.@.XX+XP.P.P.P.P.P.P.P.P.P.P.P.P.P.P.P.P.P.P.P.P.P.P.P.P.P.P.P.",
"P.P.P.P.P.P.P.P.P.P.P.t.@.' g.#.} ' g.oXP.P.P.P.P.P.P.P.P.P.P.P.P.P.P.P.P.P.P.P.P.P.P.P.P.P.P.P.",
"P.P.P.P.P.P.P.P.P.P.U.e.Y / Y ..( U ' V.P.P.P.P.P.P.P.P.P.P.P.P.P.P.P.P.P.P.P.P.P.Y.P.P.P.P.P.P.",
"P.P.P.P.P.P.P.P.P.P.L.[ ( - - - I U _ r.P.P.P.P.P.P.P.P.P.P.P.P.P.P.P.P.P.P.P.P.P.y.u.(.Y.P.P.P.",
"P.P.P.P.P.P.P.P.P.P.[ @.O   X C J o  .g.w.P.P.P.P.P.P.P.P.P.P.P.P.P.P.P.P.P.P.P.)..XXXu.P.P.P.P.",
"P.P.P.P.P.P.P.Y.oX[ ' + X b Z P ^ H N ` &.t.I.P.P.P.P.P.P.P.P.P.P.P.P.P.P.P.P.P.oXu.%.(.J.P.P.P.",
"P.P.P.P.P.P.@Xw.[ U O V A m Z P ^ H K K E &.w.^.P.P.P.P.P.P.P.P.P.P.P.P.P.P.P.P.J.B.7.>.m.U.P.P.",
"P.P.P.P.L.P.e...U   X V Z m Z P ^ D K ! M B f.&.(.P.U.P.P.P.P.P.P.P.P.P.P.P.P.P.m.<.>.>.<.K.P.P.",
"P.P.P.K.^.r.} I X V X C Z V Z P ^ D K ! N S F  .&.r.A.P.P.P.P.P.P.P.P.P.P.P.P.P.P.8.<.7.J.P.P.P.",
"P.P.K.4.O.' O X b B X V A M Z P ^ H K ! v F H M E g.#.@XP.P.P.P.P.P.P.P.P.P.P.P.P.P.I.P.P.P.P.P.",
"P.P.L.' ' . X X o m X C A x Z P ^ H K ! v S H c N I =.' P.P.P.P.P.P.P.P.P.P.P.P.P.P.P.P.P.P.P.P.",
"P.P.S.>   X b X n m X C Z n N P ^ G K ! N S H S D v L y P.P.P.P.P.P.P.P.P.P.P.P.P.P.P.P.P.P.P.P.",
"P.P.K.2.  X b X b m X C F L T P ^ R R ! M S H M D v n P.P.P.P.P.P.P.P.P.P.P.P.P.P.P.P.P.P.P.P.P.",
"P.P.P.6.  X b X b m X C | a.d.T  .g.%.! S S D v D v z P.P.P.P.P.P.P.P.P.P.P.P.P.P.P.P.P.P.P.P.P.",
"P.P.P.6.  X b X b m X I @.a.g.d.@.h.*.~ M S H c F c z P.P.P.P.U.P.P.P.P.P.P.P.P.P.P.P.P.P.P.P.P.",
"P.K.K.6.  . b X b m X Y } ' &.d.| | &.R v S H c F c z P.P.P.P.P.P.P.P.P.P.P.U.P.U.P.P.P.P.P.P.P.",
"P.U.K.6.  X b X o m X ) ( ( ( { ( ( | T v F H v F c z P.P.P.P.P.P.P.P.P.P.P.P.P.P.P.P.P.P.P.P.P.",
"P.P.K.6.  X b X V o U @.@.) ( Y ( o.g.g.E m D S D c z K.P.P.P.P.P.P.P.P.P.P.U.U.P.P.P.P.P.P.P.P.",
"P.P.K.6.  X b . + ' @.@.} ( ( > / { &.g.g. .x B D v z U.P.P.P.P.P.P.P.P.P.P.P.P.P.P.P.P.P.P.P.P.",
"P.P.P.6.  X n V +.@.@.' Y U ; % & / ) #.h.g.*.B D c z P.P.P.P.P.P.P.P.P.P.P.P.P.P.P.P.P.P.P.P.P.",
"P.P.U.6.. O U +.@...( ( U & % % & & > ( o.*.h.*.I n z P.P.P.P.P.P.P.P.P.P.P.P.P.P.P.P.P.P.P.P.P.",
"P.P.P.6.  Y @.@.{ ( ( ; % % & : : & % ; / { &.h.f.` o P.P.P.P.P.P.P.P.P.P.K.K.K.P.P.P.P.P.P.P.P.",
"P.P.U.5...@.X.( Y / % % & & : % % 0 & & & U ( #.g.h. .S.P.P.P.P.P.P.P.P.P.P.P.P.P.P.P.P.P.P.P.P.",
"P.P.L.( @.} ( ( y & % & = 0 ; 5 5 ; 0 ; & & > ) X.=.g.> K.P.P.P.P.P.P.P.P.P.P.P.P.8.,.J.P.P.P.P.",
"P.P.+XT ' ( ] j k % & 0 0 0 7 5 6 : 7 : : & & d _ ) &.U P.P.P.P.P.P.P.P.P.P.P.G.P.Z.;.8.P.P.P.P.",
"P.P.Y.5.y $.$.x.$.* & % & & & % & & & & & & & x.x.] $.4.P.P.P.P.P.P.U.Y.G.P.G.D.P.8.q.-.P.P.P.P.",
"P.P.K.U.N.x.Q.Q.E.= % % % % % % % % % % % & : Q.Q.4.S.U.P.P.P.P.P.P.U.D.F.K.D.C.-Xj.j.;.m.P.P.P.",
"P.P.P.P.Y.a `.].~.& * 3 W W 4 0 = W W W 3 % * `.`.e (.+XP.P.P.K.P.P.F.D.U.H./.0X0X2Xk.:.3.P.P.P.",
"P.P.P.P.Y.h  X;X{.* * , 1 1 1 : = 1 1 1 , % =  X X9 x.(.I.P.@X%X&X*X5XG.>X9X:XuXyXwX2Xq.3.P.P.P.",
"P.P.P.P.Y.4. X;X{.* * 1 4 4 3 : = 4 Q 4 3 % *  X Xe R.R.(.I.*X6X6X8X-X).uXtX9XtXwXwXwXk.3.P.P.P.",
"P.P.P.U.Y.h  X;X{.* % 0 0 0 0 0 = 0 0 0 7 % =  X Xe R.x.x.A.*X6X6X6X@X1XyXuXqX1X:Xs 3X0.m.P.P.P.",
"P.P.P.P.Y.h  X;X{.* % 1 3 3 3 0 = 3 3 3 1 % 0  X Xe x.e.x.c.*X8X6X6X&X^.rXrXeX`.5X|.i.0.K.P.P.P.",
"P.P.P.P.P.h  X;X{.& * 0 0 0 0 : 0 0 0 q = % *  X X8 x.x.x.e.*X6X6X8X@XZ.eXrX0Xu z.r.0.(.I.P.P.P.",
"P.P.P.P.U.g [.[.].7 5 q t q t 7 7 t t t q $ 7 [.}.8 c.x.x.R.*X8X6X#XOX8.5.1X2X1X0.0.g T.T.H.P.P.",
"P.P.P.P.U.f 9 9 9 6 6 6 6 6 6 6 6 6 6 6 6 6 6 9 r l R.R.c.c.*X8X>X1XyXeX3Xi.k.l.0.a _.7X'.G.P.P.",
"P.P.P.P.U.j W.`.`.`.!.!.!.!.!.!.!.!.!.!.!.~.`.`.p R.R.R.R.R.*X8X(.).M.8.i.p.4X<X# ,Xy C.Y.K.U.P.",
"P.P.P.P.U.x.f f f h f f d f f f f f f f f f f f f R.R.R.R.v.*X8X6X6XL.Z.Z.,.-.q.@ OXwX0X/.K.P.P.",
"P.P.P.P.U.x.p j j 8 R.R.R.R.e.x.R.R.R.R.x.d j i j R.R.R.R.c.*X8X6X8X1.q.w >.< 1.< =X).1X0XOXZ.K.",
"P.P.P.P.U.x.p ].`.r R.R.R.x.c.x.R.R.R.R.R.d ].v.k R.R.R.R.E.Y.&X$X$X>.-.@ *XN.# >.&X@XM.1X-XP.U.",
"P.P.P.P.S.x.p ;X Xp x.c.x.R.R.R.R.R.R.R.R.d ;X~.k R.R.R.x.v.P.P.P.K.J.3.3.8X8X_.@XP.K.Z.Z.m.P.P.",
"P.P.P.P.I.5.i ].`.r c.x.R.R.R.R.R.R.R.R.R.s `.E.k R.R.R.x.v.P.P.P.K.J.P.=X8X8X8X@XS.P.P.K.K.P.P.",
"P.P.P.P.U.R.j f f f x.v.R.R.R.R.R.R.R.R.R.j f f l R.R.R.R.v.P.P.P.P.U.P.=X8X8X8X@XU.P.P.P.P.P.P.",
"P.P.P.P.P.c.R.R.r.x.x.$.R.R.R.R.R.R.R.R.R.R.R.R.R.R.R.R.R.v.P.P.P.P.U.Y.Y.&X$XY.Y.U.P.P.P.P.P.P.",
"P.P.P.P.P.U.A.x.x.c.x.v.R.R.R.R.R.R.R.R.R.R.R.R.R.R.R.R.R.(.S.P.P.P.P.P.P.K.P.K.P.P.P.P.U.P.P.P.",
"P.P.P.P.P.P.P.S.(.x.c.$.R.R.R.R.R.R.R.R.R.R.R.R.R.R.R.R.n.U.P.P.P.P.P.P.P.P.P.P.P.P.P.P.P.P.P.P.",
"P.P.P.P.P.P.P.P.I.n.n.n.n.n.n.n.n.n.b.b.b.b.b.b.b.b.n.n.P.P.P.P.P.P.P.P.P.P.P.P.P.U.P.P.P.P.P.P.",
"P.P.P.P.P.P.P.P.P.U.P.P.P.P.P.P.P.P.P.P.P.P.P.P.P.P.P.P.P.P.P.P.P.P.P.P.P.P.P.P.P.K.P.P.P.P.P.P."
};
