/* XPM */
static char *result[] = {
/* columns rows colors chars-per-pixel */
"48 48 195 2 ",
"   c #652411",
".  c #6D2812",
"X  c #742911",
"o  c #792814",
"O  c #7E2A15",
"+  c #6E321D",
"@  c #7A3C23",
"#  c #4B433E",
"$  c #554332",
"%  c #5A4332",
"&  c #5C4837",
"*  c #5E4C3C",
"=  c #7D432D",
"-  c #684937",
";  c #604E3E",
":  c #774A38",
">  c #6A5A3D",
",  c #75643C",
"<  c #786938",
"1  c #7A6B3B",
"2  c #454247",
"3  c #4C4341",
"4  c #42424A",
"5  c #534944",
"6  c #584F4A",
"7  c #455F56",
"8  c #54585D",
"9  c #645342",
"0  c #665B42",
"q  c #4B645A",
"w  c #4F6A5E",
"e  c #6A6041",
"r  c #7E6055",
"t  c #566661",
"y  c #556A61",
"u  c #5A7368",
"i  c #666A6B",
"p  c #7A6B6F",
"a  c #70736F",
"s  c #6C7472",
"d  c #677A75",
"f  c #6B7D74",
"g  c #777777",
"h  c #75757C",
"j  c #767A78",
"k  c #7B7D7B",
"l  c #86240F",
"z  c #89270F",
"x  c #95290F",
"c  c #98290F",
"v  c #842916",
"b  c #8A2814",
"n  c #8C2919",
"m  c #952A11",
"M  c #9C2C13",
"N  c #932E1B",
"B  c #8D3316",
"V  c #913416",
"C  c #943618",
"Z  c #9A3719",
"A  c #9B381A",
"S  c #A32E16",
"D  c #A92F17",
"F  c #AA2F18",
"G  c #A73017",
"H  c #A93017",
"J  c #AD3119",
"K  c #B23F17",
"L  c #B93A1D",
"P  c #853E20",
"I  c #953B28",
"U  c #BB541B",
"Y  c #86412D",
"T  c #9A482B",
"R  c #854C33",
"E  c #9D4632",
"W  c #83533C",
"Q  c #8E5A3B",
"!  c #955A3D",
"~  c #A54A26",
"^  c #B9442A",
"/  c #A54B33",
"(  c #A05A3E",
")  c #806F3A",
"_  c #827237",
"`  c #827238",
"'  c #C74221",
"]  c #C64927",
"[  c #DF5A21",
"{  c #8C5441",
"}  c #945A42",
"|  c #9A5D45",
" . c #905C49",
".. c #B25D43",
"X. c #9B6446",
"o. c #986549",
"O. c #9D6B49",
"+. c #876857",
"@. c #957559",
"#. c #A3654A",
"$. c #A26C4B",
"%. c #AB6948",
"&. c #B9674D",
"*. c #A6744E",
"=. c #AD6B52",
"-. c #B06C52",
";. c #A77751",
":. c #AA7650",
">. c #AC7A52",
",. c #B77658",
"<. c #8F6E63",
"1. c #8E7968",
"2. c #D46A4F",
"3. c #C5765A",
"4. c #C47B5D",
"5. c #C97B5D",
"6. c #D47D5E",
"7. c #C87B60",
"8. c #D27F61",
"9. c #479A45",
"0. c #4C9954",
"q. c #4DAB4A",
"w. c #5A8869",
"e. c #6A8770",
"r. c #789475",
"t. c #73987A",
"y. c #58B761",
"u. c #65AA68",
"i. c #66B57D",
"p. c #AB815B",
"a. c #8D866A",
"s. c #8D886D",
"d. c #8B9476",
"f. c #9A9B7A",
"g. c #BB8967",
"h. c #AF906D",
"j. c #A0A07E",
"k. c #C5825F",
"l. c #CA8361",
"z. c #D48365",
"x. c #D88465",
"c. c #DD8B6B",
"v. c #E08B6C",
"b. c #7C7C84",
"n. c #7F8582",
"m. c #7E8B85",
"M. c #7D9589",
"N. c #7C9A8B",
"B. c #5FB181",
"V. c #7DA18F",
"C. c #79B38C",
"Z. c #7BB797",
"A. c #72BE9B",
"S. c #6CC394",
"D. c #6EC49E",
"F. c #71C194",
"G. c #71C69F",
"H. c #73C7A1",
"J. c #76C8A3",
"K. c #7AC9A5",
"L. c #7ECCA8",
"P. c #808080",
"I. c #848D87",
"U. c #83918F",
"Y. c #8C8D94",
"T. c #899694",
"R. c #959E9A",
"E. c #84A585",
"W. c #85AA98",
"Q. c #85B697",
"!. c #ACAB8A",
"~. c #A0B38E",
"^. c #9CA6A6",
"/. c #9FABA2",
"(. c #A1A5A4",
"). c #A2ABA2",
"_. c #A0AAAA",
"`. c #AAB2AE",
"'. c #B2B5A6",
"]. c #ADB5B0",
"[. c #B6BDB5",
"{. c #CF8C87",
"}. c #C9A291",
"|. c #8BC19D",
" X c #83C7A5",
".X c #82CDAA",
"XX c #86D0AD",
"oX c #89D1AF",
"OX c #8CD3B1",
"+X c #92D6B5",
"@X c #96D8B8",
"#X c #98D9BA",
"$X c #B9C0B7",
"%X c #A2DFC1",
"&X c #A4E0C3",
/* pixels */
"H.H.H.H.H.H.H.H.H.H.H.J..Xl.|.K.j.p.XXH.H.H.H.H.H.H.H.H.H.H.H.H.H.H.H.H.H.H.H.H.H.H.H.H.H.H.H.H.",
"H.H.H.H.H.H.H.H.H.H.H.Q.>.l.c.!.>.>.}.G.H.H.H.H.H.H.H.H.H.H.H.H.H.H.H.H.H.H.H.H.H.H.H.H.H.H.H.H.",
"H.H.H.H.H.H.H.H.H.H.H.f.>.$.x.,.$.X.v.|.H.H.H.H.H.H.H.H.H.H.H.H.H.H.H.H.H.H.H.H.H.H.H.H.H.H.H.H.",
"H.H.H.H.H.H.H.H.H.H.H.s.Q } } *.! ! o.Z.H.H.H.H.H.H.H.H.H.H.H.H.H.H.H.H.H.H.H.H.H.K.J.H.H.H.H.H.",
"H.H.H.H.H.H.H.H.H.H.G.@.} = = = Y }  .d.G.H.H.H.H.H.H.H.H.H.H.H.H.H.H.H.H.H.H.H.J.g.h.Q.J.J.H.H.",
"H.H.H.H.H.H.H.H.H.H.@.>.+   X C K O &.c.a.H.H.H.H.H.H.H.H.H.H.H.H.H.H.H.H.H.H.H.~.{.}.h.H.H.H.H.",
"H.H.H.H.H.H.H.K.|.@.o.@ o v A U [ J M ..5.f.H.H.H.H.H.H.H.H.H.J.H.H.H.H.H.H.H.H.|.h.2.C.S.H.H.H.",
"H.H.H.H.H.H..Xa.@.Q + B A b A U [ J L L / 3.a.E.H.H.H.H.H.H.H.H.H.H.H.H.H.H.H.H.F.C.u.q.B.H.H.H.",
"H.H.H.H.J.G.s.;.)   o V A b A U [ F L ' m N x.5.Q.H.H.H.H.H.H.H.H.H.H.H.H.H.H.H.i.9.0.9.q.D.H.H.",
"H.H.H.G.d.d.O.R o m o V A n A U [ J L ' M S S &.4.d.Z.H.H.H.H.H.H.H.H.H.H.H.H.H.H.i.q.y.S.H.H.H.",
"H.H.G.r.;.O.+ X v n X B A b Z U [ J L ' m G J m / c.,..XH.H.H.H.H.H.H.H.H.H.H.H.H.H.J.J.H.H.H.H.",
"H.H.A.X.o.. o X v b X V A b Z U [ J L ' x S J x M / 7.o.H.H.H.H.H.H.H.H.H.H.H.H.H.H.H.H.H.H.H.H.",
"H.H.A.:   . v X v n X V Z b Z U [ H L ' M S J S G x I +.H.H.H.H.H.H.H.H.H.H.H.H.H.H.H.H.H.H.H.K.",
"H.H.D.w.  X v X v n X B A I ~ U [ ^ ^ ' x S J x G x l H.H.H.H.H.H.H.H.H.H.H.H.H.H.H.H.H.H.H.H.H.",
"H.H.H.t.  X v X v n o V %.4.x.~ &.v.2.' S S J c G x l H.H.H.H.H.H.H.H.H.H.H.H.H.H.H.H.H.H.H.H.H.",
"H.H.H.t.  X v X v n X T >.k.v.z.>.v.6.] m S J x G x v H.H.H.H.H.H.H.H.H.H.H.H.H.H.H.H.H.H.H.H.H.",
"H.H.G.t.  X v X v b X ! *.X.7.l.%.$.5.^ m S J c G m l H.H.H.H.H.H.H.H.H.H.H.H.H.H.H.H.H.H.H.H.H.",
"H.G.G.t.  X v X O N X | } } } #.! } %./ m G J m F x l H.H.H.H.H.H.H.H.H.H.H.H.H.H.H.H.H.H.H.H.H.",
"H.H.G.t.  X v X v O Q >.>.| } ! } -.c.c./ b H S F x l H.H.H.H.H.H.H.H.H.H.H.H.H.H.H.H.H.H.H.H.H.",
"H.H.D.t.  X v X @ o.>.;.$.} } : { #.5.c.c.&.z m G c l H.H.H.H.H.H.H.H.H.H.H.H.H.H.H.H.H.H.H.H.H.",
"H.H.H.t.. X v P >.>.:.X.{ ! - $ % { | ,.c.c.x.N D x l H.H.H.H.H.H.H.H.H.H.H.H.H.H.H.H.H.H.H.H.H.",
"H.H.H.t.  o W >.>.*.| } W % $ $ $ % : ! -.8.v.6.E x l H.H.H.H.H.H.H.H.H.H.H.H.H.H.H.H.H.H.H.H.H.",
"H.H.H.t.  } :.>.$.} { - % $ % ; ; % $ - { #.7.v.x...O G.H.H.H.H.H.H.H.H.H.H.H.H.H.H.H.H.H.H.H.H.",
"H.G.K.r.:.>.:.! } { % $ % % ; % % 9 % % % { { ,.c.c.&.A.H.H.H.H.H.H.H.H.H.H.H.H.H.H.H.H.H.H.H.H.",
"H.H.G.! >.$.| } r & $ % * 9 & # 3 & 9 & % % :  .=.7.c.: H.H.H.H.H.H.H.H.H.H.H.H.H.H.H.H.H.H.H.H.",
"H.H.Q.( X.| +.g g $ & ; 9 9 ; 2 4 9 9 ; ; % % p  .X.4.! H.H.H.H.H.H.H.H.H.H.H.H.H.H.H.H.H.H.H.H.",
"H.H. Xr.r <.1.b.1.$ % % % % % $ % % % % % % % b.b.<.<.w.H.H.H.H.H.H.H.H.H.H.H.H.H.H.H.H.H.H.H.H.",
"H.H.H.H.C.b.Y.Y.I.; $ $ $ $ $ $ $ $ $ $ $ $ 9 Y.Y.e.A.G.H.H.H.H.H.H.H.H.H.H.H.H.H.H.H.H.H.H.H.H.",
"H.H.H.H.H.u ^._.R.% & 1 _ _ _ ; * _ ` ` < $ % /.^.q W..XH.H.H.H.H.H.H.H.H.H.H.H.H.H.H.H.H.H.H.H.",
"H.H.H.H.J.d [.$X'.* $ > , , , ; * , , , > $ ; [.[.w P.W.J.H..XoXoXOXK.H.H.H.H.H.H.H.H.H.H.H.H.H.",
"H.H.H.H.L.f [.$X'.% & , ` ) ` 6 * ) ) ) , $ ; [.[.q P.P.W.J.+X%X&X&XL.H.H.H.H.H.H.H.H.H.H.H.H.H.",
"H.H.H.H.K.f [.$X'.* $ 9 9 9 9 * * 9 9 9 ; $ ; [.[.q P.P.P.Z.+X%X&X&XoXH.H.H.H.H.H.H.H.H.H.H.H.H.",
"H.H.H.H.J.f [.[.'.; & e 1 1 1 9 * 1 1 1 , $ * [.[.q P.P.P.P.+X&X&X&XXXG.H.H.H.H.H.H.H.H.H.H.H.H.",
"H.H.H.H.J.e.[.[.'.% $ 9 0 9 9 ; ; 9 9 0 ; $ & [.[.7 P.P.P.P.+X&X&X&XXXG.H.H.H.H.XXOXOX+XH.H.H.H.",
"H.H.H.H.J.d `.`.(.5 5 9 e e 0 5 5 e e e > # 6 `.].7 P.P.P.P.OX&X%X&XXXG.H.H.H.D.#X&X&X&XL.H.H.H.",
"H.H.H.H.J.s 8 8 8 4 2 2 4 4 2 4 4 4 4 4 4 4 4 8 w k P.P.P.n.+X&X%X&XXXG.H.H.H.D.#X&X%X&XL.H.H.H.",
"H.H.H.H.J.h U.^.^.^.T.T.T.T.T.T.T.T.T.T.U.^.^.^.y b.P.P.P.P.+X&X%X&XXXG.J.J.H.H.#X&X&X&XK.H.H.H.",
"H.H.H.H.J.k s s s d s s s s s s s s s s s s i s s P.P.P.P.m.OX&X%X&XXXG.H.G.H.G.#X%X%X&XL.H.H.H.",
"H.H.H.H.J.b.y h h 7 P.P.P.P.P.P.b.P.b.n.n.s h i j P.P.P.P.n.+X&X&X&XXXG.G.H.G.D.#X&X&X&XK.H.H.H.",
"H.H.H.H.J.n.y (.(.q P.P.P.P.P.P.n.b.n.n.1.a ^.m.j P.P.P.P.I.L.OXXXXXL.H.XX+X+X+XOXXXoXOXJ.H.H.H.",
"H.H.H.H.H.b.y [.[.u P.P.P.P.P.P.P.P.P.P.P.a [.R.h P.P.P.b.n.H.H.H.H.H.G.#X&X&X&XL.H.H.H.H.H.H.H.",
"H.H.H.H.H.s.t )./.w P.P.P.P.P.P.P.P.P.P.P.i /.I.j P.P.P.n.m.H.H.H.H.H.H.@X&X&X&XL.H.H.H.H.H.H.H.",
"H.H.H.H.H.n.h s s a b.P.P.P.P.P.P.P.P.P.P.k a s k s.P.P.b.m.H.H.H.H.H.H.#X&X&X&XL.H.H.H.H.H.H.H.",
"H.H.H.H.H.n.P.P.r.b.P.P.P.P.P.P.P.P.P.P.P.P.P.P.b.b.b.b.d.m.H.H.H.H.H.H.L.L.XXL.J.H.H.H.H.H.H.H.",
"H.H.H.H.H.H.Q.P.P.P.P.P.P.P.P.P.P.P.P.P.P.P.P.P.n.P.P.P.b.W.H.H.H.H.H.H.H.H.H.H.H.H.H.H.H.H.H.H.",
"H.H.H.H.H.H.H.A.W.P.P.P.P.P.P.P.P.P.P.P.P.P.P.P.b.P.P.P.V.J.H.H.H.H.H.H.H.H.H.H.H.H.H.H.H.H.H.H.",
"H.H.H.H.H.H.H.H.H.V.N.N.N.N.U.M.N.N.M.M.M.M.M.M.M.M.M.N.H.H.H.H.H.H.H.H.H.H.H.H.H.H.H.H.H.H.H.H.",
"H.H.H.H.H.H.H.H.H.H.H.H.H.H.H.H.H.H.H.H.H.H.H.H.H.H.H.H.H.H.H.H.H.H.H.H.H.H.H.H.H.H.H.H.H.H.H.H."
};
