/* XPM */
static char *result[] = {
/* columns rows colors chars-per-pixel */
"48 48 168 2 ",
"   c #2B2514",
".  c #362E17",
"X  c #3B371E",
"o  c #272820",
"O  c #2F352B",
"+  c #373324",
"@  c #3C3924",
"#  c #3A352A",
"$  c #353B2E",
"%  c #3C2A3D",
"&  c #2D3934",
"*  c #353934",
"=  c #3A3D32",
"-  c #36393A",
";  c #473817",
":  c #513F19",
">  c #463E29",
",  c #3F4134",
"<  c #4F411C",
"1  c #53421C",
"2  c #474122",
"3  c #4D4326",
"4  c #544323",
"5  c #52492C",
"6  c #584929",
"7  c #5B4C29",
"8  c #494536",
"9  c #544E35",
"0  c #5F4E32",
"q  c #595538",
"w  c #64522E",
"e  c #635533",
"r  c #6A5837",
"t  c #65553D",
"y  c #625A3C",
"u  c #715F31",
"i  c #6C653C",
"p  c #74653B",
"a  c #74663B",
"s  c #364E41",
"d  c #3B5546",
"f  c #445348",
"g  c #445E4C",
"h  c #5D5A4B",
"j  c #585A59",
"k  c #645747",
"l  c #645B45",
"z  c #6B5C40",
"x  c #41674F",
"c  c #446752",
"v  c #4B6C55",
"b  c #4A6C56",
"n  c #5D625D",
"m  c #4B745D",
"M  c #50725A",
"N  c #666143",
"B  c #65614B",
"V  c #6C634A",
"C  c #706344",
"Z  c #766942",
"A  c #73654A",
"S  c #766D4E",
"D  c #7D724B",
"F  c #676757",
"G  c #776B54",
"H  c #7D7755",
"J  c #5E6162",
"K  c #507961",
"L  c #636464",
"P  c #6C6E65",
"I  c #646569",
"U  c #646A6A",
"Y  c #6B6D6A",
"T  c #6A726D",
"R  c #6C6E74",
"E  c #667D74",
"W  c #737372",
"Q  c #767A77",
"!  c #826D4E",
"~  c #86774B",
"^  c #85764D",
"/  c #8A7D53",
"(  c #827C5A",
")  c #4DAE5F",
"_  c #54AD56",
"`  c #4BB25A",
"'  c #52B85B",
"]  c #528066",
"[  c #55836B",
"{  c #598371",
"}  c #5E9278",
"|  c #54AD6A",
" . c #5BB46F",
".. c #5CB977",
"X. c #71AB75",
"o. c #66B275",
"O. c #51C251",
"+. c #8E8359",
"@. c #948C68",
"#. c #898470",
"$. c #747480",
"%. c #3EAC86",
"&. c #778B81",
"*. c #7A9689",
"=. c #41AD87",
"-. c #44AE88",
";. c #4EB38D",
":. c #52B48E",
">. c #56B691",
",. c #58B791",
"<. c #5CB993",
"1. c #62B582",
"2. c #6ABD8E",
"3. c #62BC97",
"4. c #64BE98",
"5. c #73B992",
"6. c #7ABDA1",
"7. c #67C09A",
"8. c #6CC39D",
"9. c #70C59F",
"0. c #73C7A1",
"q. c #7AC5A3",
"w. c #75C8A2",
"e. c #7BCAA6",
"r. c #7ECCA8",
"t. c #999299",
"y. c #9E9EA9",
"u. c #A99CAD",
"i. c #93AEA9",
"p. c #84BEA5",
"a. c #8DBBAB",
"s. c #90B2A8",
"d. c #9DB4B2",
"f. c #A1B4AF",
"g. c #AEA6B6",
"h. c #BEA8B2",
"j. c #AAB5B3",
"k. c #82C5A6",
"l. c #82CDAA",
"z. c #8AC8AB",
"x. c #86D0AD",
"c. c #89D1AF",
"v. c #96CEB3",
"b. c #8CD3B1",
"n. c #92D6B5",
"m. c #96D8B8",
"M. c #98D9BA",
"N. c #BCB9C6",
"B. c #CC87CB",
"V. c #D386CE",
"C. c #C89DC6",
"Z. c #D69FCF",
"A. c #CF87D0",
"S. c #D68FD3",
"D. c #D68BD4",
"F. c #DB98D5",
"G. c #DC9CDB",
"H. c #CAB6CC",
"J. c #CCA4D0",
"K. c #DAA5D6",
"L. c #D7B0D2",
"P. c #E2A7DD",
"I. c #E3AADF",
"U. c #E49DE1",
"Y. c #DEA5E6",
"T. c #DDABE3",
"R. c #A2DFC1",
"E. c #A4E0C3",
/* pixels */
"0.0.0.0.0.0.0.0.0.0.0.0.0.0.0.0.0.0.0.0.0.0.0.0.0.0.0.0.0.0.0.} m x b v v v b c b c b m K m [ 0.",
"0.0.0.0.0.0.0.0.0.0.0.0.0.0.0.0.0.0.0.0.0.0.0.0.0.0.0.0.0.0.0.m 9 +.{ / ! / H Z ( @.D ( ( l d 0.",
"0.0.0.0.0.0.0.0.0.0.0.0.0.0.0.0.0.0.0.0.0.0.0.0.0.0.0.0.0.0.0.M q +.D ^ ~ ~ +.~ / ~ ^ D +.a d 0.",
"0.0.0.0.0.0.0.0.0.0.0.0.0.0.0.0.0.0.0.0.0.0.0.0.0.0.w.0.0.0.0.v 5 ; 7 4 w 1 1 w ; 7 1 7 1 : s w.",
"0.0.0.0.0.0.0.0.0.0.0.0.0.0.0.0.0.0.0.0.0.0.0.w.0.0.0.0.0.0.0.g q 7 e G t A r ! r A A z 0 6 s w.",
"0.0.0.0.0.0.0.0.0.0.0.0.0.8.0.0.0.0.0.0.0.0.0.0.0.0.0.0.0.0.0.g 5 C ; k > h A l V @ B . V 5 & 0.",
"0.0.0.0.0.0.0.0.0.0.0.0.7.%.<.0.0.0.0.0.0.0.0.0.0.0.0.0.w.w.0.f 2 i 3 > h = 3 9 X B + 9 k 5 - 0.",
"0.0.0.0.0.0.0.0.0.0.0.0.7.-.<.0.w.0.0.0.0.0.0.0.0.0.0.0.w.w.w.8 > Z a u p A i u a p u e ! : - q.",
"0.0.0.0.0.0.0.0.0.0.0.0.7.=.<.0.0.0.0.0.0.0.0.0.0.0.0.0.0.0.0., q q p < 7 y > 7 N 4 r N e 6 % w.",
"0.0.0.0.0.0.0.0.0.0.0.w.7.=.,.0.0.0.0.0.0.8.8.0.0.0.0.0.0.0.9.o 8 9 G l N F k G V B N N q 2 % w.",
"0.0.8.%.;.0.0.0.0.0.0.w.7.=.<.0.0.0.0.0.<.%.-.%.<.w.0.0.0.0.w.d = #   > $ O >   # 8 + , [ ] E w.",
"0.0.8.=.:.0.0.0.0.0.0.w.7.=.<.0.0.0.0.0.7.-.-.-.3.w.0.0.0.0.0.w.w.q.W Q n & S V . P L E q.0.0.0.",
"0.0.8.=.;.0.0.0.0.0.0.w.7.-.<.0.0.0.0.w.4.%.-.-.<.w.0.0.0.0.0.0.q.*.j J Y * y z @ P Q R $.q.w.0.",
"0.0.0.;.<.8.8.8.9.0.0.0.7.;.3.w.0.0.0.8.4.:.:.;.7.w.0.0.0.0.0.0.q.L I I Y $ ( #.$ n J j I w.0.0.",
"0.0.0.w.8.%.-.=.>.0.0.0.0.0.0.0.0.0.4.%.<.w.w.w.w.0.0.0.0.0.w.0.q.U R Y j , # + * U J Q L w.0.0.",
"0.0.0.0.8.-.-.-.:.0.0.0.0.0.0.0.0.0.7.%.<.w.0.0.0.0.0.0.0.0.0.0.0.q.W L T L I U L T E &.0.0.0.0.",
"0.0.0.0.8.%.-.-.>.w.0.0.0.0.0.0.0.0.7.%.<.0.0.0.0.0.0.0.0.0.0.0.0.0.m.n.v.z.r.e.0.0.0.0.0.0.0.w.",
"0.0.0.0.8.>.>.>.<.w.0.0.0.0.0.0.0.0.7.;.7.w.0.0.0.0.0.0.0.0.0.0.0.0.0.0.0.0.0.0.0.0.0.0.0.0.0.0.",
"0.0.0.0.0.0.w.w.0.0.0.0.0.0.0.0.0.0.0.w.w.0.0.0.0.0.0.0.0.0.0.0.0.0.0.0.0.0.0.0.0.0.0.0.0.0.0.0.",
"0.0.0.0.0.0.0.0.0.0.0.0.0.0.0.0.0.0.0.0.0.0.0.0.0.0.0.0.0.0.0.0.0.0.0.0.0.0.0.0.0.0.0.0.0.0.0.0.",
"0.0.0.0.0.0.0.0.0.0.0.0.0.0.0.0.0.0.0.0.0.0.0.0.0.0.0.0.0.0.w.0.0.0.0.0.0.0.0.0.0.0.0.0.0.0.0.0.",
"0.0.0.0.0.0.0.0.0.0.0.0.0.0.0.0.0.0.0.0.0.0.0.0.0.0.0.0.0.0.0.0.0.0.w.0.0.0.0.w.0.0.0.0.0.0.0.0.",
"0.0.0.0.0.0.0.0.0.0.0.0.0.0.0.0.0.0.0.0.w.0.0.0.0.w.0.0.0.0.0.0.0.0.0.0.0.0.0.0.0.0.0.0.0.0.0.0.",
"0.0.0.w.0.w.0.0.0.0.0.0.0.0.0.0.0.0.0.0.0.0.0.0.0.0.0.0.0.0.0.0.0.0.0.0.0.0.0.0.0.0.0.0.0.0.0.0.",
"0.0.0.0.0.q.a.0.0.0.0.0.0.0.0.0.0.0.0.0.0.0.0.0.0.0.0.0.0.0.0.0.0.0.0.0.0.0.0.0.0.0.0.0.0.0.0.0.",
"0.0.0.0.0.f.P.q.0.0.0.0.0.0.0.0.0.0.0.0.0.0.0.0.0.0.0.0.0.0.w.0.0.0.0.0.0.0.0.0.0.0.0.0.0.0.0.0.",
"0.0.0.0.w.H.D.N.0.0.0.0.0.0.0.0.0.0.0.0.0.0.0.0.0.0.0.0.0.0.0.0.0.0.0.0.0.0.0.0.0.0.0.0.0.0.0.0.",
"0.0.0.p.a.U.A.C.0.k.0.0.0.0.0.0.0.0.0.0.0.0.0.0.0.0.0.0.0.0.0.0.0.0.0.0.0.0.0.0.0.0.0.0.0.0.0.0.",
"0.0.j.I.i.F.V.Y.g.I.k.0.0.0.0.0.0.0.0.0.0.0.0.0.0.0.0.0.0.0.0.0.0.0.0.0.w.0.0.0.0.0.0.0.0.0.0.0.",
"0.k.K.S.h.J.y.t.L.D.H.0.0.0.0.0.0.0.0.0.0.0.0.0.0.0.0.0.0.0.r.b.b.n.e.0.0.0.0.0.w.0.0.0.0.0.0.0.",
"0.d.K.B.C._ ' X.G.B.K.0.0.0.0.0.0.0.0.0.0.0.0.0.0.0.0.0.0.0.n.E.E.E.r.0.0.0.0.0.0.0.0.0.0.0.0.0.",
"0.i.G.A.T.5.o.s.F.A.T.q.0.w.0.0.0.0.0.0.0.0.0.0.0.0.0.0.0.0.n.E.E.E.r.0.0.0.0.0.0.0.0.0.0.0.0.0.",
"9.X.K.u.t.6.9.o.Z.u.t.6.0.0.0.0.0.0.0.0.0.8.0.9.0.0.0.0.9.9.n.E.R.E.r.w.0.0.0.0.9.9.9.9.9.w.9.w.",
"0. .` O.| 9.0..._ O.) 9.0.0.0.0.0.0.0.0.r.b.n.b.r.0.0.0.w.9.n.R.R.E.r.0.0.0.0.9.r.n.n.n.w.w.9.w.",
"0.9.2.1.9.9.0.9.2.1.4.0.0.0.0.0.0.0.0.0.b.E.R.E.b.9.0.0.0.9.n.R.E.E.c.w.w.0.0.9.M.E.E.E.r.w.w.9.",
"0.0.0.0.0.0.0.0.w.w.q.0.0.0.0.0.0.0.0.0.b.E.R.E.b.0.0.0.0.9.n.E.E.E.r.0.0.0.0.9.M.E.E.E.r.9.w.w.",
"0.0.0.0.0.0.0.0.0.0.0.0.0.0.0.0.0.0.0.9.c.E.R.E.b.0.0.0.0.9.n.E.E.E.x.9.0.0.0.9.M.R.E.E.r.9.w.9.",
"0.0.0.0.0.0.0.0.0.0.0.0.0.0.0.0.0.0.0.0.c.E.R.E.b.0.0.0.0.9.n.R.R.E.x.0.0.0.w.9.M.R.E.E.e.w.9.w.",
"0.0.0.0.0.0.0.0.0.0.0.0.0.0.0.0.0.0.0.9.b.E.E.E.b.9.9.0.0.9.n.E.E.E.x.9.9.9.9.8.M.E.E.E.r.w.w.w.",
"0.0.0.0.0.0.0.0.0.0.0.0.0.0.0.0.0.0.0.0.r.c.c.c.b.n.n.n.r.0.r.b.x.x.r.0.b.n.n.n.n.r.c.c.w.9.w.9.",
"0.0.0.w.0.0.0.0.0.0.0.0.0.0.0.0.0.0.0.0.0.0.9.9.b.E.E.E.b.0.0.0.0.0.0.0.M.E.E.E.r.9.9.9.w.0.0.0.",
"0.0.0.0.0.0.0.0.0.0.0.0.0.0.0.0.w.0.0.0.0.0.0.0.b.E.E.E.b.0.0.0.0.0.0.9.M.E.E.E.r.w.0.0.0.0.0.0.",
"0.0.0.0.0.0.0.0.0.0.0.0.0.0.w.0.0.0.0.0.0.0.0.9.b.E.E.E.b.8.0.0.0.0.0.9.M.R.E.E.r.9.w.0.0.0.0.0.",
"0.0.0.0.0.0.0.0.0.0.0.0.0.0.0.0.0.0.0.0.0.0.0.0.e.b.l.x.e.0.0.0.0.0.w.w.r.r.c.r.e.w.w.0.0.0.0.0.",
"0.0.0.0.0.0.w.0.0.0.0.0.0.0.0.0.0.0.0.0.0.0.0.0.0.0.9.9.0.0.0.0.0.0.0.0.0.9.0.9.0.0.0.0.0.0.0.0.",
"0.0.0.0.0.0.0.0.0.0.0.0.0.0.0.0.0.0.0.0.0.0.0.0.0.0.0.0.0.0.0.0.0.0.0.0.0.0.0.0.0.0.0.0.0.0.0.w.",
"0.0.0.0.0.0.0.0.0.0.w.0.0.0.0.0.0.0.0.0.0.0.0.0.0.0.0.0.0.0.0.0.0.0.0.0.0.0.0.0.0.0.0.0.0.0.0.0.",
"w.0.0.0.0.0.0.0.0.0.0.0.0.0.0.0.0.0.0.0.0.0.0.0.0.0.0.0.0.0.0.0.0.0.0.0.0.0.0.w.0.0.0.0.0.0.0.0."
};
