/* XPM */
static char *result[] = {
/* columns rows colors chars-per-pixel */
"48 48 239 2 ",
"   c #297D42",
".  c #427441",
"X  c #457A4E",
"o  c #9C3C12",
"O  c #90430B",
"+  c #8E552E",
"@  c #A8442C",
"#  c #A74931",
"$  c #C24409",
"%  c #D14F00",
"&  c #D05000",
"*  c #D0520D",
"=  c #DB4910",
"-  c #C85E14",
";  c #E15206",
":  c #F6560C",
">  c #E85D18",
",  c #CC641D",
"<  c #DB731A",
"1  c #C34F20",
"2  c #C14F2A",
"3  c #DE552B",
"4  c #C94530",
"5  c #C94732",
"6  c #CB5A38",
"7  c #CB5B39",
"8  c #D5543E",
"9  c #E15323",
"0  c #F35C20",
"q  c #E55533",
"w  c #E25E3D",
"e  c #D66626",
"r  c #D7792F",
"t  c #CB603E",
"y  c #C77139",
"u  c #CF4543",
"i  c #CD4C47",
"p  c #C76948",
"a  c #1F8B3F",
"s  c #238731",
"d  c #36B42D",
"f  c #36AD35",
"g  c #3CA73F",
"h  c #4A9E3E",
"j  c #4DAB21",
"k  c #54AA2B",
"l  c #45AD3C",
"z  c #50AB36",
"x  c #52AD38",
"c  c #4DB836",
"v  c #4DB837",
"b  c #49B639",
"n  c #52B932",
"m  c #60A139",
"M  c #59C734",
"N  c #298942",
"B  c #3B9057",
"V  c #3D9159",
"C  c #3CAF44",
"Z  c #30B84A",
"A  c #34B94F",
"S  c #39BC48",
"D  c #3FBD52",
"F  c #3F8E6E",
"G  c #4A8D48",
"H  c #4D9D48",
"J  c #549F42",
"K  c #458A5B",
"L  c #4E9D5C",
"P  c #4E9D5D",
"I  c #559652",
"U  c #689A5B",
"Y  c #47AE42",
"T  c #4CA64F",
"R  c #4AAA49",
"E  c #52A940",
"W  c #54AF43",
"Q  c #5BA944",
"!  c #5BA945",
"~  c #59AA4D",
"^  c #59AF4E",
"/  c #4EB84C",
"(  c #5AB442",
")  c #5CB54C",
"_  c #4AAF51",
"`  c #44A45A",
"'  c #46AB5B",
"]  c #57A351",
"[  c #5AAB50",
"{  c #5AB051",
"}  c #61A341",
"|  c #68A557",
" . c #69A75C",
".. c #61AC5A",
"X. c #60AA5F",
"o. c #62AE61",
"O. c #62AD69",
"+. c #66B063",
"@. c #3CAB85",
"#. c #3DAB85",
"$. c #3EAC86",
"%. c #3FAC86",
"&. c #40AD86",
"*. c #41AD87",
"=. c #42AD87",
"-. c #42AE88",
";. c #43AE88",
":. c #44AE88",
">. c #45AE88",
",. c #45AF89",
"<. c #46AF89",
"1. c #4EB28C",
"2. c #4EB28D",
"3. c #4EB38D",
"4. c #4FB38D",
"5. c #50B38D",
"6. c #50B48E",
"7. c #51B48E",
"8. c #52B48E",
"9. c #52B48F",
"0. c #53B58F",
"q. c #54B58F",
"w. c #54B590",
"e. c #56B791",
"r. c #57B791",
"t. c #58B791",
"y. c #59B892",
"u. c #5CBA94",
"i. c #5DBA94",
"p. c #5EBB95",
"a. c #5FBB95",
"s. c #60BB96",
"d. c #61BC97",
"f. c #62BD97",
"g. c #63BD97",
"h. c #63BE98",
"j. c #64BE98",
"k. c #67C09A",
"l. c #68C09A",
"z. c #6AC19B",
"x. c #6CC39D",
"c. c #6DC39D",
"v. c #6DC49D",
"b. c #6EC49E",
"n. c #6FC49E",
"m. c #6EC59E",
"M. c #6FC59F",
"N. c #70C59F",
"B. c #70C69F",
"V. c #71C6A0",
"C. c #72C6A0",
"Z. c #72C7A0",
"A. c #72C7A1",
"S. c #73C7A1",
"D. c #74C7A1",
"F. c #76C7A1",
"G. c #76C7A2",
"H. c #7CC7A4",
"J. c #7CC7A5",
"K. c #74C8A2",
"L. c #75C8A2",
"P. c #76C9A3",
"I. c #77C8A4",
"U. c #77C9A4",
"Y. c #76CAA4",
"T. c #78C8A1",
"R. c #78C8A2",
"E. c #78C9A3",
"W. c #78C9A4",
"Q. c #7BC8A6",
"!. c #7BCAA6",
"~. c #7BCBA6",
"^. c #7EC9A5",
"/. c #7CCBA6",
"(. c #7CCBA7",
"). c #7DCBA7",
"_. c #7DCCA7",
"`. c #7ACBA9",
"'. c #7FCAAA",
"]. c #7ECCA8",
"[. c #7FCDA9",
"{. c #A6ADB7",
"}. c #80CAA1",
"|. c #80CAA3",
" X c #80C8A4",
".X c #80CAA4",
"XX c #83CAA5",
"oX c #84C9A6",
"OX c #81CDA7",
"+X c #8BC7AB",
"@X c #81CAA8",
"#X c #80CDA9",
"$X c #81CDAA",
"%X c #81CEAA",
"&X c #82CEAA",
"*X c #85CFAC",
"=X c #8FCCAB",
"-X c #88CAAE",
";X c #94CAA8",
":X c #99CFAC",
">X c #9CCDAD",
",X c #85D0AD",
"<X c #86D0AD",
"1X c #87D1AE",
"2X c #88D1AE",
"3X c #88D1AF",
"4X c #89D1AF",
"5X c #89D2AF",
"6X c #97CEB4",
"7X c #85D2B6",
"8X c #8AD2B0",
"9X c #8BD2B0",
"0X c #8BD2B1",
"qX c #8BD3B1",
"wX c #8DD3B2",
"eX c #8DD4B2",
"rX c #8ED4B3",
"tX c #8FD4B3",
"yX c #91D6B5",
"uX c #92D6B5",
"iX c #92D6B6",
"pX c #93D7B6",
"aX c #95D8B8",
"sX c #96D8B8",
"dX c #97D9B9",
"fX c #98D9BA",
"gX c #99DABA",
"hX c #99DABB",
"jX c #95BBC8",
"kX c #A2DFC1",
"lX c #A3DFC2",
"zX c #A3E0C2",
"xX c #A4E0C2",
"cX c #A4E0C3",
"vX c #A5E1C3",
"bX c #A5E1C4",
"nX c #A6E1C4",
"mX c #E0E0D8",
"MX c #E9DFF7",
/* pixels */
"S.S.S.S.S.S.S.S.S.S.S.S.S.S.S.S.S.S.S.S.S.S.S.S.S.S.S.S.S.S.S.S.S.S.S.S.S.S.S.S.S.S.S.S.S.S.S.S.",
"S.S.S.S.S.S.S.S.S.S.S.S.S.S.S.S.S.S.S.S.S.S.S.S.S.S.S.S.S.S.S.S.S.S.S.S.S.S.S.S.S.S.S.S.S.S.S.S.",
"S.S.S.S.S.S.S.S.S.S.S.S.S.S.S.S.S.S.S.S.S.S.S.S.S.S.S.S.S.S.S.S.S.S.S.S.;X=XS.S.S.S.S.S.S.S.S.S.",
"S.S.S.S.S.S.S.S.S.S.S.S.S.S.S.S.S.S.S.S.S.S.S.S.S.S.S.S.S.S.S.S.S.S.S.-X2 > q S.S.S.S.S.S.S.S.S.",
"S.S.S.S.S.S.S.S.S.S.S.S.S.S.S.S.S.S.S.S.S.S.S.S.S.S.S.S.S.S.S.S.S.S.S.6X$ 8 6 O @ H.S.S.S.S.S.S.",
"S.S.S.S.S.S.S.S.S.S.S.S.A.N.V.S.S.S.S.S.S.S.S.S.S.S.S.S.S.S.S.S.S.S.S., & MXjXe % S.S.S.S.S.S.S.",
"S.S.S.S.S.S.S.S.S.S.S.K.k.@.e.L.S.S.S.S.S.S.S.S.S.S.S.S.S.S.S.S.S.S.S.: - {.mX= < S.S.S.S.S.S.S.",
"S.S.S.S.S.S.S.S.S.S.S.K.l.*.y.L.S.S.S.S.S.S.S.S.S.S.S.S.S.S.S.S.S.S.H.1 o 3 9 4 H.S.S.S.S.S.S.S.",
"S.S.S.S.S.S.S.S.S.S.S.K.l.*.y.L.S.S.S.S.S.S.S.S.S.S.S.S.S.S.S.S.S.S.S.S.+Xt ; u >Xl Z S.S.S.S.S.",
"S.S.A.b.M.S.S.S.S.S.S.K.l.*.y.L.S.S.S.S.V.b.b.b.V.S.S.S.S.S.S.S.S.S.S.S.}.:X~ '.Q k B S.S.S.S.S.",
"S.S.c.@.2.L.S.S.S.S.S.K.l.*.y.L.S.S.S.K.d.%.=.%.p.K.S.S.S.S.S.S.S.S..XU +.T a z ` G L S.S.S.S.S.",
"S.S.b.*.6.L.S.S.S.S.S.K.l.*.y.L.S.S.S.K.f.;.<.:.s.K.S.S.S.S.S.S.S.F.X.g s h F E R . n x 7XS.S.S.",
"S.S.b.&.5.P.D.D.S.S.S.K.k.&.t.L.S.S.S.L.g.=.,.-.a.K.S.S.S.S.S.S.S.S.Y.( j K I H _ X ' c ^ S.S.S.",
"S.S.n.3.r.c.x.x.b.S.S.D.z.1.p.K.S.S.N.x.d.5.7.4.j.K.S.S.S.S.S.S.S.S.S.|.| N   M d m ..OXS.S.S.S.",
"S.S.S.P.b.$.=.*.8.L.S.S.D.L.K.S.S.K.g.#.i.P.L.L.K.S.S.S.S.S.S.S.S.S.S.S.S.J S f b S.S.S.S.S.S.S.",
"S.S.S.D.c.=.<.>.q.L.S.S.S.S.S.S.S.K.j.*.i.K.S.S.S.S.S.S.S.S.S.S.S.S.S.S.S.S.S.S.S.S.S.S.S.S.S.S.",
"S.S.S.D.x.*.>.;.0.L.S.S.S.S.S.S.S.K.h.%.u.K.S.S.S.S.S.S.S.S.S.S.S.S.S.S.S.S.S.S.S.S.S.S.S.S.S.S.",
"S.S.S.S.b.9.w.q.i.K.S.S.S.S.S.S.S.D.l.7.g.K.S.S.S.S.S.S.S.S.S.S.S.S.S.S.S.S.S.S.S.S.S.S.S.S.S.S.",
"S.S.S.S.S.L.L.L.K.S.S.S.S.S.S.S.S.S.D.L.K. X^.S.S.S.S.S.S.S.S.S.S.S.S.S.S.S.S.S.S.S.S.S.S.S.S.S.",
"S.S.S.S.S.S.S.S.S.S.S.S.S.S.S.S.S.S.S.S.Q.2 > w S.S.S.S.S.S.S.S.S.S.S.S.S.S.S.S.S.S.S.S.S.S.S.S.",
"S.S.S.S.S.S.S.S.S.S.S.S.S.S.S.S.S.S.S.S.@X$ 8 7 + # G.S.S.S.S.S.S.S.S.S.S.S.S.S.S.S.S.S.S.S.S.S.",
"S.S.S.S.S.S.S.S.S.S.S.S.S.S.S.S.S.S.S.S.y & MXjXe * S.S.S.S.S.S.S.S.S.S.S.S.S.S.S.S.S.S.S.S.S.S.",
"S.S.S.S.S.S.S.S.S.S.S.S.S.S.S.S.S.S.S.S.0 - {.mX= r S.S.S.S.S.S.S.S.S.S.S.S.S.S.S.S.S.S.S.S.S.S.",
"S.S.S.S.S.S.S.S.S.S.S.S.S.S.S.S.S.S.S.G.1 o 3 9 5 G.S.S.S.S.S.S.S.S.S.S.S.S.S.S.S.S.S.S.S.S.S.S.",
"S.S.S.S.S.S.S.S.S.S.S.S.S.S.S.S.S.S.S.S.S.J.p ; i oXY A S.S.S.S.S.S.S.S.S.S.S.S.S.S.S.S.S.S.S.S.",
"S.S.S.S.S.S.S.S.S.S.S.S.S.S.S.S.S.S.S.S.S.T.XX[ I.! k V S.S.S.S.S.S.S.S.S.S.S.S.S.S.S.S.S.S.S.S.",
"S.S.S.S.S.C.C.C.C.S.S.S.S.S.S.S.S.S.S.R.U +.T a z ` G P S.S.S.S.S.S.S.S.S.S.S.S.S.S.S.S.S.S.S.S.",
"S.S.S.S.S.C.C.C.C.S.S.S.S.S.S.S.S.S.D.O.g s h F E R . n W `.S.S.S.S.S.S.S.S.S.S.S.S.S.S.S.S.S.S.",
"S.S.S.S.S.C.C.C.C.S.S.S.S.S.S.S.S.S.S.K.) j K I H _ X ' v { C.V.V.V.A.S.S.S.S.S.S.S.S.S.S.S.S.S.",
"S.S.S.S.S.C.C.C.S.S.S.S.S.S.S.S.S.S.S.S.R. .N   M d } o.E.C.&X0X8XqX/.A.S.S.S.S.S.S.S.S.S.S.S.S.",
"S.S.S.S.S.S.S.S.S.S.S.S.S.S.S.S.S.S.S.S.S.S.] D C / S.S.S.B.iXvXxXbX<XV.S.S.S.S.S.S.S.S.S.S.S.S.",
"S.S.S.S.S.S.S.S.S.S.S.S.S.S.S.S.S.S.S.S.S.S.S.S.S.S.S.S.S.B.yXzXkXxX<XV.S.S.S.S.S.S.S.S.S.S.S.S.",
"S.S.S.S.S.S.S.S.S.S.S.S.S.S.S.S.S.S.S.S.Z.V.V.V.Z.S.S.S.S.B.yXzXkXxX<XV.S.S.S.S.V.V.V.V.A.S.S.S.",
"S.S.S.S.S.S.S.S.S.S.S.S.S.S.S.S.S.S.S.Z.[.rXeXrX$XZ.S.S.S.B.yXzXkXxX<XV.S.S.S.V.1XrXeXtXW.A.S.S.",
"S.S.S.S.S.S.S.S.S.S.S.S.S.S.S.S.S.S.S.V.9XvXzXvXrXV.S.S.S.B.yXzXkXxX<XV.S.S.S.B.hXcXzXnX].Z.S.S.",
"S.S.S.S.S.S.S.S.S.S.S.S.S.S.S.S.S.S.S.V.8XxXkXzXwXV.S.S.S.B.yXzXkXxX<XV.S.S.S.B.fXlXkXcX_.Z.S.S.",
"S.S.S.S.S.S.S.S.S.S.S.S.S.S.S.S.S.S.S.V.8XxXkXzXwXV.S.S.S.B.yXzXkXxX<XV.S.S.S.B.fXlXkXcX_.Z.S.S.",
"S.S.S.S.S.S.S.S.S.S.S.S.S.S.S.S.S.S.S.V.8XxXkXzXwXV.S.S.S.B.yXzXkXxX<XV.S.S.S.B.fXlXkXcX_.Z.S.S.",
"S.S.S.S.S.S.S.S.S.S.S.S.S.S.S.S.S.S.S.V.0XvXxXvXwXm.B.B.C.B.iXvXxXnX<XV.V.B.B.v.gXcXxXnX].Z.S.S.",
"S.S.S.S.S.S.S.S.S.S.S.S.S.S.S.S.S.S.S.A.).4X3X2XwXuXuXpX&XV.#X4X3X4X!.V.4XiXuXiX9X2X3X5XU.S.S.S.",
"S.S.S.S.S.S.S.S.S.S.S.S.S.S.S.S.S.S.S.S.A.V.V.M.wXvXzXvX9XV.Z.V.V.V.A.B.sXcXzXvX#XB.V.V.S.S.S.S.",
"S.S.S.S.S.S.S.S.S.S.S.S.S.S.S.S.S.S.S.S.S.S.S.V.wXzXkXxX8XV.S.S.S.S.S.B.aXzXkXcX$XC.S.S.S.S.S.S.",
"S.S.S.S.S.S.S.S.S.S.S.S.S.S.S.S.S.S.S.S.S.S.S.V.rXvXxXbX0XV.S.S.S.S.S.B.dXvXxXnX%XC.S.S.S.S.S.S.",
"S.S.S.S.S.S.S.S.S.S.S.S.S.S.S.S.S.S.S.S.S.S.S.A.(.<X*X<X~.A.S.S.S.S.S.Z.#X,X*X<XW.S.S.S.S.S.S.S.",
"S.S.S.S.S.S.S.S.S.S.S.S.S.S.S.S.S.S.S.S.S.S.S.S.A.V.V.V.A.S.S.S.S.S.S.S.Z.V.V.V.S.S.S.S.S.S.S.S.",
"S.S.S.S.S.S.S.S.S.S.S.S.S.S.S.S.S.S.S.S.S.S.S.S.S.S.S.S.S.S.S.S.S.S.S.S.S.S.S.S.S.S.S.S.S.S.S.S.",
"S.S.S.S.S.S.S.S.S.S.S.S.S.S.S.S.S.S.S.S.S.S.S.S.S.S.S.S.S.S.S.S.S.S.S.S.S.S.S.S.S.S.S.S.S.S.S.S.",
"S.S.S.S.S.S.S.S.S.S.S.S.S.S.S.S.S.S.S.S.S.S.S.S.S.S.S.S.S.S.S.S.S.S.S.S.S.S.S.S.S.S.S.S.S.S.S.S."
};
