/* XPM */
static char *result[] = {
/* columns rows colors chars-per-pixel */
"48 48 108 2 ",
"   c #3CAB85",
".  c #3DAB85",
"X  c #3EAC86",
"o  c #3FAC86",
"O  c #40AD86",
"+  c #41AD87",
"@  c #42AD87",
"#  c #42AE88",
"$  c #43AE88",
"%  c #44AE88",
"&  c #45AE88",
"*  c #45AF89",
"=  c #46AF89",
"-  c #4EB28C",
";  c #4EB28D",
":  c #4EB38D",
">  c #4FB38D",
",  c #50B38D",
"<  c #50B48E",
"1  c #51B48E",
"2  c #52B48E",
"3  c #52B48F",
"4  c #53B58F",
"5  c #54B58F",
"6  c #54B590",
"7  c #56B791",
"8  c #57B791",
"9  c #58B791",
"0  c #59B892",
"q  c #5CBA94",
"w  c #5DBA94",
"e  c #5EBB95",
"r  c #5FBB95",
"t  c #60BB96",
"y  c #61BC97",
"u  c #62BD97",
"i  c #63BD97",
"p  c #63BE98",
"a  c #64BE98",
"s  c #67C09A",
"d  c #68C09A",
"f  c #6AC19B",
"g  c #6CC39D",
"h  c #6DC39D",
"j  c #6DC49D",
"k  c #6EC49E",
"l  c #6FC49E",
"z  c #6EC59E",
"x  c #6FC59F",
"c  c #70C59F",
"v  c #70C69F",
"b  c #71C6A0",
"n  c #72C6A0",
"m  c #72C7A0",
"M  c #72C7A1",
"N  c #73C7A1",
"B  c #74C7A1",
"V  c #74C8A2",
"C  c #75C8A2",
"Z  c #76C9A3",
"A  c #77C9A4",
"S  c #78C9A4",
"D  c #7BCAA6",
"F  c #7BCBA6",
"G  c #7CCBA6",
"H  c #7CCBA7",
"J  c #7DCBA7",
"K  c #7DCCA7",
"L  c #7ECCA8",
"P  c #7FCDA9",
"I  c #80CDA9",
"U  c #81CDAA",
"Y  c #81CEAA",
"T  c #82CEAA",
"R  c #85CFAC",
"E  c #85D0AD",
"W  c #86D0AD",
"Q  c #87D1AE",
"!  c #88D1AE",
"~  c #88D1AF",
"^  c #89D1AF",
"/  c #89D2AF",
"(  c #8AD2B0",
")  c #8BD2B0",
"_  c #8BD2B1",
"`  c #8BD3B1",
"'  c #8DD3B2",
"]  c #8DD4B2",
"[  c #8ED4B3",
"{  c #8FD4B3",
"}  c #91D6B5",
"|  c #92D6B5",
" . c #92D6B6",
".. c #93D7B6",
"X. c #95D8B8",
"o. c #96D8B8",
"O. c #97D9B9",
"+. c #98D9BA",
"@. c #99DABA",
"#. c #99DABB",
"$. c #A2DFC1",
"%. c #A3DFC2",
"&. c #A3E0C2",
"*. c #A4E0C2",
"=. c #A4E0C3",
"-. c #A5E1C3",
";. c #A5E1C4",
":. c #A6E1C4",
/* pixels */
"N N N N N N N N N N N N N N N N N N N N N N N N N N N N N N N N N N N N N N N N N N N N N N N N ",
"N N N N N N N N N N N N N N N N N N N N N N N N N N N N N N N N N N N N N N N N N N N N N N N N ",
"N N N N N N N N N N N N N N N N N N N N N N N N N N N N N N N N N N N N N N N N N N N N N N N N ",
"N N N N N N N N N N N N N N N N N N N N N N N N N N N N N N N N N N N N N N N N N N N N N N N N ",
"N N N N N N N N N N N N N N N N N N N N N N N N N N N N N N N N N N N N N N N N N N N N N N N N ",
"N N N N N N N N N N N N M c b N N N N N N N N N N N N N N N N N N N N N N N N N N N N N N N N N ",
"N N N N N N N N N N N V s   7 C N N N N N N N N N N N N N N N N N N N N N N N N N N N N N N N N ",
"N N N N N N N N N N N V d + 0 C N N N N N N N N N N N N N N N N N N N N N N N N N N N N N N N N ",
"N N N N N N N N N N N V d + 0 C N N N N N N N N N N N N N N N N N N N N N N N N N N N N N N N N ",
"N N M k x N N N N N N V d + 0 C N N N N b k k k b N N N N N N N N N N N N N N N N N N N N N N N ",
"N N h   ; C N N N N N V d + 0 C N N N V y o @ o e V N N N N N N N N N N N N N N N N N N N N N N ",
"N N k + < C N N N N N V d + 0 C N N N V u $ = % t V N N N N N N N N N N N N N N N N N N N N N N ",
"N N k O , Z B B N N N V s O 9 C N N N C i @ * # r V N N N N N N N N N N N N N N N N N N N N N N ",
"N N l : 8 h g g k N N B f - e V N N c g y , 1 > a V N N N N N N N N N N N N N N N N N N N N N N ",
"N N N Z k X @ + 2 C N N B C V N N V i . w Z C C V N N N N N N N N N N N N N N N N N N N N N N N ",
"N N N B h @ = & 5 C N N N N N N N V a + w V N N N N N N N N N N N N N N N N N N N N N N N N N N ",
"N N N B g + & $ 4 C N N N N N N N V p o q V N N N N N N N N N N N N N N N N N N N N N N N N N N ",
"N N N N k 3 6 5 w V N N N N N N N B d 1 i V N N N N N N N N N N N N N N N N N N N N N N N N N N ",
"N N N N N C C C V N N N N N N N N N B C V N N N N N N N N N N N N N N N N N N N N N N N N N N N ",
"N N N N N N N N N N N N N N N N N N N N N N N N N N N N N N N N N N N N N N N N N N N N N N N N ",
"N N N N N N N N N N N N N N N N N N N N N N N N N N N N N N N N N N N N N N N N N N N N N N N N ",
"N N N N N N N N N N N N N N N N N N N N N N N N N N N N N N N N N N N N N N N N N N N N N N N N ",
"N N N N N N N N N N N N N N N N N N N N N N N N N N N N N N N N N N N N N N N N N N N N N N N N ",
"N N N N N N N N N N N N N N N N N N N N N N N N N N N N N N N N N N N N N N N N N N N N N N N N ",
"N N N N N N N N N N N N N N N N N N N N N N N N N N N N N N N N N N N N N N N N N N N N N N N N ",
"N N N N N N N N N N N N N N N N N N N N N N N N N N N N N N N N N N N N N N N N N N N N N N N N ",
"N N N N N n n n n N N N N N N N N N N N N N N N N N N N N N N N N N N N N N N N N N N N N N N N ",
"N N N N N n n n n N N N N N N N N N N N N N N N N N N N N N N N N N N N N N N N N N N N N N N N ",
"N N N N N n n n n N N N N N N N N N N N N N N N N N N N N N n b b b M N N N N N N N N N N N N N ",
"N N N N N n n n N N N N N N N N N N N N N N N N N N N N N n T _ ( ` G M N N N N N N N N N N N N ",
"N N N N N N N N N N N N N N N N N N N N N N N N N N N N N v  .-.*.;.W b N N N N N N N N N N N N ",
"N N N N N N N N N N N N N N N N N N N N N N N N N N N N N v } &.$.*.W b N N N N N N N N N N N N ",
"N N N N N N N N N N N N N N N N N N N N m b b b m N N N N v } &.$.*.W b N N N N b b b b M N N N ",
"N N N N N N N N N N N N N N N N N N N m P [ ] [ U m N N N v } &.$.*.W b N N N b Q [ ] { S M N N ",
"N N N N N N N N N N N N N N N N N N N b ) -.&.-.[ b N N N v } &.$.*.W b N N N v #.=.&.:.L m N N ",
"N N N N N N N N N N N N N N N N N N N b ( *.$.&.' b N N N v } &.$.*.W b N N N v +.%.$.=.K m N N ",
"N N N N N N N N N N N N N N N N N N N b ( *.$.&.' b N N N v } &.$.*.W b N N N v +.%.$.=.K m N N ",
"N N N N N N N N N N N N N N N N N N N b ( *.$.&.' b N N N v } &.$.*.W b N N N v +.%.$.=.K m N N ",
"N N N N N N N N N N N N N N N N N N N b _ -.*.-.' z v v n v  .-.*.:.W b b v v j @.=.*.:.L m N N ",
"N N N N N N N N N N N N N N N N N N N M J ^ ~ ! ' | | ..T b I ^ ~ ^ D b ^  .|  .) ! ~ / A N N N ",
"N N N N N N N N N N N N N N N N N N N N M b b x ' -.&.-.) b m b b b M v o.=.&.-.I v b b N N N N ",
"N N N N N N N N N N N N N N N N N N N N N N N b ' &.$.*.( b N N N N N v X.&.$.=.U n N N N N N N ",
"N N N N N N N N N N N N N N N N N N N N N N N b [ -.*.;._ b N N N N N v O.-.*.:.Y n N N N N N N ",
"N N N N N N N N N N N N N N N N N N N N N N N M H W R W F M N N N N N m I E R W S N N N N N N N ",
"N N N N N N N N N N N N N N N N N N N N N N N N M b b b M N N N N N N N m b b b N N N N N N N N ",
"N N N N N N N N N N N N N N N N N N N N N N N N N N N N N N N N N N N N N N N N N N N N N N N N ",
"N N N N N N N N N N N N N N N N N N N N N N N N N N N N N N N N N N N N N N N N N N N N N N N N ",
"N N N N N N N N N N N N N N N N N N N N N N N N N N N N N N N N N N N N N N N N N N N N N N N N "
};
