/* XPM */
static char *result[] = {
/* columns rows colors chars-per-pixel */
"48 48 169 2 ",
"   c #297D42",
".  c #447748",
"X  c #9C3C12",
"o  c #8E552E",
"O  c #A74931",
"+  c #C24409",
"@  c #D05000",
"#  c #D0520D",
"$  c #DB4910",
"%  c #C85E14",
"&  c #E15206",
"*  c #E85D18",
"=  c #C34F20",
"-  c #C14F2A",
";  c #DE552B",
":  c #C94732",
">  c #CB5B39",
",  c #D5543E",
"<  c #E15323",
"1  c #F35C20",
"2  c #E25E3D",
"3  c #D7792F",
"4  c #C77139",
"5  c #D66626",
"6  c #CD4C47",
"7  c #C76948",
"8  c #1F8B3F",
"9  c #238731",
"0  c #36B42D",
"q  c #3CA73F",
"w  c #4A9E3E",
"e  c #4DAB21",
"r  c #54AA2B",
"t  c #50AB36",
"y  c #4DB837",
"u  c #52B932",
"i  c #59C734",
"p  c #298942",
"a  c #3D9159",
"s  c #3CAF44",
"d  c #34B94F",
"f  c #3FBD52",
"g  c #3F8E6E",
"h  c #4A8D48",
"j  c #4A9848",
"k  c #458A5B",
"l  c #4C9E57",
"z  c #539854",
"x  c #689A5B",
"c  c #4DA44D",
"v  c #48A847",
"b  c #53AC42",
"n  c #56A947",
"m  c #4DB94A",
"M  c #5CB54C",
"N  c #4AAF54",
"B  c #46A559",
"V  c #59A751",
"C  c #47B558",
"Z  c #56B554",
"A  c #61A341",
"S  c #69A75C",
"D  c #589E66",
"F  c #618A6D",
"G  c #57A267",
"H  c #5AAC6C",
"J  c #58B067",
"K  c #58B968",
"L  c #5CA476",
"P  c #62AE65",
"I  c #66B063",
"U  c #78AC7A",
"Y  c #42C658",
"T  c #4FC151",
"R  c #46D059",
"E  c #80937A",
"W  c #AC7FB9",
"Q  c #CE7DBE",
"!  c #BB7EC8",
"~  c #BC7BDC",
"^  c #C174C6",
"/  c #D57CCC",
"(  c #CB7ED8",
")  c #D57FD3",
"_  c #3EAC86",
"`  c #41AD87",
"'  c #44AE88",
"]  c #4EB38D",
"[  c #52B48E",
"{  c #56B691",
"}  c #58B791",
"|  c #5CB993",
" . c #70A787",
".. c #6BB48B",
"X. c #69B286",
"o. c #62BC97",
"O. c #64BE98",
"+. c #6EBA90",
"@. c #67C09A",
"#. c #6CC39D",
"$. c #70C69F",
"%. c #78C59E",
"&. c #73C7A1",
"*. c #7AC7A4",
"=. c #75C8A2",
"-. c #7BCAA5",
";. c #7DCCA9",
":. c #9782A3",
">. c #8C9BA1",
",. c #A984AE",
"<. c #B783BE",
"1. c #BD89BB",
"2. c #B284B5",
"3. c #BC95B4",
"4. c #8CAFA3",
"5. c #8CB7A7",
"6. c #94B8A8",
"7. c #9ABFB4",
"8. c #A1A8AF",
"9. c #A8ACB6",
"0. c #B5B3BD",
"q. c #B3AEAF",
"w. c #939290",
"e. c #C888B9",
"r. c #C387BA",
"t. c #C496BF",
"y. c #D091BD",
"u. c #C797A5",
"i. c #82C9A5",
"p. c #82CDAA",
"a. c #80C6A3",
"s. c #86D0AD",
"d. c #89D1AF",
"f. c #92C0B0",
"g. c #8CD3B1",
"h. c #92D6B5",
"j. c #96D8B8",
"k. c #98D9BA",
"l. c #95BBC8",
"z. c #C588C9",
"x. c #D88BCF",
"c. c #D589C8",
"v. c #C89AC7",
"b. c #C890D1",
"n. c #DE9CDD",
"m. c #F188CD",
"M. c #E98CDC",
"N. c #D9A3CF",
"B. c #D1B0C8",
"V. c #DEA3DE",
"C. c #EFB1DF",
"Z. c #D798E1",
"A. c #DA86E4",
"S. c #EA9CE5",
"D. c #ED96E8",
"F. c #E9A3EC",
"G. c #EAAEE9",
"H. c #ECB3E8",
"J. c #E4A9FE",
"K. c #EDB6F1",
"L. c #F6B7F6",
"P. c #F7A3F5",
"I. c #A2DFC1",
"U. c #A4E0C3",
"Y. c #E8DDC5",
"T. c #E7C3D8",
"R. c #E0E0D8",
"E. c #E9DFF7",
"W. c #F7C9F5",
/* pixels */
"&.&.&.&.&.&.&.&.&.&.&.&.&.&.&.&.&.&.&.&.&.&.&.&.&.&.&.&.&.&.&.&.&.&.&.&.&.=.=.0.v.$.&.&.&.&.&.&.",
"&.&.&.&.&.&.&.=.&.&.&.&.=.&.&.&.&.&.&.&.&.&.&.=.&.&.&.&.&.&.=.&.&.&.&.&.&.&.=.N.F.=.&.&.&.&.&.&.",
"&.&.&.&.&.&.&.&.&.&.&.&.&.&.&.&.&.&.&.&.&.&.&.&.&.&.&.&.&.&.&.&.&.&.&.&.&.&.6.W.z.v.f.&.&.&.&.&.",
"&.&.&.&.&.&.&.&.&.&.&.&.&.&.&.&.&.=.&.&.&.&.&.&.&.&.&.&.&.&.&.&.&.&.&.&.&.&.1.z.x.H.*.&.&.&.&.&.",
"&.&.&.&.&.&.&.&.=.&.&.&.&.&.&.&.&.&.&.&.&.&.&.&.&.&.&.&.&.&.&.&.&.&.&.8.6.5.V.F.2./ a.$.0.$.&.&.",
"&.&.&.&.&.&.&.&.&.&.&.&.&.$.$.&.&.&.&.&.&.&.&.&.&.&.&.&.&.&.&.&.&.&.&.T.n.i.( e.m.J.,.y.L.6.&.&.",
"&.&.&.&.&.&.&.&.&.&.&.=.@._ } &.&.&.&.&.&.&.&.&.&.&.&.&.&.&.&.&.&.&.0.H.! q.B.D.~ r.F Y.z.v.%.=.",
"&.&.&.&.=.&.&.&.&.&.&.=.O.` | =.&.&.&.&.=.&.&.&.&.&.=.&.&.&.&.&.&.i.e.e.M.S.l  .K c t.A./ K.6.%.",
"&.&.&.&.&.&.&.&.&.&.&.=.@.' } =.&.&.&.&.&.&.&.=.&.&.&.&.&.&.&.&.&.9.K.D.W 3.b Z m D c.G.! / f.&.",
"&.&.=.#.$.&.&.&.&.&.&.=.@.` } =.&.&.&.&.&.$.#.#.&.&.&.&.&.&.&.&.&.4.Z.<.M.L.5...X.;.! x.) F.0.&.",
"&.&.#._ ] =.&.&.&.&.&.=.@.' | =.&.&.&.=.o._ ` _ | =.&.&.&.&.&.&.X.C C.D.z.<.>.$.#.l u.P.! b.:.&.",
"&.=.#.` [ =.&.&.&.&.&.&.O.` } =.&.&.&.&.o.' ' ' o.=.&.&.&.&.&.&.*.D U U T h =.$.$.%.B w.Z j +.&.",
"&.&.#.` [ =.&.&.&.&.&.=.@.` | =.&.&.&.=.o.` ' ' o.=.&.&.&.&.=.&.*.R Z Y N K X.&.&.J n C N J H &.",
"&.&.$.] } #.#.#.#.&.&.&.@.] | =.&.&.&.#.o.[ [ [ O.=.&.&.&.&.&.&.&.&.&.G L &.&.&.&.&.&.G L &.=.=.",
"&.&.&.=.#._ ' ` { =.&.&.=.=.=.&.&.&.o._ | =.=.=.=.&.&.&.&.&.&.&.&.&.&.&.=.&.&.&.&.&.&.&.&.&.&.=.",
"&.&.&.=.#.' ' ' [ =.&.&.&.&.&.&.&.&.O.` | =.&.&.&.&.&.&.&.&.&.&.&.&.=.&.&.&.&.&.&.&.&.&.&.&.&.&.",
"&.&.&.&.#.` ' ' [ =.&.&.&.&.&.&.&.=.O._ | =.&.=.&.&.&.&.&.&.&.&.&.&.&.&.&.&.&.&.&.&.&.&.&.&.&.&.",
"&.&.&.&.#.[ } [ | =.=.&.&.&.&.&.&.=.@.[ o.=.&.&.&.&.&.&.&.&.=.&.&.&.&.&.&.&.&.&.&.&.&.&.&.&.&.&.",
"&.&.&.&.&.=.=.=.=.=.&.&.&.&.&.&.&.&.&.=.=.&.&.&.&.&.&.&.&.&.&.&.&.&.&.&.&.&.&.&.&.&.&.&.&.&.&.&.",
"&.&.&.&.&.&.&.&.&.&.&.&.&.&.&.&.&.&.&.&.&.&.=.&.&.&.&.&.&.&.&.&.&.&.&.&.&.&.=.&.&.&.&.&.&.&.&.&.",
"&.&.&.&.&.&.&.&.&.&.&.&.&.&.&.&.&.&.&.&.&.&.&.&.&.&.&.&.&.&.&.&.&.&.&.&.&.&.&.&.&.=.&.&.&.&.&.&.",
"&.&.&.&.&.&.&.&.&.&.&.&.&.&.&.=.&.&.&.&.&.&.&.&.&.&.&.&.&.&.&.&.&.&.&.&.&.&.&.&.&.&.&.&.&.&.&.&.",
"&.&.&.&.&.&.=.&.&.&.&.&.&.&.&.&.&.&.&.&.&.&.&.&.&.&.&.&.&.&.&.&.&.&.&.&.&.&.&.&.&.&.&.&.&.&.&.&.",
"&.&.&.=.&.&.&.&.&.&.&.&.&.&.&.&.&.&.&.=.&.&.&.&.&.&.&.&.=.&.&.&.&.&.&.&.&.&.&.&.&.&.&.&.&.&.=.&.",
"&.&.&.&.&.=.&.&.&.&.&.&.&.&.&.&.&.&.&.&.&.&.&.&.&.&.&.&.&.&.&.&.&.&.&.&.&.&.&.&.&.&.&.&.&.&.&.&.",
"&.&.&.&.&.&.&.&.&.&.&.&.&.&.&.&.&.&.&.&.=.&.&.&.&.&.&.&.&.&.&.&.&.&.&.&.&.&.&.&.=.&.&.&.&.&.&.&.",
"&.&.&.&.&.&.&.&.$.&.&.&.&.&.&.&.&.&.&.&.&.&.&.&.&.&.=.&.&.&.&.&.&.&.&.&.&.&.&.&.&.&.&.&.&.&.=.&.",
"&.&.&.&.&.$.&.&.&.&.&.&.&.&.&.&.&.&.&.&.&.&.&.&.&.&.&.&.&.&.&.&.&.&.&.&.&.&.&.&.&.&.&.&.&.&.&.&.",
"&.&.&.&.&.&.$.&.&.&.&.&.&.&.&.&.&.=.&.&.&.&.&.&.&.&.&.&.&.&.&.$.&.$.&.&.&.&.&.&.&.&.&.&.&.&.&.&.",
"&.&.&.&.&.$.&.%.&.&.&.&.=.&.&.&.&.&.&.&.&.&.&.&.&.&.&.&.=.&.p.g.d.d.;.&.&.&.&.&.&.&.&.&.&.&.&.&.",
"&.&.&.&.&.&.&.&.i.-.&.&.&.&.&.&.&.&.&.&.&.&.&.&.&.&.&.&.&.&.h.U.U.U.s.&.&.&.&.=.&.&.&.&.&.&.&.&.",
"&.&.&.&.&.&.&.*.- * 2 &.&.&.&.&.&.&.&.&.&.&.&.&.&.&.&.&.&.#.h.U.U.U.s.&.&.&.&.&.&.&.&.&.&.&.&.&.",
"&.&.&.&.&.&.&.a.+ 6 > o O =.=.=.&.&.&.&.&.$.&.$.&.&.&.&.&.$.h.U.I.U.s.$.&.&.&.&.$.&.&.&.&.&.&.&.",
"&.&.&.&.&.&.&.4 @ E.l.5 # =.&.&.&.&.&.&.;.g.g.g.;.&.&.&.&.$.h.I.I.U.s.$.&.&.&.&.d.g.g.g.=.&.&.&.",
"&.&.&.&.&.&.&.1 % 9.R.$ 3 &.&.&.&.&.&.$.g.U.U.U.g.$.&.&.&.$.h.U.I.U.s.$.&.&.&.$.k.U.U.U.;.&.&.&.",
"&.&.&.&.&.&.*.= X < < : =.&.&.&.&.&.&.$.g.U.U.U.g.&.&.&.$.$.h.U.I.U.s.$.&.&.&.$.k.U.U.U.;.&.&.&.",
"&.&.&.&.=.&.&.&.-.7 & 6 i.v d =.&.&.&.&.d.U.U.U.g.&.&.&.&.$.h.U.I.U.s.$.=.=.&.$.k.U.U.U.;.$.&.&.",
"&.&.&.&.&.&.&.&.*.p.V =.n r a %.&.&.&.$.d.U.I.U.g.&.&.&.&.$.h.U.I.U.s.$.=.$.&.$.k.U.U.U.;.$.&.&.",
"&.&.&.&.&.&.*.x I c 8 b B h B &.&.&.&.#.g.U.U.U.g.$.$.&.&.$.h.U.U.U.d.$.$.&.$.$.k.U.U.U.;.&.&.&.",
"&.&.&.&.&.&.P s 9 j k b v . u b ;.=.&.&.;.d.d.d.g.h.h.h.;.&.;.g.d.d.-.$.s.h.h.h.g.s.s.d.=.&.&.&.",
"&.&.&.&.&.&.&.M e k z j N . B y Z =.&.&.&.$.&.#.g.U.U.U.g.&.&.&.$.&.&.$.h.U.U.U.;.$.$.$.=.&.&.&.",
"&.&.&.&.&.&.&.*.I 9   i 0 A I ;.&.&.&.&.&.&.&.$.g.U.I.U.d.$.&.&.&.&.&.$.j.U.U.U.;.$.=.$.=.&.&.&.",
"&.=.&.&.&.&.&.&.*.V f s m &.&.&.=.&.&.&.&.&.&.&.g.U.I.U.g.$.&.&.&.&.&.$.j.U.U.U.s.&.=.=.&.&.&.&.",
"&.&.&.&.&.&.&.&.=.&.&.&.&.&.&.&.&.&.&.&.&.&.&.&.;.d.s.s.;.&.&.&.&.&.&.=.;.s.s.s.-.$.$.=.&.&.&.&.",
"&.&.&.&.&.&.&.&.&.&.&.&.&.&.&.&.&.&.&.&.&.&.&.&.$.$.$.&.&.&.&.&.&.&.&.&.$.&.$.&.&.&.&.&.&.&.=.&.",
"&.&.&.&.&.&.&.&.&.&.&.&.&.&.&.&.&.&.&.&.&.&.&.&.&.&.&.&.&.&.&.&.&.&.&.&.&.&.&.&.&.&.&.&.&.&.&.&.",
"&.&.&.&.&.&.&.&.&.&.&.&.&.&.&.&.&.&.&.&.&.&.&.&.&.&.&.&.&.&.&.&.&.&.&.&.&.&.&.&.=.&.&.&.&.&.&.&.",
"&.&.&.&.&.&.=.&.&.&.&.&.&.&.&.&.&.&.&.&.&.&.&.&.&.&.&.&.=.&.&.&.&.&.&.&.&.&.&.&.&.&.&.&.&.&.&.&."
};
