/* XPM */
static char *result[] = {
/* columns rows colors chars-per-pixel */
"48 48 207 2 ",
"   c #1A1A18",
".  c #20221D",
"X  c #1D2625",
"o  c #252924",
"O  c #222B2A",
"+  c #24332E",
"@  c #2C322E",
"#  c #2C3A30",
"$  c #363734",
"%  c #343D3C",
"&  c #37423C",
"*  c #2E7532",
"=  c #417E3C",
"-  c #394546",
";  c #3C4544",
":  c #3F544B",
">  c #3D7457",
",  c #3B7162",
"<  c #434C4B",
"1  c #464D49",
"2  c #42544A",
"3  c #4B5452",
"4  c #455A51",
"5  c #495D56",
"6  c #585956",
"7  c #545C59",
"8  c #5C5D5C",
"9  c #51605D",
"0  c #497E50",
"q  c #62645F",
"w  c #5A6564",
"e  c #5C6867",
"r  c #5C6A6A",
"t  c #5C7866",
"y  c #5E7870",
"u  c #656564",
"i  c #666A63",
"p  c #696B66",
"a  c #646D69",
"s  c #6C6C6B",
"d  c #677268",
"f  c #66726A",
"g  c #73716F",
"h  c #6D7B78",
"j  c #707572",
"k  c #757D79",
"l  c #318F26",
"z  c #25883E",
"x  c #318D38",
"c  c #3D933F",
"v  c #39AE2B",
"b  c #2DB725",
"n  c #3EB922",
"m  c #3FA439",
"M  c #4D9436",
"N  c #57953F",
"B  c #48A42B",
"V  c #4DAD2F",
"C  c #47AA38",
"Z  c #53AD36",
"A  c #47B738",
"S  c #61BB3D",
"D  c #36954B",
"F  c #3DAB44",
"G  c #3AB040",
"H  c #3EA658",
"J  c #458E4A",
"K  c #4F9542",
"L  c #5B9B4B",
"P  c #458455",
"I  c #469A56",
"U  c #529958",
"Y  c #658B5E",
"T  c #66985A",
"R  c #4CA647",
"E  c #55A947",
"W  c #4AB847",
"Q  c #55B545",
"!  c #49A858",
"~  c #58A954",
"^  c #4BBB57",
"/  c #52BF51",
"(  c #66A74C",
")  c #66AA57",
"_  c #7BAE50",
"`  c #6AB75B",
"'  c #489E65",
"]  c #5C9E6F",
"[  c #5D9975",
"{  c #699968",
"}  c #73857E",
"|  c #738F78",
" . c #55AA63",
".. c #59A371",
"X. c #5EB475",
"o. c #6CAA73",
"O. c #67B978",
"+. c #49C048",
"@. c #84807D",
"#. c #3DAB85",
"$. c #748582",
"%. c #788685",
"&. c #748886",
"*. c #7B8A85",
"=. c #748B88",
"-. c #7C8D8B",
";. c #7C918D",
":. c #7E9493",
">. c #41AD87",
",. c #45AE88",
"<. c #4EB38D",
"1. c #52B48E",
"2. c #56B691",
"3. c #5AB892",
"4. c #64AA86",
"5. c #6AB985",
"6. c #70BC8F",
"7. c #68BA95",
"8. c #74B596",
"9. c #6AC096",
"0. c #6CC39D",
"q. c #76CB94",
"w. c #71C59F",
"e. c #73C7A1",
"r. c #7BC7A4",
"t. c #75C8A2",
"y. c #7BC9A5",
"u. c #7ECCA8",
"i. c #828B86",
"p. c #888D87",
"a. c #828D8A",
"s. c #83928E",
"d. c #89938D",
"f. c #839492",
"g. c #8A9493",
"h. c #849A97",
"j. c #8D9A95",
"k. c #8B9D9B",
"l. c #939A94",
"z. c #919D99",
"x. c #89A29F",
"c. c #91A19D",
"v. c #8EA4A5",
"b. c #99A8A3",
"n. c #95ACAA",
"m. c #9BAEAE",
"M. c #97B6A9",
"N. c #9BB1AE",
"B. c #96AEB0",
"V. c #9BAEB1",
"C. c #9DB2B3",
"Z. c #9FB9B8",
"A. c #A3AFAD",
"S. c #A2B2AD",
"D. c #A9B9AE",
"F. c #A3B5B4",
"G. c #A9B7B7",
"H. c #A4B8B5",
"J. c #ABBAB6",
"K. c #A4B7B8",
"L. c #A5BBBA",
"P. c #AABDBC",
"I. c #B4BEBD",
"U. c #80C29A",
"Y. c #86CAA6",
"T. c #83CCAA",
"R. c #86D0AD",
"E. c #89D1AF",
"W. c #8DD3B2",
"Q. c #92D6B6",
"!. c #96D8B8",
"~. c #98D9BA",
"^. c #A7C2BD",
"/. c #ABC1BE",
"(. c #BAC1BA",
"). c #AABEC2",
"_. c #ACC2C2",
"`. c #ABC5C3",
"'. c #B2C4C4",
"]. c #B6C9C9",
"[. c #A2DFC1",
"{. c #BED2D1",
"}. c #A4E0C3",
"|. c #C3D4D5",
" X c #C9D7D3",
".X c #C3D8D6",
"XX c #C5D6D9",
"oX c #C6DADA",
"OX c #CCDBDA",
"+X c #CBDCDC",
"@X c #D2DDDD",
"#X c #CCE0DE",
"$X c #D2E2DF",
"%X c #CDDEE1",
"&X c #D4DFE3",
"*X c #CEE1E2",
"=X c #D2E3E4",
"-X c #DAE6E6",
";X c #D8E8E7",
":X c #D5E6E9",
">X c #D6E9EA",
",X c #D9EBEC",
"<X c #DCF0EF",
"1X c #DEF2F0",
"2X c #E1ECEC",
"3X c #E1EFF2",
"4X c #E1F4F3",
/* pixels */
"e.e.e.e.e.e.e.e.e.e.e.e.e.e.e.e.e.e.e.e.e.e.e.e.e.e.e.e.e.e.e.e.e.e.e.e.e.e.e.e.e.e.e.e.e.e.e.w.",
"e.e.e.e.e.e.e.e.e.e.e.e.e.e.e.e.e.e.e.e.e.e.e.e.e.e.e.e.e.e.e.e.e.e.e.e.e.e.e.e.e.e.e.e.e.e.e.t.",
"e.e.e.e.e.e.e.e.e.e.e.e.e.e.e.e.e.e.e.e.e.e.e.e.e.e.e.e.e.e.e.e.e.e.e.e.e.e.e.e.e.e.e.e.e.e.e.e.",
"e.e.e.e.e.e.e.e.e.e.e.e.e.e.e.e.e.e.e.e.e.e.e.e.e.e.e.e.e.e.e.e.e.e.e.H e.e.e.e.e.e.e.e.e.e.e.e.",
"e.e.e.e.e.e.e.e.e.e.e.e.e.t.e.e.e.e.e.e.e.e.e.e.e.e.e.e.e.e.e.e.! V L ..e.e.e.e.e.e.w.w.w.t.e.e.",
"e.e.e.e.e.e.e.e.e.e.e.e.e.0.e.t.e.e.e.e.e.e.e.e.e.e.e.e.e.e.e.e.) v x r.e.e.e.e.t.` ) w.t.w.e.e.",
"e.e.e.e.e.e.e.e.e.e.e.e.0.#.2.t.e.w.e.e.e.e.e.e.e.e.e.e.e.e.e.e.t.0 [ e.L E e.e.e.v c w.e.t.e.e.",
"e.e.e.e.e.e.e.e.e.e.e.e.0.#.2.t.e.e.e.e.e.e.e.e.e.e.e.e.e.e.e.e.e.e.e.w.B A t.) R R w.w.t.w.e.e.",
"e.e.e.e.e.e.e.e.e.e.e.e.0.#.3.t.e.e.e.e.e.2 2 4 4 t.w.t.r.t.t.t.w.t.w.t.R Q t.n / P t.t.e.e.e.e.",
"e.e.e.0.w.e.e.e.e.e.e.t.0.,.3.t.e.e.r.; < OX;XOX>X: 2 % % r.t.w.t.t.t.t.L W C ! A ) n m e.e.e.e.",
"e.e.0.#.<.e.e.e.e.e.e.t.7.#.2.e.T.3 % -X|.=X=X=X{.>X;X<X&Xe w r.t.w.t.w.I ! x ~ b R = ' e.e.e.e.",
"e.t.0.>.1.t.e.e.e.e.e.e.0.>.2.e.; A.;XOX;X+X+X+X1X{.#X X@X2X&Xu T.t.w.r.{ D * E S ^ , e.e.e.e.e.",
"e.e.w.#.1.t.t.e.e.e.e.e.0.#.7.- G.).%X=X=X+X+X:XOX=X,X*X+X|.&X-X9 r.w.w.t.x E Z G z w.y.N y.e.e.",
"e.e.0.<.3.0.0.0.w.e.e.e.0.3.6 ).V.=X=X%X+X+X=XXX3X|. X:X%X=X%X@X2X9 w.r.y.J ) S ' > r.) +.r.( w.",
"e.e.e.t.0.#.,.>.1.t.e.e.t.% H.K.=X+X:X%X%X&X=X%X%X=X%X:X%XXX%X%X+Xp y.w.w.w.w.~ y.t.t.M F ' _ e.",
"e.e.e.t.0.,.,.,.1.t.e.e.T.- _.P.XX,X%X%X%X@X:X=X:XoX%X%X%X=X=X=XOXe Y.t.w.t.t.w.w.w.w.! P e.e.e.",
"e.e.e.e.0.,.,.,.1.t.t.Y.- k.&.Z.C.%X{.=X,X=X+XXX=XXX:X%X:X,X%XV.=XJ.j e.e.e.e.e.e.e.t.P e.e.e.e.",
"e.e.e.e.0.1.1.1.3.t.e.r.- G.-.K.L.:X<X=X+X%X&X%X*X%X:X=X{.XX).%XF.OXf e.e.e.e.e.e.e.e.e.e.e.e.e.",
"e.e.e.e.e.t.t.t.t.e.E.3 r K.P.H.B.V.%X%X%X*X%X*X%X=X%X%X).%X,X%XP.=Xy r.e.e.e.e.e.e.e.e.e.e.e.e.",
"e.e.e.e.e.e.e.e.e.r.; *.e G.n.C.v.&.Z.`.oX=XoX*XZ.n.C.,X%XXXXXK.+X%X'.w y.e.e.e.e.e.e.e.e.e.e.e.",
"e.e.e.e.e.e.e.e.e.e.< a.g.B._.C.).L.B.B.).XX>X+X*X>X*X=XXX).>X+XoX*XC.).w w.e.e.e.e.e.e.e.e.e.e.",
"e.e.e.e.e.e.e.e.e.t.5 F.*.h.N.C.C.Z.:.L.*X=X*XoX:X*X%X+X:XV.%X=X%XL.C.L.O t.e.e.e.e.e.e.e.e.e.e.",
"e.e.e.e.e.e.e.e.w.< *.OXf.*.d.G.L.-.L.K.+X#X#X>X.X=X+X.X>Xf.OX*XK.).V.K.X T.e.e.e.e.e.e.e.e.e.e.",
"e.e.e.e.e.e.e.e.t.3 F.+X+Xf.w %.g.f.B.K.oX,X=X.X>X,X*XG.K.V.f.C.Z.C.P./.h + t.w.e.e.e.e.e.e.e.e.",
"e.e.e.e.e.e.e.e.t.w '.{.%XK.d.a w } k.H.'.{.J.H.Z.n.H.L.K.|.a.P.^.H.M.F.7 # T.w.e.e.e.e.e.e.e.e.",
"e.e.e.e.e.e.e.e.2 e K.).oXoXK.g.i } } *.*.*.d./.L.L.C.P.{.=X>X} H.N.^.f.s.(.q e.e.e.e.e.e.e.e.e.",
"e.e.e.e.e.e.e.w.3 e v.].L.>XOXi.-.A.D.k.s.*.z.n.H.*X#XoX4X#X+XOXf.:.=.:.} S.. t.e.e.e.e.e.e.e.e.",
"e.e.e.e.e.w.e.w.@ k._.N.L.C.s.i.I.OX#XH.S.-.$.x.&.H.<XoX=X+XG.J.=.:.=.;.'.b.o y.e.e.e.e.e.e.e.e.",
"e.e.e.e.e.e.w.w.1 p ;.C.P.F.*.g.OX$X#X.X<X=X=X{.k.C.{.'.F.oX=X Xs.P.n.P.b.J.+ y.e.e.e.e.e.e.e.e.",
"e.e.e.e.e.w.e.w.$ a a *.-.g.%.-.OX=X=X#X+X+X=X*XC.P.m.=X=X X=X-Xm.C.`.B._.F.O y.e.e.e.e.e.e.e.e.",
"e.e.e.e.e.e.e.e.< s.-.:.m.e g.f.H.$X#X#X+X:XXXD.*.N.L.+X@X,X@XOXC.P.C.H.H.S.+ w.e.e.e.e.e.e.e.e.",
"e.e.e.e.e.e.t.w.< -.-.P.K.J.a d.} F.H.^._.B.'.} b./.C.%X%X X@X;X/.&.H.S.d.o 9 y.e.e.e.e.e.e.e.e.",
"e.e.e.e.e.e.e.e.7 a.&.;./.C.N.a s.s.f.x.^.^.n.H.$.n.Z._.%X>X*X{.P.;.f.*.i.@ i r.e.e.e.w.e.e.e.e.",
"e.e.e.e.e.e.e.e.8 - j.;.H.N.L.} k.} ^.^.n.`.`.`.=.v.n.B.L.M.^.`.Z.r a.a.p 8 s y.E.W.W.W.t.e.e.e.",
"e.e.e.e.e.e.e.e.j j % f.;.-.P.s j.S.H.N.^.n.Z.M.C.r L.:.`.Z.C.D.*.a X @ i f y.w.~.}.}.}.u.e.e.e.",
"e.e.e.e.e.e.e.e.t.6 s < a.c.k 9 *.c.C.P.^.N.M.( o.w -.S.h J.L.d.l.. s u j d e.w.~.}.}.}.u.e.e.e.",
"e.e.e.e.e.e.e.e.w.k g 9 - < 3 1 @.| $.N.).P.| V U < g.p.l.i.a o   u d d d w.e.w.~.[.[.}.u.e.e.e.",
"e.e.e.e.e.e.e.e.t.Y.r.s u s w p & : 4 d.*.: 3 D J j l x o . p 6 @.6 } q.r.w.w.w.~.[.[.}.y.e.e.e.",
"e.e.e.e.e.e.e.e.w.t.e.e.w.r.q p t ' p p d p T E ! T V ! k d s Y { }.R.q.w.w.w.w.~.}.}.}.u.e.e.e.",
"e.e.e.e.e.e.e.e.w.t.e.e.t.w.t.t.5.] t.5.E q.Y.n A E M , T. .O.U.@.Y.U.q.E.Q.Q.Q.E.E.E.E.t.e.e.e.",
"e.e.e.e.e.e.e.e.t.w.e.e.e.e.e.X.Z l 7.5.B A 9.^ ! b ^ ' W.o.W H 9.w.w.w.!.}.}.}.u.e.e.e.e.e.e.e.",
"e.e.e.e.e.e.e.e.t.t.e.e.e.e.r. .Q J 4.e.X.R G K L Q Q D 8.6.M J 0.e.e.w.!.}.}.}.u.e.e.e.e.e.e.e.",
"e.e.e.e.e.e.e.e.w.t.w.e.t.t.w.w.w.4.e.e.r.o.I H * M Z ! 8.w.9.D e.e.e.e.!.}.}.}.u.e.e.e.e.e.e.e.",
"e.e.e.e.e.e.e.e.t.e.t.w.w.w.t.t.e.e.e.e.e.r...U x ~ S O.u.t.w.4.w.e.e.e.u.R.u.R.y.e.e.e.e.e.e.e.",
"e.e.e.e.e.e.e.e.e.e.e.e.t.e.e.e.e.e.e.e.e.e.e.e...U 9.O.e.e.e.e.e.e.e.e.e.w.w.w.e.e.e.e.e.e.e.e.",
"e.e.e.e.e.e.e.e.e.e.e.e.w.t.e.e.e.e.e.e.e.e.e.e.t.e.e.e.e.e.e.e.e.e.e.e.e.e.e.e.e.e.e.e.e.e.e.e.",
"e.e.e.e.e.e.e.e.e.e.e.e.e.e.e.e.e.e.e.e.e.e.e.e.e.e.e.e.e.e.e.e.e.e.e.e.e.e.e.e.e.e.e.e.e.e.e.e.",
"e.e.e.e.e.e.e.e.e.e.e.e.e.e.e.e.e.e.e.e.e.e.e.e.e.e.e.e.e.e.e.e.e.e.e.e.e.e.e.e.e.e.e.e.e.e.e.e."
};
