/* XPM */
static char *result[] = {
/* columns rows colors chars-per-pixel */
"48 48 158 2 ",
"   c black",
".  c #020705",
"X  c #040E09",
"o  c #06130D",
"O  c #07130D",
"+  c #0B1B14",
"@  c #0D1F17",
"#  c #0F2219",
"$  c #10241B",
"%  c #152B21",
"&  c #162E23",
"*  c #173025",
"=  c #1C372B",
"-  c #1D392C",
";  c #203D30",
":  c #2A3D34",
">  c #2B3F35",
",  c #214032",
"<  c #2D4137",
"1  c #303048",
"2  c #32384B",
"3  c #502858",
"4  c #374651",
"5  c #384B53",
"6  c #384058",
"7  c #385870",
"8  c #385970",
"9  c #395A71",
"0  c #395B71",
"q  c #395C71",
"w  c #3A5C71",
"e  c #3B5E72",
"r  c #3B5F72",
"t  c #396072",
"y  c #3D6273",
"u  c #784040",
"i  c #784442",
"p  c #784845",
"a  c #784C47",
"s  c #784F49",
"d  c #78524B",
"f  c #79554E",
"g  c #77584F",
"h  c #775F54",
"j  c #D84850",
"k  c #D89870",
"l  c #803890",
"z  c #3CAB85",
"x  c #3EAC86",
"c  c #40AD86",
"v  c #41AD87",
"b  c #42AD87",
"n  c #48AC86",
"m  c #43AE88",
"M  c #45AE88",
"N  c #46AF89",
"B  c #4EB28C",
"V  c #4EB28D",
"C  c #4EB38D",
"Z  c #50B38D",
"A  c #50B48E",
"S  c #52B48E",
"D  c #52B48F",
"F  c #53B58F",
"G  c #54B58F",
"H  c #54B590",
"J  c #56B791",
"K  c #57B791",
"L  c #58B791",
"P  c #59B892",
"I  c #5DBA94",
"U  c #5EBB95",
"Y  c #7098B0",
"T  c #67C09A",
"R  c #68C09A",
"E  c #6AC19B",
"W  c #6CC39D",
"Q  c #6DC39D",
"!  c #6DC49D",
"~  c #6EC49E",
"^  c #6FC49E",
"/  c #6EC59E",
"(  c #6FC59F",
")  c #76C39E",
"_  c #70C59F",
"`  c #70C69F",
"'  c #71C6A0",
"]  c #72C6A0",
"[  c #72C7A0",
"{  c #72C7A1",
"}  c #73C7A1",
"|  c #77C5A0",
" . c #74C6A1",
".. c #75C6A1",
"X. c #74C7A1",
"o. c #76C6A0",
"O. c #76C6A1",
"+. c #79C4A0",
"@. c #78C5A0",
"#. c #7AC4A0",
"$. c #74C8A2",
"%. c #75C8A2",
"&. c #76C9A3",
"*. c #77C9A4",
"=. c #78C9A4",
"-. c #7BCAA6",
";. c #7BCBA6",
":. c #7CCBA6",
">. c #7CCBA7",
",. c #7DCBA7",
"<. c #7DCCA7",
"1. c #7ECCA8",
"2. c #888888",
"3. c #80CDA9",
"4. c #81CDAA",
"5. c #81CEAA",
"6. c #82CEAA",
"7. c #85CFAC",
"8. c #85D0AD",
"9. c #86D0AD",
"0. c #87D1AE",
"q. c #88D1AE",
"w. c #88D1AF",
"e. c #89D1AF",
"r. c #89D2AF",
"t. c #8DD0AF",
"y. c #8AD2B0",
"u. c #8BD2B0",
"i. c #8BD2B1",
"p. c #8BD3B1",
"a. c #8DD3B2",
"s. c #8DD4B2",
"d. c #8ED4B3",
"f. c #8FD4B3",
"g. c #91D6B5",
"h. c #92D6B5",
"j. c #92D6B6",
"k. c #93D7B6",
"l. c #95D8B8",
"z. c #96D8B8",
"x. c #97D9B9",
"c. c #98D9BA",
"v. c #99DABA",
"b. c #99DABB",
"n. c #A4DCBF",
"m. c #F8D0B8",
"M. c #A2DFC1",
"N. c #A3DFC2",
"B. c #A4DDC0",
"V. c #A8C8D8",
"C. c #A3E0C2",
"Z. c #A4E0C2",
"A. c #A4E0C3",
"S. c #A5E1C3",
"D. c #A5E1C4",
"F. c #A6E1C4",
"G. c #C8C8C8",
"H. c #E8E8F8",
/* pixels */
"} } } } } } } } } } } } } } } } } } } } } } } } } } } } } } } } } } } } } } } } } } } } } } } } ",
"} } } } } } } } } } } } } } } } } } } } } } } } } } } } } } } } } } } } } } } } } } } } } } } } ",
"} } } } } } } } } } } } } } } } } } } } } } } } } } } } } } } } } } } } } } } } } } } } } } } } ",
"} } } } } } } } } } } } } } } } } } } } } } } } } } } } } } } } } } } } } } } } } } } } } } } } ",
"} } } } } } } } } } } } } } } } } } } } } } } } } } } } } } } } } } } } } } } } } } } } } } } } ",
"} } } } } } } } } } } } { _ ' } } } } } } } } } } } } } } } } } } } } } } } } } } } } } } } } } ",
"} } } } } } } } } } } $.T z J %.} } } } } } } } } } } } } } } } } } } } } } } } } } } } } } } } ",
"} } } } } } } } } } } $.R v P %.} } } } } } } } } } } } } } } } } } } } } } } } } } } } } } } } ",
"} } } } } } } } } } } $.R v P %.} } } } } } } } } } } } } } } } } } } } } } } } } } } } } } } } ",
"} } { ~ ( } } } } } } $.R v P %.} } } } ' ~ ~ ~ ' } } } } } } } } } } } } } } } } } } } } } } } ",
"} } Q z V %.} } } } } $.R v P %.} } | 7 7 7 t n U $.} } } } } } } } } } } } } } } } } } } } } } ",
"} } ~ v A %.} } } } } $.R v P %.} } O.e V.V.Y 7 7 7 #.} } } } } } } } } } } } } } } } } } } } } ",
"} } ~ c Z &.X.X.} } } $.T c L %.} } } %.0 V.V.V.V.Y 7 9 @.} } } } } } } } } } } } } } } } } } } ",
"} } ^ C K Q W W ~ } } X.E B U $.} } ) W 8 7 Y V.V.V.V.V.w O.} } } } } } } } } } } } } } } } } } ",
"} } } &.~ x b v S %.} } X.%.$.} } $.q 7 V.V.V.V.V.V.V.V.V.% } } } } } } } } } } } } } } } } } } ",
"} } } X.Q b N M G %.} } } } } } } e Y V.V.V.V.V.V.V.V.V.V.Y   } } } } } } } } } } } } } } } } } ",
"} } } X.W v M m F %.} } } } }  .w V.V.V.V.V.V.Y V.V.V.V.V.V.   .} } } } } } } } } } } } } } } } ",
"} } } } ~ D H G I $.} } } } X.7 V.V.Y V.V.V.Y V.V.V.Y V.V.V.Y   X.} } } } } } } } } } } } } } } ",
"} } } } } %.%.%.$.} } } }  .= V.Y 7 V.V.V.7 V.V.7 V.7 V.V.V.Y @ } } } } } } } } } } } } } } } } ",
"} } } } } } } } } } } } } X.    7 V.V.V.Y Y V.7 V.7 m.7 V.7 Y y } } } } } } } } } } } } } } } } ",
"} } } } } } } } } } } } } } } r Y V.V.Y 7 V.7 Y Y m.m.Y V.7 Y Y   o.} } } } } } } } } } } } } } ",
"} } } } } } } } } } } } } } O.# V.V.7 m.7 7 m.m.m.m.m.Y 7 Y Y Y 7 +.} } } } } } } } } } } } } } ",
"} } } } } } } } } } } } } X.  V.V.u m.k 7 m.m.m.m.m.7 k m.u Y Y Y   ..} } } } } } } } } } } } } ",
"} } } } } } } } } } } } } } #     a m.k G.Y m.m.m.Y G.k m.u Y . X X } } } } } } } } } } } } } } ",
"} } } } } } } } } } } } } } } } } } i k H.  m.m.m.  H.k u 7 + $ } o.} } } } } } } } } } } } } } ",
"} } } } } } } } } } } } } } } } } } - k m.m.m.m.m.m.m.k   1 X.} } } } } } } } } } } } } } } } } ",
"} } } } } ] ] ] ] } } } } } } } } } o.u k m.m.k m.m.k u 2.6 5 ..} } } } } } } } } } } } } } } } ",
"} } } } } ] ] ] ] } } } } } } } } o.1 6   u k k k u   2.6 6 k s } } } } } } } } } } } } } } } } ",
"} } } } } ] ] ] ] } } } } } } } } $ G.2.6 H.u u u H.1 6 4 k k p ' ' { } } } } } } } } } } } } } ",
"} } } } } ] ] ] } } } } } } } } }   6 6 l 6 j j j 6 l X X.g f i.y.p.:.{ } } } } } } } } } } } } ",
"} } } } } } } } } } } } } } } } d m.m.  6 l 6 j 6 l 6 % o.` j.S.Z.D.9.' } } } } } } } } } } } } ",
"} } } } } } } } } } } } } } } } h k k     l 6   6 l   6 $ ` g.C.M.Z.9.' } } } } } } } } } } } } ",
"} } } } } } } } } } } } } } } } } ; * 1 1 1 1   1 1 3 6 & ` g.C.M.Z.9.' } } } } ' ' ' ' { } } } ",
"} } } } } } } } } } } } } } } } } } } $   1 1   6 3 6 6 , ` g.C.M.Z.9.' } } } ' 0.d.s.f.=.{ } } ",
"} } } } } } } } } } } } } } } } } } } ' t.< > : 1 6 6 2 } ` g.C.M.Z.9.' } } } ` b.A.C.F.1.[ } } ",
"} } } } } } } } } } } } } } } } } } } ' y.Z.M.B.  1 1 O } ` g.C.M.Z.9.' } } } ` c.N.M.A.<.[ } } ",
"} } } } } } } } } } } } } } } } } } } ' y.Z.M.n.  6 6 + } ` g.C.M.Z.9.' } } } ` c.N.M.A.<.[ } } ",
"} } } } } } } } } } } } } } } } } } } ' y.Z.M.C.a.o - } } ` g.C.M.Z.9.' } } } ` c.N.M.A.<.[ } } ",
"} } } } } } } } } } } } } } } } } } } ' i.S.Z.S.a./ ` ` ] ` j.S.Z.F.9.' ' ` ` ! v.A.Z.F.1.[ } } ",
"} } } } } } } } } } } } } } } } } } } { ,.e.w.q.a.h.h.k.6.' 3.e.w.e.-.' e.j.h.j.u.q.w.r.*.} } } ",
"} } } } } } } } } } } } } } } } } } } } { ' ' ( a.S.C.S.u.' [ ' ' ' { ` z.A.C.S.3.` ' ' } } } } ",
"} } } } } } } } } } } } } } } } } } } } } } } ' a.C.M.Z.y.' } } } } } ` l.C.M.A.4.] } } } } } } ",
"} } } } } } } } } } } } } } } } } } } } } } } ' d.S.Z.D.i.' } } } } } ` x.S.Z.F.5.] } } } } } } ",
"} } } } } } } } } } } } } } } } } } } } } } } { >.9.7.9.;.{ } } } } } [ 3.8.7.9.=.} } } } } } } ",
"} } } } } } } } } } } } } } } } } } } } } } } } { ' ' ' { } } } } } } } [ ' ' ' } } } } } } } } ",
"} } } } } } } } } } } } } } } } } } } } } } } } } } } } } } } } } } } } } } } } } } } } } } } } ",
"} } } } } } } } } } } } } } } } } } } } } } } } } } } } } } } } } } } } } } } } } } } } } } } } ",
"} } } } } } } } } } } } } } } } } } } } } } } } } } } } } } } } } } } } } } } } } } } } } } } } "
};
