/* XPM */
static char *result[] = {
/* columns rows colors chars-per-pixel */
"48 48 151 2 ",
"   c black",
".  c #020705",
"X  c #050A07",
"o  c #040E09",
"O  c #091811",
"+  c #0B1B14",
"@  c #10241B",
"#  c #122B20",
"$  c #152C21",
"%  c #182A21",
"&  c #173025",
"*  c #1C372B",
"=  c #1C382C",
"-  c #1F3C2F",
";  c #2A4338",
":  c #2A4E3E",
">  c #303048",
",  c #31354A",
"<  c #343E4D",
"1  c #364550",
"2  c #384058",
"3  c #385870",
"4  c #385970",
"5  c #395A70",
"6  c #3A5C71",
"7  c #3A5D71",
"8  c #385E71",
"9  c #3B5D72",
"0  c #3B5F72",
"q  c #3C6173",
"w  c #3E6474",
"e  c #3E6574",
"r  c #784040",
"t  c #784141",
"y  c #784543",
"u  c #784A46",
"i  c #D74C52",
"p  c #D84850",
"a  c #D89870",
"s  c #803890",
"d  c #3CAB85",
"f  c #3EAC86",
"g  c #3FAC86",
"h  c #40AD86",
"j  c #41AD87",
"k  c #42AD87",
"l  c #43AE88",
"z  c #45AE88",
"x  c #46AF89",
"c  c #4EB28C",
"v  c #4EB28D",
"b  c #4EB38D",
"n  c #50B38D",
"m  c #50B48E",
"M  c #52B48E",
"N  c #52B48F",
"B  c #53B58F",
"V  c #54B58F",
"C  c #54B590",
"Z  c #56B791",
"A  c #57B791",
"S  c #58B791",
"D  c #59B892",
"F  c #5DBA94",
"G  c #5EBB95",
"H  c #7098B0",
"J  c #67C09A",
"K  c #68C09A",
"L  c #6AC19B",
"P  c #6CC39D",
"I  c #6DC39D",
"U  c #6DC49D",
"Y  c #6EC49E",
"T  c #6FC49E",
"R  c #6EC59E",
"E  c #6FC59F",
"W  c #70C59F",
"Q  c #73C59E",
"!  c #70C69F",
"~  c #74C59E",
"^  c #7CC39F",
"/  c #71C6A0",
"(  c #72C6A0",
")  c #72C7A0",
"_  c #72C7A1",
"`  c #73C7A1",
"'  c #77C5A0",
"]  c #75C6A1",
"[  c #74C7A1",
"{  c #76C6A0",
"}  c #76C6A1",
"|  c #79C4A0",
" . c #78C5A0",
".. c #79C5A0",
"X. c #79C6A1",
"o. c #74C8A2",
"O. c #75C8A2",
"+. c #76C9A3",
"@. c #77C9A4",
"#. c #78C9A4",
"$. c #7BCAA6",
"%. c #7BCBA6",
"&. c #7CCBA6",
"*. c #7CCBA7",
"=. c #7DCBA7",
"-. c #7DCCA7",
";. c #7ECCA8",
":. c #888888",
">. c #80CDA9",
",. c #81CDAA",
"<. c #81CEAA",
"1. c #82CEAA",
"2. c #85CFAC",
"3. c #85D0AD",
"4. c #86D0AD",
"5. c #87D1AE",
"6. c #88D1AE",
"7. c #88D1AF",
"8. c #89D1AF",
"9. c #89D2AF",
"0. c #8AD2B0",
"q. c #8BD2B0",
"w. c #8BD2B1",
"e. c #8BD3B1",
"r. c #8DD3B2",
"t. c #8DD4B2",
"y. c #8ED4B3",
"u. c #8FD4B3",
"i. c #91D6B5",
"p. c #92D6B5",
"a. c #92D6B6",
"s. c #93D7B6",
"d. c #95D8B8",
"f. c #96D8B8",
"g. c #97D9B9",
"h. c #98D9BA",
"j. c #99DABA",
"k. c #99DABB",
"l. c #F8D0B8",
"z. c #A2DFC1",
"x. c #A3DFC2",
"c. c #A8C8D8",
"v. c #A3E0C2",
"b. c #A4E0C2",
"n. c #A5E0C2",
"m. c #A4E0C3",
"M. c #A5E1C3",
"N. c #A5E1C4",
"B. c #A6E1C4",
"V. c #C8C8C8",
"C. c #E8E8F8",
/* pixels */
"` ` ` ` ` ` ` ` ` ` ` ` ` ` ` ` ` ` ` ` ` ` ` ` ` ` ` ` ` ` ` ` ` ` ` ` ` ` ` ` ` ` ` ` ` ` ` ` ",
"` ` ` ` ` ` ` ` ` ` ` ` ` ` ` ` ` ` ` ` ` ` ` ` ` ` ` ` ` ` ` ` ` ` ` ` ` ` ` ` ` ` ` ` ` ` ` ` ",
"` ` ` ` ` ` ` ` ` ` ` ` ` ` ` ` ` ` ` ` ` ` ` ` ` ` ` ` ` ` ` ` ` ` ` ` ` ` ` ` ` ` ` ` ` ` ` ` ",
"` ` ` ` ` ` ` ` ` ` ` ` ` ` ` ` ` ` ` ` ` ` ` ` ` ` ` ` ` ` ` ` ` ` ` ` ` ` ` ` ` ` ` ` ` ` ` ` ",
"` ` ` ` ` ` ` ` ` ` ` ` ` ` ` ` ` ` ` ` ` ` ` ` ` ` ` ` ` ` ` ` ` ` ` ` ` ` ` ` ` ` ` ` ` ` ` ` ",
"` ` ` ` ` ` ` ` ` ` ` ` _ W / ` ` ` ` ` ` ` ` ` ` ` ` ` ` ` ` ` ` ` ` ` ` ` ` ` ` ` ` ` ` ` ` ` ",
"` ` ` ` ` ` ` ` ` ` ` o.J d Z O.` ` ` ` ` ` ` ` ` ` ` ` ` ` ` ` ` ` ` ` ` ` ` ` ` ` ` ` ` ` ` ` ",
"` ` ` ` ` ` ` ` ` ` ` o.K j D O.` ` ` ` ` ` ` ` ` ` ` ` ` ` ` ` ` ` ` ` ` ` ` ` ` ` ` ` ` ` ` ` ",
"` ` ` ` ` ` ` ` ` ` ` o.K j D O.` ` ` ` ` ` ` ` ` ` ` ` ` ` ` ` ` ` ` ` ` ` ` ` ` ` ` ` ` ` ` ` ",
"` ` _ Y E ` ` ` ` ` ` o.K j D O.` ` ` ` / Y Y Y / ` ` ` ` ` ` ` ` ` ` ` ` ` ` ` ` ` ` ` ` ` ` ` ",
"` ` I d v O.` ` ` ` ` o.K j D O.` ` 0 3 3 8 k g G o.` ` ` ` ` ` ` ` ` ` ` ` ` ` ` ` ` ` ` ` ` ` ",
"` ` Y j m O.` ` ` ` ` o.K j D O.` ` w c.c.H 3 3 3 4 ..^ ` ` ` ` ` ` ` ` ` ` ` ` ` ` ` ` ` ` ` ` ",
"` ` Y h n +.[ [ ` ` ` o.J h S O.` `  .q c.c.c.c.c.H 3 e ` ` ` ` ` ` ` ` ` ` ` ` ` ` ` ` ` ` ` ` ",
"` ` T b A I P P Y ` ` [ L c G o.` ` 6 3 H c.c.c.c.c.c.c.7 } ` ` ` ` ` ` ` ` ` ` ` ` ` ` ` ` ` ` ",
"` ` ` +.Y f k j M O.` ` [ O.o.` ` X.# c.c.c.c.c.c.c.c.c.H 3 } ` ` ` ` ` ` ` ` ` ` ` ` ` ` ` ` ` ",
"` ` ` [ I k x z V O.` ` ` ` ` ` ` $ c.H c.c.c.c.c.c.c.c.c.3 ' ` ` ` ` ` ` ` ` ` ` ` ` ` ` ` ` ` ",
"` ` ` [ P j z l B O.` ` ` ` ` ]   H H c.c.3 c.c.H c.c.c.c.H   { ` ` ` ` ` ` ` ` ` ` ` ` ` ` ` ` ",
"` ` ` ` Y N C V F o.` ` ` ` ` ' 6 H c.H 3 3 c.c.c.3 c.c.H H   ] ` ` ` ` ` ` ` ` ` ` ` ` ` ` ` ` ",
"` ` ` ` ` O.O.O.o.` ` ` ` ` [ 3 H H H 3 a 3 c.c.c.H c.c.H H 3 [ ` ` ` ` ` ` ` ` ` ` ` ` ` ` ` ` ",
"` ` ` ` ` ` ` ` ` ` ` ` ` ` ` 9 H 3 3 a l.l.3 c.c.c.3 H H H H o ] ` ` ` ` ` ` ` ` ` ` ` ` ` ` ` ",
"` ` ` ` ` ` ` ` ` ` ` ` ` ` ` ' 5   a l.l.l.l.3 c.c.3 H H H H 6 ] ` ` ` ` ` ` ` ` ` ` ` ` ` ` ` ",
"` ` ` ` ` ` ` ` ` ` ` ` ` ` ` ` ` O l.l.3 l.l.3 c.3 3 H H H H H . | ` ` ` ` ` ` ` ` ` ` ` ` ` ` ",
"` ` ` ` ` ` ` ` ` ` ` ` ` ` ` ` ` t l.H V.l.l.l.3 3 H H H 3 H H    .` ` ` ` ` ` ` ` ` ` ` ` ` ` ",
"` ` ` ` ` ` ` ` ` ` ` ` ` ` ` ` [ r l.  C.l.l.l.3 a l.3 H H   * * ' ` ` ` ` ` ` ` ` ` ` ` ` ` ` ",
"` ` ` ` ` ` ` ` ` ` ` ` ` ` ` ` ] a l.l.l.l.l.a a a a 3 * : : ` ` ` ` ` ` ` ` ` ` ` ` ` ` ` ` ` ",
"` ` ` ` ` ` ` ` ` ` ` ` ` ` ` ` ` ` u l.l.l.a a r r e * { ` ` ` ` ` ` ` ` ` ` ` ` ` ` ` ` ` ` ` ",
"` ` ` ` ` ( ( ( ( ` ` ` ` ` ` ` ` ` ` y r r :.:.:.  ` ` ` ` ` ` ` ` ` ` ` ` ` ` ` ` ` ` ` ` ` ` ",
"` ` ` ` ` ( ( ( ( ` ` ` ` ` ` ` ` ` ` ` o p > > 2   ` ` ` ` ` ` ` ` ` ` ` ` ` ` ` ` ` ` ` ` ` ` ",
"` ` ` ` ` ( ( ( ( ` ` ` ` ` ` ` ` ` `  .i > V.:.>   { ` ` ` ( / / / _ ` ` ` ` ` ` ` ` ` ` ` ` ` ",
"` ` ` ` ` ( ( ( ` ` ` ` ` ` ` ` ` ` ` 1 s > 2 2   2    .` ( 1.w.0.e.&._ ` ` ` ` ` ` ` ` ` ` ` ` ",
"` ` ` ` ` ` ` ` ` ` ` ` ` ` ` ` ` ` ` <   l.l.  2 2    .` ! a.M.b.N.4./ ` ` ` ` ` ` ` ` ` ` ` ` ",
"` ` ` ` ` ` ` ` ` ` ` ` ` ` ` ` ` ` ` ,   a a   2 2 >   { ! i.v.z.b.4./ ` ` ` ` ` ` ` ` ` ` ` ` ",
"` ` ` ` ` ` ` ` ` ` ` ` ` ` ` ` ` ` - > >     > > > >   { ! i.v.z.b.4./ ` ` ` ` / / / / _ ` ` ` ",
"` ` ` ` ` ` ` ` ` ` ` ` ` ` ` ` ` [ & > > > > > > > > 2   ~ i.v.z.b.4./ ` ` ` / 5.y.t.u.#._ ` ` ",
"` ` ` ` ` ` ` ` ` ` ` ` ` ` ` ` ` ` ] = % X x.n.; > 2 2 @ Q i.v.z.b.4./ ` ` ` ! k.m.v.B.;.) ` ` ",
"` ` ` ` ` ` ` ` ` ` ` ` ` ` ` ` ` ` ` / 0.b.z.v.r.    + ` ! i.v.z.b.4./ ` ` ` ! h.x.z.m.-.) ` ` ",
"` ` ` ` ` ` ` ` ` ` ` ` ` ` ` ` ` ` ` / 0.b.z.v.r./ {  .` ! i.v.z.b.4./ ` ` ` ! h.x.z.m.-.) ` ` ",
"` ` ` ` ` ` ` ` ` ` ` ` ` ` ` ` ` ` ` / 0.b.z.v.r./ ` ` ` ! i.v.z.b.4./ ` ` ` ! h.x.z.m.-.) ` ` ",
"` ` ` ` ` ` ` ` ` ` ` ` ` ` ` ` ` ` ` / w.M.b.M.r.R ! ! ( ! a.M.b.B.4./ / ! ! U j.m.b.B.;.) ` ` ",
"` ` ` ` ` ` ` ` ` ` ` ` ` ` ` ` ` ` ` _ =.8.7.6.r.p.p.s.1./ >.8.7.8.$./ 8.a.p.a.q.6.7.9.@.` ` ` ",
"` ` ` ` ` ` ` ` ` ` ` ` ` ` ` ` ` ` ` ` _ / / E r.M.v.M.q./ ) / / / _ ! f.m.v.M.>.! / / ` ` ` ` ",
"` ` ` ` ` ` ` ` ` ` ` ` ` ` ` ` ` ` ` ` ` ` ` / r.v.z.b.0./ ` ` ` ` ` ! d.v.z.m.,.( ` ` ` ` ` ` ",
"` ` ` ` ` ` ` ` ` ` ` ` ` ` ` ` ` ` ` ` ` ` ` / y.M.b.N.w./ ` ` ` ` ` ! g.M.b.B.<.( ` ` ` ` ` ` ",
"` ` ` ` ` ` ` ` ` ` ` ` ` ` ` ` ` ` ` ` ` ` ` _ *.4.2.4.%._ ` ` ` ` ` ) >.3.2.4.#.` ` ` ` ` ` ` ",
"` ` ` ` ` ` ` ` ` ` ` ` ` ` ` ` ` ` ` ` ` ` ` ` _ / / / _ ` ` ` ` ` ` ` ) / / / ` ` ` ` ` ` ` ` ",
"` ` ` ` ` ` ` ` ` ` ` ` ` ` ` ` ` ` ` ` ` ` ` ` ` ` ` ` ` ` ` ` ` ` ` ` ` ` ` ` ` ` ` ` ` ` ` ` ",
"` ` ` ` ` ` ` ` ` ` ` ` ` ` ` ` ` ` ` ` ` ` ` ` ` ` ` ` ` ` ` ` ` ` ` ` ` ` ` ` ` ` ` ` ` ` ` ` ",
"` ` ` ` ` ` ` ` ` ` ` ` ` ` ` ` ` ` ` ` ` ` ` ` ` ` ` ` ` ` ` ` ` ` ` ` ` ` ` ` ` ` ` ` ` ` ` ` "
};
