/* XPM */
static char *result[] = {
/* columns rows colors chars-per-pixel */
"48 48 144 2 ",
"   c black",
".  c #020705",
"X  c #050A07",
"o  c #030D08",
"O  c #040E09",
"+  c #06130D",
"@  c #0A120E",
"#  c #0D1F17",
"$  c #0F2219",
"%  c #10241B",
"&  c #12271D",
"*  c #12271E",
"=  c #13291F",
"-  c #152B21",
";  c #162E23",
":  c #162F24",
">  c #173025",
",  c #20352B",
"<  c #303048",
"1  c #31354A",
"2  c #384058",
"3  c #385870",
"4  c #385970",
"5  c #395A70",
"6  c #395B71",
"7  c #3A5C71",
"8  c #3A5D71",
"9  c #3B5D72",
"0  c #3B5E72",
"q  c #3C6072",
"w  c #784040",
"e  c #794B48",
"r  c #7A524D",
"t  c #7C5953",
"y  c #D89870",
"u  c #3CAB85",
"i  c #3EAC86",
"p  c #3FAC86",
"a  c #40AD86",
"s  c #41AD87",
"d  c #42AD87",
"f  c #44AD87",
"g  c #43AE88",
"h  c #44AE88",
"j  c #45AE88",
"k  c #46AF89",
"l  c #4EB28C",
"z  c #4EB28D",
"x  c #4EB38D",
"c  c #50B38D",
"v  c #50B48E",
"b  c #52B48E",
"n  c #52B48F",
"m  c #53B58F",
"M  c #54B58F",
"N  c #54B590",
"B  c #56B791",
"V  c #57B791",
"C  c #58B791",
"Z  c #59B892",
"A  c #5DBA94",
"S  c #5EBB95",
"D  c #60BB96",
"F  c #61BC97",
"G  c #62BD97",
"H  c #65BC97",
"J  c #64BD97",
"K  c #7098B0",
"L  c #67C09A",
"P  c #68C09A",
"I  c #6AC19B",
"U  c #6CC39D",
"Y  c #6DC39D",
"T  c #6DC49D",
"R  c #6EC49E",
"E  c #6FC49E",
"W  c #6EC59E",
"Q  c #6FC59F",
"!  c #70C59F",
"~  c #70C69F",
"^  c #73C5A0",
"/  c #71C6A0",
"(  c #72C6A0",
")  c #72C7A0",
"_  c #72C7A1",
"`  c #73C7A1",
"'  c #74C6A1",
"]  c #75C6A1",
"[  c #74C7A1",
"{  c #78C5A0",
"}  c #74C8A2",
"|  c #75C8A2",
" . c #76C9A3",
".. c #77C9A4",
"X. c #78C9A4",
"o. c #7BCAA6",
"O. c #7BCBA6",
"+. c #7CCBA6",
"@. c #7CCBA7",
"#. c #7DCBA7",
"$. c #7DCCA7",
"%. c #7ECCA8",
"&. c #888888",
"*. c #80CDA9",
"=. c #81CDAA",
"-. c #81CEAA",
";. c #82CEAA",
":. c #85CFAC",
">. c #85D0AD",
",. c #86D0AD",
"<. c #87D1AE",
"1. c #88D1AE",
"2. c #88D1AF",
"3. c #89D1AF",
"4. c #89D2AF",
"5. c #8AD2B0",
"6. c #8BD2B0",
"7. c #8BD2B1",
"8. c #8BD3B1",
"9. c #8DD3B2",
"0. c #8DD4B2",
"q. c #8ED4B3",
"w. c #8FD4B3",
"e. c #91D6B5",
"r. c #92D6B5",
"t. c #92D6B6",
"y. c #93D7B6",
"u. c #95D8B8",
"i. c #96D8B8",
"p. c #97D9B9",
"a. c #98D9BA",
"s. c #99DABA",
"d. c #99DABB",
"f. c #A2DEC1",
"g. c #A2DFC1",
"h. c #A3DFC2",
"j. c #A8C8D8",
"k. c #A3E0C2",
"l. c #A4E0C2",
"z. c #A4E0C3",
"x. c #A5E1C3",
"c. c #A5E1C4",
"v. c #A6E1C4",
"b. c #C8C8C8",
/* pixels */
"` ` ` ` ` ` ` ` ` ` ` ` ` ` ` ` ` ` ` ` ` ` ` ` ` ` ` ` ` ` ` ` ` ` ` ` ` ` ` ` ` ` ` ` ` ` ` ` ",
"` ` ` ` ` ` ` ` ` ` ` ` ` ` ` ` ` ` ` ` ` ` ` ` ` ` ` ` ` ` ` ` ` ` ` ` ` ` ` ` ` ` ` ` ` ` ` ` ",
"` ` ` ` ` ` ` ` ` ` ` ` ` ` ` ` ` ` ` ` ` ` ` ` ` ` ` ` ` ` ` ` ` ` ` ` ` ` ` ` ` ` ` ` ` ` ` ` ",
"` ` ` ` ` ` ` ` ` ` ` ` ` ` ` ` ` ` ` ` ` ` ` ` ` ` ` ` ` ` ` ` ` ` ` ` ` ` ` ` ` ` ` ` ` ` ` ` ",
"` ` ` ` ` ` ` ` ` ` ` ` ` ` ` ` ` ` ` ` ` ` ` ` ` ` ` ` ` ` ` ` ` ` ` ` ` ` ` ` ` ` ` ` ` ` ` ` ",
"` ` ` ` ` ` ` ` ` ` ` ` _ ! / ` ` ` ` ` ` ` ` ` ` ` ` ` ` ` ` ` ` ` ` ` ` ` ` ` ` ` ` ` ` ` ` ` ",
"` ` ` ` ` ` ` ` ` ` ` } L u B | ` ` ` ` ` ` ` ` ` ` ` ` ` ` ` ` ` ` ` ` ` ` ` ` ` ` ` ` ` ` ` ` ",
"` ` ` ` ` ` ` ` ` ` ` } P s Z | ` ` ` ` ` ` ` ` ` ` ` ` ` ` ` ` ` ` ` ` ` ` ` ` ` ` ` ` ` ` ` ` ",
"` ` ` ` ` ` ` ` ` ` ` } P s Z | ` ` ` ` ` ` ` ` ` ` ` ` ` ` ` ` ` ` ` ` ` ` ` ` ` ` ` ` ` ` ` ` ",
"` ` _ R Q ` ` ` ` ` ` } P s Z | ` ` ` ` / R R R / ` ` ` ` ` ` ` ` ` ` ` ` ` ` ` ` ` ` ` ` ` ` ` ",
"` ` Y u z | ` ` ` ` ` } P s Z | ` ` ` } F p d p S } ` ` ` ` ` ` ` ` ` ` ` ` ` ` ` ` ` ` ` ` ` ` ",
"` ` R s v | ` ` ` ` ` } P s Z | ` ` ` } G g k h D 0 3 3 3 ` ` ` ` ` ` ` ` ` ` ` ` ` ` ` ` ` ` ` ",
"` ` R a c  .[ [ ` ` ` } L a C | ` ` ` | H f 3 3 3 K j.j.5 ` ` ` ` ` ` ` ` ` ` ` ` ` ` ` ` ` ` ` ",
"` ` E x V Y U U R ` ` [ I l S } ` ` ! U 4 6 K j.j.j.j.5 ` ` ` ` ` ` ` ` ` ` ` ` ` ` ` ` ` ` ` ` ",
"` ` `  .R i d s b | ` ` [ | } ` ` } J 3 j.j.j.j.j.K 3 9 ` ` ` ` ` ` ` ` ` ` ` ` ` ` ` ` ` ` ` ` ",
"` ` ` [ Y d k j M | ` ` ` ` ` ` ` } o j.j.j.j.j.j.j.j.j.3 q ] ` ` ` ` ` ` ` ` ` ` ` ` ` ` ` ` ` ",
"` ` ` [ U s j g m | ` ` ` ` ` ` ` * K j.j.j.j.j.j.j.j.j.j.K 0 ` ` ` ` ` ` ` ` ` ` ` ` ` ` ` ` ` ",
"` ` ` ` R n N M A } ` ` ` ` ` ` ` - j.j.j.j.j.j.j.j.j.j.j.j.j.7 ` ` ` ` ` ` ` ` ` ` ` ` ` ` ` ` ",
"` ` ` ` ` | | | } ` ` ` ` ` ` ` O K j.j.j.j.j.j.j.j.j.j.j.K j.j.8 ` ` ` ` ` ` ` ` ` ` ` ` ` ` ` ",
"` ` ` ` ` ` ` ` ` ` ` ` ` ` ` ` # j.j.j.j.j.j.j.j.j.j.j.j.j.3 K j.; ` ` ` ` ` ` ` ` ` ` ` ` ` ` ",
"` ` ` ` ` ` ` ` ` ` ` ` ` ` ` ` q j.j.j.j.j.j.j.j.j.j.j.j.j.K 3 # & ` ` ` ` ` ` ` ` ` ` ` ` ` ` ",
"` ` ` ` ` ` ` ` ` ` ` ` ` ` ]   j.j.j.3 j.j.j.j.j.j.j.j.j.j.K 8 ` ` ` ` ` ` ` ` ` ` ` ` ` ` ` ` ",
"` ` ` ` ` ` ` ` ` ` ` ` ` ` ] 3 j.j.3 K j.j.j.j.j.j.j.j.j.K K K > ` ` ` ` ` ` ` ` ` ` ` ` ` ` ` ",
"` ` ` ` ` ` ` ` ` ` ` ` ` [   j.j.3 K K K K j.j.j.j.j.K 3 K K K K = ` ` ` ` ` ` ` ` ` ` ` ` ` ` ",
"` ` ` ` ` ` ` ` ` ` ` ` ` '       K K K K K K K K K K K K 3 K K   $ ` ` ` ` ` ` ` ` ` ` ` ` ` ` ",
"` ` ` ` ` ` ` ` ` ` ` ` ` ` ` ` O   3 K K K K K K K K K K K     ' { ` ` ` ` ` ` ` ` ` ` ` ` ` ` ",
"` ` ` ` ` ( ( ( ( ` ` ` ` ` ` ` ` ` [     K K K K K K K   O ` ` ` ` ` ` ` ` ` ` ` ` ` ` ` ` ` ` ",
"` ` ` ` ` ( ( ( ( ` ` ` ` ` ` ` ` ` ` < <     K K K     < 1 ` ` ` ` ` ` ` ` ` ` ` ` ` ` ` ` ` ` ",
"` ` ` ` ` ( ( ( ( ` ` ` ` ` ` ` ` ` . b.2 2 <       < 2 2 b.% / / / _ ` ` ` ` ` ` ` ` ` ` ` ` ` ",
"` ` ` ` ` ( ( ( ` ` ` ` ` ` ` ` '   2 2 &.2 2 2 2 2 2 2 &.2 2 , 5.8.+._ ` ` ` ` ` ` ` ` ` ` ` ` ",
"` ` ` ` ` ` ` ` ` ` ` ` ` ` ` ` w y 2 2   2 2 2 2 2 2 2   2 2 y w c.,./ ` ` ` ` ` ` ` ` ` ` ` ` ",
"` ` ` ` ` ` ` ` ` ` ` ` ` ` ` [ w y y <   2 2 2 2 2 2 2   < y y e l.,./ ` ` ` ` ` ` ` ` ` ` ` ` ",
"` ` ` ` ` ` ` ` ` ` ` ` ` ` ` ` ' w w       2 2 2 2 2       r t f.l.,./ ` ` ` ` / / / / _ ` ` ` ",
"` ` ` ` ` ` ` ` ` ` ` ` ` ` ` ` ` ` ]   < <           < <   e.k.g.l.,./ ` ` ` / <.q.0.w.X._ ` ` ",
"` ` ` ` ` ` ` ` ` ` ` ` ` ` ` ` ` ` '     < <       < <   + e.k.g.l.,./ ` ` ` ~ d.z.k.v.%.) ` ` ",
"` ` ` ` ` ` ` ` ` ` ` ` ` ` ` ` ` ` ` % < < X k.9.^   < < : e.k.g.l.,./ ` ` ` ~ a.h.g.z.$.) ` ` ",
"` ` ` ` ` ` ` ` ` ` ` ` ` ` ` ` ` ` ` ^   @ g.k.9./ ` O   ~ e.k.g.l.,./ ` ` ` ~ a.h.g.z.$.) ` ` ",
"` ` ` ` ` ` ` ` ` ` ` ` ` ` ` ` ` ` ` / 5.l.g.k.9./ ` ` ` ~ e.k.g.l.,./ ` ` ` ~ a.h.g.z.$.) ` ` ",
"` ` ` ` ` ` ` ` ` ` ` ` ` ` ` ` ` ` ` / 7.x.l.x.9.W ~ ~ ( ~ t.x.l.v.,./ / ~ ~ T s.z.l.v.%.) ` ` ",
"` ` ` ` ` ` ` ` ` ` ` ` ` ` ` ` ` ` ` _ #.3.2.1.9.r.r.y.;./ *.3.2.3.o./ 3.t.r.t.6.1.2.4...` ` ` ",
"` ` ` ` ` ` ` ` ` ` ` ` ` ` ` ` ` ` ` ` _ / / Q 9.x.k.x.6./ ) / / / _ ~ i.z.k.x.*.~ / / ` ` ` ` ",
"` ` ` ` ` ` ` ` ` ` ` ` ` ` ` ` ` ` ` ` ` ` ` / 9.k.g.l.5./ ` ` ` ` ` ~ u.k.g.z.=.( ` ` ` ` ` ` ",
"` ` ` ` ` ` ` ` ` ` ` ` ` ` ` ` ` ` ` ` ` ` ` / q.x.l.c.7./ ` ` ` ` ` ~ p.x.l.v.-.( ` ` ` ` ` ` ",
"` ` ` ` ` ` ` ` ` ` ` ` ` ` ` ` ` ` ` ` ` ` ` _ @.,.:.,.O._ ` ` ` ` ` ) *.>.:.,.X.` ` ` ` ` ` ` ",
"` ` ` ` ` ` ` ` ` ` ` ` ` ` ` ` ` ` ` ` ` ` ` ` _ / / / _ ` ` ` ` ` ` ` ) / / / ` ` ` ` ` ` ` ` ",
"` ` ` ` ` ` ` ` ` ` ` ` ` ` ` ` ` ` ` ` ` ` ` ` ` ` ` ` ` ` ` ` ` ` ` ` ` ` ` ` ` ` ` ` ` ` ` ` ",
"` ` ` ` ` ` ` ` ` ` ` ` ` ` ` ` ` ` ` ` ` ` ` ` ` ` ` ` ` ` ` ` ` ` ` ` ` ` ` ` ` ` ` ` ` ` ` ` ",
"` ` ` ` ` ` ` ` ` ` ` ` ` ` ` ` ` ` ` ` ` ` ` ` ` ` ` ` ` ` ` ` ` ` ` ` ` ` ` ` ` ` ` ` ` ` ` ` "
};
