/* XPM */
static char *result[] = {
/* columns rows colors chars-per-pixel */
"48 48 158 2 ",
"   c black",
".  c #040E09",
"X  c #050E09",
"o  c #050F0A",
"O  c #091811",
"+  c #0B1B14",
"@  c #0F2219",
"#  c #13291F",
"$  c #152B21",
"%  c #183226",
"&  c #1B3529",
"*  c #1C372B",
"=  c #1D392C",
"-  c #1E3A2D",
";  c #213F31",
":  c #2B3F35",
">  c #2C3F36",
",  c #27493A",
"<  c #2F4B3E",
"1  c #303048",
"2  c #313249",
"3  c #31354A",
"4  c #333A4C",
"5  c #384058",
"6  c #385870",
"7  c #385970",
"8  c #3B5D72",
"9  c #3B5E72",
"0  c #3B5F72",
"q  c #3C6072",
"w  c #3C6073",
"e  c #3F6775",
"r  c #784341",
"t  c #784543",
"y  c #784D48",
"u  c #7A5F55",
"i  c #406875",
"p  c #D89870",
"a  c #3CAB85",
"s  c #3EAC86",
"d  c #3FAC86",
"f  c #40AD86",
"g  c #41AD87",
"h  c #42AD87",
"j  c #46AC86",
"k  c #43AE88",
"l  c #45AE88",
"z  c #46AF89",
"x  c #4AAE88",
"c  c #4EB28C",
"v  c #4EB28D",
"b  c #4EB38D",
"n  c #50B38D",
"m  c #50B48E",
"M  c #52B48E",
"N  c #52B48F",
"B  c #53B58F",
"V  c #54B58F",
"C  c #54B590",
"Z  c #56B791",
"A  c #57B791",
"S  c #58B791",
"D  c #59B892",
"F  c #5DBA94",
"G  c #5EBB95",
"H  c #66B995",
"J  c #61BC97",
"K  c #62BD97",
"L  c #7098B0",
"P  c #67C09A",
"I  c #68C09A",
"U  c #6AC19B",
"Y  c #6CC39D",
"T  c #6DC39D",
"R  c #6DC49D",
"E  c #6EC49E",
"W  c #6FC49E",
"Q  c #6EC59E",
"!  c #6FC59F",
"~  c #77C39E",
"^  c #70C59F",
"/  c #71C59F",
"(  c #73C49F",
")  c #70C69F",
"_  c #74C49E",
"`  c #7DC39F",
"'  c #71C6A0",
"]  c #72C6A0",
"[  c #72C7A0",
"{  c #72C7A1",
"}  c #73C7A1",
"|  c #77C5A0",
" . c #74C6A1",
".. c #75C6A1",
"X. c #74C7A1",
"o. c #76C6A0",
"O. c #76C6A1",
"+. c #78C5A0",
"@. c #7BC5A1",
"#. c #74C8A2",
"$. c #75C8A2",
"%. c #76C9A3",
"&. c #77C9A4",
"*. c #78C9A4",
"=. c #7BCAA6",
"-. c #7BCBA6",
";. c #7CCBA6",
":. c #7CCBA7",
">. c #7DCBA7",
",. c #7DCCA7",
"<. c #7ECCA8",
"1. c #888888",
"2. c #80CDA9",
"3. c #81CDAA",
"4. c #81CEAA",
"5. c #82CEAA",
"6. c #85CFAC",
"7. c #85D0AD",
"8. c #86D0AD",
"9. c #87D1AE",
"0. c #88D1AE",
"q. c #88D1AF",
"w. c #89D1AF",
"e. c #89D2AF",
"r. c #8AD2B0",
"t. c #8BD2B0",
"y. c #8BD2B1",
"u. c #8BD3B1",
"i. c #8ED2B1",
"p. c #8DD2B2",
"a. c #8DD3B2",
"s. c #8DD4B2",
"d. c #8ED4B3",
"f. c #8FD4B3",
"g. c #92D4B4",
"h. c #92D5B4",
"j. c #91D6B5",
"k. c #92D6B5",
"l. c #92D6B6",
"z. c #93D7B6",
"x. c #95D8B8",
"c. c #96D8B8",
"v. c #97D9B9",
"b. c #98D9BA",
"n. c #99DABA",
"m. c #99DABB",
"M. c #F8D0B8",
"N. c #A2DFC1",
"B. c #A3DFC2",
"V. c #A4DFC1",
"C. c #A8C8D8",
"Z. c #A3E0C2",
"A. c #A4E0C2",
"S. c #A4E0C3",
"D. c #A5E1C3",
"F. c #A5E1C4",
"G. c #A6E1C4",
"H. c #C8C8C8",
/* pixels */
"} } } } } } } } } } } } } } } } } } } } } } } } } } } } } } } } } } } } } } } } } } } } } } } } ",
"} } } } } } } } } } } } } } } } } } } } } } } } } } } } } } } } } } } } } } } } } } } } } } } } ",
"} } } } } } } } } } } } } } } } } } } } } } } } } } } } } } } } } } } } } } } } } } } } } } } } ",
"} } } } } } } } } } } } } } } } } } } } } } } } } } } } } } } } } } } } } } } } } } } } } } } } ",
"} } } } } } } } } } } } } } } } } } } } } } } } } } } } } } } } } } } } } } } } } } } } } } } } ",
"} } } } } } } } } } } } { ^ ' } } } } } } } } } } } } } } } } } } } } } } } } } } } } } } } } } ",
"} } } } } } } } } } } #.P a Z $.} } } } } } } } } } } } } } } } } } } } } } } } } } } } } } } } ",
"} } } } } } } } } } } #.I g D $.} } } } } } } } } } } } } } } } } } } } } } } } } } } } } } } } ",
"} } } } } } } } } } } #.I g D $.} } } } } } } } } } } } } } } } } } } } } } } } } } } } } } } } ",
"} } { E ! } } } } } } #.I g D $.} } } } ' E E E ' } } +.+.} } } } } } } } } } } } } } } } } } } ",
"} } T a v $.} } } } } #.I g D $.} } } #.J d h j H 9 6 6 6 } } } } } } } } } } } } } } } } } } } ",
"} } E g m $.} } } } } #.I g D $.} } } #.K x 6 6 6 L C.C.0 } } } } } } } } } } } } } } } } } } } ",
"} } E f n %.X.X.} } } #.P f S $.} } } $.0 6 L C.C.C.C.q } } } } } } } } } } } } } } } } } } } } ",
"} } W b A T Y Y E } } X.U c G #.} } ( 7 C.C.C.C.C.L 6 8 } } } } } } } } } } } } } } } } } } } } ",
"} } } %.E s h g M $.} } X.$.#.} } @.  C.C.C.C.C.C.C.C.C.6 w } } } } } } } } } } } } } } } } } } ",
"} } } X.T h z l V $.} } } } } } } ; L C.C.C.C.C.C.C.C.C.C.L e } } } } } } } } } } } } } } } } } ",
"} } } X.Y g l k B $.} } } } } } o.X C.C.C.C.C.C.C.C.C.C.C.C.C.i } } } } } } } } } } } } } } } } ",
"} } } } E N C V F #.} } } } } } & L C.C.C.C.C.C.C.C.C.C.C.L C.C.0 } } } } } } } } } } } } } } } ",
"} } } } } $.$.$.#.} } } } } } } $ C.C.C.C.C.C.C.C.C.C.C.C.C.6 L C.@ } } } } } } } } } } } } } } ",
"} } } } } } } } } } } } } } } ` 8 C.C.C.C.C.C.C.C.C.C.C.C.C.L 6 & * X.} } } } } } } } } } } } } ",
"} } } } } } } } } } } } } } } + C.C.C.6 C.C.C.C.C.C.C.C.C.C.L 6 | } } } } } } } } } } } } } } } ",
"} } } } } } } } } } } } } } X.6 C.C.6 L C.C.C.C.C.C.C.C.C.L L L . ..} } } } } } } } } } } } } } ",
"} } } } } } } } } } } } } }   C.C.6 L L L L C.C.C.C.C.L 6 L L L L & o.} } } } } } } } } } } } } ",
"} } } } } } } } } } } } }  .      L L L L L L L L L L L L 6 L L * = } } } } } } } } } } } } } } ",
"} } } } } } } } } } } } } } }  .- @ 6 L L L L L L L L L L L     o.} } } } } } } } } } } } } } } ",
"} } } } } } } } } } } } } } } } } } O.    L L L L L L L   O } } } } } } } } } } } } } } } } } } ",
"} } } } } ] ] ] ] } } } } } } } } } X.1 1     L L L     1 1 4 +.} } } } } } } } } } } } } } } } ",
"} } } } } ] ] ] ] } } } } } } } } ..1 H.5 5 1       1 5 5 H.5 3 ..} } } } } } } } } } } } } } } ",
"} } } } } ] ] ] ] } } } } } } } } ..1 5 1.5 5 1 1 1 5 5 1.5 5 p t ' { } } } } } } } } } } } } } ",
"} } } } } ] ] ] } } } } } } } } } ..5 5 5   5 5 5 5 5 5   1 p p u u.;.{ } } } } } } } } } } } } ",
"} } } } } } } } } } } } } } } } ..y M.M.5   5 5 5 5 5 5   ~ 1 2 V.F.8.' } } } } } } } } } } } } ",
"} } } } } } } } } } } } } } } } ..r p p     5 5 5 5 5     _ h.Z.N.A.8.' } } } } } } } } } } } } ",
"} } } } } } } } } } } } } } } } } } #     1           5 5   h.Z.N.A.8.' } } } } ' ' ' ' { } } } ",
"} } } } } } } } } } } } } } } } } } } [ o   1 1 1 5 5 5 5   h.Z.N.A.8.' } } } ' 9.d.s.f.*.{ } } ",
"} } } } } } } } } } } } } } } } } } } ' t.D.: > < 1 5 5 1 # g.Z.N.A.8.' } } } ) m.S.Z.G.<.[ } } ",
"} } } } } } } } } } } } } } } } } } } ' r.A.N.Z.i.  1 1   / j.Z.N.A.8.' } } } ) b.B.N.S.,.[ } } ",
"} } } } } } } } } } } } } } } } } } } ' r.A.N.Z.p.  5 5 % ) j.Z.N.A.8.' } } } ) b.B.N.S.,.[ } } ",
"} } } } } } } } } } } } } } } } } } } ' r.A.N.Z.a.' , * O.) j.Z.N.A.8.' } } } ) b.B.N.S.,.[ } } ",
"} } } } } } } } } } } } } } } } } } } ' y.D.A.D.a.Q ) ) ] ) l.D.A.G.8.' ' ) ) R n.S.A.G.<.[ } } ",
"} } } } } } } } } } } } } } } } } } } { >.w.q.0.a.k.k.z.5.' 2.w.q.w.=.' w.l.k.l.t.0.q.e.&.} } } ",
"} } } } } } } } } } } } } } } } } } } } { ' ' ! a.D.Z.D.t.' [ ' ' ' { ) c.S.Z.D.2.) ' ' } } } } ",
"} } } } } } } } } } } } } } } } } } } } } } } ' a.Z.N.A.r.' } } } } } ) x.Z.N.S.3.] } } } } } } ",
"} } } } } } } } } } } } } } } } } } } } } } } ' d.D.A.F.y.' } } } } } ) v.D.A.G.4.] } } } } } } ",
"} } } } } } } } } } } } } } } } } } } } } } } { :.8.6.8.-.{ } } } } } [ 2.7.6.8.*.} } } } } } } ",
"} } } } } } } } } } } } } } } } } } } } } } } } { ' ' ' { } } } } } } } [ ' ' ' } } } } } } } } ",
"} } } } } } } } } } } } } } } } } } } } } } } } } } } } } } } } } } } } } } } } } } } } } } } } ",
"} } } } } } } } } } } } } } } } } } } } } } } } } } } } } } } } } } } } } } } } } } } } } } } } ",
"} } } } } } } } } } } } } } } } } } } } } } } } } } } } } } } } } } } } } } } } } } } } } } } } "
};
