/* XPM */
static char *result[] = {
/* columns rows colors chars-per-pixel */
"48 48 165 2 ",
"   c black",
".  c #020705",
"X  c #07130D",
"o  c #091811",
"O  c #0D1F17",
"+  c #0F2219",
"@  c #16271F",
"#  c #13291F",
"$  c #152B21",
"%  c #162E23",
"&  c #172F24",
"*  c #183226",
"=  c #1A3328",
"-  c #1B3529",
";  c #1B372A",
":  c #1C372B",
">  c #1F3C2F",
",  c #224233",
"<  c #234435",
"1  c #303048",
"2  c #32374A",
"3  c #502858",
"4  c #502A58",
"5  c #35414F",
"6  c #384058",
"7  c #385870",
"8  c #385970",
"9  c #385A70",
"0  c #395A70",
"q  c #3A5B71",
"w  c #3A5D71",
"e  c #3B5D72",
"r  c #3D6374",
"t  c #3E6574",
"y  c #3F6775",
"u  c #784040",
"i  c #784543",
"p  c #784744",
"a  c #784D48",
"s  c #78514A",
"d  c #7A524D",
"f  c #7A544E",
"g  c #785B51",
"h  c #77675A",
"j  c #D84850",
"k  c #D89870",
"l  c #803890",
"z  c #3CAB85",
"x  c #3EAC86",
"c  c #40AD86",
"v  c #41AD87",
"b  c #43AC86",
"n  c #42AD87",
"m  c #43AE88",
"M  c #45AE88",
"N  c #46AF89",
"B  c #4EB28C",
"V  c #4EB28D",
"C  c #4EB38D",
"Z  c #50B38D",
"A  c #50B48E",
"S  c #52B48E",
"D  c #52B48F",
"F  c #53B58F",
"G  c #54B58F",
"H  c #54B590",
"J  c #56B791",
"K  c #57B791",
"L  c #58B791",
"P  c #59B892",
"I  c #5DBA94",
"U  c #5EBB95",
"Y  c #7098B0",
"T  c #67C09A",
"R  c #68C09A",
"E  c #6AC19B",
"W  c #6CC39D",
"Q  c #6DC39D",
"!  c #6DC49D",
"~  c #6EC49E",
"^  c #6FC49E",
"/  c #6EC59E",
"(  c #6FC59F",
")  c #75C09C",
"_  c #76C39E",
"`  c #70C59F",
"'  c #70C69F",
"]  c #7BC39F",
"[  c #7CC39F",
"{  c #7DC39F",
"}  c #7EC29F",
"|  c #7AC49F",
" . c #7BC49F",
".. c #71C6A0",
"X. c #72C6A0",
"o. c #72C7A0",
"O. c #72C7A1",
"+. c #73C7A1",
"@. c #77C5A0",
"#. c #74C6A1",
"$. c #75C6A1",
"%. c #74C7A1",
"&. c #76C6A0",
"*. c #76C6A1",
"=. c #79C4A0",
"-. c #78C5A0",
";. c #74C8A2",
":. c #75C8A2",
">. c #76C9A3",
",. c #77C9A4",
"<. c #78C9A4",
"1. c #7BCAA6",
"2. c #7BCBA6",
"3. c #7CCBA6",
"4. c #7CCBA7",
"5. c #7DCBA7",
"6. c #7DCCA7",
"7. c #7ECCA8",
"8. c #888888",
"9. c #80CDA9",
"0. c #81CDAA",
"q. c #81CEAA",
"w. c #82CEAA",
"e. c #85CFAC",
"r. c #85D0AD",
"t. c #86D0AD",
"y. c #87D1AE",
"u. c #88D1AE",
"i. c #88D1AF",
"p. c #89D1AF",
"a. c #89D2AF",
"s. c #8AD2B0",
"d. c #8BD2B0",
"f. c #8BD2B1",
"g. c #8BD3B1",
"h. c #8DD3B2",
"j. c #8DD4B2",
"k. c #8ED4B3",
"l. c #8FD4B3",
"z. c #92D5B4",
"x. c #91D6B5",
"c. c #92D6B5",
"v. c #92D6B6",
"b. c #93D7B6",
"n. c #95D8B8",
"m. c #96D8B8",
"M. c #97D9B9",
"N. c #98D9BA",
"B. c #99DABA",
"V. c #99DABB",
"C. c #A3DBBE",
"Z. c #A4DBBE",
"A. c #A4DCBF",
"S. c #F8D0B8",
"D. c #A2DFC1",
"F. c #A3DFC2",
"G. c #A8C8D8",
"H. c #A3E0C2",
"J. c #A4E0C2",
"K. c #A4E0C3",
"L. c #A5E1C3",
"P. c #A5E1C4",
"I. c #A6E1C4",
"U. c #C8C8C8",
"Y. c #E8E8F8",
/* pixels */
"+.+.+.+.+.+.+.+.+.+.+.+.+.+.+.+.+.+.+.+.+.+.+.+.+.+.+.+.+.+.+.+.+.+.+.+.+.+.+.+.+.+.+.+.+.+.+.+.",
"+.+.+.+.+.+.+.+.+.+.+.+.+.+.+.+.+.+.+.+.+.+.+.+.+.+.+.+.+.+.+.+.+.+.+.+.+.+.+.+.+.+.+.+.+.+.+.+.",
"+.+.+.+.+.+.+.+.+.+.+.+.+.+.+.+.+.+.+.+.+.+.+.+.+.+.+.+.+.+.+.+.+.+.+.+.+.+.+.+.+.+.+.+.+.+.+.+.",
"+.+.+.+.+.+.+.+.+.+.+.+.+.+.+.+.+.+.+.+.+.+.+.+.+.+.+.+.+.+.+.+.+.+.+.+.+.+.+.+.+.+.+.+.+.+.+.+.",
"+.+.+.+.+.+.+.+.+.+.+.+.+.+.+.+.+.+.+.+.+.+.+.+.+.+.+.+.+.+.+.+.+.+.+.+.+.+.+.+.+.+.+.+.+.+.+.+.",
"+.+.+.+.+.+.+.+.+.+.+.+.O.` ..+.+.+.+.+.+.+.+.+.+.+.+.+.+.+.+.+.+.+.+.+.+.+.+.+.+.+.+.+.+.+.+.+.",
"+.+.+.+.+.+.+.+.+.+.+.;.T z J :.+.+.+.+.+.+.+.+.+.+.+.+.+.+.+.+.+.+.+.+.+.+.+.+.+.+.+.+.+.+.+.+.",
"+.+.+.+.+.+.+.+.+.+.+.;.R v P :.+.+.+.+.+.+.+.+.+.+.+.+.+.+.+.+.+.+.+.+.+.+.+.+.+.+.+.+.+.+.+.+.",
"+.+.+.+.+.+.+.+.+.+.+.;.R v P :.+.+.+.+.+.+.+.+.+.+.+.+.+.+.+.+.+.+.+.+.+.+.+.+.+.+.+.+.+.+.+.+.",
"+.+.O.~ ( +.+.+.+.+.+.;.R v P :.+.+.+.+...~ ~ ~ ..+.+.+.+.+.+.+.+.+.+.+.+.+.+.+.+.+.+.+.+.+.+.+.",
"+.+.Q z V :.+.+.+.+.+.;.R v P :.+.+.#.7 7 7 9 b U ;.+.+.+.+.+.+.+.+.+.+.+.+.+.+.+.+.+.+.+.+.+.+.",
"+.+.~ v A :.+.+.+.+.+.;.R v P :.+.+.+.y G.G.Y 7 7 q &.+.+.+.+.+.+.+.+.+.+.+.+.+.+.+.+.+.+.+.+.+.",
"+.+.~ c Z >.%.%.+.+.+.;.T c L :.+.+.+.:.8 G.G.G.G.Y 7 7 #.+.+.+.+.+.+.+.+.+.+.+.+.+.+.+.+.+.+.+.",
"+.+.^ C K Q W W ~ +.+.%.E B U ;.+.+._ ) 7 7 Y G.G.G.G.G.0  .+.+.+.+.+.+.+.+.+.+.+.+.+.+.+.+.+.+.",
"+.+.+.>.~ x n v S :.+.+.%.:.;.+.+.;.w 7 G.G.G.G.G.G.G.G.G.$ { +.+.+.+.+.+.+.+.+.+.+.+.+.+.+.+.+.",
"+.+.+.%.Q n N M G :.+.+.+.+.+.+.+.q Y G.G.G.G.G.G.G.G.G.G.Y O +.+.+.+.+.+.+.+.+.+.+.+.+.+.+.+.+.",
"+.+.+.%.W v M m F :.+.+.+.+.+.-.t G.G.G.G.G.G.Y G.G.G.G.G.G.  | +.+.+.+.+.+.+.+.+.+.+.+.+.+.+.+.",
"+.+.+.+.~ D H G I ;.+.+.+.+.[ 7 G.G.Y G.G.G.Y G.G.G.Y G.G.G.Y + +.+.+.+.+.+.+.+.+.+.+.+.+.+.+.+.",
"+.+.+.+.+.:.:.:.;.+.+.+.+.+.> G.Y 7 G.G.G.7 G.G.7 G.7 G.G.G.Y o +.+.+.+.+.+.+.+.+.+.+.+.+.+.+.+.",
"+.+.+.+.+.+.+.+.+.+.+.+.+.$.: . 7 G.G.G.Y Y G.7 G.7 S.7 G.7 Y 8 *.+.+.+.+.+.+.+.+.+.+.+.+.+.+.+.",
"+.+.+.+.+.+.+.+.+.+.+.+.+.+.+.e Y G.G.Y 7 G.7 Y Y S.S.Y G.7 Y Y X %.+.+.+.+.+.+.+.+.+.+.+.+.+.+.",
"+.+.+.+.+.+.+.+.+.+.+.+.+.+.&.  G.G.7 S.7 7 S.S.S.S.S.Y 7 Y Y Y r | %.+.+.+.+.+.+.+.+.+.+.+.+.+.",
"+.+.+.+.+.+.+.+.+.+.+.+.+.%.  G.G.u S.k 7 S.S.S.S.S.7 k S.u Y Y Y   @.+.+.+.+.+.+.+.+.+.+.+.+.+.",
"+.+.+.+.+.+.+.+.+.+.+.+.+.$.    . s S.k U.Y S.S.S.Y U.k S.u Y       &.+.+.+.+.+.+.+.+.+.+.+.+.+.",
"+.+.+.+.+.+.+.+.+.+.+.+.+.+.-.+.+.*.p k Y.  S.S.S.  Y.k u 7 O , %.+.+.+.+.+.+.+.+.+.+.+.+.+.+.+.",
"+.+.+.+.+.+.+.+.+.+.+.+.+.+.+.+.| 1   k S.S.S.S.S.S.S.k % +.+.+.+.+.+.+.+.+.+.+.+.+.+.+.+.+.+.+.",
"+.+.+.+.+.X.X.X.X.+.+.+.+.+.+.%.5 6 8.u k S.S.k S.S.k i -.+.+.+.+.+.+.+.+.+.+.+.+.+.+.+.+.+.+.+.",
"+.+.+.+.+.X.X.X.X.+.+.+.+.+.@.a k 6 6 8.  u k k k u   6 2 $.+.+.+.+.+.+.+.+.+.+.+.+.+.+.+.+.+.+.",
"+.+.+.+.+.X.X.X.X.+.+.+.+.+.&.u k k 2 6 1 Y.u u u Y.6 8.U.* X.......O.+.+.+.+.+.+.+.+.+.+.+.+.+.",
"+.+.+.+.+.X.X.X.+.+.+.+.+.+.+.+.g h -.  l 6 j j j 6 l 6 6 # w.f.s.g.3.O.+.+.+.+.+.+.+.+.+.+.+.+.",
"+.+.+.+.+.+.+.+.+.+.+.+.+.+.+.+.+.%.}   6 l 6 j 6 l 6   S.S.d L.J.P.t...+.+.+.+.+.+.+.+.+.+.+.+.",
"+.+.+.+.+.+.+.+.+.+.+.+.+.+.+.+.+.]   6   l 6   6 l     k k f H.D.J.t...+.+.+.+.+.+.+.+.+.+.+.+.",
"+.+.+.+.+.+.+.+.+.+.+.+.+.+.+.+.+.=.  6 3 1 1   1 1 3 1 - < z.H.D.J.t...+.+.+.+.........O.+.+.+.",
"+.+.+.+.+.+.+.+.+.+.+.+.+.+.+.+.+.&.+ 6 6 3 6   1 4 : = #.' x.H.D.J.t...+.+.+...y.k.j.l.<.O.+.+.",
"+.+.+.+.+.+.+.+.+.+.+.+.+.+.+.+.+.+.] 1 6 6 1     & %.+.+.' x.H.D.J.t...+.+.+.' V.K.H.I.7.o.+.+.",
"+.+.+.+.+.+.+.+.+.+.+.+.+.+.+.+.+.+.-.  1 1   Z.h...+.+.+.' x.H.D.J.t...+.+.+.' N.F.D.K.6.o.+.+.",
"+.+.+.+.+.+.+.+.+.+.+.+.+.+.+.+.+.+.$.; 6 6   A.h...+.+.+.' x.H.D.J.t...+.+.+.' N.F.D.K.6.o.+.+.",
"+.+.+.+.+.+.+.+.+.+.+.+.+.+.+.+.+.+.+...@   C.H.h...+.+.+.' x.H.D.J.t...+.+.+.' N.F.D.K.6.o.+.+.",
"+.+.+.+.+.+.+.+.+.+.+.+.+.+.+.+.+.+.+...f.L.J.L.h./ ' ' X.' v.L.J.I.t.....' ' ! B.K.J.I.7.o.+.+.",
"+.+.+.+.+.+.+.+.+.+.+.+.+.+.+.+.+.+.+.O.5.p.i.u.h.c.c.b.w...9.p.i.p.1...p.v.c.v.d.u.i.a.,.+.+.+.",
"+.+.+.+.+.+.+.+.+.+.+.+.+.+.+.+.+.+.+.+.O.....( h.L.H.L.d...o.......O.' m.K.H.L.9.' ....+.+.+.+.",
"+.+.+.+.+.+.+.+.+.+.+.+.+.+.+.+.+.+.+.+.+.+.+...h.H.D.J.s...+.+.+.+.+.' n.H.D.K.0.X.+.+.+.+.+.+.",
"+.+.+.+.+.+.+.+.+.+.+.+.+.+.+.+.+.+.+.+.+.+.+...k.L.J.P.f...+.+.+.+.+.' M.L.J.I.q.X.+.+.+.+.+.+.",
"+.+.+.+.+.+.+.+.+.+.+.+.+.+.+.+.+.+.+.+.+.+.+.O.4.t.e.t.2.O.+.+.+.+.+.o.9.r.e.t.<.+.+.+.+.+.+.+.",
"+.+.+.+.+.+.+.+.+.+.+.+.+.+.+.+.+.+.+.+.+.+.+.+.O.......O.+.+.+.+.+.+.+.o.......+.+.+.+.+.+.+.+.",
"+.+.+.+.+.+.+.+.+.+.+.+.+.+.+.+.+.+.+.+.+.+.+.+.+.+.+.+.+.+.+.+.+.+.+.+.+.+.+.+.+.+.+.+.+.+.+.+.",
"+.+.+.+.+.+.+.+.+.+.+.+.+.+.+.+.+.+.+.+.+.+.+.+.+.+.+.+.+.+.+.+.+.+.+.+.+.+.+.+.+.+.+.+.+.+.+.+.",
"+.+.+.+.+.+.+.+.+.+.+.+.+.+.+.+.+.+.+.+.+.+.+.+.+.+.+.+.+.+.+.+.+.+.+.+.+.+.+.+.+.+.+.+.+.+.+.+."
};
