/* XPM */
static char *result[] = {
/* columns rows colors chars-per-pixel */
"48 48 170 2 ",
"   c black",
".  c #020705",
"X  c #030806",
"o  c #050E09",
"O  c #07130D",
"+  c #091811",
"@  c #0B1C14",
"#  c #0C1E16",
"$  c #0F2219",
"%  c #14201A",
"&  c #12271D",
"*  c #13291F",
"=  c #1A2720",
"-  c #152B21",
";  c #162E23",
":  c #192C23",
">  c #1B3529",
",  c #1C372B",
"<  c #1E3A2D",
"1  c #1F3C2F",
"2  c #2D4137",
"3  c #254838",
"4  c #2A4E3E",
"5  c #303048",
"6  c #31354A",
"7  c #333A4C",
"8  c #333B4C",
"9  c #35424F",
"0  c #3A594A",
"q  c #374852",
"w  c #384058",
"e  c #385870",
"r  c #385970",
"t  c #3A5B71",
"y  c #3A5C71",
"u  c #3B5D72",
"i  c #3B5E72",
"p  c #396272",
"a  c #3C6072",
"s  c #3C6173",
"d  c #3D6373",
"f  c #3D6374",
"g  c #3A6874",
"h  c #3F6C76",
"j  c #784040",
"k  c #784D48",
"l  c #7A4C49",
"z  c #78564E",
"x  c #435B64",
"c  c #406976",
"v  c #D89870",
"b  c #3CAB85",
"n  c #3EAC86",
"m  c #3FAC86",
"M  c #40AD86",
"N  c #41AD87",
"B  c #42AD87",
"V  c #43AE88",
"C  c #45AE88",
"Z  c #46AF89",
"A  c #4EB28C",
"S  c #4EB28D",
"D  c #4EB38D",
"F  c #50B38D",
"G  c #50B48E",
"H  c #52B48E",
"J  c #52B48F",
"K  c #53B58F",
"L  c #54B58F",
"P  c #54B590",
"I  c #56B791",
"U  c #57B791",
"Y  c #58B791",
"T  c #59B892",
"R  c #5DBA94",
"E  c #5EBB95",
"W  c #61BC97",
"Q  c #62BD97",
"!  c #7098B0",
"~  c #67C09A",
"^  c #68C09A",
"/  c #6AC19B",
"(  c #6CC39D",
")  c #6DC39D",
"_  c #6DC49D",
"`  c #6EC49E",
"'  c #6FC49E",
"]  c #6EC59E",
"[  c #6FC59F",
"{  c #70C59F",
"}  c #70C69F",
"|  c #7BC39F",
" . c #7CC39F",
".. c #7EC29F",
"X. c #7AC49F",
"o. c #72C5A0",
"O. c #71C6A0",
"+. c #72C6A0",
"@. c #72C7A0",
"#. c #72C7A1",
"$. c #73C7A1",
"%. c #77C5A0",
"&. c #74C6A1",
"*. c #75C6A1",
"=. c #74C7A1",
"-. c #76C6A0",
";. c #78C5A0",
":. c #7AC4A0",
">. c #7AC6A1",
",. c #7CC4A0",
"<. c #74C8A2",
"1. c #75C8A2",
"2. c #76C9A3",
"3. c #77C9A4",
"4. c #78C9A4",
"5. c #7BCAA6",
"6. c #7BCBA6",
"7. c #7CCBA6",
"8. c #7CCBA7",
"9. c #7DCBA7",
"0. c #7DCCA7",
"q. c #7ECCA8",
"w. c #888888",
"e. c #80CDA9",
"r. c #81CDAA",
"t. c #81CEAA",
"y. c #82CEAA",
"u. c #85CFAC",
"i. c #90CDAE",
"p. c #90CFAF",
"a. c #85D0AD",
"s. c #86D0AD",
"d. c #87D1AE",
"f. c #88D1AE",
"g. c #88D1AF",
"h. c #89D1AF",
"j. c #8BD1AF",
"k. c #89D2AF",
"l. c #8AD2B0",
"z. c #8BD2B0",
"x. c #8BD2B1",
"c. c #8BD3B1",
"v. c #8DD3B2",
"b. c #8DD4B2",
"n. c #8ED4B3",
"m. c #8FD4B3",
"M. c #91D6B5",
"N. c #92D6B5",
"B. c #92D6B6",
"V. c #93D7B6",
"C. c #95D8B8",
"Z. c #96D8B8",
"A. c #97D9B9",
"S. c #98D9BA",
"D. c #99DABA",
"F. c #99DABB",
"G. c #A3DCBF",
"H. c #F8D0B8",
"J. c #A2DFC1",
"K. c #A3DFC1",
"L. c #A3DFC2",
"P. c #A4DFC1",
"I. c #A8C8D8",
"U. c #A3E0C2",
"Y. c #A4E0C2",
"T. c #A4E0C3",
"R. c #A5E1C3",
"E. c #A5E1C4",
"W. c #A6E1C4",
"Q. c #C8C8C8",
/* pixels */
"$.$.$.$.$.$.$.$.$.$.$.$.$.$.$.$.$.$.$.$.$.$.$.$.$.$.$.$.$.$.$.$.$.$.$.$.$.$.$.$.$.$.$.$.$.$.$.$.",
"$.$.$.$.$.$.$.$.$.$.$.$.$.$.$.$.$.$.$.$.$.$.$.$.$.$.$.$.$.$.$.$.$.$.$.$.$.$.$.$.$.$.$.$.$.$.$.$.",
"$.$.$.$.$.$.$.$.$.$.$.$.$.$.$.$.$.$.$.$.$.$.$.$.$.$.$.$.$.$.$.$.$.$.$.$.$.$.$.$.$.$.$.$.$.$.$.$.",
"$.$.$.$.$.$.$.$.$.$.$.$.$.$.$.$.$.$.$.$.$.$.$.$.$.$.$.$.$.$.$.$.$.$.$.$.$.$.$.$.$.$.$.$.$.$.$.$.",
"$.$.$.$.$.$.$.$.$.$.$.$.$.$.$.$.$.$.$.$.$.$.$.$.$.$.$.$.$.$.$.$.$.$.$.$.$.$.$.$.$.$.$.$.$.$.$.$.",
"$.$.$.$.$.$.$.$.$.$.$.$.#.{ O.$.$.$.$.$.$.$.$.$.$.$.$.$.$.$.$.$.$.$.$.$.$.$.$.$.$.$.$.$.$.$.$.$.",
"$.$.$.$.$.$.$.$.$.$.$.<.~ b I 1.$.$.$.$.$.$.$.$.$.$.$.$.$.$.$.$.$.$.$.$.$.$.$.$.$.$.$.$.$.$.$.$.",
"$.$.$.$.$.$.$.$.$.$.$.<.^ N T 1.$.$.$.$.$.$.$.$.$.$.$.$.$.$.$.$.$.$.$.$.$.$.$.$.$.$.$.$.$.$.$.$.",
"$.$.$.$.$.$.$.$.$.$.$.<.^ N T 1.$.$.$.$.$.$.$.$.$.$.$.$.$.$.$.$.$.$.$.$.$.$.$.$.$.$.$.$.$.$.$.$.",
"$.$.#.` [ $.$.$.$.$.$.<.^ N T 1.$.$.$.$.O.` ` ` O.;.;.;.;.$.$.$.$.$.$.$.$.$.$.$.$.$.$.$.$.$.$.$.",
"$.$.) b S 1.$.$.$.$.$.<.^ N T 1.$.$.$.<.W m B m E s e e e &.$.$.$.$.$.$.$.$.$.$.$.$.$.$.$.$.$.$.",
"$.$.` N G 1.$.$.$.$.$.<.^ N T 1.$.$.$.<.Q V g p h ! I.I.c -.$.$.$.$.$.$.$.$.$.$.$.$.$.$.$.$.$.$.",
"$.$.` M F 2.=.=.$.$.$.<.~ M Y 1.$.$.$.>.r e ! I.I.I.I.e -.$.$.$.$.$.$.$.$.$.$.$.$.$.$.$.$.$.$.$.",
"$.$.' D U ) ( ( ` $.$.=./ A E <.$.$.{ d I.I.I.I.I.! e e  .;.$.$.$.$.$.$.$.$.$.$.$.$.$.$.$.$.$.$.",
"$.$.$.2.` n B N H 1.$.$.=.1.<.$.$.,.  I.I.I.I.I.I.I.I.I.e a  .$.$.$.$.$.$.$.$.$.$.$.$.$.$.$.$.$.",
"$.$.$.=.) B Z C L 1.$.$.$.$.$.$.$.@ ! I.I.I.I.I.I.I.I.I.I.! f $.$.$.$.$.$.$.$.$.$.$.$.$.$.$.$.$.",
"$.$.$.=.( N C V K 1.$.$.$.$.$.$.$.o I.I.I.I.I.I.I.I.I.I.I.I.I.y ;.$.$.$.$.$.$.$.$.$.$.$.$.$.$.$.",
"$.$.$.$.` J P L R <.$.$.$.$.$.$.1 ! I.I.I.I.I.I.I.I.I.I.I.! I.I.u ;.$.$.$.$.$.$.$.$.$.$.$.$.$.$.",
"$.$.$.$.$.1.1.1.<.$.$.$.$.$.$.$.- I.I.I.I.I.I.I.I.I.I.I.I.I.e ! I.O &.$.$.$.$.$.$.$.$.$.$.$.$.$.",
"$.$.$.$.$.$.$.$.$.$.$.$.$.$.$.;.t I.I.I.I.I.I.I.I.I.I.I.I.I.! e     | $.$.$.$.$.$.$.$.$.$.$.$.$.",
"$.$.$.$.$.$.$.$.$.$.$.$.$.$.*.  I.I.I.e I.I.I.I.I.I.I.I.I.I.! i *.$.$.$.$.$.$.$.$.$.$.$.$.$.$.$.",
"$.$.$.$.$.$.$.$.$.$.$.$.$.$.-.e I.I.e ! I.I.I.I.I.I.I.I.I.! ! ! + -.$.$.$.$.$.$.$.$.$.$.$.$.$.$.",
"$.$.$.$.$.$.$.$.$.$.$.$.$.$.* I.I.e ! ! ! ! I.I.I.I.I.! e ! ! ! !   &.$.$.$.$.$.$.$.$.$.$.$.$.$.",
"$.$.$.$.$.$.$.$.$.$.$.$.$.%.> >   ! ! ! ! ! ! ! ! ! ! ! ! e ! !     %.$.$.$.$.$.$.$.$.$.$.$.$.$.",
"$.$.$.$.$.$.$.$.$.$.$.$.$.$.$.*.. $ f ! ! ! ! ! ! ! ! ! ! ! , , X.$.$.$.$.$.$.$.$.$.$.$.$.$.$.$.",
"$.$.$.$.$.$.$.$.$.$.$.$.$.$.$.$.$.$...    ! ! ! ! ! ! !   O $.$.$.$.$.$.$.$.$.$.$.$.$.$.$.$.$.$.",
"$.$.$.$.$.+.+.+.+.$.$.$.$.$.$.$.$.$.9 5 5     ! ! !     5 5 :.$.$.$.$.$.$.$.$.$.$.$.$.$.$.$.$.$.",
"$.$.$.$.$.+.+.+.+.$.$.$.$.$.$.$.;.8 w Q.w w 5       5 w w Q.7 $.$.$.$.$.$.$.$.$.$.$.$.$.$.$.$.$.",
"$.$.$.$.$.+.+.+.+.$.$.$.$.$.$.$.k v w w w.w w 5 5 5 w w w.w q O.O.O.#.$.$.$.$.$.$.$.$.$.$.$.$.$.",
"$.$.$.$.$.+.+.+.$.$.$.$.$.$.$.$.z v v 5   w w w w w w   w w x i.l.c.7.#.$.$.$.$.$.$.$.$.$.$.$.$.",
"$.$.$.$.$.$.$.$.$.$.$.$.$.$.$.$.$.6 5 &.O w w w w w w   w H.H.j P.E.s.O.$.$.$.$.$.$.$.$.$.$.$.$.",
"$.$.$.$.$.$.$.$.$.$.$.$.$.$.$.$.$.$.$.&.    w w w w w     v v l G.Y.s.O.$.$.$.$.$.$.$.$.$.$.$.$.",
"$.$.$.$.$.$.$.$.$.$.$.$.$.$.$.$.$.$.$.& w w           5   # 0 L.J.Y.s.O.$.$.$.$.O.O.O.O.#.$.$.$.",
"$.$.$.$.$.$.$.$.$.$.$.$.$.$.$.$.$.$.$.; w w w w 5 5 5 , 4 } M.U.J.Y.s.O.$.$.$.O.d.n.b.m.4.#.$.$.",
"$.$.$.$.$.$.$.$.$.$.$.$.$.$.$.$.$.$.$.3 5 w w 5     < $.$.} M.U.J.Y.s.O.$.$.$.} F.T.U.W.q.@.$.$.",
"$.$.$.$.$.$.$.$.$.$.$.$.$.$.$.$.$.$.$.+.X 5 5 % p.o.$.$.$.} M.U.J.Y.s.O.$.$.$.} S.L.J.T.0.@.$.$.",
"$.$.$.$.$.$.$.$.$.$.$.$.$.$.$.$.$.$.$.O.: w w = v.O.$.$.$.} M.U.J.Y.s.O.$.$.$.} S.L.J.T.0.@.$.$.",
"$.$.$.$.$.$.$.$.$.$.$.$.$.$.$.$.$.$.$.O.j.2   K.v.O.$.$.$.} M.U.J.Y.s.O.$.$.$.} S.L.J.T.0.@.$.$.",
"$.$.$.$.$.$.$.$.$.$.$.$.$.$.$.$.$.$.$.O.x.R.Y.R.v.] } } +.} B.R.Y.W.s.O.O.} } _ D.T.Y.W.q.@.$.$.",
"$.$.$.$.$.$.$.$.$.$.$.$.$.$.$.$.$.$.$.#.9.h.g.f.v.N.N.V.y.O.e.h.g.h.5.O.h.B.N.B.z.f.g.k.3.$.$.$.",
"$.$.$.$.$.$.$.$.$.$.$.$.$.$.$.$.$.$.$.$.#.O.O.[ v.R.U.R.z.O.@.O.O.O.#.} Z.T.U.R.e.} O.O.$.$.$.$.",
"$.$.$.$.$.$.$.$.$.$.$.$.$.$.$.$.$.$.$.$.$.$.$.O.v.U.J.Y.l.O.$.$.$.$.$.} C.U.J.T.r.+.$.$.$.$.$.$.",
"$.$.$.$.$.$.$.$.$.$.$.$.$.$.$.$.$.$.$.$.$.$.$.O.n.R.Y.E.x.O.$.$.$.$.$.} A.R.Y.W.t.+.$.$.$.$.$.$.",
"$.$.$.$.$.$.$.$.$.$.$.$.$.$.$.$.$.$.$.$.$.$.$.#.8.s.u.s.6.#.$.$.$.$.$.@.e.a.u.s.4.$.$.$.$.$.$.$.",
"$.$.$.$.$.$.$.$.$.$.$.$.$.$.$.$.$.$.$.$.$.$.$.$.#.O.O.O.#.$.$.$.$.$.$.$.@.O.O.O.$.$.$.$.$.$.$.$.",
"$.$.$.$.$.$.$.$.$.$.$.$.$.$.$.$.$.$.$.$.$.$.$.$.$.$.$.$.$.$.$.$.$.$.$.$.$.$.$.$.$.$.$.$.$.$.$.$.",
"$.$.$.$.$.$.$.$.$.$.$.$.$.$.$.$.$.$.$.$.$.$.$.$.$.$.$.$.$.$.$.$.$.$.$.$.$.$.$.$.$.$.$.$.$.$.$.$.",
"$.$.$.$.$.$.$.$.$.$.$.$.$.$.$.$.$.$.$.$.$.$.$.$.$.$.$.$.$.$.$.$.$.$.$.$.$.$.$.$.$.$.$.$.$.$.$.$."
};
