/* XPM */
static char *result[] = {
/* columns rows colors chars-per-pixel */
"48 48 183 2 ",
"   c black",
".  c #020705",
"X  c #040E09",
"o  c #07130D",
"O  c #0E1713",
"+  c #091811",
"@  c #0D1F17",
"#  c #0E2119",
"$  c #10241B",
"%  c #12271D",
"&  c #192C23",
"*  c #1A3328",
"=  c #1B3529",
"-  c #1C372B",
";  c #1F3D2F",
":  c #23392F",
">  c #203F31",
",  c #2B3F35",
"<  c #2C3F36",
"1  c #224233",
"2  c #234334",
"3  c #254637",
"4  c #303048",
"5  c #303249",
"6  c #502858",
"7  c #512B59",
"8  c #315947",
"9  c #315A48",
"0  c #394C54",
"q  c #384058",
"w  c #385870",
"e  c #395A71",
"r  c #3A5B71",
"t  c #3A5C71",
"y  c #3B5F72",
"u  c #3C6072",
"i  c #3D6373",
"p  c #3E6474",
"a  c #3E6574",
"s  c #3F6775",
"d  c #3A6A74",
"f  c #784040",
"g  c #784141",
"h  c #784543",
"j  c #7A4D49",
"k  c #78524B",
"l  c #78534C",
"z  c #78544C",
"x  c #7A564F",
"c  c #776457",
"v  c #447078",
"b  c #D84850",
"n  c #D79870",
"m  c #D89870",
"M  c #803890",
"N  c #3CAB85",
"B  c #3EAC86",
"V  c #3FAC86",
"C  c #40AD86",
"Z  c #41AD87",
"A  c #42AD87",
"S  c #43AE88",
"D  c #45AE88",
"F  c #46AF89",
"G  c #55AA86",
"H  c #5CAC89",
"J  c #4EB28C",
"K  c #4EB28D",
"L  c #4EB38D",
"P  c #50B38D",
"I  c #50B48E",
"U  c #52B48E",
"Y  c #52B48F",
"T  c #53B58F",
"R  c #54B58F",
"E  c #54B590",
"W  c #56B791",
"Q  c #57B791",
"!  c #58B791",
"~  c #59B892",
"^  c #5DBA94",
"/  c #5EBB95",
"(  c #61BC97",
")  c #63BD97",
"_  c #6FB895",
"`  c #7098B0",
"'  c #67C09A",
"]  c #68C09A",
"[  c #6AC19B",
"{  c #6CC39D",
"}  c #6DC39D",
"|  c #6DC49D",
" . c #6EC49E",
".. c #6FC49E",
"X. c #6EC59E",
"o. c #6FC59F",
"O. c #74C09C",
"+. c #70C59F",
"@. c #70C69F",
"#. c #75C59F",
"$. c #7FC19E",
"%. c #7DC39F",
"&. c #7EC29F",
"*. c #72C5A0",
"=. c #71C6A0",
"-. c #72C6A0",
";. c #72C7A0",
":. c #72C7A1",
">. c #73C7A1",
",. c #77C5A0",
"<. c #74C6A1",
"1. c #75C6A1",
"2. c #74C7A1",
"3. c #76C6A0",
"4. c #76C7A2",
"5. c #7EC3A0",
"6. c #79C4A0",
"7. c #78C5A0",
"8. c #79C5A0",
"9. c #7AC4A0",
"0. c #74C8A2",
"q. c #75C8A2",
"w. c #76C9A3",
"e. c #77C9A4",
"r. c #78C9A4",
"t. c #7BCAA6",
"y. c #7BCBA6",
"u. c #7CCBA6",
"i. c #7CCBA7",
"p. c #7DCBA7",
"a. c #7DCCA7",
"s. c #7ECCA8",
"d. c #888888",
"f. c #80CDA9",
"g. c #81CDAA",
"h. c #81CEAA",
"j. c #82CEAA",
"k. c #85CFAC",
"l. c #8ECFAF",
"z. c #85D0AD",
"x. c #86D0AD",
"c. c #87D1AE",
"v. c #88D1AE",
"b. c #88D1AF",
"n. c #89D1AF",
"m. c #8BD1AF",
"M. c #89D2AF",
"N. c #8AD2B0",
"B. c #8BD2B0",
"V. c #8BD2B1",
"C. c #8BD3B1",
"Z. c #8ED1B1",
"A. c #8DD3B2",
"S. c #8DD4B2",
"D. c #8ED4B3",
"F. c #8FD4B3",
"G. c #91D6B5",
"H. c #92D6B5",
"J. c #92D6B6",
"K. c #93D7B6",
"L. c #95D8B8",
"P. c #96D8B8",
"I. c #97D9B9",
"U. c #98D9BA",
"Y. c #99DABA",
"T. c #99DABB",
"R. c #A4DBBE",
"E. c #A3DDBF",
"W. c #A5DCBF",
"Q. c #F8D0B8",
"!. c #A2DEC0",
"~. c #A2DFC1",
"^. c #A3DFC2",
"/. c #A7C8D7",
"(. c #A8C8D8",
"). c #A3E0C2",
"_. c #A4E0C2",
"`. c #A4E0C3",
"'. c #A5E1C3",
"]. c #A5E1C4",
"[. c #A6E1C4",
"{. c #C8C8C8",
"}. c #E8E8F8",
/* pixels */
">.>.>.>.>.>.>.>.>.>.>.>.>.>.>.>.>.>.>.>.>.>.>.>.>.>.>.>.>.>.>.>.>.>.>.>.>.>.>.>.>.>.>.>.>.>.>.>.",
">.>.>.>.>.>.>.>.>.>.>.>.>.>.>.>.>.>.>.>.>.>.>.>.>.>.>.>.>.>.>.>.>.>.>.>.>.>.>.>.>.>.>.>.>.>.>.>.",
">.>.>.>.>.>.>.>.>.>.>.>.>.>.>.>.>.>.>.>.>.>.>.>.>.>.>.>.>.>.>.>.>.>.>.>.>.>.>.>.>.>.>.>.>.>.>.>.",
">.>.>.>.>.>.>.>.>.>.>.>.>.>.>.>.>.>.>.>.>.>.>.>.>.>.>.>.>.>.>.>.>.>.>.>.>.>.>.>.>.>.>.>.>.>.>.>.",
">.>.>.>.>.>.>.>.>.>.>.>.>.>.>.>.>.>.>.>.>.>.>.>.>.>.>.>.>.>.>.>.>.>.>.>.>.>.>.>.>.>.>.>.>.>.>.>.",
">.>.>.>.>.>.>.>.>.>.>.>.:.+.=.>.>.>.>.>.>.>.>.>.>.>.>.>.>.>.>.>.>.>.>.>.>.>.>.>.>.>.>.>.>.>.>.>.",
">.>.>.>.>.>.>.>.>.>.>.0.' N W q.>.>.>.>.>.>.>.>.>.>.>.>.>.>.>.>.>.>.>.>.>.>.>.>.>.>.>.>.>.>.>.>.",
">.>.>.>.>.>.>.>.>.>.>.0.] Z ~ q.>.>.>.>.>.>.>.>.>.>.>.>.>.>.>.>.>.>.>.>.>.>.>.>.>.>.>.>.>.>.>.>.",
">.>.>.>.>.>.>.>.>.>.>.0.] Z ~ q.>.>.>.>.>.>.>.>.>.>.>.>.>.>.>.>.>.>.>.>.>.>.>.>.>.>.>.>.>.>.>.>.",
">.>.:. .o.>.>.>.>.>.>.0.] Z ~ q.>.>.>.>.=. . . .=.>.>.>.>.>.>.>.>.>.>.>.>.>.>.>.>.>.>.>.>.>.>.>.",
">.>.} N K q.>.>.>.>.>.0.] Z ~ q.>.>.>.4.( V A V / 0.>.>.>.>.>.>.>.>.>.>.>.>.>.>.>.>.>.>.>.>.>.>.",
">.>. .Z I q.>.>.>.>.>.0.] Z ~ q.>.>.>.e w w d H _ 5.2.>.>.>.>.>.>.>.>.>.>.>.>.>.>.>.>.>.>.>.>.>.",
">.>. .C P w.2.2.>.>.>.0.' C ! q.>.>.,.p (.(.` w w w %.7.>.>.>.>.>.>.>.>.>.>.>.>.>.>.>.>.>.>.>.>.",
">.>...L Q } { {  .>.>.2.[ J / 0.>.>.+.O.w (.(.(.(.` w i 1.>.>.>.>.>.>.>.>.>.>.>.>.>.>.>.>.>.>.>.",
">.>.>.w. .B A Z U q.>.>.2.q.0.>.>.0.) G w w ` (.(.(.(.(.v >.>.>.>.>.>.>.>.>.>.>.>.>.>.>.>.>.>.>.",
">.>.>.2.} A F D R q.>.>.>.>.>.>.>.0.y w (.(.(.(.(.(.(.(./.8 &.2.>.>.>.>.>.>.>.>.>.>.>.>.>.>.>.>.",
">.>.>.2.{ Z D S T q.>.>.>.>.>.>.1.y ` (.(.(.(.(.(.(.(.(.(.`   <.>.>.>.>.>.>.>.>.>.>.>.>.>.>.>.>.",
">.>.>.>. .Y E R ^ 0.>.>.>.>.>.7.u (.(.(.(.(.(.` (.(.(.(.(.(.@ <.>.>.>.>.>.>.>.>.>.>.>.>.>.>.>.>.",
">.>.>.>.>.q.q.q.0.>.>.>.>.>.1.r (.(.` (.(.(.` (.(.(.` (.(.(.`   >.>.>.>.>.>.>.>.>.>.>.>.>.>.>.>.",
">.>.>.>.>.>.>.>.>.>.>.>.>.3.% (.` w (.(.(.w (.(.w (.w (.(.(.`   >.>.>.>.>.>.>.>.>.>.>.>.>.>.>.>.",
">.>.>.>.>.>.>.>.>.>.>.>.>.>.3 . w (.(.(.` ` (.w (.w Q.w (.w ` w 7.>.>.>.>.>.>.>.>.>.>.>.>.>.>.>.",
">.>.>.>.>.>.>.>.>.>.>.>.>.>.>.t ` (.(.` w (.w ` ` Q.Q.` (.w ` ` > >.>.>.>.>.>.>.>.>.>.>.>.>.>.>.",
">.>.>.>.>.>.>.>.>.>.>.>.>.>.9.  (.(.w Q.w w Q.Q.Q.Q.Q.` w ` ` ` s 7.>.>.>.>.>.>.>.>.>.>.>.>.>.>.",
">.>.>.>.>.>.>.>.>.>.>.>.>.>.X (.(.f Q.m w Q.Q.Q.Q.Q.w m Q.f ` ` ` 2 >.>.>.>.>.>.>.>.>.>.>.>.>.>.",
">.>.>.>.>.>.>.>.>.>.>.>.>.>.$ $ - k Q.m {.` Q.Q.Q.` {.m Q.f `   = 8 >.>.>.>.>.>.>.>.>.>.>.>.>.>.",
">.>.>.>.>.>.>.>.>.>.>.>.>.>.>.>.>.8.f m }.  Q.Q.Q.  }.m g a - - 9.>.>.>.>.>.>.>.>.>.>.>.>.>.>.>.",
">.>.>.>.>.-.-.-.-.>.>.>.>.>.>.>.>.3.  m Q.Q.Q.Q.Q.Q.Q.m * >.>.>.>.>.>.>.>.>.>.>.>.>.>.>.>.>.>.>.",
">.>.>.>.>.-.-.-.-.>.>.>.>.>.>.>.>.1.4 f m Q.Q.m Q.Q.m f 0 3.2.>.>.>.>.>.>.>.>.>.>.>.>.>.>.>.>.>.",
">.>.>.>.>.-.-.-.-.>.>.>.>.>.>.>.6.  {.q   f m m m f   q {.o $.*.=.=.:.>.>.>.>.>.>.>.>.>.>.>.>.>.",
">.>.>.>.>.-.-.-.>.>.>.>.>.>.>.,.  q q d.q }.f f f }.4 d.q q   l.N.C.u.:.>.>.>.>.>.>.>.>.>.>.>.>.",
">.>.>.>.>.>.>.>.>.>.>.>.>.>.2.z m q q   M q b b b q M   q q m j _.].x.=.>.>.>.>.>.>.>.>.>.>.>.>.",
">.>.>.>.>.>.>.>.>.>.>.>.>.>.6.l n m 4   q M q b q M q   4 m m f !._.x.=.>.>.>.>.>.>.>.>.>.>.>.>.",
">.>.>.>.>.>.>.>.>.>.>.>.>.>.>.>.c k       M q   q M       h x R.~._.x.=.>.>.>.>.=.=.=.=.:.>.>.>.",
">.>.>.>.>.>.>.>.>.>.>.>.>.>.>.>.>.3.  4 6 4 4   4 4 6 4 1 @.G.).~._.x.=.>.>.>.=.c.D.S.F.r.:.>.>.",
">.>.>.>.>.>.>.>.>.>.>.>.>.>.>.>.>.3.    4 7 , < : 6 4   3 @.G.).~._.x.=.>.>.>.@.T.`.).[.s.;.>.>.",
">.>.>.>.>.>.>.>.>.>.>.>.>.>.>.>.>.3.o 4 4 O E.).Z.; 4 5 9 @.G.).~._.x.=.>.>.>.@.U.^.~.`.a.;.>.>.",
">.>.>.>.>.>.>.>.>.>.>.>.>.>.>.>.>.>.2.# & W.~.).A.#.+ > >.@.G.).~._.x.=.>.>.>.@.U.^.~.`.a.;.>.>.",
">.>.>.>.>.>.>.>.>.>.>.>.>.>.>.>.>.>.>.=.m._.~.).A.=.>.>.>.@.G.).~._.x.=.>.>.>.@.U.^.~.`.a.;.>.>.",
">.>.>.>.>.>.>.>.>.>.>.>.>.>.>.>.>.>.>.=.V.'._.'.A.X.@.@.-.@.J.'._.[.x.=.=.@.@.| Y.`._.[.s.;.>.>.",
">.>.>.>.>.>.>.>.>.>.>.>.>.>.>.>.>.>.>.:.p.n.b.v.A.H.H.K.j.=.f.n.b.n.t.=.n.J.H.J.B.v.b.M.e.>.>.>.",
">.>.>.>.>.>.>.>.>.>.>.>.>.>.>.>.>.>.>.>.:.=.=.o.A.'.).'.B.=.;.=.=.=.:.@.P.`.).'.f.@.=.=.>.>.>.>.",
">.>.>.>.>.>.>.>.>.>.>.>.>.>.>.>.>.>.>.>.>.>.>.=.A.).~._.N.=.>.>.>.>.>.@.L.).~.`.g.-.>.>.>.>.>.>.",
">.>.>.>.>.>.>.>.>.>.>.>.>.>.>.>.>.>.>.>.>.>.>.=.D.'._.].V.=.>.>.>.>.>.@.I.'._.[.h.-.>.>.>.>.>.>.",
">.>.>.>.>.>.>.>.>.>.>.>.>.>.>.>.>.>.>.>.>.>.>.:.i.x.k.x.y.:.>.>.>.>.>.;.f.z.k.x.r.>.>.>.>.>.>.>.",
">.>.>.>.>.>.>.>.>.>.>.>.>.>.>.>.>.>.>.>.>.>.>.>.:.=.=.=.:.>.>.>.>.>.>.>.;.=.=.=.>.>.>.>.>.>.>.>.",
">.>.>.>.>.>.>.>.>.>.>.>.>.>.>.>.>.>.>.>.>.>.>.>.>.>.>.>.>.>.>.>.>.>.>.>.>.>.>.>.>.>.>.>.>.>.>.>.",
">.>.>.>.>.>.>.>.>.>.>.>.>.>.>.>.>.>.>.>.>.>.>.>.>.>.>.>.>.>.>.>.>.>.>.>.>.>.>.>.>.>.>.>.>.>.>.>.",
">.>.>.>.>.>.>.>.>.>.>.>.>.>.>.>.>.>.>.>.>.>.>.>.>.>.>.>.>.>.>.>.>.>.>.>.>.>.>.>.>.>.>.>.>.>.>.>."
};
