/* XPM */
static char *result[] = {
/* columns rows colors chars-per-pixel */
"48 48 156 2 ",
"   c black",
".  c #020705",
"X  c #040E09",
"o  c #07130D",
"O  c #091811",
"+  c #0D1F17",
"@  c #10241B",
"#  c #14291F",
"$  c #1A2720",
"%  c #1C372B",
"&  c #25372E",
"*  c #203F31",
"=  c #303048",
"-  c #384058",
";  c #385870",
":  c #385970",
">  c #395A70",
",  c #395A71",
"<  c #395B71",
"1  c #3A5B71",
"2  c #3A5C71",
"3  c #3A5D71",
"4  c #3A5D72",
"5  c #3C6072",
"6  c #784040",
"7  c #784341",
"8  c #784E48",
"9  c #78574F",
"0  c #426C77",
"q  c #D84850",
"w  c #D89870",
"e  c #CCA17A",
"r  c #803890",
"t  c #3CAB85",
"y  c #3EAC86",
"u  c #3FAC86",
"i  c #40AD86",
"p  c #41AD87",
"a  c #42AD87",
"s  c #43AE88",
"d  c #44AE88",
"f  c #45AE88",
"g  c #46AF89",
"h  c #4EB28C",
"j  c #4EB28D",
"k  c #4EB38D",
"l  c #50B38D",
"z  c #50B48E",
"x  c #52B48E",
"c  c #52B48F",
"v  c #53B58F",
"b  c #54B58F",
"n  c #54B590",
"m  c #56B791",
"M  c #57B791",
"N  c #58B791",
"B  c #59B892",
"V  c #5DBA94",
"C  c #5EBB95",
"Z  c #60BB96",
"A  c #61BC97",
"S  c #62BD97",
"D  c #63BD97",
"F  c #69BC97",
"G  c #7098B0",
"H  c #67C09A",
"J  c #68C09A",
"K  c #6AC19B",
"L  c #6CC39D",
"P  c #6DC39D",
"I  c #6DC49D",
"U  c #6EC49E",
"Y  c #6FC49E",
"T  c #6EC59E",
"R  c #6FC59F",
"E  c #70C59F",
"W  c #72C59F",
"Q  c #70C69F",
"!  c #74C59E",
"~  c #77C49F",
"^  c #75C69F",
"/  c #7CC39F",
"(  c #7DC39F",
")  c #7AC49F",
"_  c #71C6A0",
"`  c #72C6A0",
"'  c #72C7A0",
"]  c #72C7A1",
"[  c #73C7A1",
"{  c #77C5A0",
"}  c #74C6A1",
"|  c #75C6A1",
" . c #74C7A1",
".. c #76C6A0",
"X. c #76C6A1",
"o. c #78C5A0",
"O. c #79C5A0",
"+. c #79C6A1",
"@. c #7AC6A1",
"#. c #74C8A2",
"$. c #75C8A2",
"%. c #76C9A3",
"&. c #77C9A4",
"*. c #78C9A4",
"=. c #7BCAA6",
"-. c #7BCBA6",
";. c #7CCBA6",
":. c #7CCBA7",
">. c #7DCBA7",
",. c #7DCCA7",
"<. c #7ECCA8",
"1. c #7FCDA9",
"2. c #888888",
"3. c #80C19E",
"4. c #80CDA9",
"5. c #81CDAA",
"6. c #81CEAA",
"7. c #82CEAA",
"8. c #85CFAC",
"9. c #85D0AD",
"0. c #86D0AD",
"q. c #87D1AE",
"w. c #88D1AE",
"e. c #88D1AF",
"r. c #89D1AF",
"t. c #89D2AF",
"y. c #8AD2B0",
"u. c #8BD2B0",
"i. c #8BD2B1",
"p. c #8BD3B1",
"a. c #8DD3B2",
"s. c #8DD4B2",
"d. c #8ED4B3",
"f. c #8FD4B3",
"g. c #91D6B5",
"h. c #92D6B5",
"j. c #92D6B6",
"k. c #93D7B6",
"l. c #95D8B8",
"z. c #96D8B8",
"x. c #97D9B9",
"c. c #98D9BA",
"v. c #99DABA",
"b. c #99DABB",
"n. c #F8D0B8",
"m. c #A2DFC1",
"M. c #A3DFC2",
"N. c #A8C8D8",
"B. c #A3E0C2",
"V. c #A4E0C2",
"C. c #A4E0C3",
"Z. c #A5E1C3",
"A. c #A5E1C4",
"S. c #A6E1C4",
"D. c #C8C8C8",
"F. c #E8E8F8",
/* pixels */
"[ [ [ [ [ [ [ [ [ [ [ [ [ [ [ [ [ [ [ [ [ [ [ [ [ [ [ [ [ [ [ [ [ [ [ [ [ [ [ [ [ [ [ [ [ [ [ [ ",
"[ [ [ [ [ [ [ [ [ [ [ [ [ [ [ [ [ [ [ [ [ [ [ [ [ [ [ [ [ [ [ [ [ [ [ [ [ [ [ [ [ [ [ [ [ [ [ [ ",
"[ [ [ [ [ [ [ [ [ [ [ [ [ [ [ [ [ [ [ [ [ [ [ [ [ [ [ [ [ [ [ [ [ [ [ [ [ [ [ [ [ [ [ [ [ [ [ [ ",
"[ [ [ [ [ [ [ [ [ [ [ [ [ [ [ [ [ [ [ [ [ [ [ [ [ [ [ [ [ [ [ [ [ [ [ [ [ [ [ [ [ [ [ [ [ [ [ [ ",
"[ [ [ [ [ [ [ [ [ [ [ [ [ [ [ [ [ [ [ [ [ [ [ [ [ [ [ [ [ [ [ [ [ [ [ [ [ [ [ [ [ [ [ [ [ [ [ [ ",
"[ [ [ [ [ [ [ [ [ [ [ [ ] E _ [ [ [ [ [ [ [ [ [ [ [ [ [ [ [ [ [ [ [ [ [ [ [ [ [ [ [ [ [ [ [ [ [ ",
"[ [ [ [ [ [ [ [ [ [ [ #.H t m $.[ [ [ [ [ [ [ [ [ [ [ [ [ [ [ [ [ [ [ [ [ [ [ [ [ [ [ [ [ [ [ [ ",
"[ [ [ [ [ [ [ [ [ [ [ #.J p B $.[ [ [ [ [ [ [ [ [ [ [ [ [ [ [ [ [ [ [ [ [ [ [ [ [ [ [ [ [ [ [ [ ",
"[ [ [ [ [ [ [ [ [ [ [ #.J p B $.[ [ [ [ [ [ [ [ [ [ [ [ [ [ [ [ [ [ [ [ [ [ [ [ [ [ [ [ [ [ [ [ ",
"[ [ ] U R [ [ [ [ [ [ #.J p B $.[ [ [ [ _ U U U _ [ [ [ [ [ [ [ [ [ [ [ [ [ [ [ [ [ [ [ [ [ [ [ ",
"[ [ P t j $.[ [ [ [ [ #.J p B $.[ [ [ #.A u a u C #.[ [ [ [ [ [ [ [ [ [ [ [ [ [ [ [ [ [ [ [ [ [ ",
"[ [ U p z $.[ [ [ [ [ #.J p B $.[ [ [ #.S s g d Z @., ; ; ; [ [ [ [ [ [ [ [ [ [ [ [ [ [ [ [ [ [ ",
"[ [ U i l %. . .[ [ [ #.H i N $.[ [ [ $.D a : ; ; ; G N.N.2 [ [ [ [ [ [ [ [ [ [ [ [ [ [ [ [ [ [ ",
"[ [ Y k M P L L U [ [  .K h C #.[ [ E L < ; G N.N.N.N.N.; o.[ [ [ [ [ [ [ [ [ [ [ [ [ [ [ [ [ [ ",
"[ [ [ %.U y a p x $.[ [  .$.#.[ [ #.F ; N.N.N.N.N.N.N.G ; ;  .[ [ [ [ [ [ [ [ [ [ [ [ [ [ [ [ [ ",
"[ [ [  .P a g f b $.[ [ [ [ [ [ [ #.4 G N.N.N.N.N.N.N.N.N.  O.[ [ [ [ [ [ [ [ [ [ [ [ [ [ [ [ [ ",
"[ [ [  .L p f s v $.[ [ [ [ [ [ [ +.3 N.N.N.N.N.N.N.N.N.G N.  { [ [ [ [ [ [ [ [ [ [ [ [ [ [ [ [ ",
"[ [ [ [ U c n b V #.[ [ [ [ [ [ [ # G N.N.N.N.G N.N.; N.N.G G @ ) [ [ [ [ [ [ [ [ [ [ [ [ [ [ [ ",
"[ [ [ [ [ $.$.$.#.[ [ [ [ [ [ [ [ + G G N.N.; N.N.N.; ; G N.G ; 3. .[ [ [ [ [ [ [ [ [ [ [ [ [ [ ",
"[ [ [ [ [ [ [ [ [ [ [ [ [ [ [ [ [ > G G N.N.G N.N.N.; w ; G G G 1 [ [ [ [ [ [ [ [ [ [ [ [ [ [ [ ",
"[ [ [ [ [ [ [ [ [ [ [ [ [ [ [  .O G G G G ; N.N.N.; n.n.w ; ; G 0 [ [ [ [ [ [ [ [ [ [ [ [ [ [ [ ",
"[ [ [ [ [ [ [ [ [ [ [ [ [ [ [ o.; G G G G ; N.N.; n.n.n.n.w . 5 | [ [ [ [ [ [ [ [ [ [ [ [ [ [ [ ",
"[ [ [ [ [ [ [ [ [ [ [ [ [ [ ..  G G G G G ; ; N.; n.n.; n.n.* [ [ [ [ [ [ [ [ [ [ [ [ [ [ [ [ [ ",
"[ [ [ [ [ [ [ [ [ [ [ [ [ [ }   G G ; G G G ; ; n.n.n.D.G n.9 [ [ [ [ [ [ [ [ [ [ [ [ [ [ [ [ [ ",
"[ [ [ [ [ [ [ [ [ [ [ [ [ [ [ X     G G ; n.w ; n.n.n.F.  n.9 [ [ [ [ [ [ [ [ [ [ [ [ [ [ [ [ [ ",
"[ [ [ [ [ [ [ [ [ [ [ [ [ [ [ [ [ o     ; w w w w n.n.n.n.n.e [ [ [ [ [ [ [ [ [ [ [ [ [ [ [ [ [ ",
"[ [ [ [ [ ` ` ` ` [ [ [ [ [ [ [ [ [ [ X.  ; 6 6 w w n.n.n.7  .[ [ [ [ [ [ [ [ [ [ [ [ [ [ [ [ [ ",
"[ [ [ [ [ ` ` ` ` [ [ [ [ [ [ [ [ [ [ [ [ ..  2.2.2.6 6 8 } [ [ [ [ [ [ [ [ [ [ [ [ [ [ [ [ [ [ ",
"[ [ [ [ [ ` ` ` ` [ [ [ [ [ [ [ [ [ [ [ [ ..  - = - q 6 / [ ` _ _ _ ] [ [ [ [ [ [ [ [ [ [ [ [ [ ",
"[ [ [ [ [ ` ` ` [ [ [ [ [ [ [ [ [ [ [ [ [ (   - 2.D.- q = ~ 7.i.y.p.;.] [ [ [ [ [ [ [ [ [ [ [ [ ",
"[ [ [ [ [ [ [ [ [ [ [ [ [ [ [ [ [ [ [ [  .  -   - - - r = ! j.Z.V.A.0._ [ [ [ [ [ [ [ [ [ [ [ [ ",
"[ [ [ [ [ [ [ [ [ [ [ [ [ [ [ [ [ [ [ [ |   =   n.n.  r   W g.B.m.V.0._ [ [ [ [ [ [ [ [ [ [ [ [ ",
"[ [ [ [ [ [ [ [ [ [ [ [ [ [ [ [ [ [ [ [ ^   =   w w   = . Q g.B.m.V.0._ [ [ [ [ _ _ _ _ ] [ [ [ ",
"[ [ [ [ [ [ [ [ [ [ [ [ [ [ [ [ [ [ [ ' 1.d.  =     =   [ Q g.B.m.V.0._ [ [ [ _ q.d.s.f.*.] [ [ ",
"[ [ [ [ [ [ [ [ [ [ [ [ [ [ [ [ [ [ [ _ u.Z.& = = = = % [ Q g.B.m.V.0._ [ [ [ Q b.C.B.S.<.' [ [ ",
"[ [ [ [ [ [ [ [ [ [ [ [ [ [ [ [ [ [ [ _ y.V.m.$     O [ [ Q g.B.m.V.0._ [ [ [ Q c.M.m.C.,.' [ [ ",
"[ [ [ [ [ [ [ [ [ [ [ [ [ [ [ [ [ [ [ _ y.V.m.B.a._ [ [ [ Q g.B.m.V.0._ [ [ [ Q c.M.m.C.,.' [ [ ",
"[ [ [ [ [ [ [ [ [ [ [ [ [ [ [ [ [ [ [ _ y.V.m.B.a._ [ [ [ Q g.B.m.V.0._ [ [ [ Q c.M.m.C.,.' [ [ ",
"[ [ [ [ [ [ [ [ [ [ [ [ [ [ [ [ [ [ [ _ i.Z.V.Z.a.T Q Q ` Q j.Z.V.S.0._ _ Q Q I v.C.V.S.<.' [ [ ",
"[ [ [ [ [ [ [ [ [ [ [ [ [ [ [ [ [ [ [ ] >.r.e.w.a.h.h.k.7._ 4.r.e.r.=._ r.j.h.j.u.w.e.t.&.[ [ [ ",
"[ [ [ [ [ [ [ [ [ [ [ [ [ [ [ [ [ [ [ [ ] _ _ R a.Z.B.Z.u._ ' _ _ _ ] Q z.C.B.Z.4.Q _ _ [ [ [ [ ",
"[ [ [ [ [ [ [ [ [ [ [ [ [ [ [ [ [ [ [ [ [ [ [ _ a.B.m.V.y._ [ [ [ [ [ Q l.B.m.C.5.` [ [ [ [ [ [ ",
"[ [ [ [ [ [ [ [ [ [ [ [ [ [ [ [ [ [ [ [ [ [ [ _ d.Z.V.A.i._ [ [ [ [ [ Q x.Z.V.S.6.` [ [ [ [ [ [ ",
"[ [ [ [ [ [ [ [ [ [ [ [ [ [ [ [ [ [ [ [ [ [ [ ] :.0.8.0.-.] [ [ [ [ [ ' 4.9.8.0.*.[ [ [ [ [ [ [ ",
"[ [ [ [ [ [ [ [ [ [ [ [ [ [ [ [ [ [ [ [ [ [ [ [ ] _ _ _ ] [ [ [ [ [ [ [ ' _ _ _ [ [ [ [ [ [ [ [ ",
"[ [ [ [ [ [ [ [ [ [ [ [ [ [ [ [ [ [ [ [ [ [ [ [ [ [ [ [ [ [ [ [ [ [ [ [ [ [ [ [ [ [ [ [ [ [ [ [ ",
"[ [ [ [ [ [ [ [ [ [ [ [ [ [ [ [ [ [ [ [ [ [ [ [ [ [ [ [ [ [ [ [ [ [ [ [ [ [ [ [ [ [ [ [ [ [ [ [ ",
"[ [ [ [ [ [ [ [ [ [ [ [ [ [ [ [ [ [ [ [ [ [ [ [ [ [ [ [ [ [ [ [ [ [ [ [ [ [ [ [ [ [ [ [ [ [ [ [ "
};
