/* XPM */
static char *result[] = {
/* columns rows colors chars-per-pixel */
"48 48 168 2 ",
"   c #140F0B",
".  c #13131B",
"X  c #10241B",
"o  c #151523",
"O  c #1A2720",
"+  c #1B202E",
"@  c #212233",
"#  c #252639",
"$  c #223F31",
"%  c #2A393F",
"&  c #703D3D",
"*  c #2A4337",
"=  c #2E2E45",
"-  c #253944",
";  c #2F3449",
":  c #31334B",
">  c #31384E",
",  c #353C53",
"<  c #643C52",
"1  c #4C3E65",
"2  c #33494A",
"3  c #2D5443",
"4  c #345244",
"5  c #345D4A",
"6  c #344651",
"7  c #364856",
"8  c #3B545F",
"9  c #3E595B",
"0  c #386354",
"q  c #3F705C",
"w  c #3B5567",
"e  c #3A5A70",
"r  c #3F6975",
"t  c #484B50",
"y  c #50535B",
"u  c #7A4342",
"i  c #68405E",
"p  c #6A5655",
"a  c #785A51",
"s  c #43725C",
"d  c #445B70",
"f  c #6A497D",
"g  c #447565",
"h  c #567E6B",
"j  c #46657B",
"k  c #476C7F",
"l  c #546678",
"z  c #48767B",
"x  c #5E757C",
"c  c #6E6161",
"v  c #65666C",
"b  c #7B6C65",
"n  c #636C7C",
"m  c #A74B4F",
"M  c #8C624B",
"N  c #976A50",
"B  c #AB406C",
"V  c #826068",
"C  c #976E63",
"Z  c #867574",
"A  c #977C74",
"S  c #488268",
"D  c #528B74",
"F  c #5C8974",
"G  c #539275",
"H  c #559578",
"J  c #BD8461",
"K  c #AD8F7F",
"L  c #B18D7D",
"P  c #C48766",
"I  c #CF926D",
"U  c #CD9372",
"Y  c #CC987B",
"T  c #DDA17C",
"R  c #773988",
"E  c #54778E",
"W  c #5B778B",
"Q  c #567990",
"!  c #5A7E95",
"~  c #7D7E85",
"^  c #3DAB85",
"/  c #4B8582",
"(  c #55868A",
")  c #4D9283",
"_  c #549286",
"`  c #589789",
"'  c #5B9C8B",
"]  c #5C8893",
"[  c #63859B",
"{  c #65899F",
"}  c #6D8D9E",
"|  c #6F9B9E",
" . c #41AD87",
".. c #45AE88",
"X. c #56A181",
"o. c #5DA484",
"O. c #5EA28C",
"+. c #4EB28D",
"@. c #52B48E",
"#. c #56B691",
"$. c #58B791",
"%. c #5AB993",
"&. c #64AD8C",
"*. c #76A587",
"=. c #66B28F",
"-. c #67B196",
";. c #69B494",
":. c #69B799",
">. c #6CBA9A",
",. c #668CA3",
"<. c #688EA4",
"1. c #6D95AD",
"2. c #7496AA",
"3. c #7E9BAC",
"4. c #7098B0",
"5. c #7CA2B8",
"6. c #67C09A",
"7. c #6CC39D",
"8. c #71C59F",
"9. c #73C7A1",
"0. c #75C8A2",
"q. c #7BCBA6",
"w. c #7ECCA8",
"e. c #88868A",
"r. c #94898A",
"t. c #9E908E",
"y. c #A58D87",
"u. c #B99182",
"i. c #B99985",
"p. c #A79996",
"a. c #A0B892",
"s. c #819EAF",
"d. c #819FB0",
"f. c #86A7BB",
"g. c #8CABBC",
"h. c #93AFBF",
"j. c #B5AFAF",
"k. c #A2A9B2",
"l. c #D3AC98",
"z. c #E9B89B",
"x. c #DAB7A2",
"c. c #89C3A7",
"v. c #82CEAA",
"b. c #86D0AD",
"n. c #89D1AF",
"m. c #8CD3B1",
"M. c #92D6B5",
"N. c #96D8B8",
"B. c #98D9BA",
"V. c #EAC2AB",
"C. c #F3C9AF",
"Z. c #ECCAB6",
"A. c #F4CCB4",
"S. c #F8CFB7",
"D. c #F7D2BD",
"F. c #F8D0B8",
"G. c #8EB1C4",
"H. c #93B3C4",
"J. c #94B6C9",
"K. c #96B8CA",
"L. c #9BBBCC",
"P. c #A2DFC1",
"I. c #A3C3D4",
"U. c #A8C8D8",
"Y. c #A4E0C3",
"T. c #D1D2DE",
"R. c #EFD2C6",
"E. c #F3D4C6",
/* pixels */
"9.9.9.9.9.9.9.9.9.9.9.9.9.9.9.9.9.9.9.9.9.9.9.9.9.9.9.9.9.9.9.9.9.9.9.9.9.9.9.9.9.9.9.9.9.9.9.9.",
"9.9.9.9.9.9.9.9.9.9.9.9.9.9.0.9.9.9.9.9.9.9.9.9.9.9.9.9.9.9.9.9.9.9.9.9.9.9.9.9.9.9.9.9.9.9.9.9.",
"9.9.9.9.9.9.9.9.9.9.9.9.9.9.9.9.9.9.9.9.9.9.9.9.9.9.9.9.9.9.9.9.9.9.9.9.9.9.9.9.9.9.9.9.9.9.9.9.",
"9.9.9.9.9.9.9.9.9.9.9.9.9.9.9.9.9.9.9.9.9.9.9.0.9.9.0.9.9.9.9.9.9.9.9.9.9.9.9.0.9.9.9.9.0.9.9.9.",
"9.9.9.9.9.9.9.9.9.9.9.9.9.9.9.9.9.9.9.9.9.9.9.9.9.9.9.9.9.0.9.9.9.9.0.9.9.9.9.9.9.9.9.9.9.9.9.9.",
"9.9.9.9.9.9.9.9.9.9.9.9.9.8.9.9.9.9.9.9.9.9.9.9.9.9.9.9.9.9.9.9.9.9.9.9.9.9.9.9.9.9.9.9.9.9.9.9.",
"9.9.9.9.9.9.9.9.9.9.9.9.6.^ %.9.9.9.9.9.9.9.9.9.9.0.9.9.9.9.9.9.9.9.9.9.9.9.9.9.9.9.0.9.9.9.9.9.",
"9.9.9.9.9.9.9.9.9.9.9.9.6. .%.9.9.0.9.9.9.9.9.9.9.9.9.9.9.9.9.9.9.9.9.9.9.9.9.9.9.9.9.9.9.9.9.9.",
"9.9.9.9.9.9.9.9.9.9.9.0.6. .%.9.9.9.9.9.9.8.9.8.9.9.9.9.9.9.9.9.9.9.9.9.9.9.9.0.9.9.9.0.9.9.9.9.",
"9.9.9.9.8.9.9.9.9.9.9.0.6. .%.9.9.9.9.` ` _ _ :.9.9.9.9.9.9.9.9.9.9.9.9.9.9.9.9.9.9.9.9.9.9.9.9.",
"9.9.7.^ +.9.9.9.9.9.9.0.6. .%.0.9.9.9.r 3.d.[ / ) ' ' ;.9.9.9.9.9.9.9.0.9.9.9.9.9.9.9.9.9.9.9.9.",
"9.9.7. .@.9.9.9.9.9.9.0.6...%.0.9.9.9.O.3.I.J.5.3.3.{ ] O.-.9.9.9.9.9.9.9.9.9.9.9.9.9.9.9.9.9.9.",
"9.9.8. .+.0.9.9.9.9.9.0.6.^ %.0.9.9.9.9.j g.I.U.U.U.L.5.2.| -.8.9.9.9.9.9.9.9.9.9.9.9.9.9.9.9.9.",
"9.9.7.@.%.7.7.7.8.9.9.9.7.+.%.0.9.9.7.o.} f.I.U.U.U.U.U.U.h.] ;.9.9.9.9.9.9.9.9.9.9.9.9.9.0.9.9.",
"9.9.9.0.7.^ ....+.0.9.9.9.9.0.9.9.9.X.x J.I.U.U.U.U.U.U.U.L.2.D 8.0.9.9.9.9.9.0.9.9.9.9.9.9.9.9.",
"9.9.9.9.7.......#.9.9.9.9.9.9.9.9.&.8 L.f.I.K.I.U.I.I.U.U.U.G.( ;.9.9.9.9.9.9.9.9.9.9.9.9.9.9.9.",
"9.9.9.9.>. .....#.0.9.9.9.9.9.9.>.- 4.5.L.L.W H.U.G.G.I.U.I.J.[ 5 8.8.8.0.9.9.9.9.9.9.9.9.9.9.9.",
"9.9.9.9.8.@.#.$.%.0.9.9.9.9.9.9.:.k 4.I.4.n d H.U.U.3.d.U.K.4.[ 0 8.0.0.9.9.9.9.9.9.9.9.9.9.9.9.",
"9.9.9.9.9.0.0.0.0.9.9.9.9.9.9.>.j 1.1.1.l U Z h.U.U.G.G.I.J.4.,.E >.9.9.9.9.0.9.9.0.9.9.9.9.9.9.",
"9.0.9.9.9.9.9.9.9.9.9.9.9.9.9.>.k 1.e e U C.D.r.g.U.U.d.Q 4.4.4.[ 3 9.9.9.9.8.0.9.9.9.9.9.9.9.9.",
"9.9.9.9.9.9.9.9.9.9.9.9.9.9.9.9.>.e . I C.S.D.A.y.g.U.s.Q 4.4.4.,.z 9.9.9.9.9.9.9.9.9.9.9.9.9.9.",
"9.9.9.9.9.9.9.9.9.9.9.9.9.9.9.9.9.>.  C.A.r.V.F.t.f.s.j Q 4.4.4.4.,.5 9.9.9.9.9.9.9.9.9.9.9.9.9.",
"9.9.9.9.9.9.9.9.9.9.9.9.9.9.9.9.9.8.& A.k.j.Z.F.V.p.j Q 1.4.,.E 4.<.$ 9.0.9.9.9.9.9.9.9.9.9.9.9.",
"9.9.9.9.9.9.9.9.9.9.9.9.9.9.9.9.9.8.u A.c T.E.E.F.p.C l.j.! 1.! 7 6 $ 9.9.9.9.9.9.9.9.9.9.9.9.0.",
"9.9.9.9.9.9.9.9.9.9.9.9.9.9.9.9.q.>.P A.x.R.F.S.z.Y U l.L w w 7 3 &.=.9.9.9.9.9.9.9.9.9.9.9.9.9.",
"9.9.9.0.9.9.9.9.9.9.9.9.9.9.9.9.9.9.a.L A.S.S.z.T J N C a g &.o.$.9.8.9.9.9.9.9.9.9.9.9.9.9.9.9.",
"9.9.9.9.9.8.9.9.9.9.9.9.9.9.9.9.9.9.9.*.i.u.L u.K A p h &.&.8.9.9.9.9.9.9.9.9.9.9.9.9.9.9.9.9.9.",
"9.9.9.9.9.9.9.9.9.9.9.9.9.9.9.9.9.9.9.9.*.a m b v v t G 9.9.9.9.9.9.9.9.9.9.9.9.9.9.9.9.9.9.9.9.",
"9.9.9.9.9.9.8.9.9.9.9.9.9.9.9.9.0.9.9.9.' m m < } ~ t D 9.9.9.9.9.9.9.9.9.9.9.9.9.9.9.9.9.9.9.9.",
"9.9.9.9.9.9.7.9.9.9.9.9.9.9.9.9.9.9.9.9.9 B i > r.e.y s &.9.v.n.n.m.q.9.9.9.9.9.9.9.9.9.9.9.9.9.",
"9.9.9.9.9.9.9.9.9.9.9.9.9.9.9.9.9.9.9.9.y R 1 : % V y.b D 9.M.P.Y.Y.w.9.9.9.9.9.9.9.9.9.9.9.9.9.",
"9.9.9.9.9.9.9.9.9.9.9.9.9.0.9.9.9.9.9.9.F f 1 7 # i.V.L s =.M.P.Y.Y.n.9.9.9.9.9.9.9.9.9.9.9.9.9.",
"9.9.9.9.9.9.9.9.0.9.9.9.9.9.9.9.9.9.9.9.-.9 , , # N J M o q c.Y.P.P.b.7.8.0.0.0.8.9.9.8.9.9.9.9.",
"9.9.9.9.9.9.9.9.9.9.9.9.9.9.9.9.9.9.9.-.4 ; : : : @ . @ = # h P.P.Y.b.9.0.9.8.8.n.m.m.M.0.9.9.9.",
"9.9.9.9.9.9.9.9.9.9.9.9.9.9.9.9.9.9.9.6 , + > > = 6 6 @ @ @ h P.Y.Y.b.9.9.9.9.8.B.Y.Y.Y.w.9.9.9.",
"9.9.9.9.9.9.9.9.9.9.9.9.9.9.9.0.9.9.9.3 6 , : 2 * &.H - = % F Y.P.Y.b.8.9.9.9.8.B.Y.P.Y.q.9.9.9.",
"9.9.9.9.9.9.9.9.9.9.9.9.9.9.9.9.9.9.9.8.4 O O c.m.8.9.H X S M.Y.P.Y.b.9.9.9.9.8.N.P.Y.Y.w.9.9.9.",
"9.9.9.9.9.9.9.9.9.9.9.0.9.9.9.9.9.9.9.9.m.Y.P.P.M.8.8.8.9.8.M.Y.B.Y.b.8.9.9.9.8.N.Y.Y.Y.q.9.9.9.",
"9.9.9.9.9.0.9.9.9.9.9.9.9.9.9.9.9.9.9.9.m.Y.Y.Y.n.8.8.8.8.8.N.Y.Y.Y.b.9.8.8.8.7.B.Y.Y.Y.w.9.9.9.",
"9.9.9.9.9.9.9.9.9.9.9.9.9.9.9.9.9.9.9.9.q.n.n.n.M.M.M.M.v.8.v.n.m.n.q.9.n.M.M.M.m.n.n.n.0.9.9.9.",
"9.9.9.9.0.9.9.9.9.9.9.9.9.9.9.9.9.9.9.9.9.9.9.7.m.Y.Y.Y.n.9.9.9.9.9.9.8.N.Y.Y.Y.w.9.9.8.9.9.9.9.",
"9.9.9.9.9.9.9.9.9.9.0.9.9.9.9.9.9.9.9.9.9.9.9.9.m.Y.P.Y.n.8.9.9.9.9.9.9.N.Y.Y.Y.w.9.9.9.9.9.9.9.",
"9.9.9.9.9.9.9.9.9.9.9.9.9.9.9.9.9.9.9.9.9.9.9.9.M.Y.P.Y.m.9.9.9.9.9.9.9.N.Y.Y.Y.w.9.9.9.9.9.9.9.",
"9.9.9.9.9.9.9.9.9.9.9.9.9.9.9.9.9.9.9.9.9.9.9.9.w.n.v.v.q.9.9.9.9.9.0.0.w.w.n.w.q.9.9.9.9.9.9.9.",
"9.9.0.9.9.9.9.9.9.9.9.9.9.9.9.9.9.9.9.9.9.9.9.9.9.8.9.8.9.9.9.9.9.9.9.9.9.9.9.9.9.9.9.9.9.9.9.9.",
"9.9.9.9.9.9.9.9.9.9.9.9.9.9.0.9.9.9.9.9.9.9.9.9.9.9.9.9.9.9.0.9.9.9.9.9.9.9.9.9.9.9.9.9.9.9.9.9.",
"9.9.9.9.9.9.9.9.9.9.9.9.9.9.9.9.9.9.9.9.9.9.9.9.9.9.9.9.9.9.9.9.9.9.9.9.9.9.9.9.9.9.9.9.9.9.9.9.",
"9.9.9.9.9.9.9.0.9.9.9.9.9.9.9.9.9.9.9.9.9.9.9.9.9.9.9.9.9.9.9.9.9.9.9.9.9.9.9.9.9.9.9.9.9.9.9.9."
};
