/* XPM */
static char *result[] = {
/* columns rows colors chars-per-pixel */
"48 48 153 2 ",
"   c black",
".  c #020705",
"X  c #040E09",
"o  c #091811",
"O  c #101E17",
"+  c #10241B",
"@  c #12271D",
"#  c #152B21",
"$  c #162E23",
"%  c #162F24",
"&  c #1C372B",
"*  c #1D392C",
"=  c #1E3B2E",
"-  c #2A4E3E",
";  c #32483D",
":  c #303048",
">  c #31354A",
",  c #343E4D",
"<  c #364550",
"1  c #384058",
"2  c #385870",
"3  c #385970",
"4  c #395A70",
"5  c #3A5C71",
"6  c #3B5D72",
"7  c #3B5F72",
"8  c #3C6073",
"9  c #3C6373",
"0  c #3E6474",
"q  c #3E6574",
"w  c #784040",
"e  c #784141",
"r  c #784543",
"t  c #784A46",
"y  c #D74C52",
"u  c #D84850",
"i  c #D89870",
"p  c #803890",
"a  c #3CAB85",
"s  c #3EAC86",
"d  c #3FAC86",
"f  c #40AD86",
"g  c #41AD87",
"h  c #42AD87",
"j  c #43AE88",
"k  c #45AE88",
"l  c #46AF89",
"z  c #51AD89",
"x  c #4EB28C",
"c  c #4EB28D",
"v  c #4EB38D",
"b  c #50B38D",
"n  c #50B48E",
"m  c #52B48E",
"M  c #52B48F",
"N  c #53B58F",
"B  c #54B58F",
"V  c #54B590",
"C  c #56B791",
"Z  c #57B791",
"A  c #58B791",
"S  c #59B892",
"D  c #5DBA94",
"F  c #5EBB95",
"G  c #61BC97",
"H  c #6EBA96",
"J  c #7098B0",
"K  c #67C09A",
"L  c #68C09A",
"P  c #6AC19B",
"I  c #6CC39D",
"U  c #6DC39D",
"Y  c #6DC49D",
"T  c #6EC49E",
"R  c #6FC49E",
"E  c #6EC59E",
"W  c #6FC59F",
"Q  c #70C59F",
"!  c #73C49F",
"~  c #72C59F",
"^  c #70C69F",
"/  c #71C6A0",
"(  c #72C6A0",
")  c #72C7A0",
"_  c #72C7A1",
"`  c #73C7A1",
"'  c #77C5A0",
"]  c #75C6A1",
"[  c #74C7A1",
"{  c #76C6A0",
"}  c #76C7A1",
"|  c #79C4A0",
" . c #78C5A0",
".. c #78C6A1",
"X. c #74C8A2",
"o. c #75C8A2",
"O. c #76C9A3",
"+. c #77C9A4",
"@. c #78C9A4",
"#. c #7BCAA6",
"$. c #7BCBA6",
"%. c #7CCBA6",
"&. c #7CCBA7",
"*. c #7DCBA7",
"=. c #7DCCA7",
"-. c #7ECCA8",
";. c #888888",
":. c #80CDA9",
">. c #81CDAA",
",. c #81CEAA",
"<. c #82CEAA",
"1. c #85CFAC",
"2. c #8DCFAE",
"3. c #85D0AD",
"4. c #86D0AD",
"5. c #87D1AE",
"6. c #88D1AE",
"7. c #88D1AF",
"8. c #89D1AF",
"9. c #89D2AF",
"0. c #8AD2B0",
"q. c #8BD2B0",
"w. c #8BD2B1",
"e. c #8BD3B1",
"r. c #8DD3B2",
"t. c #8FD3B2",
"y. c #8DD4B2",
"u. c #8ED4B3",
"i. c #8FD4B3",
"p. c #91D5B5",
"a. c #91D6B5",
"s. c #92D6B5",
"d. c #92D6B6",
"f. c #93D7B6",
"g. c #95D8B8",
"h. c #96D8B8",
"j. c #97D9B9",
"k. c #98D9BA",
"l. c #99DABA",
"z. c #99DABB",
"x. c #F8D0B8",
"c. c #A2DFC1",
"v. c #A3DFC2",
"b. c #A4DEC1",
"n. c #A8C8D8",
"m. c #A3E0C2",
"M. c #A4E0C2",
"N. c #A4E0C3",
"B. c #A5E1C3",
"V. c #A5E1C4",
"C. c #A6E1C4",
"Z. c #C8C8C8",
"A. c #E8E8F8",
/* pixels */
"` ` ` ` ` ` ` ` ` ` ` ` ` ` ` ` ` ` ` ` ` ` ` ` ` ` ` ` ` ` ` ` ` ` ` ` ` ` ` ` ` ` ` ` ` ` ` ` ",
"` ` ` ` ` ` ` ` ` ` ` ` ` ` ` ` ` ` ` ` ` ` ` ` ` ` ` ` ` ` ` ` ` ` ` ` ` ` ` ` ` ` ` ` ` ` ` ` ",
"` ` ` ` ` ` ` ` ` ` ` ` ` ` ` ` ` ` ` ` ` ` ` ` ` ` ` ` ` ` ` ` ` ` ` ` ` ` ` ` ` ` ` ` ` ` ` ` ",
"` ` ` ` ` ` ` ` ` ` ` ` ` ` ` ` ` ` ` ` ` ` ` ` ` ` ` ` ` ` ` ` ` ` ` ` ` ` ` ` ` ` ` ` ` ` ` ` ",
"` ` ` ` ` ` ` ` ` ` ` ` ` ` ` ` ` ` ` ` ` ` ` ` ` ` ` ` ` ` ` ` ` ` ` ` ` ` ` ` ` ` ` ` ` ` ` ` ",
"` ` ` ` ` ` ` ` ` ` ` ` _ Q / ` ` ` ` ` ` ` ` ` ` ` ` ` ` ` ` ` ` ` ` ` ` ` ` ` ` ` ` ` ` ` ` ` ",
"` ` ` ` ` ` ` ` ` ` ` X.K a C o.` ` ` ` ` ` ` ` ` ` ` ` ` ` ` ` ` ` ` ` ` ` ` ` ` ` ` ` ` ` ` ` ",
"` ` ` ` ` ` ` ` ` ` ` X.L g S o.` ` ` ` ` ` ` ` ` ` ` ` ` ` ` ` ` ` ` ` ` ` ` ` ` ` ` ` ` ` ` ` ",
"` ` ` ` ` ` ` ` ` ` ` X.L g S o.` ` ` ` ` ` ` ` ` ` ` ` ` ` ` ` ` ` ` ` ` ` ` ` ` ` ` ` ` ` ` ` ",
"` ` _ T W ` ` ` ` ` ` X.L g S o.` ` ` ` / T T T / ` ` ` ` ` ` ` ` ` ` ` ` ` ` ` ` ` ` ` ` ` ` ` ",
"` ` U a c o.` ` ` ` ` X.L g S o.` ` ` X.G d h d F X.8 2 2 7 ` ` ` ` ` ` ` ` ` ` ` ` ` ` ` ` ` ` ",
"` ` T g n o.` ` ` ` ` X.L g S o.` ` ` X.H z 3 2 2 2 J n.n.0 ` ` ` ` ` ` ` ` ` ` ` ` ` ` ` ` ` ` ",
"` ` T f b O.[ [ ` ` ` X.K f A o.` ` ` o.9 2 J n.n.n.n.n.8  .` ` ` ` ` ` ` ` ` ` ` ` ` ` ` ` ` ` ",
"` ` R v Z U I I T ` ` [ P x F X.` ` ! 5 n.n.n.n.n.n.n.J 2 5 ` ` ` ` ` ` ` ` ` ` ` ` ` ` ` ` ` ` ",
"` ` ` O.T s h g m o.` ` [ o.X.` ` } 2 J n.n.n.n.n.n.n.n.n.$  .` ` ` ` ` ` ` ` ` ` ` ` ` ` ` ` ` ",
"` ` ` [ U h l k B o.` ` ` ` ` ` ` ..2 n.n.n.n.n.n.n.n.n.J n.# ` ` ` ` ` ` ` ` ` ` ` ` ` ` ` ` ` ",
"` ` ` [ I g k j N o.` ` ` ` ` ` {   J n.n.n.n.J n.n.2 n.n.J J   ] ` ` ` ` ` ` ` ` ` ` ` ` ` ` ` ",
"` ` ` ` T M V B D X.` ` ` ` ` ` ]   J J n.n.2 n.n.n.2 2 J n.J 5 ' ` ` ` ` ` ` ` ` ` ` ` ` ` ` ` ",
"` ` ` ` ` o.o.o.X.` ` ` ` ` ` ` [ 2 J J n.n.J n.n.n.2 i 2 J J J 2 [ ` ` ` ` ` ` ` ` ` ` ` ` ` ` ",
"` ` ` ` ` ` ` ` ` ` ` ` ` ` ` ] X J J J J 2 n.n.n.2 x.x.i 2 2 J 6 ` ` ` ` ` ` ` ` ` ` ` ` ` ` ` ",
"` ` ` ` ` ` ` ` ` ` ` ` ` ` ` ] 5 J J J J 2 n.n.2 x.x.x.x.i   4 ' ` ` ` ` ` ` ` ` ` ` ` ` ` ` ` ",
"` ` ` ` ` ` ` ` ` ` ` ` ` ` | . J J J J J 2 2 n.2 x.x.2 x.x.o ` ` ` ` ` ` ` ` ` ` ` ` ` ` ` ` ` ",
"` ` ` ` ` ` ` ` ` ` ` ` ` `  .  J J 2 J J J 2 2 x.x.x.Z.J x.e ` ` ` ` ` ` ` ` ` ` ` ` ` ` ` ` ` ",
"` ` ` ` ` ` ` ` ` ` ` ` ` ` ' & &   J J 2 x.i 2 x.x.x.A.  x.w [ ` ` ` ` ` ` ` ` ` ` ` ` ` ` ` ` ",
"` ` ` ` ` ` ` ` ` ` ` ` ` ` ` ` ` - - & 2 i i i i x.x.x.x.x.i ] ` ` ` ` ` ` ` ` ` ` ` ` ` ` ` ` ",
"` ` ` ` ` ` ` ` ` ` ` ` ` ` ` ` ` ` ` { & q w w i i x.x.x.t ` ` ` ` ` ` ` ` ` ` ` ` ` ` ` ` ` ` ",
"` ` ` ` ` ( ( ( ( ` ` ` ` ` ` ` ` ` ` ` ` `   ;.;.;.w w r ` ` ` ` ` ` ` ` ` ` ` ` ` ` ` ` ` ` ` ",
"` ` ` ` ` ( ( ( ( ` ` ` ` ` ` ` ` ` ` ` ` `   1 : : u X ` ` ` ` ` ` ` ` ` ` ` ` ` ` ` ` ` ` ` ` ",
"` ` ` ` ` ( ( ( ( ` ` ` ` ` ` ` ` ` ` ` ` {   : ;.Z.: y  .` ( / / / _ ` ` ` ` ` ` ` ` ` ` ` ` ` ",
"` ` ` ` ` ( ( ( ` ` ` ` ` ` ` ` ` ` ` `  .  1   1 1 : p < ( <.w.0.e.%._ ` ` ` ` ` ` ` ` ` ` ` ` ",
"` ` ` ` ` ` ` ` ` ` ` ` ` ` ` ` ` ` ` `  .  1 1   x.x.  , ^ d.B.M.V.4./ ` ` ` ` ` ` ` ` ` ` ` ` ",
"` ` ` ` ` ` ` ` ` ` ` ` ` ` ` ` ` ` ` {   : 1 1   i i   > ^ a.m.c.M.4./ ` ` ` ` ` ` ` ` ` ` ` ` ",
"` ` ` ` ` ` ` ` ` ` ` ` ` ` ` ` ` ` ` {   : : : :     : : = a.m.c.M.4./ ` ` ` ` / / / / _ ` ` ` ",
"` ` ` ` ` ` ` ` ` ` ` ` ` ` ` ` ` ` {   1 : : : : : : : : % p.m.c.M.4./ ` ` ` / 5.u.y.i.@._ ` ` ",
"` ` ` ` ` ` ` ` ` ` ` ` ` ` ` ` ` ` { + 1 1 : ; t.( . @ * ~ a.m.c.M.4./ ` ` ` ^ z.N.m.C.-.) ` ` ",
"` ` ` ` ` ` ` ` ` ` ` ` ` ` ` ` ` ` ` / O     m.r./ ` ` ` ^ a.m.c.M.4./ ` ` ` ^ k.v.c.N.=.) ` ` ",
"` ` ` ` ` ` ` ` ` ` ` ` ` ` ` ` ` ` ` / 2.b.c.m.r./ ` ` ` ^ a.m.c.M.4./ ` ` ` ^ k.v.c.N.=.) ` ` ",
"` ` ` ` ` ` ` ` ` ` ` ` ` ` ` ` ` ` ` / 0.M.c.m.r./ ` ` ` ^ a.m.c.M.4./ ` ` ` ^ k.v.c.N.=.) ` ` ",
"` ` ` ` ` ` ` ` ` ` ` ` ` ` ` ` ` ` ` / w.B.M.B.r.E ^ ^ ( ^ d.B.M.C.4./ / ^ ^ Y l.N.M.C.-.) ` ` ",
"` ` ` ` ` ` ` ` ` ` ` ` ` ` ` ` ` ` ` _ *.8.7.6.r.s.s.f.<./ :.8.7.8.#./ 8.d.s.d.q.6.7.9.+.` ` ` ",
"` ` ` ` ` ` ` ` ` ` ` ` ` ` ` ` ` ` ` ` _ / / W r.B.m.B.q./ ) / / / _ ^ h.N.m.B.:.^ / / ` ` ` ` ",
"` ` ` ` ` ` ` ` ` ` ` ` ` ` ` ` ` ` ` ` ` ` ` / r.m.c.M.0./ ` ` ` ` ` ^ g.m.c.N.>.( ` ` ` ` ` ` ",
"` ` ` ` ` ` ` ` ` ` ` ` ` ` ` ` ` ` ` ` ` ` ` / u.B.M.V.w./ ` ` ` ` ` ^ j.B.M.C.,.( ` ` ` ` ` ` ",
"` ` ` ` ` ` ` ` ` ` ` ` ` ` ` ` ` ` ` ` ` ` ` _ &.4.1.4.$._ ` ` ` ` ` ) :.3.1.4.@.` ` ` ` ` ` ` ",
"` ` ` ` ` ` ` ` ` ` ` ` ` ` ` ` ` ` ` ` ` ` ` ` _ / / / _ ` ` ` ` ` ` ` ) / / / ` ` ` ` ` ` ` ` ",
"` ` ` ` ` ` ` ` ` ` ` ` ` ` ` ` ` ` ` ` ` ` ` ` ` ` ` ` ` ` ` ` ` ` ` ` ` ` ` ` ` ` ` ` ` ` ` ` ",
"` ` ` ` ` ` ` ` ` ` ` ` ` ` ` ` ` ` ` ` ` ` ` ` ` ` ` ` ` ` ` ` ` ` ` ` ` ` ` ` ` ` ` ` ` ` ` ` ",
"` ` ` ` ` ` ` ` ` ` ` ` ` ` ` ` ` ` ` ` ` ` ` ` ` ` ` ` ` ` ` ` ` ` ` ` ` ` ` ` ` ` ` ` ` ` ` ` "
};
