/* XPM */
static char *_e897c25cc5d4c819dc134dd4f18ec8dgDqtTvXHbSNrDlIj[] = {
/* columns rows colors chars-per-pixel */
"48 48 88 1 ",
"  c black",
". c #020705",
"X c #050A07",
"o c #07100B",
"O c #091811",
"+ c #0B1B14",
"@ c #0D1F17",
"# c #0F2219",
"$ c #10241B",
"% c #12271D",
"& c #13291F",
"* c #1C372B",
"= c #20352B",
"- c #303048",
"; c #313449",
": c #384058",
"> c #385870",
", c #385970",
"< c #3A5C71",
"1 c #784040",
"2 c #784442",
"3 c #D84850",
"4 c #D79971",
"5 c #D89870",
"6 c #803890",
"7 c #3CAB85",
"8 c #3FAC86",
"9 c #41AD87",
"0 c #42AE88",
"q c #43AE88",
"w c #45AF89",
"e c #46AE88",
"r c #46AF89",
"t c #4EB28C",
"y c #4EB38D",
"u c #50B38D",
"i c #52B48E",
"p c #54B58F",
"a c #54B590",
"s c #57B791",
"d c #58B791",
"f c #59B892",
"g c #5DBA94",
"h c #5EBB95",
"j c #62BD97",
"k c #63BD97",
"l c #7098B0",
"z c #67C09A",
"x c #6AC19B",
"c c #6CC39D",
"v c #6EC49E",
"b c #70C59F",
"n c #70C69F",
"m c #73C7A1",
"M c #74C7A1",
"N c #74C8A2",
"B c #76C9A3",
"V c #7BCAA6",
"C c #7BCBA6",
"Z c #7CCBA7",
"A c #7DCCA7",
"S c #7ECCA8",
"D c #888888",
"F c #80CDA9",
"G c #82CEAA",
"H c #85CFAC",
"J c #85D0AD",
"K c #86D0AD",
"L c #88D1AF",
"P c #89D1AF",
"I c #8AD2B0",
"U c #8DD3B2",
"Y c #8DD4B2",
"T c #91D6B5",
"R c #92D6B6",
"E c #93D7B6",
"W c #95D8B8",
"Q c #97D9B9",
"! c #99DABA",
"~ c #F8D0B8",
"^ c #A2DFC1",
"/ c #A3DFC2",
"( c #A8C8D8",
") c #A3E0C2",
"_ c #A5E1C3",
"` c #A5E1C4",
"' c #C8C8C8",
"] c #E8E8F8",
/* pixels */
"mmmmmmmmmmmmmmmmmmmmmmmmmmmmmmmmmmmmmmmmmmmmmmmm",
"mmmmmmmmmmmmmmmmmmmmmmmmmmmmmmmmmmmmmmmmmmmmmmmm",
"mmmmmmmmmmmmmmmmmmmmmmmmmmmmmmmmmmmmmmmmmmmmmmmm",
"mmmmmmmmmmmmmmmmmmmmmmmmmmmmmmmmmmmmmmmmmmmmmmmm",
"mmmmmmmmmmmmMBmmmmmmmmmmmmmmmmmmmmmmmmmmmmmmmmmm",
"mmmmmmmmmmmmMcbmmmmmmmmmmmmmmmmmmmmmmmmmmmmmmmmm",
"mmmmmmmmmmNmk8sBmmmmmmmmmmmmmmmmmmmmmmmmmmmmmmmm",
"mmmmmmmmmmmBz9sBmmmmmmmmmmmmmmmmmmmmmmmmmmmmmmmm",
"mmmmmmmmmmmBk0fBmmmmmBvNmmmmmmmmmmmmmmmmmmmmmmmm",
"mmmvbMmmmmmmx9fBmmmmvvvvvmmmmmmmmmmmmmmmmmmmmmmm",
"mmc7yMmmmmmMkrdBmmNNk999hBmmmmmmmmmmmmmmmmmmmmmm",
"mmv9yBmMmmmBx9dMmmNNkrwwhBmmmmmmmmmmmmmmmmmmmmmm",
"mmv9uBMMmmmMz9sBmm,,>>w0hNmmmmmmmmmmmmmmmmmmmmmm",
"mmvydccccmmmxygBmm,((l>>>>mBmmmmmmmmmmmmmmmmmmmm",
"mmmBv899iBmmmBmmmmk,(((((l>>mmmmmmmmmmmmmmmmmmmm",
"mmmMc9rriBmmmmmmmm,,l(((((((>mmmmmmmmmmmmmmmmmmm",
"mmmMc9w9pMmmmmmmmM (((((((((l<BMmmmmmmmmmmmmmmmm",
"mmmmcpisgMmmmmmMM (l(((((((((>mmmmmmmmmmmmmmmmmm",
"mmmmMMBMMmmmmmmM ll((>((l((((l%mmmmmmmmmmmmmmmmm",
"mmmmmMmmmmmmmmmM>l(l>>(((>((llOmmmmmmmmmmmmmmmmm",
"mmmmmmmmmmmmmmM>lll>5>(((l((ll<mmmmmmmmmmmmmmmmm",
"mmmmmmmmmmmmMMm>l>>5~~>(((>llll.mmmmmmmmmmmmmmmm",
"mmmmmmmmmmmmMMBb> 5~~~~>((>llll>Mmmmmmmmmmmmmmmm",
"mmmmmmmmmmmmnBnBM ~~>~~>(>>lllll mmmmmmmmmmmmmmm",
"mmmmmmmmBbBbBbBbB1~l'~~~>>lll>ll MmmmmmmBbBbBbBb",
"mmmmmmmmbBbBbBbBm2~ ]~~~>5~>ll + mmmmmmmbBbBbBbB",
"mmmmmmmmNbBbBbBbm4~~~~~5555>***MmmmmmmmmBbBbBbBb",
"mmmmmbmmvBbBbBbBmm2~~~5511>.mmmmmmmmmmmmbBbBbBbB",
"mmmmmmbmBbBbBbBbmmm111DDD&mmmmbmNvBNBbBbBbBbBbBb",
"mmmmmbmbbBbBbBbBmmmm13:-:#mmmmGIPPVNbBbBbBbBbBbB",
"mmmmmmmmBbBbBbBbbNm-3:'D:OmmBbR_)_KBBbBbBbBbBbBb",
"mmmmmmmmbBbBbBbNNNN-6::: :%mmvR/))KbbBbBbBbBbBbB",
"mmmmmmmmmmmmmmmmmmm 6 ~~ -$mBnE)))KvBbBBbbvbBmmm",
"mmmmmmmmmmmmmmmmmmm - 55 -@mnnE)^)KnbBbbPYYEBNmm",
"mmmmmmmmmmmmmmmmmmmmo-  - MMBvR))_KnBbBn!))_Avmm",
"mmmmmmmmmmmmmmmmmmmm ---- MMnvR))_PnbBnn!)))Ammm",
"mmmmmmmmmmmmmmmmmmmvIX  =mBbBvY_^)KbBbbnW/)_AvBN",
"mmmmmmmmmmmmmmmmmmmmI)))UbbBBbR)^_PbbBBvQ//_ABBv",
"mmmmmmmmmmmmmmmmmmmmI`)_UvvbvvE_^_Jbbbbv!))_JbbB",
"mmmmmmmmmmmmmmmmmmmmAPPKURRRKbGPPPCbPEERPPPPBbBb",
"mmmmmmmmmmmmmmmmmmmmmbvbU_/_PmmbvvBvQ)/_GvvNbBbB",
"mmmmmmmmmmmmmmmmmmmmmNmBU)/_IbmmBNmmW)/_GBBbBbBb",
"mmmmmmmmmmmmmmmmmmmmmmmvY_/`ImmmNNmvQ___GBbBbBbB",
"mmmmmmmmmmmmmmmmmmmmmmmmZKHHVmmmBvmmAHGHBbBbBbBb",
"mmmmmmmmmmmmmmmmmmmmmmmmmmvmmmmmNbBbvBcBbBbBbBbB",
"mmmmmmmmmmmmmmmmmmmmmmmmmmmmmmmmvBbBBbBbBbBbBbBb",
"mmmmmmmmmmmmmmmmmmmmmmmmmmmmmmmmBbBbbBbBbBbBbBbB",
"mmmmmmmmmmmmmmmmmmmmmmmmmmmmmmmmbBbBBbBbBbBbBbBb"
};
