/* XPM */
static char *result[] = {
/* columns rows colors chars-per-pixel */
"48 48 163 2 ",
"   c #140F0B",
".  c #13131B",
"X  c #0F2219",
"o  c #151523",
"O  c #1C2529",
"+  c #1F2433",
"@  c #212233",
"#  c #252639",
"$  c #213F31",
"%  c #253B38",
"&  c #703D3D",
"*  c #294D3C",
"=  c #2E2E45",
"-  c #293842",
";  c #2F3449",
":  c #31334B",
">  c #31384E",
",  c #353C53",
"<  c #643C52",
"1  c #4C3E65",
"2  c #2D4D44",
"3  c #36454A",
"4  c #2D5242",
"5  c #395D4C",
"6  c #344656",
"7  c #3E535B",
"8  c #3E595B",
"9  c #36604C",
"0  c #386354",
"q  c #3B5567",
"w  c #3A5A70",
"e  c #444D53",
"r  c #484A50",
"t  c #50535B",
"y  c #68405E",
"u  c #6A5655",
"i  c #785A51",
"p  c #42735D",
"a  c #445B70",
"s  c #457865",
"d  c #587D6C",
"f  c #45677A",
"g  c #476C7F",
"h  c #546678",
"j  c #48797B",
"k  c #6E6161",
"l  c #65666C",
"z  c #7B6C65",
"x  c #636C7C",
"c  c #60767E",
"v  c #A74B4F",
"b  c #8C624B",
"n  c #976A50",
"m  c #A16954",
"M  c #AB406C",
"N  c #826068",
"B  c #976E63",
"V  c #867574",
"C  c #977C74",
"Z  c #B97E60",
"A  c #3D8C7D",
"S  c #528A73",
"D  c #598A73",
"F  c #539275",
"G  c #B18D7D",
"H  c #C48766",
"J  c #CF926D",
"K  c #CD9372",
"L  c #CC987B",
"P  c #DDA17C",
"I  c #773988",
"U  c #54778E",
"Y  c #5B778B",
"T  c #567990",
"R  c #7D7E85",
"E  c #3DAC86",
"W  c #52878B",
"Q  c #479782",
"!  c #579487",
"~  c #59958B",
"^  c #5C9D8C",
"/  c #5D8095",
"(  c #63859B",
")  c #688A9F",
"_  c #6E959C",
"`  c #41AD87",
"'  c #45AE88",
"]  c #5FA585",
"[  c #5CA68C",
"{  c #4EB28D",
"}  c #52B48E",
"|  c #56B691",
" . c #58B791",
".. c #5AB993",
"X. c #63AC8B",
"o. c #76A587",
"O. c #65B18F",
"+. c #79A790",
"@. c #73AC91",
"#. c #66B697",
"$. c #69B493",
"%. c #6CBA9A",
"&. c #668CA3",
"*. c #688EA4",
"=. c #6D95AD",
"-. c #7496AA",
";. c #7D9AAC",
":. c #7098B0",
">. c #7FA0AD",
",. c #67C09A",
"<. c #6CC39D",
"1. c #71C59F",
"2. c #7BC49E",
"3. c #73C7A1",
"4. c #75C8A2",
"5. c #7BCBA6",
"6. c #7ECCA8",
"7. c #88868A",
"8. c #94898A",
"9. c #9E9191",
"0. c #A58D87",
"q. c #B18F80",
"w. c #B99182",
"e. c #B99985",
"r. c #A79996",
"t. c #A0B892",
"y. c #819EAF",
"u. c #82A1B3",
"i. c #86A7BB",
"p. c #8CABBC",
"a. c #93AFBF",
"s. c #B5AFAF",
"d. c #A2A9B2",
"f. c #D3AC98",
"g. c #E9B89B",
"h. c #DAB7A2",
"j. c #85C4A7",
"k. c #82CEAA",
"l. c #86D0AD",
"z. c #89D1AF",
"x. c #8CD3B1",
"c. c #92D6B5",
"v. c #96D8B8",
"b. c #98D9BA",
"n. c #EAC2AB",
"m. c #F3C9AF",
"M. c #ECCAB6",
"N. c #F4CCB4",
"B. c #F8CFB7",
"V. c #F7D2BD",
"C. c #F8D0B8",
"Z. c #8FAFC0",
"A. c #8EB1C4",
"S. c #93B3C4",
"D. c #94B6C9",
"F. c #96B8CA",
"G. c #9BBBCC",
"H. c #A2DFC1",
"J. c #A3C3D4",
"K. c #A8C8D8",
"L. c #A4E0C3",
"P. c #D1D2DE",
"I. c #F3D4C6",
/* pixels */
"3.3.3.3.3.3.3.3.3.3.3.3.3.3.3.3.3.3.3.3.3.3.3.3.3.3.3.3.3.3.3.3.3.3.3.3.3.3.3.3.3.3.3.3.3.3.3.3.",
"3.3.3.3.3.3.3.3.3.3.3.3.3.3.3.4.3.3.3.3.3.3.3.3.3.3.3.3.3.3.3.3.3.3.3.3.3.3.3.3.3.3.3.3.3.3.3.4.",
"3.3.3.3.3.3.3.3.3.3.3.3.3.3.3.3.3.3.3.3.3.3.3.3.3.3.4.3.3.3.3.3.3.3.3.3.4.3.3.3.3.3.3.3.3.3.3.3.",
"3.3.3.3.3.3.3.3.3.3.3.3.3.3.3.3.3.3.3.3.3.3.3.3.3.3.3.3.3.3.3.3.3.3.3.3.3.3.3.3.3.4.3.3.3.3.3.3.",
"3.3.3.3.3.3.3.3.3.3.3.3.3.3.3.3.3.3.3.3.3.3.3.4.3.3.3.3.3.3.3.3.3.4.3.3.3.3.3.3.3.3.3.3.3.3.3.3.",
"3.3.3.3.3.3.3.3.3.3.3.3.3.1.3.3.3.3.3.3.3.3.3.3.4.3.3.3.3.4.3.3.3.3.3.3.3.3.3.3.3.3.3.3.3.3.3.3.",
"3.3.3.3.3.3.3.3.3.3.3.4.,.E ..3.3.3.3.3.3.3.3.3.3.3.3.3.3.3.3.3.3.3.3.3.3.3.3.3.3.3.3.3.3.3.3.3.",
"3.3.3.3.3.3.3.3.3.3.3.3.,.E ..3.3.4.3.3.3.3.3.3.3.3.3.3.3.3.3.3.3.3.3.3.3.3.3.3.3.3.3.3.4.3.3.3.",
"3.3.3.3.3.3.3.3.3.3.3.3.,.` ..3.3.3.3.3.3.3.3.1.3.3.3.3.3.3.3.3.3.3.3.3.3.3.3.3.3.3.3.3.3.3.3.3.",
"3.3.3.3.3.3.3.3.3.3.3.4.,.` ..3.3.3.3.3.3.<.<.<.3.3.%.! ! ! ~ 3.3.3.3.3.3.3.3.3.3.3.3.3.3.3.3.3.",
"3.3.<.E { 3.3.3.3.3.3.4.,.` ..4.3.3.3.3...E Q A Q ~ ~ ( y.;.f 1.3.3.3.3.3.3.3.3.3.3.3.3.3.4.3.3.",
"3.3.<.` } 3.3.3.3.3.3.3.,.' ..4.3.3.3.3.[ Q W ) y.;.u.F.J.y.^ 3.3.3.3.3.3.3.3.3.3.3.3.3.3.3.3.3.",
"3.3.<.` } 3.3.3.3.3.3.4.,.' ..4.3.3.4.#._ -.>.G.K.K.K.J.p.f 1.3.3.3.3.3.3.3.3.3.3.3.3.3.3.3.3.3.",
"3.3.3.{  .<.<.<.1.3.3.3.,.{ ..4.3.3.#.W A.K.K.K.K.K.K.J.i._ ] 3.3.3.3.3.3.3.3.3.3.3.3.4.3.3.3.3.",
"3.3.3.4.<.E ' ` | 3.3.3.3.3.4.3.3.3.j -.G.K.K.K.K.K.K.K.J.D.c X.1.3.3.3.3.3.3.3.3.3.3.3.3.3.3.3.",
"3.3.3.3.<.' ' ' } 3.3.3.3.3.3.3.3.O.W S.K.K.K.J.J.K.J.G.J.i.G.8 X.3.3.3.4.3.3.3.3.3.3.3.4.3.3.3.",
"3.3.3.3.%.` ' ' | 3.3.3.3.3.3.3.3.9 ( D.K.K.J.Z.A.K.Z.Y G.J.;.:.% #.3.3.3.3.3.3.3.3.3.3.3.3.3.3.",
"3.3.3.3.1.} | | ..3.3.3.3.3.3.3.3.0 ( :.F.K.y.y.K.K.Z.a x -.J.:.U #.1.3.3.3.3.3.3.3.3.3.3.3.3.3.",
"3.3.3.3.3.4.4.4.3.3.3.3.3.3.3.3.1.j &.:.D.J.A.A.K.K.a.V K h :.=.:.f %.3.3.3.3.3.3.3.3.3.3.3.3.3.",
"4.3.3.3.3.3.3.4.3.3.3.3.3.3.3.1.4 ) :.:.:.T y.K.K.p.8.B.M.K w w =.g %.3.3.3.3.3.3.3.3.3.3.3.3.3.",
"3.3.3.3.3.3.3.3.3.3.3.3.3.3.3.2.f *.:.:.:.T y.K.i.9.N.C.C.m.J . w %.3.3.3.3.3.3.3.3.3.3.3.3.3.3.",
"3.3.3.3.3.3.3.3.3.3.3.3.3.3.4.5 ) :.:.:.:.T f y.i.9.C.n.7.B.m.  %.3.3.3.3.3.3.3.4.3.3.3.3.3.3.4.",
"3.3.3.3.3.3.3.3.3.3.3.3.3.3.4.$ *.:.U ) :.*.U f r.M.V.C.s.d.N.& 3.3.3.3.3.3.3.3.3.3.3.3.3.3.3.3.",
"3.3.3.3.3.3.3.3.3.3.3.3.3.3.4.$ 6 6 / =.W s.f.C r.C.V.I.P.k m.< 3.3.3.3.3.3.3.3.3.3.3.3.3.3.3.3.",
"3.3.3.3.3.3.3.3.3.3.3.3.3.3.3.X.X.4 6 q w G P K L g.B.V.I.h.N.H 4.3.3.3.3.3.3.3.3.3.4.3.3.3.3.3.",
"3.3.3.3.3.3.3.3.3.3.3.3.3.3.3.3.1.X.] ] s k B m Z P g.B.C.N.G t.3.3.3.3.3.3.3.3.3.3.3.3.3.3.3.3.",
"3.3.3.3.3.3.3.3.3.3.3.3.3.3.3.3.3.3.3.3.X.X.d u C q.q.G w.e.o.1.3.3.3.3.3.3.3.3.3.3.3.3.3.3.3.3.",
"3.3.4.3.3.3.3.3.3.3.3.3.3.3.3.3.3.3.3.3.3.3.F e l l N v i o.3.3.3.3.3.3.3.3.3.3.3.3.3.3.3.3.3.3.",
"3.3.3.3.3.3.3.3.3.3.3.3.3.3.3.3.3.3.3.3.4.4.S r R R < v v ] 3.3.3.3.3.3.3.3.3.3.3.3.3.3.3.3.3.3.",
"3.3.3.3.3.<.3.1.3.3.3.3.3.3.3.3.3.3.3.3.4.O.s t 7.7.: y M 8 k.x.z.x.5.3.3.3.3.3.3.3.3.3.3.3.3.3.",
"3.3.3.3.3.3.3.3.3.3.3.3.3.3.3.3.3.3.3.3.%.D z 0.V : , 1 I 8 c.L.L.L.6.3.3.3.3.3.4.3.3.3.3.3.3.3.",
"3.3.3.3.3.3.3.3.3.3.3.3.3.3.3.3.3.3.3.3.$.p q.n.e.+ 6 e I S x.L.L.L.z.3.3.3.3.3.3.3.3.3.3.3.3.3.",
"3.3.3.3.3.3.3.3.3.3.3.3.3.3.3.3.3.3.3.#.p o b Z n # , , 8 O.c.L.L.L.l.1.3.3.3.3.1.1.4.1.4.4.3.3.",
"3.3.3.3.3.3.3.3.3.3.3.3.3.3.3.3.3.3.3.p # - @ . @ : : : ; 2 j.L.H.L.l.1.3.3.3.3.z.x.x.x.4.4.3.3.",
"3.3.3.3.3.3.3.3.3.3.3.3.3.4.3.3.3.3.1.0 # @ # e 7 : , > O , 3 H.H.L.l.1.3.3.3.1.b.L.L.L.6.1.3.3.",
"3.3.3.3.3.3.3.3.3.3.3.3.3.3.3.3.3.3.3.S % = 3 +.@.$ % : 6 6 e H.H.L.z.1.3.3.3.1.b.L.H.L.6.3.3.3.",
"3.3.3.3.3.3.3.3.3.3.4.3.3.3.3.3.3.3.3.3.D O @.H.x.1.X.X X * c.H.H.L.l.3.3.3.3.<.b.H.H.L.6.3.3.3.",
"3.3.3.3.3.3.3.3.3.3.3.3.3.3.3.3.3.3.3.3.x.L.H.L.x.1.3.1.3.1.c.L.H.L.l.1.3.3.3.1.b.L.H.L.6.3.3.3.",
"3.3.3.3.3.3.3.3.3.3.3.3.3.3.3.3.3.3.3.3.x.L.H.L.x.<.1.1.3.1.c.L.L.L.l.1.3.1.1.1.b.L.H.L.6.3.3.3.",
"3.3.3.3.3.3.3.3.3.3.3.3.3.3.3.3.3.3.3.3.5.z.z.l.c.c.c.c.k.1.k.z.z.z.5.1.z.c.c.c.z.z.z.z.4.3.3.3.",
"3.3.3.3.3.3.3.3.3.3.3.4.3.3.3.3.3.3.3.3.3.1.1.1.x.L.L.L.x.1.3.3.3.3.3.<.v.L.L.L.6.3.1.3.3.3.3.3.",
"3.3.3.3.3.3.3.3.3.3.3.3.3.3.3.3.3.3.3.3.3.3.3.3.x.L.L.L.x.3.3.3.3.3.3.3.v.L.L.L.6.3.3.3.3.3.3.3.",
"3.3.3.3.4.3.3.3.3.3.3.3.3.3.3.3.3.3.3.3.3.3.3.3.x.L.L.L.x.1.3.3.3.3.4.3.v.L.L.L.6.3.3.3.3.3.3.3.",
"3.3.3.3.3.3.3.3.3.3.3.3.3.3.3.3.3.3.3.3.3.3.3.3.5.z.k.l.5.1.3.3.3.3.4.4.6.6.z.6.6.4.3.3.3.3.3.3.",
"3.3.3.4.3.3.3.3.3.3.3.3.3.3.3.3.3.3.3.3.3.3.3.3.4.1.1.3.3.3.3.4.3.3.3.3.3.3.<.3.3.3.3.3.3.3.3.3.",
"3.3.3.3.3.3.3.3.3.3.3.3.3.3.3.3.3.3.3.3.3.3.3.4.3.3.3.4.3.3.3.3.3.3.3.3.3.3.4.3.3.3.3.3.3.3.3.3.",
"3.3.3.3.3.3.4.3.3.3.3.3.3.3.3.4.3.3.3.3.3.3.4.1.3.3.3.3.3.3.3.3.3.3.3.3.4.3.3.3.3.3.3.3.3.3.3.3.",
"3.3.3.3.3.3.3.3.3.3.3.3.3.3.3.3.3.4.3.3.3.3.3.3.3.3.3.3.3.3.3.3.3.3.3.3.3.3.3.3.3.3.3.3.3.3.3.3."
};
