/* XPM */
static char *result[] = {
/* columns rows colors chars-per-pixel */
"48 48 221 2 ",
"   c #1A3F23",
".  c #263E2E",
"X  c #2A3D28",
"o  c #3B3F2A",
"O  c #293B34",
"+  c #393B32",
"@  c #4B3F30",
"#  c #16492A",
"$  c #1D4B2D",
"%  c #17562A",
"&  c #1D552C",
"*  c #1A4F31",
"=  c #0E5734",
"-  c #0D5E3C",
";  c #145635",
":  c #1C5334",
">  c #135A34",
",  c #1A5937",
"<  c #1A5639",
"1  c #135D3C",
"2  c #1A593A",
"3  c #24442D",
"4  c #2C422E",
"5  c #224D2D",
"6  c #28482E",
"7  c #37432C",
"8  c #3A432B",
"9  c #245427",
"0  c #22522E",
"q  c #274735",
"w  c #2C4434",
"e  c #244C32",
"r  c #2B4B34",
"t  c #2C4A38",
"y  c #334837",
"u  c #225133",
"i  c #2A5434",
"p  c #29563A",
"a  c #225938",
"s  c #335838",
"d  c #1E6E29",
"f  c #0D613D",
"g  c #13613D",
"h  c #1B643E",
"j  c #1B6839",
"k  c #267F2A",
"l  c #246439",
"z  c #2A673A",
"x  c #236B3E",
"c  c #366B39",
"v  c #2A783A",
"b  c #32783D",
"n  c #4D452B",
"m  c #54452E",
"M  c #574B2F",
"N  c #494A38",
"B  c #574834",
"V  c #585339",
"C  c #675838",
"Z  c #7E6C3E",
"A  c #7B723C",
"S  c #0E5C40",
"D  c #145E41",
"F  c #1D5B42",
"G  c #2F4D44",
"H  c #265641",
"J  c #345645",
"K  c #335B43",
"L  c #3B5B45",
"P  c #3D5A49",
"I  c #0D6141",
"U  c #126141",
"Y  c #1F6243",
"T  c #1D6A43",
"R  c #266745",
"E  c #246B45",
"W  c #386446",
"Q  c #267345",
"!  c #2C7344",
"~  c #2C7E42",
"^  c #2C764B",
"/  c #2D7C4B",
"(  c #357645",
")  c #3C7C46",
"_  c #31744B",
"`  c #367D4E",
"'  c #397D4D",
"]  c #3E6655",
"[  c #2E7A55",
"{  c #317551",
"}  c #347D52",
"|  c #3A7E52",
" . c #337F58",
".. c #3B7D5A",
"X. c #4F5C4A",
"o. c #43754C",
"O. c #426C57",
"+. c #447557",
"@. c #427A5D",
"#. c #50765B",
"$. c #66654C",
"%. c #7A6C49",
"&. c #6F6153",
"*. c #826E4B",
"=. c #8A764D",
"-. c #88765A",
";. c #278E1F",
":. c #349623",
">. c #369A24",
",. c #399925",
"<. c #35962D",
"1. c #36992D",
"2. c #399B2C",
"3. c #2E833A",
"4. c #368B3C",
"5. c #388839",
"6. c #3A8D3C",
"7. c #369533",
"8. c #399633",
"9. c #369932",
"0. c #3A9A33",
"q. c #34923B",
"w. c #3A933C",
"e. c #35983C",
"r. c #3D9B3B",
"t. c #3BA23A",
"y. c #419C3C",
"u. c #43A23D",
"i. c #45A93D",
"p. c #55B438",
"a. c #2E8442",
"s. c #358543",
"d. c #3B8443",
"f. c #368C43",
"g. c #3B8A45",
"h. c #36814D",
"j. c #3A824C",
"k. c #358949",
"l. c #3C8A4C",
"z. c #2B9C41",
"x. c #3B9444",
"c. c #3F9C46",
"v. c #3B9249",
"b. c #358352",
"n. c #3A8252",
"m. c #3C845C",
"M. c #3CA545",
"N. c #3EA455",
"B. c #43854E",
"V. c #419B43",
"C. c #489943",
"Z. c #43934B",
"A. c #439D4F",
"S. c #488555",
"D. c #499655",
"F. c #539659",
"G. c #45A543",
"H. c #49A545",
"J. c #46A843",
"K. c #4BAA44",
"L. c #45A44C",
"P. c #4AA54A",
"I. c #44AA4F",
"U. c #4BAA4A",
"Y. c #54AA41",
"T. c #51AA49",
"R. c #4BB347",
"E. c #51B144",
"W. c #55B346",
"Q. c #4BA352",
"!. c #4AAD57",
"~. c #55A655",
"^. c #51AB55",
"/. c #53B25C",
"(. c #61B447",
"). c #4C8F6C",
"_. c #51886E",
"`. c #558E73",
"'. c #579375",
"]. c #5C9B7C",
"[. c #60997E",
"{. c #4AAB63",
"}. c #5BA966",
"|. c #5EA576",
" X c #5EB171",
".X c #3DAB85",
"XX c #41AD87",
"oX c #45AE88",
"OX c #5DA281",
"+X c #4EB38D",
"@X c #5EB781",
"#X c #52B48E",
"$X c #56B691",
"%X c #5BB993",
"&X c #67AA89",
"*X c #66AD8C",
"=X c #64B784",
"-X c #66B48B",
";X c #6CB593",
":X c #6CB996",
">X c #70B896",
",X c #71BD9A",
"<X c #67C09A",
"1X c #6DC39D",
"2X c #73C296",
"3X c #71C49E",
"4X c #73C7A1",
"5X c #79C6A3",
"6X c #75C8A2",
"7X c #7BC9A5",
"8X c #7ECCA8",
"9X c #80C9A7",
"0X c #95C6A2",
"qX c #86D0AD",
"wX c #89D1AF",
"eX c #8DD4B2",
"rX c #92D6B6",
"tX c #96D8B8",
"yX c #98D9BA",
"uX c #A2DFC1",
"iX c #A4E0C3",
/* pixels */
"4X4X4X4X4X4X4X4X4X4X4X4X4X4X4X4X4X4X4X4X4X4X4X|.*X6X4X4X4X4X4X4X4X4X4X4X4X4X4X4X4X4X4X4X4X4X4X4X",
"4X4X4X4X4X4X4X4X4X6X4X4X4X4X4X4X4X4X4X4X4X6X].{.S.*X4X4X4X4X4X4X4X4X4X4X4X4X4X4X4X4X4X4X4X4X4X4X",
"4X4X4X4X4X4X4X4X4X4X4X4X4X4X4X4X4X4X4X4X;X;X`.t.y.|.;X:X6X4X4X4X4X4X4X4X4X4X4X4X4X4X4X4X4X4X4X4X",
"4X4X4X4X4X4X4X4X4X4X4X4X4X4X4X4X4X4X4X).S.B.C.(.Y.B.b.F.'.6X4X4X4X4X4X4X4X4X4X4X4X4X4X4X4X4X4X4X",
"4X4X4X4X4X4X4X4X4X4X4X4X4X4X4X4X4X8Xc ~./.A.r.i.W.r./.H.}.O.6X3X4X4X4X4X4X4X4X4X4X4X4X4X4X4X4X4X",
"4X4X4X4X4X4X4X4X4X4X4X4X4X3X4X4X,X-Xc y.i.0.T.R.E.H.w.E.5.o.;X3X4X4X4X4X4X4X4X4X4X4X4X4X4X4X4X4X",
"4X4X4X4X4X4X4X4X4X4X6X6X:X.X$X7X_.C.H.E.J.I.L.E.K.K.U.U.Y.Y.Z.].4X4X4X4X4X4X4X4X4X4X4X4X4X4X4X4X",
"4X4X4X4X4X4X4X4X4X4X4X6X<X.X$X4X&XZ.H.T.T.J.K.i.i.H.U.T.E.!.5.;X4X4X4X4X4X4X4X4X4X4X4X4X4X4X4X4X",
"4X4X4X4X6X4X4X4X4X4X4X6X<XoX%X*X_ g.r.K.U.K.K.K.H.H.K.K.K.l.f.b *X6X3X3X6X6X4X4X4X4X4X4X4X4X4X4X",
"4X4X4X1X1X4X4X4X4X4X4X6X<XoX).R ^ A.U.J.J.U.U.P.K.T.K.K.P.I.D.z R *X7X6X3X6X4X4X4X4X4X4X4X4X4X4X",
"4X4X1X.X+X6X4X4X4X4X4X6X,Xx d.v j v c.U.K.K.p.P.K.K.K.K.L.C.` U j.( F 3X6X4X4X4X4X4X4X4X4X4X4X4X",
"4X6X1XXX+X6X4X4X4X4X4X6X].v q.V.4.x.q.9.G.U.P.U.U.K.i.u.r.q.g.6.9.q.{ *X4X4X4X4X4X4X4X4X4X4X4X4X",
"4X4X1XXX#X6X6X6X4X4X4X6X..k.c.9.2.e.7.7.1.0.r.G.u.0.0.9.1.4.V.y.<.e.a.`.7X4X4X4X4X4X4X4X4X4X4X4X",
"4X4X1X+X%X1X1X1X1X4X4XOX' A.i.;.e.r.0.:.,.,.,.8.8.7.1.9.1.,.K.P.9.0.8.@.-X4X4X4X4X4X4X4X4X4X4X4X",
"4X4X4X6X1X.XXXXX$X6X4X-X^ 3.<.2.r.H.t.1.1.2.9.9.9.0.0.t.0.1.0.t.2.9.k m.>X4X4X4X4X4X4X4X4X4X4X4X",
"4X4X4X6X1XXXoXoX#X6X;X{ ..n.y.:.H.H.r.w.7.8.8.1.9.7.0.J.J.x.7.>.:.4.^ ` ..5X6X4X4X4X4X4X4X4X4X4X",
"4X4X4X4X1X.XXXXX#X6XH k.3.h.q.2.u.0.8.1.7.7.9.1.9.1.0.K.K.0.8.1.1.x.n.j.` K 6X4X4X4X4X4X4X4X4X4X",
"4X4X4X4X1X$X$X$X:X'.b 1.x.~ 3.7.q.1.1.8.>.>.9.1.1.1.2.0.M.1.7.Z.f.v _ 4.5.b OX3X4X4X4X4X4X4X4X4X",
"4X4X4X4X4X6X6X6X'.K s.6.Z.{ j d ( q.8.8.1.1.2.9.0.9.<.1.9.r.3.3.Q Q n.s.g.B.J *X4X4X4X4X4X4X4X4X",
"4X4X4X4X4X4X4X4X*XH l ! ..m.l.l. .h.5.8.f.f.9.1.8.w.4.6.8.f.k.( ` h.n.| ! , ] :X4X4X4X4X4X4X4X4X",
"4X4X4X4X4X4X4X4X&XP # D / f.7.4.b.b.k.6.h.b.8.>.1.f.j.h.g.' h.| | n.' _ > 2 P >X4X4X4X4X4X4X4X4X",
"4X4X4X4X6X4X4X4XOX3 H E k.<.1.r.k. .j.j.} b.g.2.8.k.n.| } | | ` ' n.' ' R # r *X4X4X4X4X4X4X4X4X",
"4X4X4X4X4X4X4X4X;XK < D ( r.8.4.| h.| ..n.h.h.f.f.h.' ' h.n.` n.n.h.n._ 1 F O.,X4X4X4X4X4X4X4X4X",
"4X4X4X4X4X4X4X:XL : R 2 / n.n.n.h.` | n.b.n.` h.h.h.` } S.n.h.} } n.| { = 2 a O.4X4X4X4X4X4X4X4X",
"4X4X4X4X4X4X4X,Xr > ; % h _ E E ' n.} n.h.| n.| ' n.' ' | j.` } x _ _ , , R < J 4X4X4X4X4X4X4X4X",
"4X4X4X4X4X4X6X_.e > 1 1 1 1 g Y } h.' n.` h.h.n.| n.h.h.h.' n.} g 1 > 1 F ; : e ].4X4X4X4X4X4X4X",
"4X4X4X4X4X4X4XO r 2 1 U - D 1 = [ ' B.b.Q n.' | n.| h.! n.h.h.T U 1 1 I D = < r L 4X4X4X4X4X4X4X",
"4X4X4X4X4X4X5X+.t $ , 1 1 1 D 1 T |  .^ g ^ n.| n.| ^ h ^ m.} g g - D I ; l # q _.4X4X4X4X4X4X4X",
"4X4X4X4X4X3X4X,X_.X : 1 - D U 1 g x j g f T } } n.b.Y 1 U R E - f f f f , u e `.3X4X4X4X4X4X4X4X",
"4X4X4X4X4X4X4X:Xy a : 2 U D D D 1 1 - I S I Q S.} T g g - g - g 1 - U f : 0 : y 9X4X4X4X4X4X4X4X",
"4X4X4X4X4X4X4X>X4 $ e < 1 2 1 1 - g f U I - h ! E U - 1 - D D U g 1 2 1 a # u . 7X4X4X4X4X4X4X4X",
"4X4X4X4X4X4X4X>Xy e $ * : < < 1 f f f I U g - g f f 1 D I I I D , : , # $ 5 w y 7X4X4X4X4X4X4X4X",
"4X4X4X4X4X4X4X4X].. e u e e : < g I f - 1 U D D - f D 2 I I D 1 : e u p p 6 . *X4X4X4X4X4X4X4X4X",
"4X4X4X4X4X4X4X4X4XP s * e 6 e : 2 I U 2 2 1 I D I f 2 2 1 1 1 < : e 5 e : 3 _.4XwXeXeXrX6X4X4X4X",
"4X4X4X4X4X4X6X4X4X>X3 : 3 3 6 5 , 1 D < : < 1 I - 1 < ; 1 h > ; u r 3 5 : t ,X1XyXuXiXiX7X4X4X4X",
"4X4X4X4X4X4X4X4X4X4X;XX.y $ & a q e : & & & g D I 1 : 0 & % e p e u & y ] 4X4X4XyXuXuXiX8X4X4X4X",
"4X4X4X4X4X4X4X4X4X4X4X6X[.e r w 5 e 0 e 5 e : < , : e e : e t X 9 e G OX4X4X4X1XtXuXiXiX8X4X4X4X",
"4X4X4X4X4X4X4X4X4X4X4X4X4Xt w N   5 & e t e 0 9 $ 5 6 q * 9 t w p w X.3X4X4X4X4XtXiXuXiX7X4X4X4X",
"4X4X4X4X4X4X4X4X4X4X4X4X4X;XW l s 0 0 3 4 4 0 5 0 5 6 w e u $ z s #.9X3X4X4X4X4XyXiXiXiX8X4X4X4X",
"4X4X4X4X4X4X4X4X4X4X4X4X4X,X}.!.S.i 4 7 o o 6 e e r 8 o 7 O K D.~. X7X3XqXeXeXrXeXwXwXwX6X4X4X4X",
"4X4X4X4X4X4X4X4X4X4X4X4X6X}.G.4.j.y + B m @ 4 w 3 + n B n @ L ( z.^.Q.4XtXiXiXiX8X4X4X4X4X4X4X4X",
"4X4X4X4X4X4X4X4X4X4X4X6X5XP.x.o.c *.*.C m m M V V B n V C *.$.( j.V.I.3XtXuXuXiX8X4X4X4X4X4X4X4X",
"4X4X4X4X4X4X4X4X4X4X4X6X0XA.l.| _ X.V N m C Z A Z %.C n X.B X.S. .v.Y.4XtXiXuXiX8X4X4X4X4X4X4X4X",
"4X4X4X4X4X4X4X4X4X4X4X4X7X~.T.s.b...W # 8 %.*.=.=.-.V 4 X o. .m.o.~.N.4X8XqXqXqX7X4X4X4X4X4X4X4X",
"4X4X4X4X4X4X4X4X4X4X4X4X4X2X}.N.Z.l.h.S.o.y X.&.&.N s +.| b.l.x.I. X3X3X4X4X1X4X4X4X4X4X4X4X4X4X",
"4X4X4X4X4X4X4X4X4X4X4X4X4X4X1X2XF.Q.Q.A.Z.) c B.c c j.v.L.D.Q.Q.2X2X4X4X4X4X4X4X4X4X4X4X4X4X4X4X",
"4X4X4X4X4X4X4X4X4X4X4X4X4X4X3X4X6X X^.^.!.L.^.M.!./.L.^.^.R.=X4X4X4X4X4X4X4X4X4X4X4X4X4X4X4X4X4X",
"4X4X4X4X4X4X4X4X4X4X4X4X4X4X4X4X4X4X6X4X4X-X=X@X=X X=X2X7X7X4X4X4X4X4X4X4X4X4X4X4X4X4X4X4X4X4X4X"
};
