/* XPM */
static char *result[] = {
/* columns rows colors chars-per-pixel */
"48 48 230 2 ",
"   c #1A3F23",
".  c #263E2E",
"X  c #2A3D28",
"o  c #3B3F2A",
"O  c #293B34",
"+  c #393B32",
"@  c #4B3F30",
"#  c #16492A",
"$  c #1D4B2D",
"%  c #17562A",
"&  c #1D552C",
"*  c #1A4F31",
"=  c #0E5734",
"-  c #0D5E3C",
";  c #145635",
":  c #1C5334",
">  c #135A34",
",  c #1A5937",
"<  c #1A5639",
"1  c #135D3C",
"2  c #1A593A",
"3  c #24442D",
"4  c #2C422E",
"5  c #224D2D",
"6  c #28482E",
"7  c #38432C",
"8  c #245427",
"9  c #22522E",
"0  c #274735",
"q  c #2C4434",
"w  c #244C32",
"e  c #2B4B34",
"r  c #2C4A38",
"t  c #334837",
"y  c #225133",
"u  c #2A5434",
"i  c #29563A",
"p  c #225938",
"a  c #335838",
"s  c #1E6E29",
"d  c #0D613D",
"f  c #13613D",
"g  c #1B643E",
"h  c #1B6839",
"j  c #267F2A",
"k  c #246439",
"l  c #236C3C",
"z  c #366B39",
"x  c #2A783A",
"c  c #347B39",
"v  c #4D452B",
"b  c #54452E",
"n  c #574B2F",
"m  c #494A38",
"M  c #574834",
"N  c #4D5D3E",
"B  c #585339",
"V  c #675838",
"C  c #46703F",
"Z  c #7E6C3E",
"A  c #7B723C",
"S  c #0E5C40",
"D  c #145E41",
"F  c #1C5C44",
"G  c #2F4D44",
"H  c #265641",
"J  c #335B43",
"K  c #395946",
"L  c #0D6141",
"P  c #126141",
"I  c #1D6843",
"U  c #266745",
"Y  c #246B45",
"T  c #386446",
"R  c #267244",
"E  c #2C7344",
"W  c #2B7C42",
"Q  c #2C764C",
"!  c #2C7A4B",
"~  c #357645",
"^  c #3C7C46",
"/  c #31744B",
"(  c #367D4E",
")  c #397D4D",
"_  c #286E5F",
"`  c #3E6655",
"'  c #2E7A55",
"]  c #2C7C54",
"[  c #317551",
"{  c #347D52",
"}  c #3A7E52",
"|  c #337F58",
" . c #3B7D5A",
".. c #4F5C4A",
"X. c #43754C",
"o. c #426C57",
"O. c #447557",
"+. c #427A5D",
"@. c #50765B",
"#. c #7A6C49",
"$. c #6F6153",
"%. c #826E4B",
"&. c #8A764D",
"*. c #278E1F",
"=. c #349623",
"-. c #369A24",
";. c #399925",
":. c #35962D",
">. c #36992D",
",. c #399B2C",
"<. c #2D823C",
"1. c #398C35",
"2. c #388539",
"3. c #358B3C",
"4. c #3B8D3B",
"5. c #2B983E",
"6. c #369533",
"7. c #3A9433",
"8. c #369932",
"9. c #3A9A33",
"0. c #34923B",
"q. c #3A933C",
"w. c #35983C",
"e. c #3C9B3B",
"r. c #34A12B",
"t. c #3BA23A",
"y. c #34B333",
"u. c #419A38",
"i. c #419C3C",
"p. c #47A937",
"a. c #43A23D",
"s. c #55B438",
"d. c #2E8442",
"f. c #358543",
"g. c #3B8443",
"h. c #368C43",
"j. c #3B8A45",
"k. c #36814D",
"l. c #3A824C",
"z. c #358949",
"x. c #3C8A4C",
"c. c #2B9C41",
"v. c #3C9546",
"b. c #3C9D45",
"n. c #3D934B",
"m. c #358352",
"M. c #3A8252",
"N. c #368F56",
"B. c #3C845C",
"V. c #3D9159",
"C. c #3DA343",
"Z. c #3AA54C",
"A. c #3EA455",
"S. c #3F8565",
"D. c #43854E",
"F. c #439B42",
"G. c #42944B",
"H. c #479A4A",
"J. c #478656",
"K. c #4A9554",
"L. c #539659",
"P. c #44A443",
"I. c #49A545",
"U. c #45A944",
"Y. c #4BAA44",
"T. c #45A44C",
"R. c #4AA54A",
"E. c #44A94D",
"W. c #4BAA4A",
"Q. c #54AA41",
"!. c #51AA49",
"~. c #4BB347",
"^. c #53B245",
"/. c #4AAA55",
"(. c #55A655",
"). c #51AB55",
"_. c #53B25C",
"`. c #61B447",
"'. c #478965",
"]. c #52876E",
"[. c #499465",
"{. c #54956B",
"}. c #568C72",
"|. c #449271",
" X c #579774",
".X c #5B947A",
"XX c #539D7A",
"oX c #5C9B7C",
"OX c #60997E",
"+X c #5BA966",
"@X c #54AE6A",
"#X c #5EA576",
"$X c #3DAB85",
"%X c #41AD87",
"&X c #45AE88",
"*X c #5DA583",
"=X c #4EB38D",
"-X c #5EB781",
";X c #52B48E",
":X c #56B691",
">X c #5BB993",
",X c #67A887",
"<X c #64AD8C",
"1X c #64B783",
"2X c #64B38B",
"3X c #66B689",
"4X c #67B592",
"5X c #6CB593",
"6X c #6DBA95",
"7X c #6EBE99",
"8X c #74BA98",
"9X c #67C09A",
"0X c #6DC39D",
"qX c #73C296",
"wX c #71C49E",
"eX c #73C7A1",
"rX c #7AC6A3",
"tX c #75C8A2",
"yX c #7BC9A4",
"uX c #7ECCA8",
"iX c #80C9A7",
"pX c #82CBA8",
"aX c #95C6A2",
"sX c #87D1AE",
"dX c #93CFB1",
"fX c #8ED4B3",
"gX c #96D8B8",
"hX c #98D8B9",
"jX c #A3DFC2",
"kX c #A5E0C3",
/* pixels */
"eXeXeXeXeXeXeXeXeXeXeXeXeXeXeXeXeXeXeXeXeXeXeXoX<XwXeXeXeXeXeXeXeXeXeXeXeXeXeXeXeXeXeXeXeXeXeXeX",
"eXeXeXeXeXeXeXeXeXeXeXeXeXeXeXeXeXeXeXeXeXeXOX@XD.2XeXtXeXeXeXeXeXeXeXeXeXeXeXeXeXeXeXeXeXeXeXeX",
"eXeXeXeXeXeXeXeXeXeXeXeXeXeXeXeXeXeXeXeX5X5X{.t.F.#X5X9XeXeXeXeXeXeXeXeXeXeXeXeXeXeXeXeXeXeXeXeX",
"eXeXeXeXeXeXeXeXeXeXeXeXeXeXeXeXeXtXeX|.J.D.G.`.Q.D.m.L..XtXeXeXeXeXeXeXeXeXeXeXeXeXeXeXeXeXeXeX",
"eXeXeXeXeXeXeXeXeXeXeXeXeXeXeXeXeXiXz +X_.F.F.p.^.q._.I.+Xo.wXwXeXeXeXeXeXeXeXeXeXtXeXeXeXeXeXeX",
"eXeXeXeXeXeXeXeXeXeXeXeXeXeXeXeX7X4Xz i.p.7.W.~.^.!.7.~.1.X.5XwXeXeXeXeXeXeXeXeXeXeXeXeXeXeXeXeX",
"eXeXeXeXeXeXeXeXeXeXeXeX6X$X:XuX].u.Q.^.U.E.T.^.Q.Y.R.Y.^.!.G..XeXeXeXeXeXeXeXeXeXeXeXeXeXeXeXeX",
"eXeXeXeXeXeXeXeXeXeXeXeX7X$X>XtX,XG.H.!.W.U.Y.p.a.P.W.^.~.~.C 8XeXeXeXeXeXeXeXeXeXeXeXeXeXeXeXeX",
"eXeXeXeXeXeXeXeXeXeXeXeX7X$X:X<XQ j.F.Y.W.Y.Y.Y.Y.Y.Y.W.Y.n.h.z <XeXeXeXeXeXeXeXeXeXeXeXeXeXeXeX",
"eXeXeX0XeXeXeXeXeXeXeXeX7X%X|.U Q T.Y.U.U.W.W.R.W.W.Y.I.R.E.K.Y U 4XrXrXeXeXeXeXeXeXeXeXeXeXeXeX",
"eXeX0X$X=XeXeXeXeXeXeXtX6Xl g.x h W n.W.U.Y.s.R.Y.!.~.I.T.H.( f l.x H wXeXeXeXeXeXeXeXeXeXeXeXeX",
"eXeX0X%X;XtXeXeXeXeXtXtX*Xx 0.F.4.0.6.9.P.W.R.W.W.p.p.a.9.0.j.4.9.0.[ <XeXeXeXeXeXeXeXeXeXeXeXeX",
"eXeXwX$X;XtXeXtXeXeXeXtX+.z.b.7.>.0.6.8.>.9.e.P.a.9.9.8.>.4.F.9.:.q.d.}.yXeXeXeXeXeXeXeXeXeXeXeX",
"eXeX0X=X>X0X0XwX0XeXeX*X( T.p.*.w.e.8.;.;.;.;.9.6.6.:.>.8.;.Y.R.8.9.9.+.4XeXeXeXeXeXeXeXeXeXeXeX",
"eXeXeXtX0X$X%X%X;XtXeX2XQ <.:.,.e.Y.i.:.:.>.>.7.8.9.9.a.9.>.e.t.,.6.j  .5XeXeXeXeXeXeXeXeXeXeXeX",
"eXeXeXtX0X%X&X&X;XtX4X[  .} i.=.W.I.e.7.6.7.9.8.8.>.8.U.U.v.6.-.=.0.! (  .rXeXeXeXeXeXeXeXeXeXeX",
"eXtXeXeX0X%X&X&X:XtXH z.<.M.3.r.a.9.7.7.8.6.8.>.8.>.9.Y.Y.9.6.,.,.v.M.l.( K eXeXeXeXeXeXeXeXeXeX",
"eXeXeXeX0X;X;X;X>X.Xc 6.q.d.<.6.3.>.>.>.-.-.8.:.>.>.>.t.C.:.6.v.z.x ! 2.3.c *XeXeXeXeXeXeXeXeXeX",
"eXeXeXeXtXtXtXtX.XJ f.1.K.[ h s ( 0.7.8.>.>.>.8.9.7.:.:.8.e.3.W R R M.f.f.D.J <XeXeXeXeXeXeXeXeX",
"eXeXeXeXeXeXeXtX<XH k E M.B.j.D.{ k.3.7.h.h.8.>.9.q.4.1.7.3.f.( ( ( M.( E , ` 5XeXeXeXeXeXeXeXeX",
"eXeXeXeXeXeXeXeX,XK # P ! h.6.3.m.m.f.4.k.m.7.-.:.h.l.l.j.( M.( } M.) ( > , K 6XeXeXeXeXeXeXeXeX",
"eXeXeXeXeXeXeXeX*X. H Y z.:.,.e.z.{ l.l.{ m.j.,.7.z.M.} { } } ( ( } ) ) U * r <XeXeXeXeXeXeXeXeX",
"eXeXeXeXeXeXeXeX5XJ 2 F ~ e.7.3.} ) }  .M.k.l.h.z.f.) ) l.M.( M.M.l.M.E 2 F O.8XeXeXeXeXeXeXeXeX",
"eXeXeXeXeXeXeX7XK ; U , ! M.M.M.m.( m.M.m.M.{ k.k.M.{ } M.M.l.{ { M.} [ ; 1 < ` eXeXeXeXeXeXeXeX",
"eXeXeXeXeXeXeX6Xr > ; % g / Y Y { M.l.M.k.{ M.M.) M.) ) } l.( { l / / , < U < K eXeXeXeXeXeXeXeX",
"eXeXeXeXeXeXtX].w > f 1 > 1 1 I { l.( M.{ l.) M.} M.( k.k.) M.{ f f > 1 2 < : w XXeXeXeXeXeXeXeX",
"eXeXeXeXeXwXeXO e 2 1 P - D 1 = Q M.M.M.E m.) } M.M.k.E m.l.k.I P 1 1 S D = : r K tXeXeXeXeXeXeX",
"eXeXeXeXeXeXeX@.r $ , 1 1 D D 1 I } { Q f Q M.} M.{ E I Q B.{ f f - P L = U $ 3 ].wXeXeXeXeXeXeX",
"eXeXeXeXeXeXwX7X].X : 1 S P P 1 f l g f d I { { M.M.P f P U Y - - - f d , y 6 }.wXtXeXeXeXeXeXeX",
"eXeXeXeXeXeXeX6Xe i : 2 P D 1 D 1 1 - L L 1 R J.} I f 1 - f - f P - L d : : & r pXwXeXeXeXeXeXeX",
"eXeXeXeXeXeXeX8X4 $ : : 1 2 1 1 f d d P L - P E Y L 1 1 - P 1 P 1 1 f > p # e . iXeXeXtXeXeXeXeX",
"eXeXeXeXeXeXeX6Xt 0 $ : : : < 1 d d d L P f f f d d D D L L L D ; : p * $ 5 0 t yXtXtXwXeXeXeXeX",
"eXeXeXeXeXeXeXrXoX. e y 5 5 y < P L d 1 1 f L 1 L d D 1 S L P 1 : y w i i 0 3 <XeXeXeXeXeXeXeXeX",
"eXeXeXeXeXeXeXeXtXK i $ 5 e w : 2 L P 1 , 1 D P L f 2 < 1 f 1 < : w 6 y w 3 ].eXsXfXfXfXtXeXeXeX",
"eXeXeXeXeXeXeXeXeX8X3 : $ 3 0 5 : 1 1 < : < D L d > < < 2 f > ; y e $ 5 * e 7XeXhXkXkXkXuXeXeXeX",
"eXeXeXeXeXeXeXeXeXeX5X..t $ & y w r : % & & 1 D P 1 : $ & % w i 3 8 5 G o.eXtX0XhXkXjXkXuXeXeXeX",
"eXeXwX0X[.6X7X].tX7XtXrXOXw e 4 6 : 5 y 5 y : , , : e w & : r X 8 w G *X0XeXeXwXhXjXjXjXuXwXeXeX",
"eXeXwX<XZ.M.2.B.c J.eXeXrXr q m   5 9 w q 6 & 5 9 * 6 0 w 8 e r i 0 ..eXeXeXtXwXdX{.dXhX].eX0XeX",
"eX X{.K.P.b.9.z.p.n.rXeXtX5XT k a 9 5 6 4 4 9 5 9 5 4 0 0 y $ k a @.sXwXwX0XwX9XrXb.J.4.B.c J.wX",
"eX,Xw.6.T.U.R.4.U.W rXeXeX7X@X/.J.u 4 7 o 7 6 e 0 6 7 7 7 O J K.(.+XiXwXsXgX,XoXK.P.b.9.h.p.H.rX",
"tX'.XX'.y.p.P.C.9.XXeXeXtX+XP.0.l.t + b M @ 4 e . o m M b + a ~ c./.(.wXhXjX5Xe.1.T.p.R.4.W.W rX",
"tXF v.u.5.e.V.a.N.1XeXeXrXY.v.X.z #.%.V b b n B B M v n V &.$.X.j.n.T.wXhXjX.X,XJ.y.p.H.C.9.XXeX",
"eX|.] F.3.<.R 2.6.[.eXtXaXH.x. .~ ..B m b V Z A #.#.V b B m N +.| G.Q.wXhXjXF n.i.c.q.V.t.N.1XeX",
"eXeX'.' 7._ 1.7.3XeXeXeXtX(.(.2.m. .T $ 7 #.%.&.&.&.B X X J.' S.X.(./.wXiXdX X] P.3.<.R 2.6.[.eX",
"eXeXeX<X-Xh ' n.0XeXeXeXtXqX@XA.G.M.k.J.X.t B $.$.m a +.M.m.x.v.E.@XwXtXwXeX0XS.' u._ 1.7.2XeXeX",
"eXeXeXeX0XXX<XwXtXeXeXtXeXeX9XqX(.R.T.K.j.^ ~ D.z z g.n.G.L.T./.qX0XwXtXeXeXeXeX<X*Xl Q n.eXeXeX",
"eXeXeXeXeXeXeXeXeXeXwXtXtXtXwXwXeX#X_./._.T.).Z./.).T.).).~.1XeXeXeXtXtXeXeXeXeXwXwXXX:XeXeXeXeX",
"eXeXeXeXeXeXeXeXeXeXtXtXwXtXwXtXeXeXeXeXeX1X1X1X1X-X1XqXrXrXeXeXeXeXeXeXeXeXeXeXeXeXeXeXeXeXeXeX"
};
